<svg xmlns="http://www.w3.org/2000/svg" xmlns:xlink="http://www.w3.org/1999/xlink" width="608" height="483" viewBox="0 0 608 483">
  <defs>
    <clipPath id="clip-path">
      <rect id="Rectangle_364" data-name="Rectangle 364" width="483" height="608" transform="translate(-886.822 -17137.232)" fill="#fff" stroke="#707070" stroke-width="1"/>
    </clipPath>
  </defs>
  <g id="Mask_Group_10" data-name="Mask Group 10" transform="translate(-16529.232 886.822) rotate(90)" clip-path="url(#clip-path)">
    <path id="Path_2168" data-name="Path 2168" d="M2.768,638.794c2.007-42.186,7.829-84,7.023-126.617C8.6,449.131-1.9,388.1.3,324.48,3.828,222.847,38.665,128.594,85.941,72.211S191.534-5.078,247.711,1.021C307.424,7.5,367.523,45.477,409.2,122.174s61.7,195.4,41.569,297.711c-16.246,82.568-56.358,151.032-58.718,238.266-1.083,40.034,6.174,79.473,5.131,119.51-2.547,97.768-53.432,171.164-105,202.152-58.312,35.039-150.062,44.043-203.163-22.082-47.3-58.9-83.63-176.293-86.735-280.42C1.9,664.416,2.159,651.588,2.768,638.794Z" transform="matrix(-0.995, -0.105, 0.105, -0.995, -125.722, -16180.036)" fill="#d9ebf8"/>
  </g>
</svg>
