<svg id="Group_1870" data-name="Group 1870" xmlns="http://www.w3.org/2000/svg" width="43.329" height="43.296" viewBox="0 0 43.329 43.296">
  <g id="Group_705" data-name="Group 705" transform="translate(0)">
    <g id="Group_704" data-name="Group 704" transform="translate(0)">
      <g id="Group_703" data-name="Group 703">
        <g id="Group_702" data-name="Group 702">
          <path id="Path_870" data-name="Path 870" d="M5596.793,1870.608a.924.924,0,0,1-.856-.578,21.661,21.661,0,0,1,36.964-21.67.922.922,0,1,1-1.436,1.157,19.817,19.817,0,0,0-33.817,19.824.923.923,0,0,1-.855,1.267Z" transform="translate(-5594.351 -1840.298)" fill="#1a256c"/>
          <path id="Path_871" data-name="Path 871" d="M5641.415,1953.871a21.633,21.633,0,0,1-16.89-8.064.922.922,0,0,1,1.437-1.157,19.815,19.815,0,0,0,33.739-20.01.922.922,0,0,1,1.7-.707,21.648,21.648,0,0,1-19.989,29.939Z" transform="translate(-5619.707 -1910.575)" fill="#1a256c"/>
          <path id="Path_872" data-name="Path 872" d="M5804.91,1862.333a.926.926,0,0,1-.1-.005l-5.917-.635a.922.922,0,1,1,.2-1.834l5,.537.539-5a.922.922,0,1,1,1.833.2l-.638,5.915A.921.921,0,0,1,5804.91,1862.333Z" transform="translate(-5766.706 -1852.375)" fill="#1a256c"/>
          <path id="Path_873" data-name="Path 873" d="M5618.739,2063.78a.982.982,0,0,1-.1-.005.922.922,0,0,1-.818-1.015l.637-5.917a.922.922,0,0,1,1.016-.818l5.914.638a.922.922,0,1,1-.2,1.833l-5-.539-.538,5A.923.923,0,0,1,5618.739,2063.78Z" transform="translate(-5614.203 -2022.808)" fill="#1a256c"/>
        </g>
      </g>
    </g>
  </g>
  <g id="Group_709" data-name="Group 709" transform="translate(10.164 9.573)">
    <g id="Group_708" data-name="Group 708">
      <g id="Group_707" data-name="Group 707">
        <g id="Group_706" data-name="Group 706">
          <path id="Path_874" data-name="Path 874" d="M5672.588,1957.206a.918.918,0,0,1-.4-.091l-11.294-5.439a.921.921,0,0,1-.522-.831V1938.69a.922.922,0,0,1,1.322-.831l11.294,5.44a.921.921,0,0,1,.521.831v12.154a.922.922,0,0,1-.922.922Zm-10.372-6.941,9.449,4.551v-10.108l-9.449-4.552Z" transform="translate(-5660.372 -1932.335)" fill="#1a256c"/>
          <path id="Path_875" data-name="Path 875" d="M5672.588,1915.187a.919.919,0,0,1-.4-.091l-11.295-5.438a.923.923,0,0,1,0-1.662l11.3-5.426a.924.924,0,0,1,.8,0l11.293,5.438a.922.922,0,0,1,0,1.662l-11.3,5.426A.92.92,0,0,1,5672.588,1915.187Zm-9.166-6.359,9.167,4.414,9.169-4.4-9.166-4.413Z" transform="translate(-5660.372 -1902.478)" fill="#1a256c"/>
          <path id="Path_876" data-name="Path 876" d="M5734.657,1957.206a.923.923,0,0,1-.922-.922V1944.13a.922.922,0,0,1,.522-.831l11.293-5.44a.922.922,0,0,1,1.322.831v12.155a.922.922,0,0,1-.522.831l-11.293,5.439A.921.921,0,0,1,5734.657,1957.206Zm.922-12.5v10.108l9.449-4.551v-10.108Zm10.372,6.136h0Z" transform="translate(-5722.44 -1932.335)" fill="#1a256c"/>
          <path id="Path_877" data-name="Path 877" d="M5750.115,2023.339a.922.922,0,0,1-.4-1.753l2.154-1.039a.922.922,0,1,1,.8,1.661l-2.154,1.039A.918.918,0,0,1,5750.115,2023.339Z" transform="translate(-5735.518 -2002.292)" fill="#1a256c"/>
          <path id="Path_878" data-name="Path 878" d="M5750.117,2010.078a.922.922,0,0,1-.4-1.752l1.458-.7a.922.922,0,1,1,.8,1.661l-1.458.7A.915.915,0,0,1,5750.117,2010.078Z" transform="translate(-5735.52 -1991.357)" fill="#1a256c"/>
        </g>
      </g>
    </g>
  </g>
</svg>
