<svg id="Group_1869" data-name="Group 1869" xmlns="http://www.w3.org/2000/svg" width="53.831" height="35.283" viewBox="0 0 53.831 35.283">
  <g id="Group_713" data-name="Group 713" transform="translate(0 0)">
    <g id="Group_712" data-name="Group 712">
      <g id="Group_711" data-name="Group 711" transform="translate(1.625)">
        <path id="Path_879" data-name="Path 879" d="M1241.722,298.952h-5.1a1.137,1.137,0,1,1,0-2.274h3.968V288.1l-6.422-10.347h-9.193v18.922h1.33a1.137,1.137,0,1,1,0,2.274h-2.467a1.137,1.137,0,0,1-1.137-1.137v-21.2a1.137,1.137,0,0,1,1.137-1.137H1234.8a1.138,1.138,0,0,1,.966.537l6.926,11.16a1.133,1.133,0,0,1,.171.6v10.037A1.137,1.137,0,0,1,1241.722,298.952Z" transform="translate(-1190.653 -269.393)" fill="#1a256c"/>
        <path id="Path_880" data-name="Path 880" d="M1177.919,310.017h-2.565a1.136,1.136,0,0,1-1.137-1.137V303.4h-6.755a1.137,1.137,0,0,1,0-2.274h7.892a1.137,1.137,0,0,1,1.137,1.137v5.484h1.428a1.137,1.137,0,1,1,0,2.274Z" transform="translate(-1166.326 -280.459)" fill="#1a256c"/>
        <path id="Path_881" data-name="Path 881" d="M1181.346,288.781a1.137,1.137,0,0,1-1.137-1.137v-6.5a1.137,1.137,0,1,1,2.274,0v6.5A1.137,1.137,0,0,1,1181.346,288.781Z" transform="translate(-1172.317 -271.345)" fill="#1a256c"/>
        <path id="Path_882" data-name="Path 882" d="M1205.5,294.329h-10.218a1.137,1.137,0,0,1,0-2.274h9.081V271.536a5.156,5.156,0,0,0-1.248-3.336,4.4,4.4,0,0,0-3.271-1.155h-17.359v3.185a1.137,1.137,0,0,1-2.274,0v-4.322a1.137,1.137,0,0,1,1.137-1.137h18.5a6.57,6.57,0,0,1,4.912,1.854,7.417,7.417,0,0,1,1.88,4.941v21.626A1.136,1.136,0,0,1,1205.5,294.329Z" transform="translate(-1172.317 -264.771)" fill="#1a256c"/>
        <path id="Path_883" data-name="Path 883" d="M1234.26,317.84a5.929,5.929,0,1,1,5.927-5.928A5.935,5.935,0,0,1,1234.26,317.84Zm0-9.584a3.655,3.655,0,1,0,3.653,3.656A3.659,3.659,0,0,0,1234.26,308.256Z" transform="translate(-1193.085 -282.556)" fill="#1a256c"/>
        <path id="Path_884" data-name="Path 884" d="M1191.772,317.84a5.929,5.929,0,1,1,5.929-5.928A5.934,5.934,0,0,1,1191.772,317.84Zm0-9.584a3.655,3.655,0,1,0,3.656,3.656A3.659,3.659,0,0,0,1191.772,308.256Z" transform="translate(-1174.75 -282.556)" fill="#1a256c"/>
      </g>
      <path id="Path_885" data-name="Path 885" d="M1245.087,291.738h-12.359a1.137,1.137,0,0,1-1.137-1.137v-6.136a1.137,1.137,0,0,1,1.137-1.137h3.319a1.137,1.137,0,0,1,0,2.274h-2.182v3.863h11.222a1.137,1.137,0,1,1,0,2.274Z" transform="translate(-1192.867 -272.779)" fill="#1a256c"/>
      <path id="Path_886" data-name="Path 886" d="M1185.614,274.648h-13a1.137,1.137,0,1,1,0-2.274h13a1.137,1.137,0,0,1,0,2.274Z" transform="translate(-1166.922 -268.052)" fill="#1a256c"/>
      <path id="Path_887" data-name="Path 887" d="M1171.131,282.279h-3.669a1.137,1.137,0,0,1,0-2.274h3.669a1.137,1.137,0,1,1,0,2.274Z" transform="translate(-1164.701 -271.345)" fill="#1a256c"/>
      <path id="Path_888" data-name="Path 888" d="M1181.225,293.718h-10.17a1.137,1.137,0,1,1,0-2.274h10.17a1.137,1.137,0,0,1,0,2.274Z" transform="translate(-1166.251 -276.282)" fill="#1a256c"/>
      <path id="Path_889" data-name="Path 889" d="M1164.687,293.718h-.083a1.137,1.137,0,0,1,0-2.274h.083a1.137,1.137,0,0,1,0,2.274Z" transform="translate(-1163.467 -276.282)" fill="#1a256c"/>
    </g>
  </g>
</svg>
