<svg xmlns="http://www.w3.org/2000/svg" width="47.203" height="47.204" viewBox="0 0 47.203 47.204">
  <g id="Group_1868" data-name="Group 1868" transform="translate(0)">
    <g id="Group_699" data-name="Group 699" transform="translate(0)">
      <g id="Group_673" data-name="Group 673" transform="translate(8.492 6.711)">
        <g id="Group_669" data-name="Group 669">
          <g id="Group_668" data-name="Group 668">
            <path id="Path_836" data-name="Path 836" d="M6402.452,2385.675l.423-.473.037.056-.1.11c-.059.066-.042.144.009.229l2.129,3.461-3.019-1.4c.194.268,1.545,2.551,1.724,2.846l-3.7-1.695c-.095-.045-.178-.048-.237.017l-.1.11-.059-.03.98-1.1.06.03-.1.11c-.055.062-.019.118.072.158l2.1.929-.906-1.458-.493-.243c-.094-.045-.178-.049-.236.017l-.1.11-.064-.026.985-1.1.06.03-.1.11c-.059.066-.019.118.071.159l2.03.917c-.082-.112-1.171-1.876-1.171-1.876-.051-.085-.107-.119-.162-.058l-.1.114Z" transform="translate(-6399.561 -2381.969)" fill="#1a256c"/>
            <path id="Path_837" data-name="Path 837" d="M6448.446,2380.576l.032.049s-.5.326-.644.413c-.211.128-.382.168-.579-.1.127.8-1.353,1.608-1.8.727-.506-1,1.115-1.77.747-2.344-.2-.312-.415-.418-.7-.221-.432.3-.216.928.293.741-.006.382-.577.908-.933.626-.433-.337-.017-1.051.592-1.442a1.231,1.231,0,0,1,1.931.384l.746,1.164c.05.079.116.128.191.08Zm-1.358.116-.766-1.194c.019.442-.217.958-.183,1.327a.628.628,0,0,0,.47.58A.464.464,0,0,0,6447.088,2380.692Z" transform="translate(-6439.375 -2376.247)" fill="#1a256c"/>
            <path id="Path_838" data-name="Path 838" d="M6477.683,2362.595a.54.54,0,1,1-.905.581c-.328-.642-.644-.075-.742.23l.619,1.9c.028.09.079.147.165.125l.14-.045.019.056-1.393.455-.019-.056.14-.046c.083-.028.088-.109.057-.2l-.618-1.9a.213.213,0,0,0-.327-.128l-.015-.045a2.917,2.917,0,0,0,.986-.787l.032.021.182.554a1.774,1.774,0,0,1,.541-.765A.748.748,0,0,1,6477.683,2362.595Z" transform="translate(-6465.95 -2361.766)" fill="#1a256c"/>
            <path id="Path_839" data-name="Path 839" d="M6512.806,2358.167a.54.54,0,1,1-1.027.321c-.146-.706-.6-.242-.776.026l.1,1.992c0,.094.036.163.125.165l.147-.007,0,.059-1.463.071,0-.059.146-.007c.088,0,.114-.082.108-.182l-.1-1.992a.213.213,0,0,0-.281-.21l0-.047a2.935,2.935,0,0,0,1.159-.5l.025.028.028.582a1.782,1.782,0,0,1,.725-.594A.748.748,0,0,1,6512.806,2358.167Z" transform="translate(-6496.816 -2357.719)" fill="#1a256c"/>
            <path id="Path_840" data-name="Path 840" d="M6547.93,2364.114l-.014.057-.773-.178a.357.357,0,0,1-.307-.476,1.079,1.079,0,0,1-.894.211c-.471-.109-.781-.409-.585-1.258l.257-1.118c.057-.246-.207-.277-.207-.277l.01-.046a2.223,2.223,0,0,0,1.239-.167l.018.034-.456,1.978c-.243,1.054.568.728.65.506l.38-1.651c.057-.246-.207-.277-.207-.277l.011-.046a2.234,2.234,0,0,0,1.239-.167l.017.035-.6,2.613c-.021.092,0,.174.077.193Z" transform="translate(-6528.151 -2360.493)" fill="#1a256c"/>
            <path id="Path_841" data-name="Path 841" d="M6574.88,2375.671l-.029.052-1.289-.7.028-.052.13.07c.077.042.139-.012.187-.1l.907-1.683c.365-.679-.287-.6-.6-.432l-.955,1.771c-.045.083-.046.162.023.206l.129.07-.028.052-1.289-.7.028-.052.129.07c.077.042.14-.012.188-.1l.946-1.756a.215.215,0,0,0-.127-.323l.022-.041a3.022,3.022,0,0,0,1.246.17l.006.037-.268.5a1.6,1.6,0,0,1,.964-.128c.41.107.718.527.364,1.185l-.863,1.6c-.045.083-.05.167.022.206Z" transform="translate(-6551.792 -2370.35)" fill="#1a256c"/>
            <path id="Path_842" data-name="Path 842" d="M6604.135,2386.455l.254.209-.04.05-.254-.209-1.68,2.047c-.059.073-.081.146-.021.2l.118.1-.037.045-.57-.474c-.2-.172-.31-.346-.044-.669l1.369-1.669a.209.209,0,0,0-.035-.318l-.1-.082.041-.05c.455.374,1.008.34,1.72-.111l.008.045Z" transform="translate(-6577.92 -2382.252)" fill="#1a256c"/>
            <path id="Path_843" data-name="Path 843" d="M6613.766,2404.451l-.057.023-.092-.114a.187.187,0,0,0-.229-.019l-2.808,1.264c-.25.112-.893.346-1.253-.059a.472.472,0,0,1-.035-.668.444.444,0,0,1,.757.4c-.039.5.361.3.55.22.056-.023.105-.048.167-.075l-.264-.324c-.145-.178-.2-.355.056-.705l1.343-1.847c.059-.086.1-.177.042-.247l-.093-.114.035-.051.923,1.137-.035.051-.092-.114c-.056-.06-.118-.033-.176.045l-1.506,2.064,2.32-1.043c.092-.045.14-.1.092-.166l-.1-.119.057-.023Z" transform="translate(-6584.509 -2396.91)" fill="#1a256c"/>
          </g>
        </g>
        <g id="Group_672" data-name="Group 672" transform="translate(6.165 27.685)">
          <g id="Group_671" data-name="Group 671">
            <g id="Group_670" data-name="Group 670">
              <path id="Path_844" data-name="Path 844" d="M6455.921,2594.492l-.045.042-.127-.074a.2.2,0,0,0-.23.057l-1.682,1.583-.73,1.263c-.047.082-.054.152.02.2l.127.073-.029.051-1.268-.732.029-.051.128.073c.077.044.14-.007.189-.094l.721-1.247.531-2.248a.191.191,0,0,0-.062-.233l-.132-.077.014-.059,1.273.736-.014.059-.132-.076c-.074-.036-.117.014-.138.11l-.489,2.081,1.559-1.463c.072-.067.094-.128.026-.175l-.132-.076.044-.042Z" transform="translate(-6451.957 -2593.021)" fill="#1a256c"/>
              <path id="Path_845" data-name="Path 845" d="M6479.426,2621.1a1.438,1.438,0,0,1-1.049-1.907,1.472,1.472,0,0,1,1.918-.953,1.088,1.088,0,0,1,.77,1.231l-1.786.36a1,1,0,0,0,1.824.417l0,.044A1.41,1.41,0,0,1,6479.426,2621.1Zm-.155-1.358.843-.189c.094-.279.241-1.288-.232-1.271-.312.007-.648.758-.621,1.353A.455.455,0,0,0,6479.271,2619.739Z" transform="translate(-6475.195 -2615.199)" fill="#1a256c"/>
              <path id="Path_846" data-name="Path 846" d="M6515.2,2626.834v.059s-.594-.007-.764-.017c-.248-.011-.411-.074-.426-.4-.341.734-2.02.579-1.9-.4.137-1.109,1.914-.846,1.93-1.528.008-.371-.111-.579-.459-.575-.523.006-.7.649-.169.779-.219.313-.987.431-1.125,0-.17-.522.573-.882,1.3-.866.641.014,1.412.22,1.387,1.4l-.03,1.382c0,.094.025.171.113.173Zm-1.192-.662.032-1.417c-.231.377-.715.673-.893,1a.626.626,0,0,0,.066.743A.464.464,0,0,0,6514.011,2626.172Z" transform="translate(-6505.029 -2620.248)" fill="#1a256c"/>
              <path id="Path_847" data-name="Path 847" d="M6548.9,2618.022a.54.54,0,1,1-.929.542c-.3-.656-.64-.1-.751.2l.539,1.92c.026.091.073.151.16.133l.142-.04.016.057-1.411.4-.016-.056.142-.04c.085-.023.093-.1.066-.2l-.539-1.92a.212.212,0,0,0-.32-.142l-.013-.045a2.948,2.948,0,0,0,1.019-.744l.03.022.158.561a1.776,1.776,0,0,1,.574-.742A.747.747,0,0,1,6548.9,2618.022Z" transform="translate(-6534.924 -2614.805)" fill="#1a256c"/>
              <path id="Path_848" data-name="Path 848" d="M6581.572,2605.828c.245.463-.189,1.03-.883,1.419-.62.348-1.112.4-1.346.133a.44.44,0,0,1,.1-.719c.334-.185.6.063.5.312s.256.423.692.18c.394-.212.52-.738.018-.857-.666-.147-1.745.314-2.143-.38-.257-.449.156-1.126.862-1.455.48-.228.769-.148.928-.381l.058.007c.037.29.116.665.156.947l-.051.029c-.224-.353-.6-.709-1.092-.474-.38.177-.437.7.049.819C6579.992,2605.553,6581.222,2605.215,6581.572,2605.828Z" transform="translate(-6563.548 -2602.778)" fill="#1a256c"/>
            </g>
          </g>
        </g>
      </g>
      <g id="Group_675" data-name="Group 675" transform="translate(20.525 16.612)">
        <g id="Group_674" data-name="Group 674">
          <path id="Path_849" data-name="Path 849" d="M6501.833,2443.811a2.394,2.394,0,0,0,2.658-1.933h1.625v15.375H6503.7v-11.729h-1.867Z" transform="translate(-6501.833 -2441.878)" fill="#1a256c"/>
        </g>
      </g>
      <g id="Group_696" data-name="Group 696" transform="translate(6.986 16.292)">
        <g id="Group_676" data-name="Group 676" transform="translate(0 7.795)">
          <path id="Path_850" data-name="Path 850" d="M6386.764,2505.991a.584.584,0,1,1,.584.584A.584.584,0,0,1,6386.764,2505.991Z" transform="translate(-6386.764 -2505.407)" fill="#1a256c"/>
        </g>
        <g id="Group_677" data-name="Group 677" transform="translate(0.131 9.803)">
          <path id="Path_851" data-name="Path 851" d="M6387.882,2523.138a.584.584,0,1,1,.653.506A.584.584,0,0,1,6387.882,2523.138Z" transform="translate(-6387.877 -2522.481)" fill="#1a256c"/>
        </g>
        <g id="Group_678" data-name="Group 678" transform="translate(0.513 11.78)">
          <path id="Path_852" data-name="Path 852" d="M6391.141,2540.011a.584.584,0,1,1,.712.42A.584.584,0,0,1,6391.141,2540.011Z" transform="translate(-6391.122 -2539.281)" fill="#1a256c"/>
        </g>
        <g id="Group_679" data-name="Group 679" transform="translate(1.14 13.693)">
          <path id="Path_853" data-name="Path 853" d="M6396.49,2556.342a.584.584,0,1,1,.758.328A.584.584,0,0,1,6396.49,2556.342Z" transform="translate(-6396.449 -2555.543)" fill="#1a256c"/>
        </g>
        <g id="Group_680" data-name="Group 680" transform="translate(2.001 15.513)">
          <path id="Path_854" data-name="Path 854" d="M6403.844,2571.875a.584.584,0,1,1,.793.23A.585.585,0,0,1,6403.844,2571.875Z" transform="translate(-6403.772 -2571.01)" fill="#1a256c"/>
        </g>
        <g id="Group_681" data-name="Group 681" transform="translate(3.084 17.21)">
          <path id="Path_855" data-name="Path 855" d="M6413.086,2586.363a.584.584,0,1,1,.815.129A.584.584,0,0,1,6413.086,2586.363Z" transform="translate(-6412.975 -2585.436)" fill="#1a256c"/>
        </g>
        <g id="Group_682" data-name="Group 682" transform="translate(29.024 17.149)">
          <path id="Path_856" data-name="Path 856" d="M6634.5,2585.842a.584.584,0,1,1-.129-.815A.583.583,0,0,1,6634.5,2585.842Z" transform="translate(-6633.448 -2584.915)" fill="#1a256c"/>
        </g>
        <g id="Group_683" data-name="Group 683" transform="translate(30.098 15.447)">
          <path id="Path_857" data-name="Path 857" d="M6643.678,2571.311a.584.584,0,1,1-.23-.793A.584.584,0,0,1,6643.678,2571.311Z" transform="translate(-6642.582 -2570.446)" fill="#1a256c"/>
        </g>
        <g id="Group_684" data-name="Group 684" transform="translate(30.951 13.623)">
          <path id="Path_858" data-name="Path 858" d="M6650.957,2555.743a.584.584,0,1,1-.328-.758A.583.583,0,0,1,6650.957,2555.743Z" transform="translate(-6649.831 -2554.944)" fill="#1a256c"/>
        </g>
        <g id="Group_685" data-name="Group 685" transform="translate(31.569 11.707)">
          <path id="Path_859" data-name="Path 859" d="M6656.229,2539.387a.584.584,0,1,1-.42-.711A.584.584,0,0,1,6656.229,2539.387Z" transform="translate(-6655.079 -2538.657)" fill="#1a256c"/>
        </g>
        <g id="Group_686" data-name="Group 686" transform="translate(31.942 9.728)">
          <path id="Path_860" data-name="Path 860" d="M6659.41,2522.5a.584.584,0,1,1-.506-.652A.584.584,0,0,1,6659.41,2522.5Z" transform="translate(-6658.247 -2521.842)" fill="#1a256c"/>
        </g>
        <g id="Group_687" data-name="Group 687" transform="translate(32.063 7.719)">
          <path id="Path_861" data-name="Path 861" d="M6660.449,2505.346a.583.583,0,1,1-.583-.583A.583.583,0,0,1,6660.449,2505.346Z" transform="translate(-6659.282 -2504.763)" fill="#1a256c"/>
        </g>
        <g id="Group_688" data-name="Group 688" transform="translate(31.932 5.71)">
          <path id="Path_862" data-name="Path 862" d="M6659.329,2488.2a.584.584,0,1,1-.651-.506A.583.583,0,0,1,6659.329,2488.2Z" transform="translate(-6658.167 -2487.687)" fill="#1a256c"/>
        </g>
        <g id="Group_689" data-name="Group 689" transform="translate(31.55 3.733)">
          <path id="Path_863" data-name="Path 863" d="M6656.069,2471.324a.584.584,0,1,1-.71-.42A.583.583,0,0,1,6656.069,2471.324Z" transform="translate(-6654.92 -2470.885)" fill="#1a256c"/>
        </g>
        <g id="Group_690" data-name="Group 690" transform="translate(30.923 1.82)">
          <path id="Path_864" data-name="Path 864" d="M6650.72,2454.993a.584.584,0,1,1-.758-.328A.583.583,0,0,1,6650.72,2454.993Z" transform="translate(-6649.593 -2454.624)" fill="#1a256c"/>
        </g>
        <g id="Group_691" data-name="Group 691" transform="translate(30.062)">
          <path id="Path_865" data-name="Path 865" d="M6643.367,2439.461a.583.583,0,1,1-.793-.23A.583.583,0,0,1,6643.367,2439.461Z" transform="translate(-6642.272 -2439.158)" fill="#1a256c"/>
        </g>
        <g id="Group_692" data-name="Group 692" transform="translate(1.965 0.066)">
          <path id="Path_866" data-name="Path 866" d="M6403.534,2440.025a.584.584,0,1,1,.23.793A.584.584,0,0,1,6403.534,2440.025Z" transform="translate(-6403.461 -2439.723)" fill="#1a256c"/>
        </g>
        <g id="Group_693" data-name="Group 693" transform="translate(1.112 1.89)">
          <ellipse id="Ellipse_62" data-name="Ellipse 62" cx="0.584" cy="0.584" rx="0.584" ry="0.584" fill="#1a256c"/>
        </g>
        <g id="Group_694" data-name="Group 694" transform="translate(0.494 3.806)">
          <path id="Path_867" data-name="Path 867" d="M6390.981,2471.948a.584.584,0,1,1,.421.711A.585.585,0,0,1,6390.981,2471.948Z" transform="translate(-6390.963 -2471.509)" fill="#1a256c"/>
        </g>
        <g id="Group_695" data-name="Group 695" transform="translate(0.122 5.785)">
          <path id="Path_868" data-name="Path 868" d="M6387.8,2488.837a.584.584,0,1,1,.506.652A.585.585,0,0,1,6387.8,2488.837Z" transform="translate(-6387.796 -2488.326)" fill="#1a256c"/>
        </g>
      </g>
      <g id="Group_698" data-name="Group 698">
        <g id="Group_697" data-name="Group 697">
          <path id="Path_869" data-name="Path 869" d="M6350.989,2347.888a6.42,6.42,0,0,1-3.588-1.589,6.986,6.986,0,0,0-2-1.155,7.274,7.274,0,0,0-2.408-.01,4.737,4.737,0,0,1-6.08-3.533,4.61,4.61,0,0,0-3.237-3.237,4.737,4.737,0,0,1-3.532-6.08,7.3,7.3,0,0,0-.011-2.408,7,7,0,0,0-1.155-2,4.844,4.844,0,0,1,0-7.175,7,7,0,0,0,1.155-2,7.3,7.3,0,0,0,.011-2.408,4.737,4.737,0,0,1,3.532-6.08,4.611,4.611,0,0,0,3.237-3.237,4.737,4.737,0,0,1,6.08-3.533,7.28,7.28,0,0,0,2.408-.011,6.984,6.984,0,0,0,2-1.155,4.844,4.844,0,0,1,7.175,0,6.986,6.986,0,0,0,2,1.155,7.274,7.274,0,0,0,2.407.011,4.738,4.738,0,0,1,6.081,3.533,4.609,4.609,0,0,0,3.236,3.236,4.737,4.737,0,0,1,3.533,6.081,7.277,7.277,0,0,0,.011,2.408,7,7,0,0,0,1.155,2,4.845,4.845,0,0,1,0,7.175,7,7,0,0,0-1.155,2,7.276,7.276,0,0,0-.011,2.407,4.737,4.737,0,0,1-3.533,6.08,4.608,4.608,0,0,0-3.236,3.237,4.738,4.738,0,0,1-6.081,3.533,7.269,7.269,0,0,0-2.407.01,6.988,6.988,0,0,0-2,1.155A6.422,6.422,0,0,1,6350.989,2347.888Zm-6.56-4.529a5.434,5.434,0,0,1,1.4.163,8.216,8.216,0,0,1,2.547,1.413,3.308,3.308,0,0,0,5.217,0,8.21,8.21,0,0,1,2.547-1.413,8.532,8.532,0,0,1,3-.06,3.206,3.206,0,0,0,4.39-2.554,6.149,6.149,0,0,1,4.073-4.074,3.205,3.205,0,0,0,2.555-4.39,8.542,8.542,0,0,1,.06-3,8.229,8.229,0,0,1,1.414-2.547,3.308,3.308,0,0,0,0-5.218,8.229,8.229,0,0,1-1.414-2.547,8.541,8.541,0,0,1-.06-3,3.206,3.206,0,0,0-2.555-4.39,6.148,6.148,0,0,1-4.073-4.074,3.206,3.206,0,0,0-4.39-2.554,8.52,8.52,0,0,1-3-.06,8.209,8.209,0,0,1-2.547-1.413,3.308,3.308,0,0,0-5.217,0,8.225,8.225,0,0,1-2.547,1.413,8.518,8.518,0,0,1-3,.06,3.206,3.206,0,0,0-4.39,2.554,6.15,6.15,0,0,1-4.074,4.074,3.206,3.206,0,0,0-2.555,4.39,8.518,8.518,0,0,1-.06,3,8.217,8.217,0,0,1-1.413,2.547,3.308,3.308,0,0,0,0,5.218,8.217,8.217,0,0,1,1.413,2.547,8.518,8.518,0,0,1,.06,3,3.206,3.206,0,0,0,2.555,4.39,6.151,6.151,0,0,1,4.074,4.074,3.206,3.206,0,0,0,4.39,2.554C6343.359,2343.411,6343.9,2343.359,6344.43,2343.359Z" transform="translate(-6327.387 -2300.684)" fill="#1a256c"/>
        </g>
      </g>
    </g>
  </g>
</svg>
