<svg xmlns="http://www.w3.org/2000/svg" width="209.062" height="209.062" viewBox="0 0 209.062 209.062"><g transform="translate(-588.837 -639.193)"><circle cx="104.531" cy="104.531" r="104.531" transform="translate(588.837 639.193)" fill="#203a72"/><circle cx="73.015" cy="73.015" r="73.015" transform="translate(620.353 670.709)" fill="#d6e9ff"/><path d="M607.175,713.073a4.677,4.677,0,0,0-2.767,3.145,4.6,4.6,0,0,0-.127,1.852,4.418,4.418,0,0,0,.565,1.645,4.467,4.467,0,0,0,1.167,1.3,4.807,4.807,0,0,0,1.68.811,4.865,4.865,0,0,0,1.881.147,4.474,4.474,0,0,0,3-1.683,4.45,4.45,0,0,0,.809-1.634,5.072,5.072,0,0,0-.746-4.112l5.008,1.346.035.473a12.943,12.943,0,0,1,.02,1.949,9.1,9.1,0,0,1-.285,1.706,8.794,8.794,0,0,1-4.027,5.294,9.229,9.229,0,0,1-3.249,1.152,9.1,9.1,0,0,1-6.91-1.846,8.9,8.9,0,0,1-2.99-9.24,9.253,9.253,0,0,1,.718-1.856,12.005,12.005,0,0,1,1.168-1.8Z" fill="#fff"/><path d="M605.356,703.087l11.977,5.413,2.163-4.787,3.381,1.528-3.967,8.779-15.358-6.941Z" fill="#fff"/><path d="M611.732,691.268l14.423,8.719-2.266,3.749-14.423-8.719Z" fill="#fff"/><path d="M627.421,697.345l-12.736-11.038,2.87-3.31,13.086.634-7.787-6.749,2.855-3.294,12.735,11.039-2.854,3.293-13.086-.634,7.786,6.749Z" fill="#fff"/><path d="M633.612,667.176l10.664,13.05L640.884,683l-10.665-13.05Z" fill="#fff"/><path d="M651.128,662.405a4.678,4.678,0,0,0-4.173.365,4.608,4.608,0,0,0-1.371,1.252,4.426,4.426,0,0,0-.727,1.579,4.493,4.493,0,0,0-.052,1.745,5.082,5.082,0,0,0,1.915,3.151,4.475,4.475,0,0,0,5.045.231,5.073,5.073,0,0,0,2.3-3.49l2.693,4.432-.3.366a13.126,13.126,0,0,1-1.331,1.424,9.137,9.137,0,0,1-1.384,1.037,8.8,8.8,0,0,1-6.569,1.048,9.209,9.209,0,0,1-3.145-1.41,9.107,9.107,0,0,1-3.724-6.107,8.9,8.9,0,0,1,4.218-8.748,9.263,9.263,0,0,1,1.8-.846,11.977,11.977,0,0,1,2.09-.5Z" fill="#fff"/><path d="M667.852,664.672l-5.9,2.1.034,3.1-4.4,1.566.395-18.029,4.506-1.6,11.693,13.728-4.4,1.566Zm-2.212-2.748-3.733-4.626.027,5.945Z" fill="#fff"/><path d="M677.079,648.27l2.139,12.968,5.183-.855.6,3.661-9.505,1.568-2.743-16.629Z" fill="#fff"/><path d="M688.952,655.832l-6.267-8.677,5.23-.071,3.193,4.561L694.151,647l5.23-.072-6.048,8.846.111,8.091-4.381.06Z" fill="#fff"/><path d="M711.822,666.329l-4.223-1.166,4.486-16.246,6.722,1.857a5.963,5.963,0,0,1,3.8,2.579,6.482,6.482,0,0,1-2.213,8.015,5.969,5.969,0,0,1-4.583.265l-2.5-.69Zm2.427-8.791,1.4.387q2.326.642,2.886-1.383t-1.768-2.668l-1.4-.386Z" fill="#fff"/><path d="M734.036,675.409l-4.9-2.4-.894-7.661-2.857,5.818-3.933-1.931,7.43-15.127,6.119,3.005a6.706,6.706,0,0,1,2.025,1.455,4.633,4.633,0,0,1,1.251,3.715,5.784,5.784,0,0,1-.576,1.958,4.944,4.944,0,0,1-2.207,2.39,4.671,4.671,0,0,1-3.172.248ZM729.5,662.8l.742.365a3.189,3.189,0,0,0,2.022.4,2.062,2.062,0,0,0,1.36-2.768,3.2,3.2,0,0,0-1.549-1.359l-.743-.364Z" fill="#fff"/><path d="M739.359,668.675a8.825,8.825,0,0,1,2.722-2.3,8.644,8.644,0,0,1,6.741-.658,10.7,10.7,0,0,1,5.883,4.687,8.875,8.875,0,0,1,1.139,3.323,8.649,8.649,0,0,1-.25,3.416,9.177,9.177,0,0,1-4.36,5.471,8.651,8.651,0,0,1-3.274,1.007,8.872,8.872,0,0,1-3.493-.369,10.716,10.716,0,0,1-5.883-4.687,8.718,8.718,0,0,1,.775-9.886Zm3.584,2.856a4.474,4.474,0,0,0-.859,1.688,4.642,4.642,0,0,0,.459,3.495,4.876,4.876,0,0,0,4.644,2.457,4.6,4.6,0,0,0,1.732-.506,4.719,4.719,0,0,0,2.312-2.9,4.613,4.613,0,0,0,.107-1.8,4.916,4.916,0,0,0-3.432-3.978,4.641,4.641,0,0,0-3.51.333A4.483,4.483,0,0,0,742.943,671.531Z" fill="#fff"/><path d="M764.394,679.712l-5.468,9.587,10.566-3.218,2.975,3.717-17.6,4.983-2.179-2.722,8.729-16.064Z" fill="#fff"/><path d="M775.681,703.726l-2.449-4.6-2.485,1.325,2.312,4.339-3.274,1.745-2.313-4.34-2.564,1.367,2.449,4.6-3.275,1.745-4.509-8.463,14.874-7.925,4.509,8.463Z" fill="#fff"/><path d="M765.308,712.007,781.46,707.2l1.251,4.2-7.565,10.7,9.875-2.941,1.245,4.177-16.152,4.811-1.245-4.177,7.566-10.7-9.876,2.941Z" fill="#fff"/><path d="M612.854,777.905a4.676,4.676,0,0,0,.479-4.161,4.594,4.594,0,0,0-.951-1.594,4.364,4.364,0,0,0-3.1-1.429,4.8,4.8,0,0,0-1.842.292,4.889,4.889,0,0,0-1.63.952,4.471,4.471,0,0,0-1.5,3.092,4.434,4.434,0,0,0,.267,1.8,5.069,5.069,0,0,0,2.957,2.952l-4.881,1.75-.3-.368a13.015,13.015,0,0,1-1.128-1.59,9.1,9.1,0,0,1-.739-1.563,8.8,8.8,0,0,1,.289-6.646,9.256,9.256,0,0,1,2.013-2.8,9.1,9.1,0,0,1,6.729-2.424,8.9,8.9,0,0,1,7.725,5.886,9.222,9.222,0,0,1,.468,1.933,12.059,12.059,0,0,1,.07,2.148Z" fill="#fff"/><path d="M621.115,781.364l-11.548,6.275,2.508,4.615-3.26,1.772-4.6-8.465,14.809-8.046Z" fill="#fff"/><path d="M627.076,790.742,613.264,800.4l-2.511-3.59,13.812-9.657Z" fill="#fff"/><path d="M616.144,804.67l12.117-11.714,3.045,3.15-1.785,12.979,7.409-7.162,3.029,3.134-12.117,11.714-3.03-3.134,1.785-12.979-7.408,7.161Z" fill="#fff"/><path d="M645.635,808.918l-10.08,13.507-3.511-2.62,10.08-13.507Z" fill="#fff"/><path d="M655.567,821.392a4.676,4.676,0,0,0-2.37-3.453,4.606,4.606,0,0,0-1.765-.577,4.432,4.432,0,0,0-1.733.144,4.48,4.48,0,0,0-1.544.813,5.089,5.089,0,0,0-1.8,3.219,4.466,4.466,0,0,0,.9,3.319,4.451,4.451,0,0,0,1.385,1.185,5.069,5.069,0,0,0,4.17.285l-2.533,4.525-.466-.082a12.922,12.922,0,0,1-1.9-.458,9.109,9.109,0,0,1-1.584-.7,8.79,8.79,0,0,1-4.145-5.2,9.208,9.208,0,0,1-.32-3.432,9.1,9.1,0,0,1,3.483-6.247,8.9,8.9,0,0,1,9.692-.634,9.261,9.261,0,0,1,1.622,1.152,12,12,0,0,1,1.463,1.574Z" fill="#fff"/><path d="M665.47,833.76l-5.944-1.959-1.872,2.466-4.437-1.463,11.369-14,4.543,1.5.816,18.015-4.437-1.463Zm-.061-3.527-.112-5.944L661.672,829Z" fill="#fff"/><path d="M680.414,822.769l-1.959,13,5.194.783-.554,3.669-9.526-1.436,2.514-16.665Z" fill="#fff"/><path d="M689.2,832.386l-6.055-8.826,5.23.055,3.081,4.637,3.155-4.572,5.23.055-6.26,8.7-.085,8.091-4.381-.046Z" fill="#fff"/><path d="M715.609,837.731l-4.241,1.1-4.233-16.314,6.751-1.751a5.967,5.967,0,0,1,4.578.336,6.482,6.482,0,0,1,2.089,8.048,5.967,5.967,0,0,1-3.838,2.52l-2.51.651Zm-2.291-8.827,1.407-.365q2.336-.606,1.808-2.64t-2.864-1.428l-1.406.365Z" fill="#fff"/><path d="M740.376,828.29l-4.954,2.281-6.508-4.139,2.711,5.888-3.979,1.832L720.6,818.843l6.193-2.851a6.707,6.707,0,0,1,2.406-.653,4.63,4.63,0,0,1,3.671,1.373,5.754,5.754,0,0,1,1.156,1.683,4.939,4.939,0,0,1,.462,3.22,4.662,4.662,0,0,1-1.81,2.617Zm-12.649-4.437.751-.346a3.193,3.193,0,0,0,1.583-1.319,2.064,2.064,0,0,0-1.29-2.8,3.2,3.2,0,0,0-2.031.345l-.752.346Z" fill="#fff"/><path d="M737.905,820.18a8.683,8.683,0,0,1-.407-9.907,10.712,10.712,0,0,1,6.053-4.466,8.9,8.9,0,0,1,3.5-.238,8.659,8.659,0,0,1,3.235,1.128,9.172,9.172,0,0,1,4.153,5.63,8.631,8.631,0,0,1,.123,3.423,8.881,8.881,0,0,1-1.262,3.278,10.709,10.709,0,0,1-6.053,4.465,8.715,8.715,0,0,1-9.346-3.313Zm3.688-2.72A4.486,4.486,0,0,0,743,818.728a4.687,4.687,0,0,0,1.7.576,4.626,4.626,0,0,0,1.791-.113,4.875,4.875,0,0,0,3.578-3.848,4.592,4.592,0,0,0-.04-1.8,4.72,4.72,0,0,0-2.2-2.986,4.614,4.614,0,0,0-1.713-.57,4.92,4.92,0,0,0-4.732,2.283,4.635,4.635,0,0,0-.588,3.476A4.475,4.475,0,0,0,741.593,817.46Z" fill="#fff"/><path d="M750.225,799.5l10.365,3.792-4.935-9.881,3.169-3.554,7.848,16.523-2.321,2.6-17.294-5.929Z" fill="#fff"/><path d="M767.088,782.952l-2.739,4.429,2.394,1.482,2.588-4.182,3.155,1.953-2.587,4.181,2.471,1.529,2.74-4.429,3.155,1.952-5.045,8.155-14.332-8.867L763.933,781Z" fill="#fff"/><path d="M780.8,785.466l-15.744-6.014,1.564-4.093,12.513-3.882-9.626-3.676,1.555-4.072,15.744,6.014-1.555,4.071L772.74,777.7l9.625,3.677Z" fill="#fff"/><path d="M724.93,752.514a36.421,36.421,0,0,1-6.627,21.5c9.131-2.524,15.244-11.532,15.244-23.125,0-14.674-16.647-35.369-20.986-40.513-.785.96-1.978,2.455-3.393,4.339q.831,1.207,1.665,2.468C720.187,731.346,724.93,743.234,724.93,752.514Z" fill="#203a72"/><path d="M649.711,754.01h14.294V768.3a1.193,1.193,0,0,0,1.192,1.192h15.231a1.194,1.194,0,0,0,1.192-1.192V754.01h14.293a1.193,1.193,0,0,0,1.192-1.192V737.587a1.193,1.193,0,0,0-1.192-1.193H681.62V722.1a1.194,1.194,0,0,0-1.192-1.192H665.2a1.193,1.193,0,0,0-1.192,1.192v14.293H649.711a1.194,1.194,0,0,0-1.192,1.193v15.231A1.194,1.194,0,0,0,649.711,754.01Z" fill="#203a72"/><path d="M684.313,722.1v11.6h11.6a3.889,3.889,0,0,1,3.885,3.886v15.231a3.889,3.889,0,0,1-3.885,3.885h-11.6v11.6a3.89,3.89,0,0,1-3.885,3.885h-4.291a24.86,24.86,0,0,0,37.29,3.371c5.6-5.514,8.81-13.914,8.81-23.045,0-18.622-21.408-44.937-26.385-50.8a180.042,180.042,0,0,0-12.7,17.628A3.872,3.872,0,0,1,684.313,722.1Z" fill="#203a72"/><circle cx="6.35" cy="6.35" r="6.35" transform="translate(774.97 737.375)" fill="#fff"/><circle cx="6.35" cy="6.35" r="6.35" transform="translate(599.066 737.375)" fill="#fff"/></g></svg>