<svg xmlns="http://www.w3.org/2000/svg" width="209.893" height="209.894" viewBox="0 0 209.893 209.894"><g transform="translate(-1132.761 -479.965)"><path d="M1237.707,498.532a86.381,86.381,0,1,0,61.08,25.3A85.817,85.817,0,0,0,1237.707,498.532Z" fill="#203a72"/><path d="M1250.562,570.062l-.746-.332c.055-1.045-1.111-2.224-3.007-2.889-2.353-.825-4.938-.546-5.775.624s.394,2.787,2.747,3.613a7.8,7.8,0,0,0,3.974.356l1.491.664c.974.434,1.5,1.113,1.444,1.864-.06.787-.754,1.468-1.858,1.821l-9.9,3.161c.237-13.669.423-24.367.457-26.328a3.488,3.488,0,0,0,2.476-3.153c0-1.9-1.858-3.446-4.149-3.446s-4.149,1.543-4.149,3.446A3.476,3.476,0,0,0,1236,552.6c.034,1.907.219,12.579.456,26.24l-9.562-3.055c-1.1-.353-1.8-1.034-1.858-1.821-.057-.751.469-1.43,1.443-1.864l1.491-.664a7.8,7.8,0,0,0,3.974-.356c2.353-.826,3.583-2.443,2.747-3.613s-3.422-1.449-5.775-.624c-1.9.665-3.061,1.844-3.006,2.889l-.746.332a5.387,5.387,0,0,0-2.244,1.753,3.508,3.508,0,0,0-.661,2.292c.128,1.688,1.521,3.156,3.636,3.832l8.1,2.586-4.285,1.369c-2.116.676-3.509,2.145-3.636,3.833a3.5,3.5,0,0,0,.662,2.292,5.383,5.383,0,0,0,2.245,1.753l5.944,2.646L1231,594.163a3.927,3.927,0,0,0-.069,7.57l4.056,1.86-1.01.463a4.29,4.29,0,0,0-2.846,3.848,4.422,4.422,0,0,0,3.069,3.788l.56.234-.263.109a5.277,5.277,0,0,0-2.613,2.172,3.363,3.363,0,0,0-.19,3l.623,1.489a1.4,1.4,0,0,0,1.314.777,1.632,1.632,0,0,0,.456-.065,1.119,1.119,0,0,0,.858-1.47l-.623-1.489c-.374-.9.2-1.839,1.422-2.349l1.316-.548c.035,2.006.07,3.984.1,5.92a.547.547,0,0,0,1.072,0c.034-1.98.069-4,.105-6.057l1.647.685c1.225.51,1.8,1.454,1.421,2.349l-.622,1.489a1.119,1.119,0,0,0,.857,1.47,1.638,1.638,0,0,0,.457.065,1.4,1.4,0,0,0,1.314-.777l.623-1.489a3.366,3.366,0,0,0-.191-3,5.269,5.269,0,0,0-2.613-2.172l-.263-.109.561-.234a4.424,4.424,0,0,0,3.069-3.788,4.29,4.29,0,0,0-2.846-3.848l-1.011-.463,4.056-1.86a3.927,3.927,0,0,0-.069-7.57l-3.92-1.745,5.944-2.646a5.374,5.374,0,0,0,2.244-1.753,3.5,3.5,0,0,0,.662-2.292c-.127-1.688-1.52-3.157-3.635-3.833l-4.285-1.369,8.1-2.586c2.115-.676,3.508-2.144,3.635-3.832a3.5,3.5,0,0,0-.661-2.292A5.377,5.377,0,0,0,1250.562,570.062Zm-21.719,15.809c.059-.787.753-1.468,1.858-1.821l5.811-1.856c.047,2.713.1,5.519.145,8.377l-6.37-2.835C1229.313,587.3,1228.786,586.622,1228.843,585.871Zm2.019,12.083a2.078,2.078,0,0,1,1.448-1.754l4.411-1.964c.043,2.508.087,5.042.131,7.575l-4.58-2.1A2.05,2.05,0,0,1,1230.862,597.954Zm3.046,9.9a2.035,2.035,0,0,1,1.41-1.779l1.6-.732q.042,2.477.085,4.928l-1.557-.648A2.129,2.129,0,0,1,1233.908,607.858Zm7.906,0a2.126,2.126,0,0,1-1.534,1.769l-1.892.787c.03-1.727.06-3.47.091-5.218l1.926.883A2.032,2.032,0,0,1,1241.814,607.858Zm3.046-9.9a2.048,2.048,0,0,1-1.41,1.756l-4.915,2.254c.046-2.633.091-5.268.137-7.875l4.74,2.111A2.076,2.076,0,0,1,1244.86,597.954Zm2.02-12.083c.056.751-.47,1.431-1.445,1.865l-6.705,2.984c.051-2.947.1-5.839.15-8.632l6.142,1.962C1246.126,584.4,1246.821,585.084,1246.88,585.871Z" fill="#d6e9ff"/><path d="M1260.976,555.357c-3.123-1.811-7.448-5.051-9.09-5.975-3.139-1.766-4.391,1.076-5.886,2.427a8.26,8.26,0,0,1-5.171,2.34v10.672c1.155-.285,2.193-.547,3.241-.777,1.069-.234,2.475,1.232,6.486-.061,1.989-.64,3.709,1.234,7.58-.216,1.491-.559,4.96,1.241,8.924-.715,1.913-.944,5.548.873,9.311-3.53C1274.3,559.2,1269.074,560.053,1260.976,555.357Z" fill="#d6e9ff"/><path d="M1231.344,564.044c1.049.23,2.087.492,3.242.777V554.149a8.264,8.264,0,0,1-5.172-2.34c-1.494-1.351-2.747-4.193-5.886-2.427-1.642.924-5.967,4.164-9.089,5.975-8.1,4.7-13.325,3.84-15.4,4.165,3.762,4.4,7.4,2.586,9.31,3.53,3.965,1.956,7.434.156,8.925.715,3.871,1.45,5.591-.424,7.58.216C1228.87,565.276,1230.275,563.81,1231.344,564.044Z" fill="#d6e9ff"/><path d="M1340.822,589.42a6.259,6.259,0,0,0,0-8.85l-6.172-6.172a3.5,3.5,0,0,1-.557-4.229l4.382-7.59a6.258,6.258,0,0,0-2.29-8.549l-7.559-4.364a3.5,3.5,0,0,1-1.633-3.94l2.269-8.466a6.258,6.258,0,0,0-4.426-7.665l-8.431-2.259a3.5,3.5,0,0,1-2.6-3.384v-8.764a6.257,6.257,0,0,0-6.258-6.258h-8.728a3.5,3.5,0,0,1-3.384-2.6l-2.268-8.467a6.258,6.258,0,0,0-7.665-4.425l-8.431,2.259a3.5,3.5,0,0,1-3.94-1.632l-4.383-7.59a6.259,6.259,0,0,0-8.549-2.291l-7.56,4.365a3.5,3.5,0,0,1-4.227-.557l-6.2-6.2a6.259,6.259,0,0,0-8.851,0l-6.172,6.172a3.5,3.5,0,0,1-4.228.558l-7.591-4.383a6.258,6.258,0,0,0-8.549,2.291l-4.364,7.559a3.5,3.5,0,0,1-3.94,1.633l-8.466-2.269a6.258,6.258,0,0,0-7.665,4.425l-2.259,8.432a3.5,3.5,0,0,1-3.383,2.6h-8.765a6.258,6.258,0,0,0-6.258,6.259V523.8a3.5,3.5,0,0,1-2.6,3.383l-8.465,2.269a6.259,6.259,0,0,0-4.426,7.665l2.259,8.431a3.5,3.5,0,0,1-1.632,3.94l-7.59,4.383a6.258,6.258,0,0,0-2.291,8.549l4.365,7.559a3.5,3.5,0,0,1-.557,4.228l-6.2,6.2a6.258,6.258,0,0,0,0,8.85l6.172,6.173a3.5,3.5,0,0,1,.557,4.228l-4.383,7.59a6.26,6.26,0,0,0,2.291,8.55l7.56,4.363a3.5,3.5,0,0,1,1.631,3.941l-2.268,8.466a6.259,6.259,0,0,0,4.426,7.665l8.431,2.258a3.5,3.5,0,0,1,2.6,3.384v8.765a6.259,6.259,0,0,0,6.258,6.258h8.729a3.5,3.5,0,0,1,3.384,2.6l2.269,8.466a6.258,6.258,0,0,0,7.664,4.426l8.432-2.26a3.5,3.5,0,0,1,3.94,1.632l4.382,7.59a6.259,6.259,0,0,0,8.549,2.292l7.559-4.365a3.5,3.5,0,0,1,4.228.556l6.2,6.2a6.257,6.257,0,0,0,8.851,0l6.172-6.171a3.5,3.5,0,0,1,4.228-.557l7.59,4.382a6.258,6.258,0,0,0,8.549-2.29l4.365-7.56a3.5,3.5,0,0,1,3.94-1.631l8.466,2.268a6.259,6.259,0,0,0,7.665-4.426l2.259-8.431a3.5,3.5,0,0,1,3.384-2.6h8.764a6.258,6.258,0,0,0,6.258-6.259v-8.729a3.5,3.5,0,0,1,2.6-3.383l8.467-2.269a6.257,6.257,0,0,0,4.424-7.664l-2.259-8.432a3.5,3.5,0,0,1,1.633-3.94l7.59-4.382a6.259,6.259,0,0,0,2.29-8.549l-4.364-7.56a3.5,3.5,0,0,1,.557-4.228Zm-105.073,86.441a90.771,90.771,0,1,1,92.79-92.789A91.005,91.005,0,0,1,1235.749,675.861Z" fill="#203a72"/><path d="M1200.7,535.255l-7.674-12.112,5.248-3.324a8.386,8.386,0,0,1,3.491-1.355,4.843,4.843,0,0,1,3.157.742,9.655,9.655,0,0,1,2.916,3.146q1.977,3.121,1.445,5.463a6.84,6.84,0,0,1-3.335,4.116Zm1.55-4.251,1.806-1.143a4.885,4.885,0,0,0,1.461-1.334,2.353,2.353,0,0,0,.33-1.725,6.907,6.907,0,0,0-1.093-2.5,8.077,8.077,0,0,0-1.782-2.126,2.36,2.36,0,0,0-1.7-.528,4.605,4.605,0,0,0-1.93.762l-1.806,1.143Z" fill="#31b1ff"/><path d="M1219.382,525.757a7.322,7.322,0,0,1-5.612.017q-2.3-1.1-3.5-4.667-1.278-3.777-.1-6.005a9.017,9.017,0,0,1,10.081-3.409q2.286,1.062,3.563,4.836,1.2,3.566.046,5.837A7.329,7.329,0,0,1,1219.382,525.757Zm-.977-2.889a3.186,3.186,0,0,0,2.167-1.826,5.136,5.136,0,0,0-.246-3.336,5.313,5.313,0,0,0-1.879-2.949,3.257,3.257,0,0,0-2.815-.094,3.3,3.3,0,0,0-2.2,1.791,5.317,5.317,0,0,0,.3,3.484,5.125,5.125,0,0,0,1.827,2.8A3.222,3.222,0,0,0,1218.405,522.868Z" fill="#31b1ff"/><path d="M1234.817,522.646a7.878,7.878,0,0,1-5.891-1.367,7.151,7.151,0,0,1-2.476-5.141,7.584,7.584,0,0,1,1.387-5.7q1.727-2.135,5.539-2.5a12.41,12.41,0,0,1,2.357-.026,13.977,13.977,0,0,1,2.036.341l.3,3.125a10.54,10.54,0,0,0-4.131-.408,4.371,4.371,0,0,0-3.145,1.377,4.691,4.691,0,0,0-.708,3.446,4.214,4.214,0,0,0,1.394,3.087,4.6,4.6,0,0,0,3.334.707,11.44,11.44,0,0,0,2.042-.387,9.672,9.672,0,0,0,1.916-.778l.3,3.147a13.177,13.177,0,0,1-1.925.678A14.29,14.29,0,0,1,1234.817,522.646Z" fill="#31b1ff"/><path d="M1243.967,522.466l1.261-11.508-4.183-.458.3-2.745,11.929,1.307-.3,2.744-4.183-.458-1.261,11.509Z" fill="#31b1ff"/><path d="M1259.094,525.832a7.316,7.316,0,0,1-4.464-3.4q-1.156-2.274.058-5.836,1.281-3.772,3.57-4.829a9.017,9.017,0,0,1,10.075,3.428q1.17,2.231-.114,6.005-1.212,3.561-3.514,4.66A7.32,7.32,0,0,1,1259.094,525.832Zm.981-2.888a3.189,3.189,0,0,0,2.832-.131,5.127,5.127,0,0,0,1.834-2.8,5.31,5.31,0,0,0,.3-3.482,4.038,4.038,0,0,0-5.017-1.707,5.323,5.323,0,0,0-1.883,2.945,5.125,5.125,0,0,0-.252,3.336A3.216,3.216,0,0,0,1260.075,522.944Z" fill="#31b1ff"/><path d="M1267.2,528.7l7.637-12.135,6.067,3.818a4.8,4.8,0,0,1,2.454,3.123,5.148,5.148,0,0,1-.891,3.674,4.369,4.369,0,0,1-4.536,2.066,2.158,2.158,0,0,1,.134.728,5.967,5.967,0,0,1-.1.926l-.632,4.18-3.166-1.992.588-3.945a1.5,1.5,0,0,0-.07-.846,1.583,1.583,0,0,0-.641-.654l-1.395-.878-2.42,3.844Zm6.923-4.272,2.243,1.411a2.377,2.377,0,0,0,1.663.43,2.017,2.017,0,0,0,1.347-1.033,1.871,1.871,0,0,0-.6-2.931l-2.374-1.494Z" fill="#31b1ff"/><path d="M1164.639,603.788l14.066-3.814,2.041,7.526a5.411,5.411,0,0,1-.247,4.281,5.028,5.028,0,0,1-3.174,2.216,4.285,4.285,0,0,1-2.7-.1,4.747,4.747,0,0,1-2.164-1.671,2.28,2.28,0,0,1-.393.671,5.521,5.521,0,0,1-.7.655l-3.318,2.807-1.066-3.925,3.126-2.656a1.55,1.55,0,0,0,.521-.717,1.808,1.808,0,0,0-.046-.992l-.469-1.729-4.456,1.208Zm8.184,1.82.755,2.783a2.71,2.71,0,0,0,.979,1.578,2.242,2.242,0,0,0,3.258-2.552l-.8-2.945Z" fill="#31b1ff"/><path d="M1170.18,621.08l12.633-7.267,5.737,9.968-2.434,1.4-3.792-6.591-2.647,1.525,3.345,5.814-2.471,1.422-3.346-5.814-2.648,1.524,3.793,6.589-2.433,1.4Z" fill="#31b1ff"/><path d="M1184.112,640.7q-2.84-2.949-2.917-5.848a7,7,0,0,1,2.434-5.32,7.4,7.4,0,0,1,5.512-2.4q2.884.126,5.776,3.126a14.424,14.424,0,0,1,1.626,1.981,16.334,16.334,0,0,1,1.112,1.938l-2.3,2.214a12.18,12.18,0,0,0-2.487-3.757,4.973,4.973,0,0,0-3.244-1.8,4.574,4.574,0,0,0-3.242,1.56,4.115,4.115,0,0,0-1.524,3.116,5.227,5.227,0,0,0,1.7,3.268,13.221,13.221,0,0,0,1.7,1.49,11.031,11.031,0,0,0,1.926,1.134l-2.314,2.231a15.35,15.35,0,0,1-1.853-1.207A16.435,16.435,0,0,1,1184.112,640.7Z" fill="#31b1ff"/><path d="M1197.332,650.985a8.307,8.307,0,0,1-3.993-4.563q-.75-2.58,1.245-5.844,2.112-3.456,4.728-3.926a10.369,10.369,0,0,1,9.875,6.036q.773,2.544-1.339,6-2,3.264-4.634,3.772A8.312,8.312,0,0,1,1197.332,650.985Zm1.617-2.645a3.6,3.6,0,0,0,3,.6,4.956,4.956,0,0,0,2.492-2.334,5.149,5.149,0,0,0,1.026-3.419,3.683,3.683,0,0,0-1.923-2.356,3.72,3.72,0,0,0-2.994-.65,5.15,5.15,0,0,0-2.575,2.47,4.967,4.967,0,0,0-.943,3.284A3.628,3.628,0,0,0,1198.949,648.34Z" fill="#31b1ff"/><path d="M1208.836,656.945l3.954-14.027,3.706,1.044,1.888,8.926,6.247-6.633,3.682,1.038-3.955,14.027-3.752-1.057,2.272-8.059-4.557,4.828-2.074-.585-1.387-6.5-2.271,8.06Z" fill="#31b1ff"/><path d="M1230,662.086l.007-14.573h3.85l4.235,8.081,4.217-8.076,3.826,0-.008,14.574-3.9,0,.005-8.373-3.079,5.882H1237l-3.1-5.886-.005,8.373Z" fill="#31b1ff"/><path d="M1251.292,661.2l-3.284-14.2,11.207-2.591.632,2.735-7.409,1.714.689,2.975,6.535-1.512.643,2.779-6.535,1.511.688,2.977,7.408-1.713.633,2.733Z" fill="#31b1ff"/><path d="M1266.759,657.236l-6.234-13.173,3.021-1.43,9.724,5.038-3.727-7.876,3.546-1.678,6.234,13.173-3.043,1.44-9.714-5.017,3.717,7.855Z" fill="#31b1ff"/><path d="M1283.838,648.433l-9.2-11.3,5.239-4.266a9.67,9.67,0,0,1,3.562-1.952,5.113,5.113,0,0,1,3.4.265,9.271,9.271,0,0,1,3.365,2.791q2.373,2.913,2.022,5.416a7.763,7.763,0,0,1-3.149,4.782Zm1.252-4.638,1.8-1.467a5.593,5.593,0,0,0,1.42-1.61,2.467,2.467,0,0,0,.194-1.835,6.619,6.619,0,0,0-1.382-2.406,7.688,7.688,0,0,0-2.075-1.915,2.46,2.46,0,0,0-1.848-.276,5.326,5.326,0,0,0-1.968,1.092l-1.8,1.468Z" fill="#31b1ff"/><path d="M1297.909,636.032l-11.515-8.931,7.049-9.09,2.218,1.72L1291,625.739l2.414,1.872,4.111-5.3,2.253,1.746-4.111,5.3,2.414,1.872,4.66-6.006,2.218,1.719Z" fill="#31b1ff"/><path d="M1307.481,622.942,1294.174,617l2.754-6.17a9.663,9.663,0,0,1,2.3-3.348,5.1,5.1,0,0,1,3.156-1.3,9.267,9.267,0,0,1,4.261.975q3.43,1.531,4.246,3.923a7.751,7.751,0,0,1-.657,5.688Zm-.972-4.7.947-2.123a5.618,5.618,0,0,0,.544-2.077,2.467,2.467,0,0,0-.655-1.725,6.6,6.6,0,0,0-2.318-1.526,7.736,7.736,0,0,0-2.714-.774,2.466,2.466,0,0,0-1.775.587,5.336,5.336,0,0,0-1.265,1.862l-.947,2.123Z" fill="#31b1ff"/><path d="M1169.091,592.071a1.5,1.5,0,0,1-1.491-1.356,67.289,67.289,0,0,1-.29-11.191c1.591-21.96,11.44-35.029,17.169-40.865a1.5,1.5,0,0,1,2.141,2.1c-5.441,5.542-14.8,17.976-16.318,38.98a64.65,64.65,0,0,0,.284,10.687,1.5,1.5,0,0,1-1.35,1.636A1.422,1.422,0,0,1,1169.091,592.071Z" fill="#d6e9ff"/><path d="M1306.537,592.071a1.424,1.424,0,0,1-.145-.007,1.5,1.5,0,0,1-1.35-1.636,64.391,64.391,0,0,0,.284-10.687c-1.521-21-10.876-33.438-16.317-38.98a1.5,1.5,0,1,1,2.14-2.1c5.73,5.836,15.579,18.905,17.169,40.865a67.25,67.25,0,0,1-.29,11.191A1.5,1.5,0,0,1,1306.537,592.071Z" fill="#d6e9ff"/></g></svg>