<svg xmlns="http://www.w3.org/2000/svg" width="209.062" height="209.062" viewBox="0 0 209.062 209.062"><g transform="translate(-825.815 -437.788)"><circle cx="68.488" cy="68.488" r="68.488" transform="translate(861.859 473.378)" fill="#fff"/><path d="M898.484,457.111a4.754,4.754,0,0,0,2.033-1.188,1.443,1.443,0,0,0,.195-1.5,1.375,1.375,0,0,0-1.133-1,4.6,4.6,0,0,0-2.117.367c-.283.1-.584.218-.906.343s-.6.249-.847.371l1.169,3.189Z" fill="#203a72"/><path d="M883.047,464.255q.143.807.3,1.781t.363,2.032l3.835-2.275q-.826-.688-1.586-1.313t-1.411-1.13q-.651-.5-1.145-.89c-.329-.257-.59-.458-.783-.6.047.234.106.558.176.97S882.952,463.717,883.047,464.255Z" fill="#203a72"/><path d="M901.386,620.5q-.423-.153-.913-.32c-.328-.111-.622-.2-.886-.263l-1.164,3.193,1.607.585a4.768,4.768,0,0,0,2.32.4,1.436,1.436,0,0,0,1.114-1.018,1.374,1.374,0,0,0-.222-1.494A4.625,4.625,0,0,0,901.386,620.5Z" fill="#203a72"/><path d="M899.578,626.381l-2.071-.756-1.379,3.786c.229.114.482.231.758.348s.585.236.923.361a6.122,6.122,0,0,0,2.543.447,1.669,1.669,0,0,0,1.48-1.234,1.634,1.634,0,0,0-.234-1.726A4.765,4.765,0,0,0,899.578,626.381Z" fill="#203a72"/><path d="M897.8,460.214,899.184,464c.249-.059.518-.133.8-.223s.6-.2.937-.319a6.043,6.043,0,0,0,2.233-1.3,1.665,1.665,0,0,0,.336-1.9,1.632,1.632,0,0,0-1.29-1.17,4.767,4.767,0,0,0-2.336.364Z" fill="#203a72"/><path d="M885.766,616.467q-.637.515-1.412,1.128c-.517.409-1.052.84-1.6,1.3l3.843,2.261q.206-1.059.385-2.024t.308-1.779c.085-.543.162-1.021.228-1.433s.115-.738.147-.977q-.273.234-.764.623T885.766,616.467Z" fill="#203a72"/><path d="M982.654,476.2a5.178,5.178,0,0,0,3.857,1.459,5.087,5.087,0,0,0,3.314-2.023,4.4,4.4,0,0,0-.745-7.057c-.186-.153-.379-.307-.58-.465s-.4-.294-.592-.414l-6.268,7.606c.118.118.258.248.422.392S982.422,476.012,982.654,476.2Z" fill="#203a72"/><path d="M930.346,437.788a104.531,104.531,0,1,0,104.531,104.531A104.649,104.649,0,0,0,930.346,437.788Zm72.6,104.531a72.6,72.6,0,1,1-72.6-72.6A72.678,72.678,0,0,1,1002.942,542.319Z" fill="#203a72"/><path d="M985.405,606.811a5.142,5.142,0,0,0-3.784,1.438c-.187.151-.378.31-.571.477s-.368.331-.524.495l6.2,7.665c.137-.092.293-.2.467-.334s.378-.291.611-.478a5.177,5.177,0,0,0,2.2-3.488,5.084,5.084,0,0,0-1.316-3.652A5.148,5.148,0,0,0,985.405,606.811Z" fill="#203a72"/><path d="M932.773,516.142a5.362,5.362,0,1,0,5.353,5.354A5.369,5.369,0,0,0,932.773,516.142Z" fill="#31b1ff"/><path d="M905.9,531.9l3.059,1.287-1.4,3.3a1.933,1.933,0,0,0,1.008,2.519l6.415,2.7a1.905,1.905,0,0,0,2.5-1.007l1.4-3.3,3.04,1.287a3.949,3.949,0,0,0,5.166-2.09l2.761-6.49a9.091,9.091,0,0,1,2.928-17.7,8.813,8.813,0,0,1,4.122,1.007l3.3-7.758a3.935,3.935,0,0,0-2.089-5.148l-3.059-1.3,1.4-3.3a1.9,1.9,0,0,0-1.007-2.5l-6.416-2.7a1.9,1.9,0,0,0-2.5,1.007l-1.4,3.3-3.059-1.287a3.9,3.9,0,0,0-5.148,2.089l-13.112,30.943A3.934,3.934,0,0,0,905.9,531.9Z" fill="#31b1ff"/><path d="M967.11,549.473a33.616,33.616,0,0,0-26.672-32.827,9.032,9.032,0,0,1-1.174,11.191,22.381,22.381,0,1,1-25.2,32.677h5.185a4.662,4.662,0,1,0,0-9.325H894.388a4.662,4.662,0,1,0,0,9.325h7.461a33.309,33.309,0,0,0,18,19.622,19.585,19.585,0,0,0-5.521,10.352,3.01,3.01,0,0,0,2.929,3.6H949.82a3.031,3.031,0,0,0,2.947-3.6,19.42,19.42,0,0,0-5.558-10.371A33.591,33.591,0,0,0,967.11,549.473Z" fill="#31b1ff"/><path d="M872.614,490.322l-12.12-13.158,6.579-6.059a5.98,5.98,0,0,1,4.562-1.936,6.442,6.442,0,0,1,4.134,2.274,5.445,5.445,0,0,1,1,6.135,2.694,2.694,0,0,1,.921.077,7.508,7.508,0,0,1,1.084.418L883.6,480.2l-3.432,3.162-4.557-2a1.9,1.9,0,0,0-1.044-.191,2,2,0,0,0-1,.559l-1.511,1.393,3.839,4.167Zm-2.884-9.73,2.432-2.24a2.965,2.965,0,0,0,1.059-1.864,2.513,2.513,0,0,0-.8-1.958q-1.825-1.983-3.726-.233l-2.573,2.372Z" fill="#fff"/><path d="M885.362,479.068l-9.173-15.357,11.327-6.766,1.766,2.957-7.488,4.473,1.923,3.218,6.605-3.945,1.795,3-6.6,3.946,1.924,3.22,7.487-4.473,1.765,2.957Z" fill="#fff"/><path d="M903.83,469.921a19.787,19.787,0,0,1-3.215.869,11.094,11.094,0,0,1-2.755.172l-1.28-3.584a15.17,15.17,0,0,0,2.84-.1,12.879,12.879,0,0,0,2.767-.633,7.614,7.614,0,0,0,2.239-1.124,1.272,1.272,0,0,0,.323-1.532,1.531,1.531,0,0,0-.753-.911,3.391,3.391,0,0,0-1.476-.253q-.959,0-2.573.107a12.209,12.209,0,0,1-3.162-.184,4.041,4.041,0,0,1-2.02-1.033,5.444,5.444,0,0,1-1.249-2.091,4.581,4.581,0,0,1,.41-4.3,9.026,9.026,0,0,1,4.643-3.1,19.429,19.429,0,0,1,2.931-.8,15.808,15.808,0,0,1,2.432-.292l1.288,3.609a12.993,12.993,0,0,0-4.781.735,8.74,8.74,0,0,0-2.2,1.078,1.209,1.209,0,0,0-.447,1.517,1.285,1.285,0,0,0,.627.764,2.865,2.865,0,0,0,1.3.2q.864-.014,2.329-.122a10.707,10.707,0,0,1,3.638.19,4.419,4.419,0,0,1,2.152,1.236,6.215,6.215,0,0,1,1.226,2.115,4.639,4.639,0,0,1-.442,4.212Q907.387,468.652,903.83,469.921Z" fill="#fff"/><path d="M912.691,466.733l-2.63-17.694,13.05-1.942.506,3.408-8.626,1.283.552,3.709,7.609-1.132.516,3.462-7.61,1.132.55,3.708,8.627-1.283.508,3.408Z" fill="#fff"/><path d="M926.915,464.493l8.133-17.337,4.819.357,5.5,18.342-4.653-.343-1.309-4.163-5.956-.441-1.877,3.928Zm7.385-6.835,4.737.349-1.924-6.381Z" fill="#fff"/><path d="M947.091,466.425l5.475-17.029,8.514,2.737a5.975,5.975,0,0,1,3.933,3.014,6.435,6.435,0,0,1,.059,4.718,5.443,5.443,0,0,1-4.842,3.9,2.679,2.679,0,0,1,.387.84,7.273,7.273,0,0,1,.17,1.148l.529,5.248-4.441-1.428-.509-4.949a1.893,1.893,0,0,0-.349-1,1.973,1.973,0,0,0-.978-.592l-1.957-.628-1.733,5.393Zm7.046-7.3,3.147,1.011a2.976,2.976,0,0,0,2.144,0,2.522,2.522,0,0,0,1.307-1.665q.825-2.565-1.633-3.357l-3.332-1.071Z" fill="#fff"/><path d="M970.521,476.5q-4.07-2.339-5-5.647a8.91,8.91,0,0,1,1.2-7.017,9.448,9.448,0,0,1,5.531-4.8q3.3-.922,7.442,1.459a15.509,15.509,0,0,1,2.416,1.677,17.887,17.887,0,0,1,1.824,1.817l-1.951,3.395a13.207,13.207,0,0,0-3.91-3.4,5.459,5.459,0,0,0-4.192-.872,5.854,5.854,0,0,0-3.21,2.993,5.249,5.249,0,0,0-.813,4.147,5.724,5.724,0,0,0,2.878,3.128,14.228,14.228,0,0,0,2.358,1.083,12.046,12.046,0,0,0,2.51.594l-1.965,3.42a16.429,16.429,0,0,1-2.448-.7A17.592,17.592,0,0,1,970.521,476.5Z" fill="#fff"/><path d="M976.9,480.03l12.121-13.155,3.29,3.029-4.8,5.211,5.148,4.743,4.8-5.21,3.289,3.03-12.121,13.156-3.288-3.03,4.8-5.21-5.149-4.742-4.8,5.21Z" fill="#fff"/><path d="M837.387,566.608l17.537-4.8,2.713,9.907a6.585,6.585,0,0,1-.083,4.612,5.251,5.251,0,0,1-5.629,2.481,4.127,4.127,0,0,1-1.868-1.1,4.665,4.665,0,0,1-.729,2.362,3.932,3.932,0,0,1-2.333,1.421,4.884,4.884,0,0,1-4.258-.526,7.1,7.1,0,0,1-2.557-4.154Zm4.417,3.835,1.173,4.283a3.2,3.2,0,0,0,1.012,1.775,2.175,2.175,0,0,0,1.915.147,1.912,1.912,0,0,0,1.344-1.025,3.48,3.48,0,0,0-.071-2.235l-1.125-4.109Zm7.27-1.993,1.046,3.819a2.648,2.648,0,0,0,1,1.635,1.95,1.95,0,0,0,1.595.158,2.012,2.012,0,0,0,1.359-.967,3.139,3.139,0,0,0-.047-2.149l-.981-3.584Z" fill="#fff"/><path d="M843.6,587.406l19.389-3.139,2.741,4.486-11.639,15.822-2.648-4.331,2.6-3.645-3.387-5.543-4.416.68Zm10.275,2.466,2.693,4.409,4.041-5.515Z" fill="#fff"/><path d="M864.069,614.918q-3.675-3.545-3.9-7.158a8.728,8.728,0,0,1,2.789-6.743,9.236,9.236,0,0,1,6.761-3.247q3.6.024,7.346,3.632a18.1,18.1,0,0,1,2.118,2.4,20.342,20.342,0,0,1,1.476,2.365l-2.763,2.865a15.225,15.225,0,0,0-3.275-4.57,6.19,6.19,0,0,0-4.127-2.1,5.7,5.7,0,0,0-3.97,2.094,5.128,5.128,0,0,0-1.756,3.954,6.508,6.508,0,0,0,2.272,4,16.467,16.467,0,0,0,2.19,1.777,13.675,13.675,0,0,0,2.454,1.328L868.9,618.4a19.266,19.266,0,0,1-2.366-1.418A20.879,20.879,0,0,1,864.069,614.918Z" fill="#fff"/><path d="M873.344,622.448l9.026-15.784,4.222,2.414-3.5,6.127,9.325-2.8,4.826,2.76-9.719,2.995,1.061,13-4.512-2.579-.614-9.393-3.157.9-2.733,4.779Z" fill="#fff"/><path d="M894.027,633.206l5.252-17.408,13.739,4.145-1.012,3.353-9.082-2.74-1.1,3.648,8.012,2.417-1.027,3.406L900.8,627.61l-1.1,3.649,9.083,2.74-1.012,3.352Z" fill="#fff"/><path d="M913.2,638.453l1.35-18.133,8.406.626a12.068,12.068,0,0,1,4.9,1.285,6.377,6.377,0,0,1,2.854,3.158,11.534,11.534,0,0,1,.657,5.414q-.347,4.674-2.811,6.641t-6.954,1.634Zm5.11-3.131,2.892.216a7.052,7.052,0,0,0,2.669-.24,3.073,3.073,0,0,0,1.747-1.5,8.253,8.253,0,0,0,.812-3.365,9.619,9.619,0,0,0-.239-3.515,3.069,3.069,0,0,0-1.438-1.834,6.66,6.66,0,0,0-2.721-.7l-2.891-.216Z" fill="#fff"/><path d="M944.384,638.476l-4.038-17.729,9.339-2.126a7.652,7.652,0,0,1,3.931-.013,5.5,5.5,0,0,1,2.712,1.772,7.23,7.23,0,0,1,1.455,3.056,6.41,6.41,0,0,1-.091,3.41,5.819,5.819,0,0,1-1.844,2.72,7.975,7.975,0,0,1-3.429,1.608l-4.479,1.019,1.186,5.2Zm2.78-9.7,3.417-.777a3.1,3.1,0,0,0,2.078-1.284,2.863,2.863,0,0,0,.286-2.209,3.125,3.125,0,0,0-1.177-1.976,2.875,2.875,0,0,0-2.337-.264l-3.565.812Z" fill="#fff"/><path d="M964.37,633.1l-6.684-16.909,4.523-1.788,6.685,16.909Z" fill="#fff"/><path d="M973.86,629.239l-9.018-15.787,4.222-2.412,7.284,12.747,7.973-4.556,1.738,3.04Z" fill="#fff"/><path d="M989.889,619.434l-11.867-13.777,3.685-3.174,9.582,11.122,6.959-5.992,2.285,2.653Z" fill="#fff"/><path d="M1009.593,599.628q-2.807,3.827-6.092,4.486t-7.134-2.158q-4.077-2.986-4.387-6.288t2.494-7.125q2.8-3.825,6.045-4.522t7.317,2.293q3.846,2.821,4.2,6.156T1009.593,599.628Zm-3.12-2.287a4.483,4.483,0,0,0,1.058-3.663,6.2,6.2,0,0,0-2.643-3.343q-2.46-1.8-4.142-1.632a4.591,4.591,0,0,0-3.131,2.144,4.642,4.642,0,0,0-1.121,3.654q.345,1.656,2.8,3.46a6.194,6.194,0,0,0,3.982,1.515A4.523,4.523,0,0,0,1006.473,597.341Z" fill="#fff"/><path d="M1019.277,583.188l-18.663-1.677,1.565-4.511,11.191,1.165-7.051-5.26-2.427-.842,1.307-3.767,11.475.431-9.494-6.141,1.564-4.509,15.7,10.212-1.475,4.252-10.992-.359,8.774,6.755Z" fill="#fff"/><path d="M858.017,492.168a86.821,86.821,0,0,0-14.9,48.769,88,88,0,0,0,.837,12.135" fill="none" stroke="#fff" stroke-linecap="round" stroke-linejoin="round" stroke-width="5"/><path d="M1016.718,553.19a87.958,87.958,0,0,0,.854-12.253,86.825,86.825,0,0,0-14.647-48.4" fill="none" stroke="#fff" stroke-linecap="round" stroke-linejoin="round" stroke-width="5"/></g></svg>