<svg xmlns="http://www.w3.org/2000/svg" xmlns:xlink="http://www.w3.org/1999/xlink" width="107.523" height="75.839" viewBox="0 0 107.523 75.839"><defs><clipPath id="a"><rect width="107.523" height="75.839" fill="#fff" stroke="#fff" stroke-width="1"/></clipPath></defs><g clip-path="url(#a)"><path d="M23.881,40.6q-3.847,9.766-8.324,19.266Q11.1,69.322,6.041,78.476,3.171,83.668.111,88.753a.762.762,0,0,0,.85,1.105L21.4,86.479,41.832,83.1l11.55-1.91a.758.758,0,0,0,.526-.926.771.771,0,0,0-.926-.526L32.547,83.118,12.112,86.5.561,88.407l.85,1.105Q6.853,80.464,11.7,71.076t9.066-19.067Q23.148,46.547,25.333,41a.758.758,0,0,0-.526-.926.77.77,0,0,0-.926.526" transform="translate(0 -27.992)" fill="#fff" stroke="#fff" stroke-width="1"/><path d="M101.077,150.8a72.743,72.743,0,0,0-7.088,13.043,71.5,71.5,0,0,0-2.492,6.934c-.691,2.29-1.547,4.876-.5,7.19a5.354,5.354,0,0,0,4.495,2.851,7.568,7.568,0,0,0,5.568-1.905,19.673,19.673,0,0,0,4.058-5.232q1.936-3.234,3.6-6.619a93.718,93.718,0,0,0,5.568-14.056q.28-.918.541-1.841a.753.753,0,0,0-1.451-.4,91.616,91.616,0,0,1-4.954,13.434q-1.522,3.3-3.3,6.469a37.243,37.243,0,0,1-3.523,5.548,7.9,7.9,0,0,1-4.606,3.064,4.64,4.64,0,0,1-4.2-1.271c-1.4-1.588-.647-4.059-.129-5.868q.969-3.382,2.27-6.657a70.658,70.658,0,0,1,6.473-12.477q.475-.73.969-1.448a.753.753,0,1,0-1.3-.76" transform="translate(-63.263 -105.011)" fill="#fff" stroke="#fff" stroke-width="1"/><path d="M194.5.753l-2.522,23.932L189.47,48.467l-1.419,13.462a.758.758,0,0,0,.753.753.77.77,0,0,0,.753-.753Q190.817,49.963,192.078,38q1.253-11.891,2.506-23.783Q195.293,7.484,196,.753A.757.757,0,0,0,195.25,0a.769.769,0,0,0-.753.753" transform="translate(-131.442)" fill="#fff" stroke="#fff" stroke-width="1"/><path d="M184.188,134l16.007-9.933,4.528-2.81c.821-.51.067-1.812-.76-1.3l-16.007,9.933-4.528,2.81c-.821.51-.067,1.812.76,1.3" transform="translate(-127.965 -83.769)" fill="#fff" stroke="#fff" stroke-width="1"/><path d="M208.462,136.3l9.4,12.2,2.706,3.511a.778.778,0,0,0,1.03.27.757.757,0,0,0,.27-1.029l-9.4-12.2-2.706-3.511a.778.778,0,0,0-1.029-.27.757.757,0,0,0-.27,1.029" transform="translate(-145.633 -94.481)" fill="#fff" stroke="#fff" stroke-width="1"/><path d="M267.631,132.29c2.334-4.988,7.922-7.047,12.887-8.4.655-.179,1.313-.348,1.972-.511a7.572,7.572,0,0,1,2.2-.35c1.538.082,1.842,1.854,2.1,3.059a36.85,36.85,0,0,1-1.933,21.469l1.451.4c1.173-3.2,2.491-6.9,1.3-10.293-.9-2.574-3.25-5.012-6.168-4.846a4.813,4.813,0,0,0-4.245,4.517,3.5,3.5,0,0,0,1.035,2.859,1.518,1.518,0,0,0,.909.505,5.081,5.081,0,0,0,1.37-.381q1.23-.39,2.439-.842a51.426,51.426,0,0,0,10.322-5.247c.805-.532.052-1.836-.759-1.3a50,50,0,0,1-13.572,6.292l.58.076a1.139,1.139,0,0,1-.28-.219c-.054-.052-.105-.107-.154-.164-.151-.177.037.06-.039-.053a1.54,1.54,0,0,1-.3-.683,2.846,2.846,0,0,1,.093-1.486,3.379,3.379,0,0,1,2.144-2.29,3.479,3.479,0,0,1,1.99.153,4.8,4.8,0,0,1,1.816,1.255,6.736,6.736,0,0,1,1.759,4.587,20.3,20.3,0,0,1-1.694,7.162.76.76,0,0,0,.526.926.772.772,0,0,0,.926-.526,38.368,38.368,0,0,0,2.055-21.674c-.3-1.539-.626-3.348-2.038-4.275-1.459-.958-3.372-.3-4.909.089a39.641,39.641,0,0,0-8.36,2.945,14.451,14.451,0,0,0-6.727,6.491.774.774,0,0,0,.27,1.03.759.759,0,0,0,1.03-.27" transform="translate(-186.098 -84.933)" fill="#fff" stroke="#fff" stroke-width="1"/></g></svg>