<svg xmlns="http://www.w3.org/2000/svg" width="68" height="68" viewBox="0 0 68 68">
  <g id="Group_1768" data-name="Group 1768" transform="translate(0)">
    <g id="Group_1619" data-name="Group 1619" transform="translate(0 0)">
      <path id="Path_2170" data-name="Path 2170" d="M1594.513,549.144a33.9,33.9,0,1,1,13.234-2.672A33.785,33.785,0,0,1,1594.513,549.144Z" transform="translate(-1560.513 -481.144)" fill="#203a72"/>
      <path id="Path_2171" data-name="Path 2171" d="M1616.7,560.317a22.918,22.918,0,1,1,8.948-1.807A22.841,22.841,0,0,1,1616.7,560.317Zm0-45.134a22.08,22.08,0,1,0,8.62,1.74A22.011,22.011,0,0,0,1616.7,515.183Z" transform="translate(-1582.7 -503.331)" fill="#d6e9ff"/>
      <path id="Path_2172" data-name="Path 2172" d="M1648.762,550.533a.388.388,0,0,0-.436-.315,20.326,20.326,0,0,0-8.278,3.159,25.361,25.361,0,0,0-4.965,4.293l-.089-1.166q-.057-.741-.113-1.477a1.866,1.866,0,0,0-.057-.342,13.455,13.455,0,0,1,.857-1.421,6.438,6.438,0,0,1,2.231-2.171.388.388,0,0,0-.339-.7,9.06,9.06,0,0,0-3.254,3.59.695.695,0,0,0-.641,0,9.057,9.057,0,0,0-3.254-3.59.388.388,0,1,0-.339.7c1.534.745,2.787,3.015,3.087,3.592a1.9,1.9,0,0,0-.057.342q-.055.736-.112,1.477-.044.582-.089,1.166a25.372,25.372,0,0,0-4.965-4.293,20.327,20.327,0,0,0-8.278-3.159.388.388,0,0,0-.436.315,29.7,29.7,0,0,0-.382,5.4,18.984,18.984,0,0,0,.6,4.579,8.6,8.6,0,0,0,2.152,3.953,6.159,6.159,0,0,0,4.033,1.721c-.694.715-1.464,1.531-2,2.166a4.171,4.171,0,0,0,1.1,6.323,5.51,5.51,0,0,0,2.852.793c.12,0,.241,0,.362-.012a5.541,5.541,0,0,0,3.086-1.182l1.7-1.326a9.314,9.314,0,0,0,.38.987l.357.786a.575.575,0,0,0,1.047,0l.356-.786a9.175,9.175,0,0,0,.382-.991l1.7,1.33a5.545,5.545,0,0,0,3.088,1.183c.121.008.242.012.362.012a5.506,5.506,0,0,0,2.851-.793,4.171,4.171,0,0,0,1.1-6.323c-.538-.635-1.309-1.451-2-2.166a6.161,6.161,0,0,0,4.033-1.721,8.605,8.605,0,0,0,2.152-3.953,19.015,19.015,0,0,0,.6-4.579A29.652,29.652,0,0,0,1648.762,550.533Zm-28.824.511a19.605,19.605,0,0,1,7.586,2.983,24.937,24.937,0,0,1,5.307,4.728c-.137,1.839-.266,3.688-.363,5.509l-4.178.932c-2.642.544-4.708.11-6.141-1.29C1618.76,560.6,1619.674,552.834,1619.938,551.044Zm10.617,22.615a4.8,4.8,0,0,1-5.422.347,3.4,3.4,0,0,1-.905-5.157c.694-.819,1.818-1.979,2.492-2.663a11.725,11.725,0,0,0,1.731-.231h.006l3.972-.886c-.083,1.743-.133,3.457-.128,5.107a9.178,9.178,0,0,0,.216,1.958Zm3.617-.049-.174.383-.174-.383a8.377,8.377,0,0,1-.49-1.395.4.4,0,0,0-.014-.053,8.348,8.348,0,0,1-.244-1.989c-.013-4.291.349-9.028.7-13.609q.057-.741.113-1.478a.206.206,0,1,1,.219,0q.055.736.113,1.478c.35,4.581.712,9.318.7,13.609a8.379,8.379,0,0,1-.243,1.983.389.389,0,0,0-.014.053A8.412,8.412,0,0,1,1634.172,573.61Zm10.364-2a3.436,3.436,0,0,1-1.673,2.4,4.75,4.75,0,0,1-2.452.677,4.8,4.8,0,0,1-2.97-1.024l-1.96-1.532a9.15,9.15,0,0,0,.215-1.952c.005-1.65-.045-3.364-.128-5.107l3.972.886h.006a11.684,11.684,0,0,0,1.731.231c.673.684,1.8,1.844,2.491,2.663A3.4,3.4,0,0,1,1644.536,571.606Zm1.312-7.7c-1.433,1.4-3.5,1.835-6.142,1.29l-4.178-.932c-.1-1.822-.226-3.67-.363-5.509a24.933,24.933,0,0,1,5.307-4.728,19.614,19.614,0,0,1,7.586-2.983C1648.322,552.834,1649.238,560.593,1645.847,563.906Z" transform="translate(-1599.998 -527.828)" fill="#d6e9ff"/>
      <g id="Group_1618" data-name="Group 1618" transform="translate(5.21 38.552)">
        <ellipse id="Ellipse_125" data-name="Ellipse 125" cx="1.232" cy="1.232" rx="1.232" ry="1.232" transform="translate(0 0.25)" fill="#d6e9ff"/>
        <ellipse id="Ellipse_126" data-name="Ellipse 126" cx="1.232" cy="1.232" rx="1.232" ry="1.232" transform="translate(54.752 2.397) rotate(-76.717)" fill="#d6e9ff"/>
      </g>
    </g>
    <g id="Group_1620" data-name="Group 1620" transform="translate(21.556 4.028)">
      <path id="Path_2173" data-name="Path 2173" d="M1627.843,498.315l1,2.609a.974.974,0,0,0,.47.572,1.014,1.014,0,0,0,1.229-.473.972.972,0,0,0-.034-.739l-1-2.609.829-.319,1,2.6a1.838,1.838,0,0,1,.123,1,1.549,1.549,0,0,1-.391.792,2.013,2.013,0,0,1-.772.512,1.961,1.961,0,0,1-.9.133,1.5,1.5,0,0,1-.806-.331,1.894,1.894,0,0,1-.567-.825l-1-2.6Z" transform="translate(-1627.02 -496.006)" fill="#d6e9ff"/>
      <path id="Path_2174" data-name="Path 2174" d="M1646.136,498.293l-.867.167-2.549-2.664.588,3.043-.866.168-.858-4.441.866-.167,2.551,2.671-.589-3.05.866-.167Z" transform="translate(-1636.753 -493.665)" fill="#d6e9ff"/>
      <path id="Path_2175" data-name="Path 2175" d="M1658.036,493.428l.233,4.51-.882.046-.233-4.511Z" transform="translate(-1647.158 -493.381)" fill="#d6e9ff"/>
      <path id="Path_2176" data-name="Path 2176" d="M1666.21,498.738l-.613-.863a2.273,2.273,0,0,1-.57.034,2.227,2.227,0,0,1-1.113-.371,2.188,2.188,0,0,1-.764-.876,2.494,2.494,0,0,1,.155-2.376,2.19,2.19,0,0,1,.871-.77,2.317,2.317,0,0,1,2.267.148,2.172,2.172,0,0,1,.758.876,2.364,2.364,0,0,1,.222,1.2,2.416,2.416,0,0,1-.32,1.078,2.194,2.194,0,0,1-.729.76l.93,1.228Zm-2.261-2.424a1.248,1.248,0,0,0,.441.557,1.333,1.333,0,0,0,.689.23,1.316,1.316,0,0,0,.71-.138,1.251,1.251,0,0,0,.506-.5,1.939,1.939,0,0,0,.1-1.585,1.231,1.231,0,0,0-.438-.55,1.331,1.331,0,0,0-.686-.227,1.352,1.352,0,0,0-.713.135,1.231,1.231,0,0,0-.509.489,1.748,1.748,0,0,0-.221.78A1.773,1.773,0,0,0,1663.949,496.315Z" transform="translate(-1651.01 -493.287)" fill="#d6e9ff"/>
      <path id="Path_2177" data-name="Path 2177" d="M1680.416,494.939l-.685,2.71a.975.975,0,0,0,.054.738.865.865,0,0,0,.576.4.874.874,0,0,0,.7-.073.971.971,0,0,0,.4-.624l.685-2.71.862.218-.684,2.7a1.834,1.834,0,0,1-.474.885,1.551,1.551,0,0,1-.776.421,2.02,2.02,0,0,1-.927-.027,1.959,1.959,0,0,1-.815-.413,1.5,1.5,0,0,1-.468-.735,1.893,1.893,0,0,1,.012-1l.683-2.7Z" transform="translate(-1661.625 -494.247)" fill="#d6e9ff"/>
      <path id="Path_2178" data-name="Path 2178" d="M1692.71,499.9l-.44,1.043,1.366.575-.279.662-1.365-.575-.465,1.1,1.539.649-.287.68-2.352-.991,1.756-4.168,2.353.991-.286.68Z" transform="translate(-1669.393 -497.026)" fill="#d6e9ff"/>
    </g>
    <g id="Group_1621" data-name="Group 1621" transform="translate(5.427 42.208)">
      <path id="Path_2179" data-name="Path 2179" d="M1579.942,616.58a1.082,1.082,0,0,1-.6.5,1.1,1.1,0,0,1-.683.028,1.309,1.309,0,0,1-.609-.4,2.3,2.3,0,0,1-.449-.793l-.731-2.07,4.366-1.542.7,1.98a2.372,2.372,0,0,1,.153.893,1.251,1.251,0,0,1-.211.677,1.042,1.042,0,0,1-.517.388.994.994,0,0,1-.718,0,1.279,1.279,0,0,1-.573-.466A1.167,1.167,0,0,1,1579.942,616.58Zm-1.329-.555a.536.536,0,0,0,.495.045.557.557,0,0,0,.368-.362.942.942,0,0,0-.037-.614l-.335-.949-1.176.416.342.969A.933.933,0,0,0,1578.613,616.025Zm1.166-2.117.311.88a.917.917,0,0,0,.328.48.505.505,0,0,0,.469.043.514.514,0,0,0,.341-.329.9.9,0,0,0-.043-.58l-.311-.88Z" transform="translate(-1576.874 -612.012)" fill="#d6e9ff"/>
      <path id="Path_2180" data-name="Path 2180" d="M1588.614,625.763l-2.435,1.512a.932.932,0,0,0-.469.609,1.293,1.293,0,0,0,.8,1.295.934.934,0,0,0,.755-.151l2.434-1.513.543.873-2.429,1.51a1.666,1.666,0,0,1-1.914-.027,2.585,2.585,0,0,1-.727-.78,2.5,2.5,0,0,1-.37-.986,1.666,1.666,0,0,1,.134-.946,1.771,1.771,0,0,1,.706-.756l2.429-1.509Z" transform="translate(-1582.164 -620.423)" fill="#d6e9ff"/>
      <path id="Path_2181" data-name="Path 2181" d="M1599.836,639.391l-.55.51-.923-.994-2.843,2.643-.695-.748,2.843-2.643-.924-.994.55-.51Z" transform="translate(-1588.87 -628.282)" fill="#d6e9ff"/>
      <path id="Path_2182" data-name="Path 2182" d="M1610.106,647.856l-.458.594-1.074-.828-2.37,3.074-.809-.623,2.369-3.074-1.074-.828.458-.594Z" transform="translate(-1596.113 -634.244)" fill="#d6e9ff"/>
      <path id="Path_2183" data-name="Path 2183" d="M1617.259,654.536l-.561,1.017,1.5.828-.355.645-1.5-.828-.592,1.075,1.692.933-.365.662-2.586-1.426,2.24-4.061,2.586,1.426-.365.662Z" transform="translate(-1602.248 -639.459)" fill="#d6e9ff"/>
      <path id="Path_2184" data-name="Path 2184" d="M1628.9,664.006l-.44-2.079-.452-.164-.616,1.7-.959-.348,1.58-4.353,1.8.652a2.424,2.424,0,0,1,.882.521,1.415,1.415,0,0,1,.412.693,1.332,1.332,0,0,1-.607,1.425,1.519,1.519,0,0,1-.989.181l.5,2.18Zm-.655-2.9.8.291a.908.908,0,0,0,.645.04.643.643,0,0,0,.365-.408.616.616,0,0,0-.023-.534.929.929,0,0,0-.523-.377l-.8-.291Z" transform="translate(-1610.301 -643.052)" fill="#d6e9ff"/>
      <path id="Path_2185" data-name="Path 2185" d="M1645.471,663.775l-.146.735-2.081-.414-.232,1.165,1.594.318-.144.722-1.6-.317-.382,1.919-1-.2.9-4.542Z" transform="translate(-1620.449 -645.995)" fill="#d6e9ff"/>
      <path id="Path_2186" data-name="Path 2186" d="M1655.535,669.128l1.673.12-.052.734-2.691-.192.331-4.619,1.018.073Z" transform="translate(-1629.193 -647.337)" fill="#d6e9ff"/>
      <path id="Path_2187" data-name="Path 2187" d="M1668.428,665.018l-1.52,3.125.106,1.609-1.018.067-.106-1.608-1.923-2.9,1.15-.075,1.231,2.04.945-2.184Z" transform="translate(-1635.617 -647.236)" fill="#d6e9ff"/>
      <path id="Path_2188" data-name="Path 2188" d="M1692.174,659.7a2.171,2.171,0,0,1,1.172.416,2.251,2.251,0,0,1,.754,1.02,2.221,2.221,0,0,1,.133,1.255,2.184,2.184,0,0,1-.584,1.093,3.286,3.286,0,0,1-1.211.779l-1.658.646-1.682-4.314,1.657-.647A3.294,3.294,0,0,1,1692.174,659.7Zm.954,3.018a1.441,1.441,0,0,0,0-1.2,1.47,1.47,0,0,0-.819-.895,1.748,1.748,0,0,0-1.3.07l-.672.262,1.111,2.85.672-.262A1.78,1.78,0,0,0,1693.128,662.714Z" transform="translate(-1652.577 -643.675)" fill="#d6e9ff"/>
      <path id="Path_2189" data-name="Path 2189" d="M1704.455,653.521l.6.994,1.467-.885.38.631-1.467.884.634,1.051,1.655-1,.39.648-2.53,1.525-2.394-3.971,2.529-1.525.391.648Z" transform="translate(-1662.079 -638.452)" fill="#d6e9ff"/>
      <path id="Path_2190" data-name="Path 2190" d="M1717.224,650.017a1.563,1.563,0,0,1-.824.075,1.187,1.187,0,0,1-.672-.4l.832-.709a.62.62,0,0,0,.462.2.837.837,0,0,0,.526-.231.908.908,0,0,0,.326-.483.489.489,0,0,0-.11-.443.444.444,0,0,0-.324-.167.987.987,0,0,0-.4.065q-.207.077-.545.243a6.565,6.565,0,0,1-.783.323,1.393,1.393,0,0,1-.659.048,1.05,1.05,0,0,1-.624-.389,1.166,1.166,0,0,1-.292-.692,1.415,1.415,0,0,1,.179-.768,2.521,2.521,0,0,1,.6-.729,2.171,2.171,0,0,1,1.2-.565,1.258,1.258,0,0,1,1.044.387l-.855.729a.517.517,0,0,0-.425-.156.9.9,0,0,0-.52.238.758.758,0,0,0-.273.416.483.483,0,0,0,.126.424.4.4,0,0,0,.3.147,1.039,1.039,0,0,0,.385-.066q.2-.073.544-.233a6.323,6.323,0,0,1,.788-.323,1.439,1.439,0,0,1,.669-.047,1.041,1.041,0,0,1,.624.384,1.219,1.219,0,0,1,.287.662,1.452,1.452,0,0,1-.142.788,2.307,2.307,0,0,1-.615.773A2.647,2.647,0,0,1,1717.224,650.017Z" transform="translate(-1669.607 -634.12)" fill="#d6e9ff"/>
      <path id="Path_2191" data-name="Path 2191" d="M1723.166,639.429l3.45,3.089-.68.761-3.451-3.089Z" transform="translate(-1675.188 -630.135)" fill="#d6e9ff"/>
      <path id="Path_2192" data-name="Path 2192" d="M1731.044,628.725a1.149,1.149,0,0,0-.633.169,1.579,1.579,0,0,0-.511.522,1.683,1.683,0,0,0-.272.777,1.34,1.34,0,0,0,.156.746,1.72,1.72,0,0,0,1.359.855,1.352,1.352,0,0,0,.747-.187,1.777,1.777,0,0,0,.6-.6,1.539,1.539,0,0,0,.272-.958,1.324,1.324,0,0,0-.4-.833l-.936,1.479-.6-.38,1.474-2.329.684.433a2.093,2.093,0,0,1,.523.849,2.425,2.425,0,0,1,.1,1.083,2.744,2.744,0,0,1-.424,1.134,2.9,2.9,0,0,1-.967.964,2.323,2.323,0,0,1-1.209.339,2.369,2.369,0,0,1-2.066-1.307,2.313,2.313,0,0,1-.213-1.24,2.886,2.886,0,0,1,.453-1.28,2.848,2.848,0,0,1,1.122-1.059,1.975,1.975,0,0,1,1.374-.166Z" transform="translate(-1679.349 -622.283)" fill="#d6e9ff"/>
      <path id="Path_2193" data-name="Path 2193" d="M1740.544,612.848l-.316.971-3.737,1.214,3.021.984-.316.971-4.41-1.435.315-.971,3.744-1.213-3.028-.986.316-.971Z" transform="translate(-1683.409 -611.413)" fill="#d6e9ff"/>
    </g>
    <path id="Path_2194" data-name="Path 2194" d="M1722.531,536.312a.5.5,0,0,1-.5-.5,28.083,28.083,0,0,0-13.1-23.818.5.5,0,1,1,.533-.84,29.073,29.073,0,0,1,13.564,24.658A.5.5,0,0,1,1722.531,536.312Z" transform="translate(-1660.548 -501.148)" fill="#d6e9ff"/>
    <path id="Path_2195" data-name="Path 2195" d="M1576.42,536.871a.5.5,0,0,1-.5-.5A29.139,29.139,0,0,1,1589.05,512a.5.5,0,0,1,.548.831,28.147,28.147,0,0,0-12.681,23.546A.5.5,0,0,1,1576.42,536.871Z" transform="translate(-1570.811 -501.937)" fill="#d6e9ff"/>
  </g>
</svg>
