<svg xmlns="http://www.w3.org/2000/svg" width="392.738" height="116.396" viewBox="0 0 392.738 116.396">
  <g id="Group_1823" data-name="Group 1823" transform="translate(-763.631 -25571.689)">
    <g id="Group_1822" data-name="Group 1822">
      <g id="Group_1343" data-name="Group 1343" transform="translate(654.013 25327.383)">
        <path id="Path_1643" data-name="Path 1643" d="M135.833,244.307H476.142a26.292,26.292,0,0,1,26.215,26.215v63.967A26.292,26.292,0,0,1,476.142,360.7H135.833a26.291,26.291,0,0,1-26.215-26.215V270.521A26.292,26.292,0,0,1,135.833,244.307Z" fill="#3ace01"/>
        <path id="Path_1644" data-name="Path 1644" d="M197.449,295.194c20.936,0,37.908,13.59,37.908,30.355a25.941,25.941,0,0,1-5.66,15.96,7.808,7.808,0,0,1-.7.878l-.022.024a32.85,32.85,0,0,1-4.123,4.113c-10.483,9.69-27.738,21.226-30.015,19.446-1.98-1.547,3.261-9.114-2.785-10.373-.422-.048-.842-.1-1.26-.159h-.008c-17.757-2.522-31.242-14.943-31.242-29.887C159.54,308.784,176.513,295.194,197.449,295.194Z" transform="translate(3.088 -25.772)" fill="#fff"/>
        <path id="Path_1645" data-name="Path 1645" d="M212.47,392.123h7.645a1.983,1.983,0,0,0,1.977-1.977v-.165A1.983,1.983,0,0,0,220.115,388h-5.5V375.482a1.983,1.983,0,0,0-1.977-1.977h-.165a1.983,1.983,0,0,0-1.977,1.977v14.663a1.983,1.983,0,0,0,1.977,1.978Zm47.375-9.191v-.165a1.983,1.983,0,0,0-1.977-1.977h-5.5v-3.13h5.5a1.983,1.983,0,0,0,1.977-1.977v-.165a1.983,1.983,0,0,0-1.977-1.977h-7.645a1.982,1.982,0,0,0-1.977,1.977V390.18a1.983,1.983,0,0,0,1.977,1.977h7.645a1.983,1.983,0,0,0,1.977-1.977v-.165a1.983,1.983,0,0,0-1.977-1.977h-5.5v-3.13h5.5a1.982,1.982,0,0,0,1.977-1.976Zm-14.7,8.6h0a1.973,1.973,0,0,0,.572-1.387V375.482a1.983,1.983,0,0,0-1.978-1.977h-.165a1.983,1.983,0,0,0-1.977,1.977v8.608l-7.146-9.585a1.98,1.98,0,0,0-1.717-1h-.165a1.983,1.983,0,0,0-1.977,1.977v14.663a1.983,1.983,0,0,0,1.977,1.977h.165a1.983,1.983,0,0,0,1.977-1.977v-8.769l7.2,9.83a2.014,2.014,0,0,0,.145.2h0a1.664,1.664,0,0,0,.769.568,1.962,1.962,0,0,0,.75.149h.165a1.956,1.956,0,0,0,.924-.231,1.394,1.394,0,0,0,.482-.358Zm-19.477.589h.165a1.983,1.983,0,0,0,1.977-1.977V375.482a1.983,1.983,0,0,0-1.977-1.977h-.165a1.983,1.983,0,0,0-1.977,1.977v14.663A1.983,1.983,0,0,0,225.665,392.123Z" transform="translate(-33.928 -82.663)" fill="#3ace01"/>
      </g>
      <text id="เพิ่มเพื่อน" transform="translate(872 25593.086)" fill="#fff" font-size="48" font-family="Kanit-Medium, Kanit" font-weight="500"><tspan x="42.976" y="53">เพิ่มเพื่อน</tspan></text>
    </g>
  </g>
</svg>
