<svg xmlns="http://www.w3.org/2000/svg" width="200" height="46.99" viewBox="0 0 200 46.99"><g transform="translate(595.451 -436.379)"><path d="M-595.451,475.259h20.574v-6.446h-13.835v-7.666h13.835V454.8h-13.835v-7.276h13.835v-6.445h-20.574Z" transform="translate(0 -2.765)" fill="#5ccb4a"/><path d="M-478.471,466.865a9.2,9.2,0,0,0-7.813-3.712,11.512,11.512,0,0,0-8.643,3.663,12.3,12.3,0,0,0-3.516,8.838,12.319,12.319,0,0,0,3.492,8.863,11.525,11.525,0,0,0,8.667,3.638,9.2,9.2,0,0,0,7.813-3.711v2.637a5.717,5.717,0,0,1-1.709,4.443,6.683,6.683,0,0,1-4.687,1.563q-4.541,0-6.4-3.418l-5.371,3.076a10.583,10.583,0,0,0,4.614,4.444,15.268,15.268,0,0,0,6.958,1.514,14,14,0,0,0,9.009-2.979q3.736-2.979,3.736-8.643V463.837h-6.153Zm-1.929,13.6a6.742,6.742,0,0,1-4.907,1.88,6.74,6.74,0,0,1-4.908-1.88,6.423,6.423,0,0,1-1.929-4.81,6.364,6.364,0,0,1,1.929-4.761,6.741,6.741,0,0,1,4.908-1.88,6.743,6.743,0,0,1,4.907,1.88,6.368,6.368,0,0,1,1.929,4.761A6.426,6.426,0,0,1-480.4,480.464Z" transform="translate(-57.098 -15.759)" fill="#5ccb4a"/><path d="M-229.372,466.718a9.588,9.588,0,0,0-7.959-3.565,11.062,11.062,0,0,0-8.375,3.736,12.906,12.906,0,0,0-3.492,9.155,12.906,12.906,0,0,0,3.492,9.156,11.062,11.062,0,0,0,8.375,3.736,9.585,9.585,0,0,0,7.959-3.565v2.881h6.3V463.837h-6.3ZM-231.3,481a6.586,6.586,0,0,1-4.858,1.929A6.5,6.5,0,0,1-240.993,481a6.755,6.755,0,0,1-1.9-4.957,6.756,6.756,0,0,1,1.9-4.956,6.508,6.508,0,0,1,4.834-1.929,6.589,6.589,0,0,1,4.858,1.929,6.71,6.71,0,0,1,1.929,4.956A6.709,6.709,0,0,1-231.3,481Z" transform="translate(-203.804 -15.759)" fill="#5ccb4a"/><path d="M-150.176,453.9a11.117,11.117,0,0,0-8.423-3.736,9.451,9.451,0,0,0-7.91,3.565V441.077h-6.3v34.181h6.3v-2.881a9.448,9.448,0,0,0,7.91,3.565,11.117,11.117,0,0,0,8.423-3.736,12.912,12.912,0,0,0,3.491-9.156A12.911,12.911,0,0,0-150.176,453.9Zm-4.737,14.112a6.586,6.586,0,0,1-4.859,1.929,6.5,6.5,0,0,1-4.834-1.929,6.756,6.756,0,0,1-1.9-4.957,6.757,6.757,0,0,1,1.9-4.956,6.507,6.507,0,0,1,4.834-1.929,6.589,6.589,0,0,1,4.859,1.929,6.71,6.71,0,0,1,1.929,4.956A6.709,6.709,0,0,1-154.913,468.007Z" transform="translate(-248.766 -2.765)" fill="#5ccb4a"/><path d="M-517.608,463.153h-4.59c-8.4,0-12.716,4.033-12.906,12.147v12.953h6.406V475.2c0-3.653,1.755-5.5,5.266-5.5h1.177a16.1,16.1,0,0,1,3.49-5.449Q-518.2,463.667-517.608,463.153Z" transform="translate(-35.52 -15.759)" fill="#5ccb4a"/><path d="M-283.231,468.812H-294.8V441.077h-6.738v34.181h22.256c-.079-.081-.159-.159-.237-.243A16.67,16.67,0,0,1-283.231,468.812Z" transform="translate(-172.996 -2.765)" fill="#5ccb4a"/><path d="M-401.911,436.379a22.693,22.693,0,0,0-16.686,6.808,22.689,22.689,0,0,0-6.808,16.686,22.69,22.69,0,0,0,6.808,16.687,22.693,22.693,0,0,0,16.686,6.808,22.843,22.843,0,0,0,16.731-6.808,22.621,22.621,0,0,0,6.853-16.687,22.619,22.619,0,0,0-6.853-16.686A22.843,22.843,0,0,0-401.911,436.379Zm12.349,35.8a18.4,18.4,0,0,1-1.932,1.671,5.244,5.244,0,0,1-7.072-.721c-.023-.031-.051-.058-.074-.089a4.191,4.191,0,0,0-6.445-.008c-.035.043-.074.086-.109.125a5.246,5.246,0,0,1-7.072.7,17.718,17.718,0,0,1-1.939-1.682,16.746,16.746,0,0,1-5.02-12.306,16.745,16.745,0,0,1,5.02-12.306,17.384,17.384,0,0,1,4.038-3.03l.044-.023c2.872-1.536,6-.182,6.361,3.709.209,2.247.291,5.275.67,7.753a1.239,1.239,0,0,0,2.453,0c.376-2.466.459-5.482.667-7.722.36-3.884,3.484-5.256,6.349-3.72a17.486,17.486,0,0,1,4.062,3.034,16.685,16.685,0,0,1,5.055,12.306A16.686,16.686,0,0,1-389.561,472.18Z" transform="translate(-100.088 0)" fill="#5ccb4a"/><path d="M-565.239,441.079v6.443h-13.835V445.4a4.323,4.323,0,0,1,4.324-4.32Z" transform="translate(-9.639 -2.766)" fill="#5ccb4a"/><path d="M-579.074,508.489h13.835v6.447h-9.512a4.323,4.323,0,0,1-4.324-4.32Z" transform="translate(-9.639 -42.444)" fill="#5ccb4a"/><path d="M-535.1,486.019v11.6h6.406V484.568c0-3.653,1.755-5.5,5.266-5.5C-523.432,479.064-535.1,478.695-535.1,486.019Z" transform="translate(-35.52 -25.122)" fill="#5ccb4a"/><path d="M-486.284,488.155a9.2,9.2,0,0,0,7.813-3.711v-8.79a6.426,6.426,0,0,1-1.929,4.81,6.742,6.742,0,0,1-4.907,1.88,6.74,6.74,0,0,1-4.908-1.88,6.423,6.423,0,0,1-1.929-4.81,6.364,6.364,0,0,1,1.929-4.761,6.741,6.741,0,0,1,4.908-1.88,6.743,6.743,0,0,1,4.907,1.88,6.368,6.368,0,0,1,1.929,4.761v-8.789a9.2,9.2,0,0,0-7.813-3.712,11.512,11.512,0,0,0-8.643,3.663,12.3,12.3,0,0,0-3.516,8.838,12.319,12.319,0,0,0,3.492,8.863A11.525,11.525,0,0,0-486.284,488.155Z" transform="translate(-57.098 -15.759)" fill="#5ccb4a"/><path d="M-141.163,485.2a12.911,12.911,0,0,0,3.491-9.156,12.911,12.911,0,0,0-3.491-9.155,11.117,11.117,0,0,0-8.423-3.736,9.451,9.451,0,0,0-7.91,3.565v9.327a6.757,6.757,0,0,1,1.9-4.956,6.508,6.508,0,0,1,4.834-1.929,6.589,6.589,0,0,1,4.859,1.929,6.71,6.71,0,0,1,1.929,4.956A6.709,6.709,0,0,1-145.9,481a6.586,6.586,0,0,1-4.859,1.929A6.5,6.5,0,0,1-155.593,481a6.756,6.756,0,0,1-1.9-4.957v9.327a9.448,9.448,0,0,0,7.91,3.565A11.117,11.117,0,0,0-141.163,485.2Z" transform="translate(-257.779 -15.759)" fill="#5ccb4a"/><path d="M-229.372,476.044A6.709,6.709,0,0,1-231.3,481a6.586,6.586,0,0,1-4.858,1.929A6.5,6.5,0,0,1-240.993,481a6.755,6.755,0,0,1-1.9-4.957,6.756,6.756,0,0,1,1.9-4.956,6.508,6.508,0,0,1,4.834-1.929,6.589,6.589,0,0,1,4.858,1.929,6.71,6.71,0,0,1,1.929,4.956v-9.327a9.588,9.588,0,0,0-7.959-3.565,11.062,11.062,0,0,0-8.375,3.736,12.906,12.906,0,0,0-3.492,9.155,12.906,12.906,0,0,0,3.492,9.156,11.062,11.062,0,0,0,8.375,3.736,9.585,9.585,0,0,0,7.959-3.565Z" transform="translate(-203.804 -15.759)" fill="#5ccb4a"/><path d="M-269.646,514.936h-10.882a4.635,4.635,0,0,1-4.637-4.632v-1.814h11.573a16.643,16.643,0,0,0,3.711,6.2C-269.8,514.779-269.724,514.858-269.646,514.936Z" transform="translate(-182.634 -42.444)" fill="#5ccb4a"/><path d="M-403.764,454.405c-.383-3.855-3.5-5.188-6.356-3.657a.222.222,0,0,0-.045.021,17.489,17.489,0,0,0-4.04,3.032,16.746,16.746,0,0,0-5.019,12.305,16.746,16.746,0,0,0,5.019,12.305,17.607,17.607,0,0,0,1.942,1.683,5.309,5.309,0,0,0,1.794.876l-3.188,5.628a23.49,23.49,0,0,1-4.937-3.805,22.676,22.676,0,0,1-6.809-16.686,22.675,22.675,0,0,1,6.809-16.686c0-.008.012-.012.016-.016a8.077,8.077,0,0,1,4.414-2.238C-404.583,445.605-403.81,453.706-403.764,454.405Z" transform="translate(-100.089 -6.231)" fill="#5ccb4a"/><path d="M-420.445,481.53c9.414,8.412,15.361-1.458,15.361-1.458-.035.043-.074.086-.109.125a5.246,5.246,0,0,1-7.072.7,17.725,17.725,0,0,1-1.939-1.682,16.746,16.746,0,0,1-5.02-12.306,16.744,16.744,0,0,1,5.02-12.306c.249-.249.506-.481.763-.711l-3.033-5.558a25.041,25.041,0,0,0-2.122,1.888,22.689,22.689,0,0,0-6.808,16.687A22.691,22.691,0,0,0-420.445,481.53Z" transform="translate(-100.088 -7.039)" fill="#5ccb4a"/><path d="M-363.571,454.405c.383-3.855,3.5-5.188,6.356-3.657a.221.221,0,0,1,.045.021,17.489,17.489,0,0,1,4.04,3.032,16.746,16.746,0,0,1,5.019,12.305,16.746,16.746,0,0,1-5.019,12.305,17.607,17.607,0,0,1-1.942,1.683,5.309,5.309,0,0,1-1.794.876l3.188,5.628a23.488,23.488,0,0,0,4.937-3.805,22.676,22.676,0,0,0,6.809-16.686,22.675,22.675,0,0,0-6.809-16.686c0-.008-.012-.012-.016-.016a8.077,8.077,0,0,0-4.414-2.238C-362.752,445.605-363.526,453.706-363.571,454.405Z" transform="translate(-136.484 -6.231)" fill="#5ccb4a"/><path d="M-345.006,481.53c-9.413,8.412-15.361-1.458-15.361-1.458.035.043.074.086.109.125a5.247,5.247,0,0,0,7.072.7,17.8,17.8,0,0,0,1.939-1.682,16.745,16.745,0,0,0,5.02-12.306,16.744,16.744,0,0,0-5.02-12.306c-.249-.249-.506-.481-.763-.711l3.034-5.558a24.98,24.98,0,0,1,2.122,1.888,22.69,22.69,0,0,1,6.808,16.687A22.692,22.692,0,0,1-345.006,481.53Z" transform="translate(-138.37 -7.039)" fill="#5ccb4a"/></g></svg>