<svg xmlns="http://www.w3.org/2000/svg" width="68.05" height="68.502" viewBox="0 0 68.05 68.502">
  <g id="Group_1867" data-name="Group 1867" transform="translate(0 0.171)">
    <circle id="Ellipse_107" data-name="Ellipse 107" cx="34" cy="34" r="34" transform="translate(0 -0.171)" fill="#d6e9ff"/>
    <ellipse id="Ellipse_107-2" data-name="Ellipse 107" cx="32.019" cy="32.019" rx="32.019" ry="32.019" transform="translate(2.012 2.294)" fill="none" stroke="#203a72" stroke-miterlimit="10" stroke-width="4"/>
    <g id="Group_1505" data-name="Group 1505" transform="translate(10.241 7.332)">
      <path id="Path_2038" data-name="Path 2038" d="M1275.458,528.353l-.631-.588,1.07-1.147,3.562,3.323-.64.686-2.932-2.735Z" transform="translate(-1274.827 -517.271)" fill="#203a72"/>
      <path id="Path_2039" data-name="Path 2039" d="M1282.887,520.516a1.72,1.72,0,0,1,2.068-1.738,3.429,3.429,0,0,1,1.477,1.124,3.475,3.475,0,0,1,.862,1.658,1.71,1.71,0,0,1-2.068,1.738,3.476,3.476,0,0,1-1.486-1.135A3.428,3.428,0,0,1,1282.887,520.516Zm2.274-.633a1.133,1.133,0,0,0-.544-.263.814.814,0,0,0-.842.708,1.136,1.136,0,0,0,.165.581,4.72,4.72,0,0,0,.488.677,5.19,5.19,0,0,0,.593.615,1.081,1.081,0,0,0,.546.265.833.833,0,0,0,.848-.712,1.083,1.083,0,0,0-.168-.584,5.2,5.2,0,0,0-.5-.69A4.733,4.733,0,0,0,1285.161,519.884Z" transform="translate(-1280.116 -512.073)" fill="#203a72"/>
      <path id="Path_2040" data-name="Path 2040" d="M1293.983,512.342a1.721,1.721,0,0,1,2.313-1.4,3.42,3.42,0,0,1,1.284,1.34,3.474,3.474,0,0,1,.6,1.772,1.71,1.71,0,0,1-2.313,1.4,3.484,3.484,0,0,1-1.292-1.352A3.431,3.431,0,0,1,1293.983,512.342Zm2.345-.272a1.137,1.137,0,0,0-.5-.344.815.815,0,0,0-.942.569,1.131,1.131,0,0,0,.074.6,4.641,4.641,0,0,0,.377.745,5.2,5.2,0,0,0,.49.7,1.082,1.082,0,0,0,.5.347.833.833,0,0,0,.948-.572,1.08,1.08,0,0,0-.075-.6,5.157,5.157,0,0,0-.391-.76A4.688,4.688,0,0,0,1296.328,512.07Z" transform="translate(-1287.419 -506.872)" fill="#203a72"/>
      <path id="Path_2041" data-name="Path 2041" d="M1305.556,505.022a1.11,1.11,0,0,1,1.394-.529,1.246,1.246,0,0,1,.567,1.493,1.11,1.11,0,0,1-1.394.529,1.244,1.244,0,0,1-.566-1.493Zm.638.608q.187.493.522.367a.321.321,0,0,0,.209-.219.662.662,0,0,0-.05-.406q-.185-.488-.532-.356T1306.195,505.63Zm2.924-2.182-.732,5.282-.828.314.726-5.279Zm.054,3.05a1.021,1.021,0,0,1,.6-.53,1,1,0,0,1,.792,0,1.272,1.272,0,0,1,.568,1.5.993.993,0,0,1-.589.531,1.01,1.01,0,0,1-.8,0,1.083,1.083,0,0,1-.552-.648A1.067,1.067,0,0,1,1309.173,506.5Zm.627.616q.187.493.534.362t.153-.623q-.185-.487-.526-.358T1309.8,507.114Z" transform="translate(-1294.974 -502.039)" fill="#203a72"/>
      <path id="Path_2042" data-name="Path 2042" d="M1331.075,501.987a1.273,1.273,0,0,1-.47.59,1.915,1.915,0,0,1-.9.314l-.756.095.222,1.777-.9.113-.577-4.629,1.661-.207a1.971,1.971,0,0,1,.914.075,1.28,1.28,0,0,1,.616.441,1.542,1.542,0,0,1,.191,1.431Zm-.965-.085a.665.665,0,0,0,.12-.517q-.085-.677-.821-.585l-.718.089.169,1.346.717-.089A.776.776,0,0,0,1330.11,501.9Z" transform="translate(-1309.58 -499.785)" fill="#203a72"/>
      <path id="Path_2043" data-name="Path 2043" d="M1343.053,504.065l-.952-1.845-.43-.012-.051,1.817-.911-.026.13-4.663,1.7.048a1.949,1.949,0,0,1,.893.215,1.311,1.311,0,0,1,.542.53,1.484,1.484,0,0,1-.118,1.555,1.338,1.338,0,0,1-.789.489l1.035,1.921Zm-1.362-2.558.761.021a.746.746,0,0,0,.558-.168.7.7,0,0,0,.2-.506.661.661,0,0,0-.169-.5.764.764,0,0,0-.548-.193l-.761-.021Z" transform="translate(-1318.137 -499.337)" fill="#203a72"/>
      <path id="Path_2044" data-name="Path 2044" d="M1354.348,501.017l-.2,1.152,1.507.264-.127.73-1.507-.264-.213,1.218,1.7.3-.131.75-2.6-.454.8-4.6,2.6.454-.131.75Z" transform="translate(-1326.069 -499.844)" fill="#203a72"/>
      <path id="Path_2045" data-name="Path 2045" d="M1368.826,504.061l-1.6,4.383-.856-.312,1.037-2.851-2.181,2.434-.649-.236-.112-3.27-1.038,2.851-.856-.311,1.6-4.384.973.354.172,3.754,2.544-2.765Z" transform="translate(-1332.51 -501.328)" fill="#203a72"/>
      <path id="Path_2046" data-name="Path 2046" d="M1381.312,509.972l-2.209,4.109-.8-.432,2.209-4.109Z" transform="translate(-1342.848 -506.044)" fill="#203a72"/>
      <path id="Path_2047" data-name="Path 2047" d="M1387.6,513.309l-1.658,2.364a1,1,0,0,0-.219.732,1.048,1.048,0,0,0,1.114.781,1.007,1.007,0,0,0,.614-.455l1.657-2.364.751.527-1.654,2.358a1.9,1.9,0,0,1-.783.68,1.6,1.6,0,0,1-.9.121,2.079,2.079,0,0,1-.884-.367,2.021,2.021,0,0,1-.635-.7,1.548,1.548,0,0,1-.181-.882,1.95,1.95,0,0,1,.381-.962l1.654-2.358Z" transform="translate(-1347.126 -508.178)" fill="#203a72"/>
      <path id="Path_2048" data-name="Path 2048" d="M1400.4,525.529l-3.345,3.251-.635-.653,2.176-2.115-3.024,1.242-.481-.495,1.323-2.992-2.176,2.115-.635-.654,3.344-3.251.722.742-1.481,3.454,3.5-1.381Z" transform="translate(-1352.908 -514.22)" fill="#203a72"/>
    </g>
    <g id="Group_1507" data-name="Group 1507" transform="translate(9.524 45.514)">
      <g id="Group_1506" data-name="Group 1506">
        <path id="Path_2049" data-name="Path 2049" d="M1279.562,628.317l-3.812,2.889-.579-.765,2.479-1.879-3.253.858-.439-.579,1.7-2.906-2.48,1.879-.579-.764,3.812-2.889.658.868-1.916,3.361,3.753-.936Z" transform="translate(-1272.6 -623.461)" fill="#203a72"/>
        <path id="Path_2050" data-name="Path 2050" d="M1288.8,638.822l-.792.9,1.209,1.064-.5.571-1.209-1.064-.837.952,1.363,1.2-.516.587-2.083-1.833,3.164-3.6,2.083,1.833-.516.587Z" transform="translate(-1281.035 -632.296)" fill="#203a72"/>
        <path id="Path_2051" data-name="Path 2051" d="M1302.039,646.955l-2.379,4.149-.833-.478,1.548-2.7-2.66,2.061-.63-.361.431-3.34-1.548,2.7-.832-.477,2.38-4.149.945.542-.45,3.842,3.089-2.328Z" transform="translate(-1287.414 -636.74)" fill="#203a72"/>
        <path id="Path_2052" data-name="Path 2052" d="M1314.914,658.049a2.355,2.355,0,0,1-.612-1.088,2.582,2.582,0,0,1,.7-2.421,2.356,2.356,0,0,1,1.1-.59,2.578,2.578,0,0,1,2.372.69,2.339,2.339,0,0,1,.605,1.086,2.6,2.6,0,0,1-.7,2.421,2.325,2.325,0,0,1-1.1.591,2.569,2.569,0,0,1-2.369-.689Zm2.12-.15a1.34,1.34,0,0,0,.65-.393,1.835,1.835,0,0,0,.413-.758,1.816,1.816,0,0,0,.057-.858,1.325,1.325,0,0,0-.34-.673,1.482,1.482,0,0,0-.677-.4,1.5,1.5,0,0,0-.787-.029,1.317,1.317,0,0,0-.651.385,2,2,0,0,0-.469,1.615,1.326,1.326,0,0,0,.341.68,1.586,1.586,0,0,0,1.464.426Z" transform="translate(-1299.967 -643.001)" fill="#203a72"/>
        <path id="Path_2053" data-name="Path 2053" d="M1332.993,661.393l-.9-1.944-.451-.037-.152,1.857-.956-.078.39-4.767,1.79.146a2.09,2.09,0,0,1,.926.272,1.365,1.365,0,0,1,.541.573,1.487,1.487,0,0,1-.208,1.585,1.4,1.4,0,0,1-.856.456l.983,2.026Zm-1.293-2.7.8.065a.8.8,0,0,0,.6-.141.7.7,0,0,0,.234-.507.67.67,0,0,0-.15-.525.822.822,0,0,0-.566-.228l-.8-.065Z" transform="translate(-1310.684 -644.67)" fill="#203a72"/>
        <path id="Path_2054" data-name="Path 2054" d="M1346.96,656.154l-1.309,3.259.16,1.658-.955.092-.16-1.657-1.917-2.947,1.078-.1,1.234,2.077.806-2.274Z" transform="translate(-1318.734 -644.492)" fill="#203a72"/>
        <path id="Path_2055" data-name="Path 2055" d="M1363.555,651.8l.254.731-1.884.654.4,1.159,1.444-.5.25.718-1.444.5.663,1.91-.906.315-1.568-4.519Z" transform="translate(-1330.557 -641.632)" fill="#203a72"/>
        <path id="Path_2056" data-name="Path 2056" d="M1374.6,651.9a2.35,2.35,0,0,1-1.207-.315,2.58,2.58,0,0,1-1.254-2.187,2.351,2.351,0,0,1,.338-1.2,2.577,2.577,0,0,1,2.143-1.229,2.333,2.333,0,0,1,1.2.318,2.605,2.605,0,0,1,1.255,2.187,2.327,2.327,0,0,1-.335,1.2,2.571,2.571,0,0,1-2.14,1.227Zm1.363-1.631a1.337,1.337,0,0,0,.168-.74,1.83,1.83,0,0,0-.259-.823,1.812,1.812,0,0,0-.578-.636,1.316,1.316,0,0,0-.72-.223,1.48,1.48,0,0,0-.755.212,1.5,1.5,0,0,0-.567.547,1.316,1.316,0,0,0-.174.736,1.808,1.808,0,0,0,.257.82,1.828,1.828,0,0,0,.58.639,1.329,1.329,0,0,0,.727.227,1.48,1.48,0,0,0,.76-.211A1.457,1.457,0,0,0,1375.959,650.272Z" transform="translate(-1338.031 -638.455)" fill="#203a72"/>
        <path id="Path_2057" data-name="Path 2057" d="M1389.936,641.3l-1.418,1.272.374.889-.75.672-1.919-4.713.831-.746,4.479,2.416-.755.677Zm-.706-.4-1.851-1.027.821,1.951Z" transform="translate(-1347.293 -632.999)" fill="#203a72"/>
        <path id="Path_2058" data-name="Path 2058" d="M1396.237,622.117l3.909,2.756-.553.784-2.543-1.792,1.8,2.84-.418.594-3.285-.74,2.543,1.793-.553.784-3.91-2.756.628-.891,3.783.806-2.03-3.293Z" transform="translate(-1351.9 -622.117)" fill="#203a72"/>
      </g>
    </g>
    <path id="Path_2059" data-name="Path 2059" d="M1303.507,528.552h0a1.259,1.259,0,0,1,2.24.314h0a1.258,1.258,0,0,0,2,.571h0a1.29,1.29,0,0,1,2.1.922h0a1.31,1.31,0,0,0,1.813,1.105h0a1.349,1.349,0,0,1,1.826,1.472h0a1.384,1.384,0,0,0,1.508,1.571h0a1.422,1.422,0,0,1,1.439,1.929h0a1.465,1.465,0,0,0,1.109,1.938h0a1.49,1.49,0,0,1,.961,2.265h0a1.53,1.53,0,0,0,.639,2.183h0a1.537,1.537,0,0,1,.423,2.459h0a1.562,1.562,0,0,0,.13,2.29h0a1.547,1.547,0,0,1-.141,2.5h0a1.551,1.551,0,0,0-.388,2.254h0a1.517,1.517,0,0,1-.7,2.381h0a1.5,1.5,0,0,0-.881,2.076h0a1.458,1.458,0,0,1-1.21,2.114h0a1.425,1.425,0,0,0-1.319,1.768h0a1.385,1.385,0,0,1-1.646,1.714h0a1.345,1.345,0,0,0-1.674,1.349h0a1.317,1.317,0,0,1-1.978,1.206h0a1.28,1.28,0,0,0-1.923.845h0a1.271,1.271,0,0,1-2.186.623h0a1.244,1.244,0,0,0-2.052.288h0a1.255,1.255,0,0,1-2.258,0h0a1.244,1.244,0,0,0-2.052-.288h0a1.271,1.271,0,0,1-2.187-.623h0a1.28,1.28,0,0,0-1.923-.845h0a1.317,1.317,0,0,1-1.978-1.206h0a1.345,1.345,0,0,0-1.674-1.349h0a1.385,1.385,0,0,1-1.645-1.714h0a1.425,1.425,0,0,0-1.319-1.768h0a1.458,1.458,0,0,1-1.21-2.114h0a1.5,1.5,0,0,0-.881-2.076h0a1.517,1.517,0,0,1-.7-2.381h0a1.551,1.551,0,0,0-.388-2.254h0a1.547,1.547,0,0,1-.141-2.5h0a1.562,1.562,0,0,0,.13-2.29h0a1.537,1.537,0,0,1,.423-2.459h0a1.53,1.53,0,0,0,.639-2.183h0a1.49,1.49,0,0,1,.961-2.265h0a1.465,1.465,0,0,0,1.109-1.938h0a1.422,1.422,0,0,1,1.439-1.929h0a1.384,1.384,0,0,0,1.508-1.571h0a1.349,1.349,0,0,1,1.826-1.472h0a1.31,1.31,0,0,0,1.813-1.105h0a1.29,1.29,0,0,1,2.1-.922h0a1.259,1.259,0,0,0,2-.571h0a1.258,1.258,0,0,1,2.239-.314h0A1.24,1.24,0,0,0,1303.507,528.552Z" transform="translate(-1268.57 -512.895)" fill="#203a72"/>
    <g id="Group_1533" data-name="Group 1533" transform="translate(23.209 22.748)">
      <g id="Group_1508" data-name="Group 1508" transform="translate(2.062 1.515)">
        <path id="Path_2060" data-name="Path 2060" d="M1319.657,559.324a2.345,2.345,0,1,1,2.345-2.345A2.348,2.348,0,0,1,1319.657,559.324Zm0-4.015a1.67,1.67,0,1,0,1.67,1.67A1.671,1.671,0,0,0,1319.657,555.31Z" transform="translate(-1317.312 -554.634)" fill="#d6e9ff"/>
      </g>
      <g id="Group_1509" data-name="Group 1509" transform="translate(4.047 7.911)">
        <path id="Path_2061" data-name="Path 2061" d="M1325.472,578.038a2.368,2.368,0,1,1,2.368-2.368A2.371,2.371,0,0,1,1325.472,578.038Zm0-4.061a1.693,1.693,0,1,0,1.693,1.693A1.695,1.695,0,0,0,1325.472,573.977Z" transform="translate(-1323.104 -573.301)" fill="#d6e9ff"/>
      </g>
      <g id="Group_1510" data-name="Group 1510" transform="translate(9.435 12.335)">
        <path id="Path_2062" data-name="Path 2062" d="M1341.9,592.355a3.071,3.071,0,1,1,3.071-3.071A3.074,3.074,0,0,1,1341.9,592.355Zm0-5.467a2.4,2.4,0,1,0,2.4,2.4A2.4,2.4,0,0,0,1341.9,586.889Z" transform="translate(-1338.829 -586.213)" fill="#d6e9ff"/>
      </g>
      <g id="Group_1511" data-name="Group 1511" transform="translate(18.005 7.098)">
        <path id="Path_2063" data-name="Path 2063" d="M1366.516,576.276a2.673,2.673,0,1,1,2.673-2.672A2.676,2.676,0,0,1,1366.516,576.276Zm0-4.67a2,2,0,1,0,2,2A2,2,0,0,0,1366.516,571.606Z" transform="translate(-1363.843 -570.93)" fill="#d6e9ff"/>
      </g>
      <g id="Group_1512" data-name="Group 1512" transform="translate(18.665 15.702)">
        <path id="Path_2064" data-name="Path 2064" d="M1367.782,600.068a2.013,2.013,0,1,1,2.013-2.013A2.015,2.015,0,0,1,1367.782,600.068Zm0-3.35a1.337,1.337,0,1,0,1.337,1.337A1.339,1.339,0,0,0,1367.782,596.718Z" transform="translate(-1365.769 -596.042)" fill="#d6e9ff"/>
      </g>
      <g id="Group_1513" data-name="Group 1513" transform="translate(14.417 10.758)">
        <path id="Path_2065" data-name="Path 2065" d="M1353.71,585.047a.338.338,0,0,1-.192-.616l4-2.758a.338.338,0,1,1,.383.556l-4,2.758A.334.334,0,0,1,1353.71,585.047Z" transform="translate(-1353.372 -581.613)" fill="#d6e9ff"/>
      </g>
      <g id="Group_1514" data-name="Group 1514" transform="translate(7.63 11.248)">
        <path id="Path_2066" data-name="Path 2066" d="M1336.347,585.778a.336.336,0,0,1-.218-.08l-2.447-2.059a.338.338,0,1,1,.435-.517l2.447,2.06a.338.338,0,0,1-.218.6Z" transform="translate(-1333.563 -583.043)" fill="#d6e9ff"/>
      </g>
      <g id="Group_1515" data-name="Group 1515" transform="translate(4.669 5.439)">
        <path id="Path_2067" data-name="Path 2067" d="M1326.059,569.326a.338.338,0,0,1-.322-.237l-.8-2.564a.338.338,0,0,1,.645-.2l.8,2.564a.338.338,0,0,1-.222.423A.344.344,0,0,1,1326.059,569.326Z" transform="translate(-1324.92 -566.087)" fill="#d6e9ff"/>
      </g>
      <g id="Group_1516" data-name="Group 1516" transform="translate(11.736 5.906)">
        <path id="Path_2068" data-name="Path 2068" d="M1347.369,571.094a1.823,1.823,0,1,1,1.823-1.823A1.825,1.825,0,0,1,1347.369,571.094Zm0-2.969a1.147,1.147,0,1,0,1.147,1.147A1.148,1.148,0,0,0,1347.369,568.125Z" transform="translate(-1345.546 -567.449)" fill="#d6e9ff"/>
      </g>
      <g id="Group_1517" data-name="Group 1517" transform="translate(2.891 15.068)">
        <path id="Path_2069" data-name="Path 2069" d="M1322.061,598.85a2.33,2.33,0,1,1,2.33-2.33A2.333,2.333,0,0,1,1322.061,598.85Zm0-3.985a1.655,1.655,0,1,0,1.654,1.655A1.657,1.657,0,0,0,1322.061,594.866Z" transform="translate(-1319.731 -594.19)" fill="#d6e9ff"/>
      </g>
      <g id="Group_1518" data-name="Group 1518" transform="translate(4.883 15.789)">
        <path id="Path_2070" data-name="Path 2070" d="M1325.883,598.241a.338.338,0,0,1-.089-.664l4.648-1.271a.338.338,0,1,1,.178.652l-4.648,1.271A.335.335,0,0,1,1325.883,598.241Z" transform="translate(-1325.546 -596.294)" fill="#d6e9ff"/>
      </g>
      <g id="Group_1519" data-name="Group 1519" transform="translate(12.539 7.39)">
        <path id="Path_2071" data-name="Path 2071" d="M1348.228,577.429a.353.353,0,0,1-.046,0,.338.338,0,0,1-.289-.381l.682-4.971a.338.338,0,0,1,.669.092l-.682,4.97A.338.338,0,0,1,1348.228,577.429Z" transform="translate(-1347.89 -571.783)" fill="#d6e9ff"/>
      </g>
      <g id="Group_1520" data-name="Group 1520" transform="translate(20.34 11.769)">
        <path id="Path_2072" data-name="Path 2072" d="M1371,589.17a.338.338,0,0,1-.338-.338V584.9a.338.338,0,0,1,.676,0v3.934A.337.337,0,0,1,1371,589.17Z" transform="translate(-1370.658 -584.561)" fill="#d6e9ff"/>
      </g>
      <g id="Group_1521" data-name="Group 1521" transform="translate(0 5.301)">
        <path id="Path_2073" data-name="Path 2073" d="M1313.355,579.669a.336.336,0,0,1-.169-.045l-1.724-1a.338.338,0,0,1-.169-.293V566.592a.338.338,0,0,1,.169-.293l.989-.571a.338.338,0,0,1,.338.585l-.82.473v11.354l1.555.9a.338.338,0,0,1-.169.63Z" transform="translate(-1311.293 -565.684)" fill="#d6e9ff"/>
      </g>
      <g id="Group_1522" data-name="Group 1522" transform="translate(7.151)">
        <path id="Path_2074" data-name="Path 2074" d="M1344.766,556.227a.333.333,0,0,1-.168-.045l-9.078-5.241-2.851,1.646a.338.338,0,0,1-.338-.585l3.02-1.743a.338.338,0,0,1,.338,0l9.247,5.338a.338.338,0,0,1-.169.63Z" transform="translate(-1332.163 -550.213)" fill="#d6e9ff"/>
      </g>
      <g id="Group_1523" data-name="Group 1523" transform="translate(5.003 19.223)">
        <path id="Path_2075" data-name="Path 2075" d="M1331.4,611.258a.337.337,0,0,1-.169-.045l-5.167-2.983a.338.338,0,0,1,.338-.585l5,2.886,7.215-4.166a.338.338,0,0,1,.338.586l-7.384,4.263A.337.337,0,0,1,1331.4,611.258Z" transform="translate(-1325.894 -606.319)" fill="#d6e9ff"/>
      </g>
      <g id="Group_1526" data-name="Group 1526" transform="translate(9.511 3.522)">
        <g id="Group_1524" data-name="Group 1524">
          <rect id="Rectangle_355" data-name="Rectangle 355" width="0.676" height="0.676" fill="#d6e9ff"/>
        </g>
        <g id="Group_1525" data-name="Group 1525" transform="translate(2.691)">
          <rect id="Rectangle_356" data-name="Rectangle 356" width="0.676" height="0.676" fill="#d6e9ff"/>
        </g>
      </g>
      <g id="Group_1529" data-name="Group 1529" transform="translate(2.062 13.308)">
        <g id="Group_1527" data-name="Group 1527">
          <rect id="Rectangle_357" data-name="Rectangle 357" width="0.676" height="0.676" fill="#d6e9ff"/>
        </g>
        <g id="Group_1528" data-name="Group 1528" transform="translate(2.458)">
          <rect id="Rectangle_358" data-name="Rectangle 358" width="0.676" height="0.676" fill="#d6e9ff"/>
        </g>
      </g>
      <g id="Group_1532" data-name="Group 1532" transform="translate(9.511 19.839)">
        <g id="Group_1530" data-name="Group 1530">
          <rect id="Rectangle_359" data-name="Rectangle 359" width="0.676" height="0.676" fill="#d6e9ff"/>
        </g>
        <g id="Group_1531" data-name="Group 1531" transform="translate(2.497)">
          <rect id="Rectangle_360" data-name="Rectangle 360" width="0.676" height="0.676" fill="#d6e9ff"/>
        </g>
      </g>
    </g>
    <path id="Path_2076" data-name="Path 2076" d="M1267.186,551.843l-1.267-.792-1.144.96.362-1.45-1.267-.792,1.49-.1.361-1.45.559,1.385,1.49-.1-1.144.96Z" transform="translate(-1254.889 -525.511)" fill="#203a72"/>
    <path id="Path_2077" data-name="Path 2077" d="M1261.492,572.481l-1.267-.792-1.145.96.361-1.45-1.267-.792,1.49-.1.361-1.45.56,1.385,1.49-.1-1.144.96Z" transform="translate(-1251.146 -539.482)" fill="#203a72"/>
    <path id="Path_2078" data-name="Path 2078" d="M1262.354,592.159l-1.267-.792-1.144.96.361-1.45-1.267-.792,1.49-.1.361-1.45.56,1.385,1.49-.1-1.144.96Z" transform="translate(-1251.713 -552.802)" fill="#203a72"/>
    <path id="Path_2079" data-name="Path 2079" d="M1269.618,611.838l-1.267-.792-1.144.96.361-1.449-1.267-.792,1.49-.1.361-1.45.56,1.385,1.49-.1-1.144.96Z" transform="translate(-1256.488 -566.123)" fill="#203a72"/>
    <path id="Path_2080" data-name="Path 2080" d="M1410.594,551.843l1.267-.792,1.144.96-.362-1.45,1.267-.792-1.49-.1-.361-1.45-.559,1.385-1.49-.1,1.144.96Z" transform="translate(-1354.844 -525.511)" fill="#203a72"/>
    <path id="Path_2081" data-name="Path 2081" d="M1416.288,572.481l1.267-.792,1.145.96-.361-1.45,1.267-.792-1.49-.1-.361-1.45-.56,1.385-1.49-.1,1.145.96Z" transform="translate(-1358.586 -539.482)" fill="#203a72"/>
    <path id="Path_2082" data-name="Path 2082" d="M1415.425,592.159l1.267-.792,1.144.96-.361-1.45,1.267-.792-1.49-.1-.362-1.45-.56,1.385-1.49-.1,1.144.96Z" transform="translate(-1358.019 -552.802)" fill="#203a72"/>
    <path id="Path_2083" data-name="Path 2083" d="M1408.162,611.838l1.267-.792,1.144.96-.361-1.449,1.267-.792-1.49-.1-.361-1.45-.56,1.385-1.49-.1,1.145.96Z" transform="translate(-1353.245 -566.123)" fill="#203a72"/>
  </g>
</svg>
