<svg id="mastercard-2" xmlns="http://www.w3.org/2000/svg" width="63.162" height="49.139" viewBox="0 0 63.162 49.139">
  <path id="Path_2642" data-name="Path 2642" d="M162.2,1323.978v.126h.118a.123.123,0,0,0,.063-.016.056.056,0,0,0,.024-.048.054.054,0,0,0-.024-.047.113.113,0,0,0-.063-.016H162.2Zm.119-.089a.219.219,0,0,1,.141.041.136.136,0,0,1,.05.112.128.128,0,0,1-.04.1.194.194,0,0,1-.113.047l.158.18h-.122l-.145-.179H162.2v.179h-.1v-.478h.221Zm-.032.643a.376.376,0,0,0,.155-.032.4.4,0,0,0,.126-.086.4.4,0,0,0,.086-.126.409.409,0,0,0,0-.313.415.415,0,0,0-.086-.126.406.406,0,0,0-.126-.086.4.4,0,0,0-.155-.03.416.416,0,0,0-.158.03.4.4,0,0,0-.213.528.377.377,0,0,0,.084.126.406.406,0,0,0,.129.086.394.394,0,0,0,.158.031m0-.916a.528.528,0,0,1,.371.151.51.51,0,0,1,.112.563.534.534,0,0,1-.112.164.565.565,0,0,1-.166.111.517.517,0,0,1-.2.041.525.525,0,0,1-.207-.041.54.54,0,0,1-.168-.111.532.532,0,0,1-.11-.169.509.509,0,0,1,.112-.563.5.5,0,0,1,.168-.111.527.527,0,0,1,.207-.041m-48.353-1.84a1.569,1.569,0,1,1,1.572,1.659,1.555,1.555,0,0,1-1.572-1.659m4.2,0v-2.593h-1.127v.631a1.964,1.964,0,0,0-1.637-.759,2.725,2.725,0,0,0,0,5.443,1.965,1.965,0,0,0,1.637-.759v.629h1.126v-2.593Zm38.08,0a1.569,1.569,0,1,1,1.573,1.659,1.555,1.555,0,0,1-1.573-1.659m4.2,0V1317.1h-1.128v2.712a1.964,1.964,0,0,0-1.637-.759,2.725,2.725,0,0,0,0,5.443,1.965,1.965,0,0,0,1.637-.759v.629h1.128Zm-28.29-1.713a1.287,1.287,0,0,1,1.312,1.257h-2.689a1.335,1.335,0,0,1,1.378-1.257m.022-1.01a2.724,2.724,0,0,0,.075,5.443,3.148,3.148,0,0,0,2.125-.726l-.552-.835a2.472,2.472,0,0,1-1.508.542,1.439,1.439,0,0,1-1.55-1.269h3.848c.011-.14.022-.282.022-.433a2.486,2.486,0,0,0-2.461-2.722m13.607,2.722a1.569,1.569,0,1,1,1.572,1.659,1.555,1.555,0,0,1-1.572-1.659m4.2,0v-2.591h-1.126v.631a1.966,1.966,0,0,0-1.637-.759,2.725,2.725,0,0,0,0,5.443,1.967,1.967,0,0,0,1.637-.759v.629h1.127v-2.593Zm-10.56,0a2.618,2.618,0,0,0,2.765,2.722,2.709,2.709,0,0,0,1.863-.618l-.541-.911a2.278,2.278,0,0,1-1.358.467,1.663,1.663,0,0,1,0-3.319,2.284,2.284,0,0,1,1.358.467l.541-.911a2.713,2.713,0,0,0-1.863-.618,2.618,2.618,0,0,0-2.765,2.722m14.529-2.722a1.53,1.53,0,0,0-1.366.76v-.628H151.43v5.182h1.128v-2.905c0-.858.368-1.334,1.105-1.334a1.826,1.826,0,0,1,.7.131l.347-1.062a2.4,2.4,0,0,0-.8-.141m-30.208.542a3.874,3.874,0,0,0-2.113-.542c-1.313,0-2.158.629-2.158,1.659,0,.845.629,1.366,1.788,1.529l.532.076c.618.087.91.25.91.542,0,.4-.411.629-1.181.629a2.761,2.761,0,0,1-1.724-.542l-.53.879a3.739,3.739,0,0,0,2.244.673c1.5,0,2.364-.7,2.364-1.692,0-.911-.683-1.387-1.811-1.55l-.531-.077c-.488-.063-.879-.161-.879-.509,0-.379.368-.607.987-.607a3.343,3.343,0,0,1,1.616.444l.488-.911Zm14.542-.541a1.526,1.526,0,0,0-1.365.759v-.63h-1.117v5.182h1.127v-2.905c0-.858.369-1.334,1.105-1.334a1.826,1.826,0,0,1,.7.131l.347-1.062a2.4,2.4,0,0,0-.8-.141m-9.617.13h-1.843v-1.572h-1.139v1.572H124.6v1.03h1.051v2.364c0,1.2.467,1.919,1.8,1.919a2.649,2.649,0,0,0,1.41-.4l-.326-.965a2.086,2.086,0,0,1-1,.293c-.563,0-.747-.347-.747-.867v-2.342h1.843Zm-16.849,5.184v-3.252a1.93,1.93,0,0,0-2.039-2.06,2.007,2.007,0,0,0-1.822.922,1.9,1.9,0,0,0-1.713-.922,1.714,1.714,0,0,0-1.518.77v-.641H103.56v5.182H104.7v-2.874a1.213,1.213,0,0,1,1.269-1.378c.748,0,1.127.488,1.127,1.366v2.884h1.139v-2.874a1.223,1.223,0,0,1,1.268-1.378c.77,0,1.137.488,1.137,1.366v2.884Z" transform="translate(-100.29 -1275.51)" fill="#fff"/>
  <path id="Path_2643" data-name="Path 2643" d="M1930.495,977.978v-.758h-.2l-.229.52-.227-.52h-.2v.758h.14v-.571l.213.493h.145l.213-.494v.572h.139Zm-1.252,0v-.628h.253v-.128h-.646v.128h.253v.628h.139Z" transform="translate(-1867.942 -946.363)" fill="#f79410"/>
  <path id="Path_2644" data-name="Path 2644" d="M746.789,162.843H729.71V132.15h17.079Z" transform="translate(-706.668 -127.978)" fill="#ff5f00"/>
  <path id="Path_2645" data-name="Path 2645" d="M24.125,19.52A19.488,19.488,0,0,1,31.58,4.173a19.52,19.52,0,1,0,0,30.693A19.488,19.488,0,0,1,24.125,19.52" transform="translate(0 0)" fill="#eb001b"/>
  <path id="Path_2646" data-name="Path 2646" d="M1031.692,19.52a19.519,19.519,0,0,1-31.582,15.347,19.522,19.522,0,0,0,0-30.693,19.519,19.519,0,0,1,31.581,15.347" transform="translate(-968.529 0)" fill="#f79e1b"/>
</svg>
