<svg xmlns="http://www.w3.org/2000/svg" width="208.018" height="208.019" viewBox="0 0 208.018 208.019"><g transform="translate(-1560.513 -481.144)"><path d="M1664.522,689.162a103.689,103.689,0,1,1,40.485-8.174A103.351,103.351,0,0,1,1664.522,689.162Z" fill="#203a72"/><path d="M1664.522,655.963a70.6,70.6,0,1,1,27.563-5.566A70.364,70.364,0,0,1,1664.522,655.963Zm0-139.034a68.009,68.009,0,1,0,26.555,5.361A67.8,67.8,0,0,0,1664.522,516.929Z" fill="#d6e9ff"/><path d="M1709.027,551.174a1.17,1.17,0,0,0-1.315-.948,61.276,61.276,0,0,0-24.953,9.522,76.462,76.462,0,0,0-14.968,12.942q-.133-1.761-.268-3.515-.171-2.234-.34-4.453a5.664,5.664,0,0,0-.171-1.031,40.64,40.64,0,0,1,2.582-4.282c2.238-3.232,4.563-5.5,6.724-6.545a1.169,1.169,0,1,0-1.021-2.1c-4.614,2.24-8.268,8.052-9.809,10.823a2.1,2.1,0,0,0-1.932,0c-1.541-2.771-5.2-8.583-9.809-10.823a1.169,1.169,0,0,0-1.021,2.1c4.625,2.246,8.4,9.088,9.305,10.828a5.748,5.748,0,0,0-.171,1.03q-.168,2.219-.339,4.453-.133,1.754-.268,3.515a76.469,76.469,0,0,0-14.968-12.942,61.276,61.276,0,0,0-24.953-9.522,1.169,1.169,0,0,0-1.315.948,89.477,89.477,0,0,0-1.152,16.267,57.234,57.234,0,0,0,1.818,13.8,25.929,25.929,0,0,0,6.486,11.916,18.566,18.566,0,0,0,12.157,5.188c-2.093,2.156-4.414,4.615-6.038,6.529a12.573,12.573,0,0,0,3.306,19.061,16.61,16.61,0,0,0,8.6,2.389c.363,0,.727-.011,1.091-.035a16.706,16.706,0,0,0,9.3-3.562l5.138-4a27.859,27.859,0,0,0,1.147,2.974l1.074,2.368a1.734,1.734,0,0,0,3.158,0l1.074-2.368a27.739,27.739,0,0,0,1.151-2.989l5.128,4.009a16.717,16.717,0,0,0,9.309,3.566c.365.024.729.035,1.091.035a16.6,16.6,0,0,0,8.595-2.389,12.572,12.572,0,0,0,3.306-19.061c-1.623-1.914-3.945-4.373-6.037-6.529a18.573,18.573,0,0,0,12.157-5.188,25.937,25.937,0,0,0,6.486-11.916,57.276,57.276,0,0,0,1.818-13.8A89.464,89.464,0,0,0,1709.027,551.174Zm-86.888,1.541a59.109,59.109,0,0,1,22.869,8.991,75.168,75.168,0,0,1,16,14.253c-.413,5.544-.8,11.117-1.093,16.608l-12.6,2.81c-7.963,1.64-14.192.332-18.513-3.888C1618.588,581.513,1621.344,558.111,1622.139,552.715Zm32,68.174a14.475,14.475,0,0,1-16.343,1.045,10.234,10.234,0,0,1-2.728-15.545c2.093-2.468,5.481-5.966,7.511-8.028a35.342,35.342,0,0,0,5.217-.7l.018,0,11.974-2.671c-.25,5.255-.4,10.42-.386,15.4a27.633,27.633,0,0,0,.652,5.9Zm10.9-.149-.524,1.155L1664,620.74a25.2,25.2,0,0,1-1.476-4.2,1.147,1.147,0,0,0-.042-.161,25.2,25.2,0,0,1-.736-6c-.04-12.936,1.052-27.216,2.108-41.025q.171-2.234.34-4.455a.621.621,0,1,1,.66,0q.168,2.22.34,4.455c1.056,13.809,2.148,28.089,2.108,41.025a25.257,25.257,0,0,1-.732,5.979,1.243,1.243,0,0,0-.041.159A25.341,25.341,0,0,1,1665.046,620.74Zm31.241-6.041a10.359,10.359,0,0,1-5.044,7.236,14.319,14.319,0,0,1-7.391,2.04,14.473,14.473,0,0,1-8.954-3.088l-5.908-4.619a27.611,27.611,0,0,0,.648-5.883c.015-4.975-.136-10.14-.386-15.4l11.974,2.671.018,0a35.227,35.227,0,0,0,5.217.7c2.03,2.063,5.417,5.56,7.511,8.028A10.262,10.262,0,0,1,1696.287,614.7Zm3.954-23.212c-4.321,4.222-10.551,5.531-18.516,3.89l-12.595-2.81c-.291-5.491-.68-11.064-1.093-16.608a75.166,75.166,0,0,1,16-14.253,59.127,59.127,0,0,1,22.869-8.992C1707.7,558.111,1710.463,581.5,1700.241,591.487Z" fill="#d6e9ff"/><circle cx="3.713" cy="3.713" r="3.713" transform="translate(1576.218 599.91)" fill="#d6e9ff"/><circle cx="3.713" cy="3.713" r="3.713" transform="translate(1744.3 606.383) rotate(-76.717)" fill="#d6e9ff"/><path d="M1629.5,500.248l3.024,7.864a2.932,2.932,0,0,0,1.416,1.723,3.058,3.058,0,0,0,3.706-1.425,2.928,2.928,0,0,0-.1-2.227l-3.024-7.866,2.5-.961,3.018,7.847a5.534,5.534,0,0,1,.37,3,4.669,4.669,0,0,1-1.179,2.387,6.067,6.067,0,0,1-2.328,1.543,5.914,5.914,0,0,1-2.726.4,4.532,4.532,0,0,1-2.43-1,5.713,5.713,0,0,1-1.71-2.488l-3.016-7.846Z" fill="#d6e9ff"/><path d="M1655.307,507.238l-2.613.505-7.684-8.032,1.771,9.174-2.612.505L1641.584,496l2.611-.5,7.69,8.051-1.776-9.193,2.612-.5Z" fill="#d6e9ff"/><path d="M1659.812,493.428l.7,13.6-2.658.138-.7-13.6Z" fill="#d6e9ff"/><path d="M1672.839,509.72l-1.849-2.6a6.856,6.856,0,0,1-1.719.1,6.716,6.716,0,0,1-3.355-1.118,6.591,6.591,0,0,1-2.3-2.642,7.518,7.518,0,0,1,.467-7.163,6.6,6.6,0,0,1,2.627-2.32,6.984,6.984,0,0,1,6.834.445,6.546,6.546,0,0,1,2.284,2.642,7.128,7.128,0,0,1,.669,3.63,7.273,7.273,0,0,1-.965,3.25,6.618,6.618,0,0,1-2.2,2.29l2.8,3.7Zm-6.816-7.306a3.76,3.76,0,0,0,1.328,1.68,4.018,4.018,0,0,0,2.078.692,3.966,3.966,0,0,0,2.14-.417,3.77,3.77,0,0,0,1.526-1.494,5.845,5.845,0,0,0,.312-4.778,3.714,3.714,0,0,0-1.32-1.659,4.018,4.018,0,0,0-2.069-.683,4.073,4.073,0,0,0-2.149.407,3.705,3.705,0,0,0-1.534,1.473,5.27,5.27,0,0,0-.667,2.352A5.342,5.342,0,0,0,1666.023,502.414Z" fill="#d6e9ff"/><path d="M1683.665,495.375l-2.064,8.169a2.939,2.939,0,0,0,.163,2.225,2.608,2.608,0,0,0,1.736,1.192,2.634,2.634,0,0,0,2.114-.22,2.929,2.929,0,0,0,1.2-1.88l2.066-8.169,2.6.657-2.061,8.15a5.53,5.53,0,0,1-1.429,2.667,4.675,4.675,0,0,1-2.338,1.27,6.086,6.086,0,0,1-2.794-.082,5.908,5.908,0,0,1-2.457-1.245,4.529,4.529,0,0,1-1.409-2.217,5.7,5.7,0,0,1,.037-3.018l2.06-8.151Z" fill="#d6e9ff"/><path d="M1697.309,501.964l-1.327,3.145,4.117,1.734-.842,2-4.114-1.734-1.4,3.326,4.641,1.955-.864,2.049-7.091-2.988,5.294-12.564,7.092,2.987-.864,2.05Z" fill="#d6e9ff"/><path d="M1586.123,625.185a3.263,3.263,0,0,1-1.8,1.521,3.317,3.317,0,0,1-2.058.086,3.945,3.945,0,0,1-1.836-1.206,6.941,6.941,0,0,1-1.354-2.39l-2.2-6.239,13.163-4.648,2.11,5.97a7.14,7.14,0,0,1,.462,2.693,3.779,3.779,0,0,1-.635,2.042,3.144,3.144,0,0,1-1.56,1.17,3,3,0,0,1-2.163,0,3.858,3.858,0,0,1-1.727-1.406A3.52,3.52,0,0,1,1586.123,625.185Zm-4.007-1.673a1.615,1.615,0,0,0,1.491.137,1.681,1.681,0,0,0,1.11-1.09,2.838,2.838,0,0,0-.112-1.851l-1.01-2.86-3.545,1.253,1.032,2.922A2.815,2.815,0,0,0,1582.116,623.512Zm3.516-6.383.936,2.653a2.763,2.763,0,0,0,.989,1.447,1.523,1.523,0,0,0,1.414.13,1.55,1.55,0,0,0,1.029-.993,2.723,2.723,0,0,0-.131-1.749l-.936-2.654Z" fill="#d6e9ff"/><path d="M1596.32,627.51l-7.339,4.559a2.808,2.808,0,0,0-1.413,1.836,3.9,3.9,0,0,0,2.424,3.9,2.817,2.817,0,0,0,2.275-.454l7.337-4.56,1.637,2.632-7.322,4.551a5.023,5.023,0,0,1-5.771-.08,7.8,7.8,0,0,1-2.191-2.35,7.555,7.555,0,0,1-1.114-2.971,5.028,5.028,0,0,1,.4-2.852,5.342,5.342,0,0,1,2.127-2.28l7.323-4.548Z" fill="#d6e9ff"/><path d="M1609.93,644.9l-1.658,1.538-2.782-3-8.57,7.966-2.1-2.255,8.571-7.966-2.786-2.995,1.658-1.537Z" fill="#d6e9ff"/><path d="M1619.595,652.447l-1.38,1.79-3.238-2.495-7.143,9.266-2.438-1.878,7.142-9.268-3.237-2.495,1.379-1.79Z" fill="#d6e9ff"/><path d="M1622.836,656.862l-1.69,3.065,4.523,2.5-1.071,1.943-4.525-2.5-1.786,3.24,5.1,2.814-1.1,2-7.8-4.3,6.751-12.241,7.8,4.3-1.1,2Z" fill="#d6e9ff"/><path d="M1633.871,674.579l-1.326-6.268-1.364-.5-1.858,5.114-2.892-1.05,4.763-13.122,5.414,1.965a7.3,7.3,0,0,1,2.658,1.571,4.262,4.262,0,0,1,1.241,2.089,4.015,4.015,0,0,1-1.828,4.294,4.576,4.576,0,0,1-2.98.546l1.52,6.572Zm-1.974-8.736,2.417.877a2.741,2.741,0,0,0,1.945.12,1.94,1.94,0,0,0,1.1-1.229,1.858,1.858,0,0,0-.07-1.61,2.8,2.8,0,0,0-1.576-1.136l-2.417-.878Z" fill="#d6e9ff"/><path d="M1653.5,665.012l-.441,2.216-6.274-1.249-.7,3.511,4.807.957-.433,2.178-4.809-.957-1.152,5.785-3.018-.6,2.727-13.692Z" fill="#d6e9ff"/><path d="M1657.693,677.1l5.042.36-.158,2.214-8.113-.58,1-13.924,3.069.22Z" fill="#d6e9ff"/><path d="M1677.414,665.018l-4.581,9.421.319,4.849-3.07.2-.319-4.848-5.8-8.741,3.466-.226,3.71,6.15,2.849-6.582Z" fill="#d6e9ff"/><path d="M1698.369,659.708a6.545,6.545,0,0,1,3.533,1.253,6.789,6.789,0,0,1,2.274,3.074,6.7,6.7,0,0,1,.4,3.782,6.586,6.586,0,0,1-1.76,3.295,9.907,9.907,0,0,1-3.65,2.348l-5,1.948L1689.1,662.4l5-1.949A9.929,9.929,0,0,1,1698.369,659.708Zm2.876,9.1a4.343,4.343,0,0,0,0-3.628,4.431,4.431,0,0,0-2.468-2.7,5.271,5.271,0,0,0-3.929.212l-2.027.79,3.35,8.591,2.027-.791A5.364,5.364,0,0,0,1701.245,668.806Z" fill="#d6e9ff"/><path d="M1707,656.836l1.808,3,4.423-2.668,1.146,1.9-4.423,2.666,1.91,3.169,4.989-3.007,1.177,1.953-7.626,4.6-7.217-11.972,7.624-4.6,1.177,1.952Z" fill="#d6e9ff"/><path d="M1723.446,659.334a4.707,4.707,0,0,1-2.483.225,3.577,3.577,0,0,1-2.025-1.192l2.509-2.138a1.87,1.87,0,0,0,1.393.6,2.526,2.526,0,0,0,1.587-.7,2.736,2.736,0,0,0,.984-1.456,1.474,1.474,0,0,0-.331-1.335,1.339,1.339,0,0,0-.978-.505,2.976,2.976,0,0,0-1.205.2q-.625.232-1.644.733a19.763,19.763,0,0,1-2.36.974,4.2,4.2,0,0,1-1.988.144,3.166,3.166,0,0,1-1.88-1.172,3.518,3.518,0,0,1-.881-2.085,4.269,4.269,0,0,1,.54-2.314,7.592,7.592,0,0,1,1.823-2.2,6.548,6.548,0,0,1,3.617-1.7,3.793,3.793,0,0,1,3.147,1.167l-2.576,2.2a1.561,1.561,0,0,0-1.282-.471,2.7,2.7,0,0,0-1.568.719,2.282,2.282,0,0,0-.823,1.254,1.455,1.455,0,0,0,.381,1.278,1.2,1.2,0,0,0,.913.444,3.126,3.126,0,0,0,1.16-.2q.609-.219,1.64-.7a19.091,19.091,0,0,1,2.375-.974,4.334,4.334,0,0,1,2.017-.143,3.137,3.137,0,0,1,1.881,1.157,3.682,3.682,0,0,1,.864,2,4.378,4.378,0,0,1-.428,2.377,6.947,6.947,0,0,1-1.854,2.33A7.973,7.973,0,0,1,1723.446,659.334Z" fill="#d6e9ff"/><path d="M1724.539,639.429l10.4,9.311-2.051,2.293-10.4-9.312Z" fill="#d6e9ff"/><path d="M1735.741,630.834a3.465,3.465,0,0,0-1.908.51,4.759,4.759,0,0,0-1.54,1.574,5.069,5.069,0,0,0-.82,2.343,4.04,4.04,0,0,0,.469,2.25,5.187,5.187,0,0,0,4.1,2.578,4.077,4.077,0,0,0,2.251-.565,5.349,5.349,0,0,0,1.814-1.818,4.637,4.637,0,0,0,.822-2.888,3.992,3.992,0,0,0-1.215-2.512l-2.822,4.458-1.808-1.145,4.445-7.02,2.061,1.3a6.305,6.305,0,0,1,1.576,2.559,7.3,7.3,0,0,1,.288,3.266,8.268,8.268,0,0,1-1.277,3.418,8.733,8.733,0,0,1-2.914,2.905,7,7,0,0,1-3.643,1.023,7.143,7.143,0,0,1-6.227-3.941,6.973,6.973,0,0,1-.642-3.737,8.691,8.691,0,0,1,1.364-3.858,8.59,8.59,0,0,1,3.383-3.192,5.954,5.954,0,0,1,4.141-.5Z" fill="#d6e9ff"/><path d="M1752.142,615.738l-.953,2.928-11.265,3.661,9.108,2.966-.952,2.926-13.293-4.325.951-2.927,11.286-3.657-9.128-2.971.952-2.926Z" fill="#d6e9ff"/><path d="M1750.393,587.145a1.5,1.5,0,0,1-1.5-1.5,84.656,84.656,0,0,0-39.5-71.8,1.5,1.5,0,1,1,1.608-2.532,87.641,87.641,0,0,1,40.889,74.332A1.5,1.5,0,0,1,1750.393,587.145Z" fill="#d6e9ff"/><path d="M1577.422,587.145a1.5,1.5,0,0,1-1.5-1.5,87.837,87.837,0,0,1,39.575-73.482,1.5,1.5,0,0,1,1.652,2.5,84.847,84.847,0,0,0-38.227,70.978A1.5,1.5,0,0,1,1577.422,587.145Z" fill="#d6e9ff"/></g></svg>