<svg xmlns="http://www.w3.org/2000/svg" width="151.001" height="151.001" viewBox="0 0 151.001 151.001"><g transform="translate(-1658.678 -149.419)"><g transform="translate(1658.678 149.419)"><path d="M1728.944,239.782a3.383,3.383,0,1,0,3.382,3.383h0A3.382,3.382,0,0,0,1728.944,239.782Z" transform="translate(-1653.454 -142.362)" fill="#1a256c"/><path d="M1721.352,251.258a3.383,3.383,0,1,0,3.382,3.384v0A3.384,3.384,0,0,0,1721.352,251.258Z" transform="translate(-1654.047 -141.465)" fill="#1a256c"/><path d="M1736.57,251.573a3.383,3.383,0,1,0,3.385,3.385,3.382,3.382,0,0,0-3.385-3.385Z" transform="translate(-1652.859 -141.441)" fill="#1a256c"/><path d="M1714.751,237.733a3.383,3.383,0,1,0,3.383,3.383,3.383,3.383,0,0,0-3.383-3.383Z" transform="translate(-1654.563 -142.522)" fill="#1a256c"/><path d="M1734.178,149.419a75.5,75.5,0,1,0,75.5,75.5h0A75.5,75.5,0,0,0,1734.178,149.419Zm25.458,110.051a27.958,27.958,0,1,1-46.5-29.963l6.12-7a6.788,6.788,0,0,0,1.687-4.471V183.323h-2.97a2.748,2.748,0,0,1,0-5.5h32.42a2.748,2.748,0,1,1,.125,5.5c-.042,0-.083,0-.125,0h-2.968v34.715a6.786,6.786,0,0,0,1.678,4.471l6.121,7a27.662,27.662,0,0,1,4.414,29.963Z" transform="translate(-1658.678 -149.419)" fill="#1a256c"/><path d="M1743.305,238.49a3.383,3.383,0,1,0,3.382,3.385,3.382,3.382,0,0,0-3.382-3.385Z" transform="translate(-1652.333 -142.462)" fill="#1a256c"/><path d="M1740.819,223.67a12.254,12.254,0,0,1-2.843-5.921h-6.292a2.749,2.749,0,1,1-.125-5.5c.042,0,.083,0,.125,0h6.1v-6.8h-6.1a2.748,2.748,0,1,1,0-5.5h6.1v-6.8h-6.1a2.747,2.747,0,1,1,0-5.494h6.1v-6.8h-15.5v34.715a12.278,12.278,0,0,1-3.041,8.088l-6.121,7c-.493.563-.906,1.164-1.334,1.761,11.788-.438,23.729,6.608,35.237,2.521.8-.281,1.557-.609,2.3-.947a22.973,22.973,0,0,0-2.382-3.335Z" transform="translate(-1654.53 -146.963)" fill="#1a256c"/></g></g></svg>