<svg xmlns="http://www.w3.org/2000/svg" width="209" height="209" viewBox="0 0 209 209"><g transform="translate(-808.943 -704.673)"><circle cx="104.5" cy="104.5" r="104.5" transform="translate(808.943 704.672)" fill="#d6e9ff"/><path d="M847.78,756.069a7.31,7.31,0,0,1,2.706-4.281,7.891,7.891,0,0,1,3.136-1.713,5.137,5.137,0,0,1,2.926.059,5.212,5.212,0,0,1,2.346,1.629,4.839,4.839,0,0,1,1.228,2.865,4.462,4.462,0,0,1-.6,2.651l.072.086a4.711,4.711,0,0,1,3.093-.265,5.593,5.593,0,0,1,2.826,1.937,5.823,5.823,0,0,1,1.344,2.786,5.234,5.234,0,0,1-.405,3.035,9.1,9.1,0,0,1-7.237,4.993,5.97,5.97,0,0,1-4.639-2.24l2.909-2.457a3.047,3.047,0,0,0,2.135,1.075A3.4,3.4,0,0,0,862,765.3a2.913,2.913,0,0,0,1.164-2.027,2.836,2.836,0,0,0-.739-2.07,2.706,2.706,0,0,0-2.366-1.154,5.953,5.953,0,0,0-2.995,1.575l-.62.524-2.077-2.46.62-.524q3.039-2.565,1.322-4.6a2.449,2.449,0,0,0-1.755-.972,2.891,2.891,0,0,0-2.006.814,2.745,2.745,0,0,0-1.091,1.855,2.882,2.882,0,0,0,.534,1.913l-2.932,2.474A5.714,5.714,0,0,1,847.78,756.069Z" fill="#203a72"/><path d="M864.9,744.9a3.211,3.211,0,0,1,1.168-1.2l1.261,2.041-.514.319a1.906,1.906,0,0,0-.653,3.071l2.368,3.832-1.944,1.2-4.754-7.693,1.944-1.2.738,1.194A3.238,3.238,0,0,1,864.9,744.9Z" fill="#203a72"/><path d="M870.133,743.872a3.943,3.943,0,0,1,2.318-3.526,3.853,3.853,0,0,1,1.685-.369,3.367,3.367,0,0,1,1.587.38l-1.828-3.883,2.1-.988,5.144,10.93-2.1.987-.569-1.211a3.1,3.1,0,0,1-.62,1.482,3.734,3.734,0,0,1-1.436,1.127,3.879,3.879,0,0,1-2.142.358,4.094,4.094,0,0,1-2.056-.863,5.31,5.31,0,0,1-1.541-1.99A5.232,5.232,0,0,1,870.133,743.872Zm6.091-1.721a2.307,2.307,0,0,0-1.187-.451,2.348,2.348,0,0,0-1.214.219,2.316,2.316,0,0,0-.931.781,2.349,2.349,0,0,0-.405,1.192,2.854,2.854,0,0,0,.3,1.42,2.924,2.924,0,0,0,.911,1.15,2.4,2.4,0,0,0,1.2.474,2.239,2.239,0,0,0,1.2-.2,2.343,2.343,0,0,0,.942-.8,2.3,2.3,0,0,0,.408-1.2,3.285,3.285,0,0,0-1.216-2.585Z" fill="#203a72"/><path d="M905.64,738.939a5.447,5.447,0,0,1-1.906,2.582,8.447,8.447,0,0,1-3.783,1.52l-3.226.568,1.3,7.39-3.861.681-3.391-19.248,7.086-1.248a8.7,8.7,0,0,1,3.943.1,5.471,5.471,0,0,1,2.731,1.707,6.329,6.329,0,0,1,1.105,5.947Zm-4.161-.134a2.736,2.736,0,0,0,.411-2.191q-.5-2.812-3.64-2.259l-3.061.541.987,5.6,3.06-.539A3.4,3.4,0,0,0,901.479,738.8Z" fill="#203a72"/><path d="M922.652,745.96l-7.772-.422-1.488,3.65-4.111-.224,8.078-19.162,4.558.247,5.957,19.924-4.138-.224Zm-.892-3.189-2.381-8.317-3.268,8.011Z" fill="#203a72"/><path d="M939.567,753.483l-1.948-8.533-1.77-.529-2.183,7.3-3.756-1.124,5.6-18.724,7.028,2.1a8.568,8.568,0,0,1,3.473,1.872,5.565,5.565,0,0,1,1.675,2.752,5.882,5.882,0,0,1-.106,3.138,5.82,5.82,0,0,1-2.072,3.019,5.76,5.76,0,0,1-3.806,1.1l2.208,8.931ZM936.691,741.6l3.139.939a3.264,3.264,0,0,0,2.5-.056,2.859,2.859,0,0,0,1.365-1.827,2.734,2.734,0,0,0-.153-2.222,3.348,3.348,0,0,0-2.067-1.394l-3.139-.939Z" fill="#203a72"/><path d="M967.646,745.386l-1.53,2.769-4.558-2.519-7.922,14.337-3.431-1.9,7.922-14.337-4.559-2.518,1.531-2.77Z" fill="#203a72"/><path d="M984.729,759.364l-13.347,5.273-4.467,5.134-2.957-2.574,4.467-5.133,3.356-13.967,3.338,2.9-2.7,9.495,9.011-4Z" fill="#203a72"/><path d="M856.358,849.943a9.639,9.639,0,0,1,5.184.512,10.46,10.46,0,0,1,4.34,3.21,10.3,10.3,0,0,1,2.425,5.7,9.106,9.106,0,0,1-1.46,5.811l-2.961-3.61a4.844,4.844,0,0,0,.44-2.893,5.754,5.754,0,0,0-1.288-2.713,5.987,5.987,0,0,0-2.635-1.908,5.631,5.631,0,0,0-3.166-.179,8.49,8.49,0,0,0-5.459,4.479,5.609,5.609,0,0,0-.455,3.148,5.992,5.992,0,0,0,1.357,2.957,5.634,5.634,0,0,0,2.42,1.784,4.918,4.918,0,0,0,2.934.125l2.961,3.611a9.049,9.049,0,0,1-5.986.315,11.1,11.1,0,0,1-7.413-8.4,9.643,9.643,0,0,1,.5-5.174,11.26,11.26,0,0,1,8.262-6.778Z" fill="#203a72"/><path d="M875.112,867.194l-2.878,4.181,5.615,3.864-1.826,2.652-5.613-3.864-3.042,4.419,6.33,4.358-1.874,2.722-9.675-6.658,11.493-16.7,9.675,6.658-1.875,2.724Z" fill="#203a72"/><path d="M888.318,892.688l-1.522-8.936-1.8-.65-2.678,7.419-3.819-1.377,6.872-19.04,7.147,2.579A8.873,8.873,0,0,1,896,874.818a5.771,5.771,0,0,1,1.574,2.943,6.1,6.1,0,0,1-.291,3.24,5.848,5.848,0,0,1-6.316,3.918l1.769,9.363Zm-2.29-12.451,3.193,1.153a3.391,3.391,0,0,0,2.589.087,2.968,2.968,0,0,0,1.516-1.812,2.829,2.829,0,0,0-.03-2.308,3.468,3.468,0,0,0-2.058-1.559l-3.191-1.152Z" fill="#203a72"/><path d="M915.466,876.593l-.262,3.266-5.377-.429-1.353,16.91-4.047-.323L905.78,879.1l-5.377-.43.262-3.267Z" fill="#203a72"/><path d="M921.675,875.64l2.14,20.129-4.037.428-2.14-20.128Z" fill="#203a72"/><path d="M936.939,871.8l.923,3.144-8.1,2.378,1.463,4.981,6.205-1.823.906,3.089-6.205,1.823,2.411,8.208-3.9,1.144-5.7-19.422Z" fill="#203a72"/><path d="M942.393,868.8l9.09,18.086-3.627,1.823-9.09-18.086Z" fill="#203a72"/><path d="M950.57,867.521l3.052,4.055,5.445-4.1L961,870.05l-5.445,4.1,3.225,4.288,6.141-4.622,1.988,2.642-9.385,7.063-12.188-16.2,9.384-7.062,1.988,2.641Z" fill="#203a72"/><path d="M965.345,849.578a8.919,8.919,0,0,1,5.1-.8A10.586,10.586,0,0,1,975.486,851a10.422,10.422,0,0,1,3.412,4.291,8.964,8.964,0,0,1,.511,5.114,12.1,12.1,0,0,1-2.434,5.207l-4.316,5.608-16.041-12.346,4.316-5.607A12.08,12.08,0,0,1,965.345,849.578Zm10.434,9.074a6.625,6.625,0,0,0-2.822-4.368,6.781,6.781,0,0,0-4.979-1.637,6.572,6.572,0,0,0-4.42,2.82l-1.752,2.274L972.4,865.9l1.751-2.275A6.668,6.668,0,0,0,975.779,858.652Z" fill="#203a72"/><path d="M986.448,787.919a2.456,2.456,0,0,0-4.7,1.429l.015.046a72.258,72.258,0,0,1,0,43.021,2.456,2.456,0,1,0,4.663,1.544c.007-.023.015-.046.022-.07a77.174,77.174,0,0,0,0-45.971Z" fill="#203a72"/><path d="M842.051,835.611a2.457,2.457,0,0,0,2.343-3.194,72.274,72.274,0,0,1,0-43.021,2.456,2.456,0,1,0-4.671-1.522l-.015.047a77.186,77.186,0,0,0,0,45.97A2.459,2.459,0,0,0,842.051,835.611Z" fill="#203a72"/><path d="M913.068,826.5a2.406,2.406,0,1,0,2.406,2.406h0A2.406,2.406,0,0,0,913.068,826.5Z" fill="#203a72"/><path d="M907.247,835.3a2.407,2.407,0,1,0,2.4,2.407h0A2.407,2.407,0,0,0,907.247,835.3Z" fill="#203a72"/><path d="M918.916,835.54a2.406,2.406,0,1,0,2.408,2.408,2.4,2.4,0,0,0-2.408-2.408Z" fill="#203a72"/><path d="M902.185,824.928a2.406,2.406,0,1,0,2.406,2.406,2.406,2.406,0,0,0-2.406-2.406Z" fill="#203a72"/><path d="M913.076,757.207a53.7,53.7,0,1,0,53.7,53.7h0A53.7,53.7,0,0,0,913.076,757.207Zm18.107,78.276a19.885,19.885,0,1,1-33.074-21.311l4.353-4.978a4.834,4.834,0,0,0,1.2-3.18V781.322h-2.113a1.955,1.955,0,0,1,0-3.909h23.059a1.955,1.955,0,0,1,.088,3.909h-2.2v24.691a4.822,4.822,0,0,0,1.193,3.18l4.354,4.978a19.677,19.677,0,0,1,3.139,21.312Z" fill="#203a72"/><path d="M924.08,825.507a2.406,2.406,0,1,0,2.406,2.409,2.406,2.406,0,0,0-2.406-2.409Z" fill="#203a72"/><path d="M920.749,811.765a8.705,8.705,0,0,1-2.022-4.211h-4.475a1.955,1.955,0,1,1-.089-3.909h4.425V798.81h-4.336a1.954,1.954,0,1,1,0-3.909h4.336v-4.836h-4.336a1.954,1.954,0,1,1,0-3.908h4.336v-4.835H907.566v24.691a8.728,8.728,0,0,1-2.163,5.752l-4.354,4.98c-.35.4-.644.828-.948,1.252,8.384-.311,16.877,4.7,25.062,1.794.571-.2,1.107-.433,1.633-.673a16.311,16.311,0,0,0-1.694-2.372Z" fill="#203a72"/></g></svg>