<svg xmlns="http://www.w3.org/2000/svg" width="151.001" height="151.001" viewBox="0 0 151.001 151.001"><g transform="translate(-1364.672 -149.419)"><circle cx="75.5" cy="75.5" r="75.5" transform="translate(1364.672 149.419)" fill="#1a256c"/><g transform="translate(1390.857 188.751)"><g transform="translate(5.003 37.62)"><g transform="translate(3.952 2.711)"><path d="M1398.553,236.908a1.287,1.287,0,0,1-1.287-1.287V224.6a1.287,1.287,0,0,1,2.573,0v11.024A1.286,1.286,0,0,1,1398.553,236.908Z" transform="translate(-1397.266 -223.311)" fill="#fff"/></g><path d="M1402.792,227.322a1.283,1.283,0,0,1-.91-.376l-3.042-3.043-3.043,3.043a1.286,1.286,0,0,1-1.819-1.82l3.952-3.952a1.286,1.286,0,0,1,1.819,0l3.953,3.952a1.286,1.286,0,0,1-.91,2.2Z" transform="translate(-1393.6 -220.796)" fill="#fff"/></g><g transform="translate(0.138 13.329)"><path d="M1411.141,218.022h-20.766a1.287,1.287,0,0,1-.959-2.143l15.32-17.183a1.286,1.286,0,0,1,1.92,1.712l-13.409,15.041h17.9a1.287,1.287,0,0,1,0,2.573Z" transform="translate(-1389.088 -198.266)" fill="#fff"/></g><g transform="translate(30.979 30.512)"><path d="M1424.813,216.777h-5.832a1.287,1.287,0,0,1,0-2.573h5.832a1.287,1.287,0,0,1,0,2.573Z" transform="translate(-1417.695 -214.204)" fill="#fff"/></g><g transform="translate(46.678 30.512)"><path d="M1438.788,216.777h-5.245a1.287,1.287,0,0,1,0-2.573h5.245a1.287,1.287,0,0,1,0,2.573Z" transform="translate(-1432.257 -214.204)" fill="#fff"/></g><g transform="translate(77.455 13.329)"><path d="M1479.8,218.022h-17.706a1.287,1.287,0,1,1,0-2.573h14.835l-13.41-15.041a1.287,1.287,0,0,1,1.921-1.712l15.319,17.183a1.287,1.287,0,0,1-.96,2.143Z" transform="translate(-1460.804 -198.266)" fill="#fff"/></g><g transform="translate(0 58.563)"><path d="M1486.3,242.8h-96.059a1.287,1.287,0,0,1,0-2.573H1486.3a1.287,1.287,0,0,1,0,2.573Z" transform="translate(-1388.96 -240.223)" fill="#fff"/></g><g transform="translate(0 64.05)"><path d="M1486.3,247.885h-96.059a1.287,1.287,0,0,1,0-2.573H1486.3a1.287,1.287,0,0,1,0,2.573Z" transform="translate(-1388.96 -245.312)" fill="#fff"/></g><g transform="translate(22.894)"><g transform="translate(0 20.529)"><path d="M1415.152,235.63a1.29,1.29,0,0,1-1.287-1.3,4.033,4.033,0,0,0-1.3-3.018l-.24-.221a6.6,6.6,0,0,1,.133-9.829,4.027,4.027,0,0,0,.063-6.015l-.137-.125a6.6,6.6,0,0,1,.1-9.858,1.286,1.286,0,0,1,1.69,1.938,4.03,4.03,0,0,0-.062,6.015l.138.125a6.6,6.6,0,0,1-.1,9.858,4.028,4.028,0,0,0-.081,6l.24.221a6.607,6.607,0,0,1,2.128,4.944A1.286,1.286,0,0,1,1415.152,235.63Z" transform="translate(-1410.195 -204.944)" fill="#fff"/></g><path d="M1413.331,209a1.286,1.286,0,0,1-.846-2.255,4.028,4.028,0,0,0,.081-6l-.24-.221a6.6,6.6,0,0,1,.133-9.83,4.007,4.007,0,0,0,1.386-3.4,1.287,1.287,0,1,1,2.564-.219,6.63,6.63,0,0,1-2.238,5.54,4.028,4.028,0,0,0-.1,6.016l.24.221a6.6,6.6,0,0,1-.134,9.83A1.281,1.281,0,0,1,1413.331,209Z" transform="translate(-1410.195 -185.902)" fill="#fff"/><g transform="translate(15.665)"><path d="M1429.681,237.117a1.289,1.289,0,0,1-1.286-1.3,4.031,4.031,0,0,0-1.3-3.018l-.239-.221a6.6,6.6,0,0,1,.133-9.829,4.027,4.027,0,0,0,.063-6.015l-.139-.126a6.6,6.6,0,0,1,.1-9.857,4.027,4.027,0,0,0,.08-6l-.239-.221a6.6,6.6,0,0,1,.133-9.83,4.007,4.007,0,0,0,1.386-3.4,1.287,1.287,0,1,1,2.564-.219,6.631,6.631,0,0,1-2.238,5.54,4.025,4.025,0,0,0-.1,6.016l.24.221a6.6,6.6,0,0,1-.132,9.83,4.026,4.026,0,0,0-.063,6.015l.139.126a6.6,6.6,0,0,1-.1,9.857,4.027,4.027,0,0,0-.08,6l.24.221a6.6,6.6,0,0,1,2.129,4.944A1.287,1.287,0,0,1,1429.681,237.117Z" transform="translate(-1424.725 -185.902)" fill="#fff"/></g><g transform="translate(31.329)"><path d="M1444.211,237.117a1.289,1.289,0,0,1-1.286-1.3,4.031,4.031,0,0,0-1.3-3.018l-.239-.221a6.6,6.6,0,0,1,.133-9.829,4.027,4.027,0,0,0,.063-6.015l-.139-.126a6.6,6.6,0,0,1,.1-9.857,4.027,4.027,0,0,0,.08-6l-.239-.221a6.6,6.6,0,0,1,.133-9.83,4.01,4.01,0,0,0,1.386-3.4,1.287,1.287,0,1,1,2.564-.219,6.628,6.628,0,0,1-2.239,5.54,4.026,4.026,0,0,0-.1,6.016l.239.221a6.6,6.6,0,0,1-.133,9.83,4.027,4.027,0,0,0-.062,6.015l.139.126a6.6,6.6,0,0,1-.1,9.857,4.027,4.027,0,0,0-.08,6l.239.221a6.609,6.609,0,0,1,2.129,4.944A1.287,1.287,0,0,1,1444.211,237.117Z" transform="translate(-1439.255 -185.902)" fill="#fff"/></g><g transform="translate(46.994)"><path d="M1458.741,237.117a1.29,1.29,0,0,1-1.287-1.3,4.029,4.029,0,0,0-1.3-3.018l-.24-.221a6.6,6.6,0,0,1,.134-9.829,4.03,4.03,0,0,0,.063-6.015l-.138-.125a6.6,6.6,0,0,1,.1-9.858,4.028,4.028,0,0,0,.081-6l-.24-.221a6.6,6.6,0,0,1,.134-9.83,4.006,4.006,0,0,0,1.385-3.4,1.287,1.287,0,1,1,2.564-.219,6.624,6.624,0,0,1-2.238,5.54,4.027,4.027,0,0,0-.1,6.016l.24.221a6.6,6.6,0,0,1-.133,9.83,4.027,4.027,0,0,0-.063,6.015l.137.125a6.6,6.6,0,0,1-.1,9.858,4.028,4.028,0,0,0-.081,6l.24.221a6.609,6.609,0,0,1,2.129,4.944A1.287,1.287,0,0,1,1458.741,237.117Z" transform="translate(-1453.785 -185.902)" fill="#fff"/></g></g><g transform="translate(62.257 30.512)"><path d="M1453.238,216.777h-5.245a1.287,1.287,0,0,1,0-2.573h5.245a1.287,1.287,0,0,1,0,2.573Z" transform="translate(-1446.707 -214.204)" fill="#fff"/></g><g transform="translate(82.429 37.62)"><g transform="translate(3.953)"><path d="M1470.37,234.394a1.286,1.286,0,0,1-1.286-1.287V222.083a1.286,1.286,0,1,1,2.572,0v11.024A1.286,1.286,0,0,1,1470.37,234.394Z" transform="translate(-1469.084 -220.797)" fill="#fff"/></g><g transform="translate(0 9.781)"><path d="M1470.656,236.4a1.284,1.284,0,0,1-.91-.377l-3.952-3.952a1.286,1.286,0,1,1,1.819-1.819l3.043,3.042,3.042-3.042a1.286,1.286,0,1,1,1.82,1.819l-3.952,3.952A1.286,1.286,0,0,1,1470.656,236.4Z" transform="translate(-1465.417 -229.87)" fill="#fff"/></g></g></g></g></svg>