<svg xmlns="http://www.w3.org/2000/svg" width="209" height="209" viewBox="0 0 209 209"><g transform="translate(-1238.154 -479.252)"><circle cx="104.5" cy="104.5" r="104.5" transform="translate(1238.154 479.252)" fill="#d6e9ff"/><circle cx="99.121" cy="99.121" r="99.121" transform="translate(1243.533 484.631)" fill="none" stroke="#203a72" stroke-miterlimit="10" stroke-width="4"/><path d="M1276.667,531.683l-1.84-1.717,3.124-3.348,10.4,9.7-1.867,2-8.556-7.983Z" fill="#203a72"/><path d="M1282.915,523.981a5.021,5.021,0,0,1,6.036-5.073,10.01,10.01,0,0,1,4.31,3.282,10.139,10.139,0,0,1,2.517,4.84,4.99,4.99,0,0,1-6.035,5.074,10.147,10.147,0,0,1-4.336-3.312A10.008,10.008,0,0,1,1282.915,523.981Zm6.638-1.846a3.305,3.305,0,0,0-1.588-.768,2.376,2.376,0,0,0-2.458,2.067,3.316,3.316,0,0,0,.482,1.7,13.756,13.756,0,0,0,1.425,1.975,15.141,15.141,0,0,0,1.731,1.794,3.156,3.156,0,0,0,1.594.775,2.43,2.43,0,0,0,2.474-2.078,3.163,3.163,0,0,0-.49-1.7,15.217,15.217,0,0,0-1.469-2.014A13.742,13.742,0,0,0,1289.553,522.135Z" fill="#203a72"/><path d="M1293.983,515.3a5.022,5.022,0,0,1,6.75-4.076,9.98,9.98,0,0,1,3.749,3.911,10.143,10.143,0,0,1,1.737,5.172,4.99,4.99,0,0,1-6.75,4.076,10.168,10.168,0,0,1-3.77-3.945A10.014,10.014,0,0,1,1293.983,515.3Zm6.845-.795a3.318,3.318,0,0,0-1.449-1.005,2.378,2.378,0,0,0-2.749,1.66,3.3,3.3,0,0,0,.214,1.75,13.632,13.632,0,0,0,1.1,2.173,15.221,15.221,0,0,0,1.431,2.04,3.159,3.159,0,0,0,1.456,1.013,2.431,2.431,0,0,0,2.765-1.669,3.157,3.157,0,0,0-.219-1.76,15.128,15.128,0,0,0-1.14-2.217A13.681,13.681,0,0,0,1300.828,514.508Z" fill="#203a72"/><path d="M1305.713,508.041a3.239,3.239,0,0,1,4.068-1.543,3.635,3.635,0,0,1,1.654,4.358,3.24,3.24,0,0,1-4.069,1.543,3.631,3.631,0,0,1-1.653-4.358Zm1.863,1.776q.544,1.44,1.524,1.07a.937.937,0,0,0,.61-.639,1.928,1.928,0,0,0-.145-1.185q-.54-1.423-1.552-1.039Q1307.035,508.395,1307.576,509.817Zm8.535-6.369-2.135,15.415-2.416.916,2.119-15.407Zm.158,8.9a2.977,2.977,0,0,1,1.739-1.548,2.908,2.908,0,0,1,2.311.011,3.713,3.713,0,0,1,1.657,4.367,2.9,2.9,0,0,1-1.718,1.549,2.949,2.949,0,0,1-2.34-.009,3.163,3.163,0,0,1-1.613-1.892A3.113,3.113,0,0,1,1316.269,512.35Zm1.831,1.8q.546,1.44,1.558,1.057,1-.378.448-1.818-.54-1.422-1.534-1.045Q1317.559,512.725,1318.1,514.147Z" fill="#203a72"/><path d="M1337.564,505.763a3.718,3.718,0,0,1-1.373,1.723,5.588,5.588,0,0,1-2.614.916l-2.207.276.648,5.187-2.64.329-1.685-13.51,4.847-.6a5.756,5.756,0,0,1,2.669.218,3.738,3.738,0,0,1,1.8,1.288,4.5,4.5,0,0,1,.558,4.177Zm-2.816-.248a1.936,1.936,0,0,0,.349-1.508q-.246-1.975-2.4-1.706l-2.095.261.492,3.928,2.092-.261A2.264,2.264,0,0,0,1334.748,505.515Z" fill="#203a72"/><path d="M1347.548,513.137l-2.778-5.385-1.254-.035-.148,5.3-2.658-.075.378-13.609,4.976.139a5.688,5.688,0,0,1,2.606.628,3.827,3.827,0,0,1,1.582,1.547,4.33,4.33,0,0,1-.344,4.537,3.9,3.9,0,0,1-2.3,1.428l3.02,5.607Zm-3.975-7.467,2.222.061a2.177,2.177,0,0,0,1.629-.491,2.033,2.033,0,0,0,.574-1.476,1.929,1.929,0,0,0-.492-1.467,2.231,2.231,0,0,0-1.6-.562l-2.222-.062Z" fill="#203a72"/><path d="M1357.361,502.758l-.587,3.362,4.4.769-.372,2.132-4.4-.769-.62,3.556,4.959.866-.383,2.19-7.58-1.324,2.347-13.431,7.58,1.325-.383,2.19Z" fill="#203a72"/><path d="M1380.82,507.312l-4.658,12.793-2.5-.91,3.028-8.32-6.366,7.1-1.893-.689-.328-9.543-3.03,8.321-2.5-.909,4.656-12.794,2.84,1.033.5,10.956,7.426-8.07Z" fill="#203a72"/><path d="M1387.09,510.8l-6.446,11.992-2.343-1.26,6.446-11.992Z" fill="#203a72"/><path d="M1392.942,514.313l-4.838,6.9a2.924,2.924,0,0,0-.64,2.137,2.61,2.61,0,0,0,1.2,1.733,2.638,2.638,0,0,0,2.055.546,2.936,2.936,0,0,0,1.79-1.328l4.838-6.9,2.193,1.538-4.827,6.883a5.543,5.543,0,0,1-2.284,1.984,4.682,4.682,0,0,1-2.638.353,6.069,6.069,0,0,1-2.58-1.071,5.9,5.9,0,0,1-1.854-2.038,4.522,4.522,0,0,1-.527-2.574,5.687,5.687,0,0,1,1.111-2.807l4.827-6.883Z" fill="#203a72"/><path d="M1413.443,532.345l-9.763,9.489-1.854-1.907,6.351-6.172-8.827,3.624-1.4-1.444,3.861-8.734-6.351,6.172-1.852-1.908,9.761-9.488,2.107,2.166-4.322,10.081,10.2-4.032Z" fill="#203a72"/><path d="M1292.918,636.292l-11.126,8.432-1.691-2.233,7.236-5.483-9.495,2.5-1.28-1.69,4.965-8.48-7.237,5.483-1.69-2.231,11.126-8.432,1.92,2.534-5.591,9.809,10.954-2.731Z" fill="#203a72"/><path d="M1295.262,641.163l-2.312,2.627,3.528,3.106-1.466,1.666-3.529-3.105-2.444,2.777,3.979,3.5-1.507,1.712-6.08-5.35,9.235-10.495,6.081,5.35-1.507,1.712Z" fill="#203a72"/><path d="M1315.283,651.933l-6.944,12.11-2.43-1.394,4.518-7.876-7.762,6.016-1.839-1.055,1.256-9.747-4.518,7.876-2.428-1.392,6.945-12.11,2.758,1.582-1.313,11.213,9.016-6.8Z" fill="#203a72"/><path d="M1316.225,666.037a6.871,6.871,0,0,1-1.786-3.175,7.537,7.537,0,0,1,2.055-7.067,6.876,6.876,0,0,1,3.209-1.723,7.523,7.523,0,0,1,6.923,2.013,6.825,6.825,0,0,1,1.766,3.169,7.6,7.6,0,0,1-2.055,7.067,6.785,6.785,0,0,1-3.2,1.726,7.5,7.5,0,0,1-6.913-2.01Zm6.188-.439a3.915,3.915,0,0,0,1.9-1.147,5.856,5.856,0,0,0,1.371-4.715,3.863,3.863,0,0,0-.992-1.965,4.324,4.324,0,0,0-1.975-1.157,4.385,4.385,0,0,0-2.3-.085,3.842,3.842,0,0,0-1.9,1.124,5.842,5.842,0,0,0-1.37,4.715,3.868,3.868,0,0,0,.995,1.986,4.63,4.63,0,0,0,4.272,1.244Z" fill="#203a72"/><path d="M1337.711,670.925l-2.627-5.673-1.316-.107-.443,5.421-2.791-.227,1.137-13.914,5.223.427a6.1,6.1,0,0,1,2.7.793,3.982,3.982,0,0,1,1.579,1.673,4.34,4.34,0,0,1-.609,4.626,4.1,4.1,0,0,1-2.5,1.331l2.869,5.913Zm-3.773-7.873,2.333.19a2.337,2.337,0,0,0,1.74-.41,2.048,2.048,0,0,0,.682-1.479,1.952,1.952,0,0,0-.437-1.531,2.4,2.4,0,0,0-1.652-.666l-2.332-.19Z" fill="#203a72"/><path d="M1354.982,656.154l-3.821,9.513.468,4.838-2.787.269-.468-4.837-5.595-8.6,3.146-.3,3.6,6.062,2.352-6.638Z" fill="#203a72"/><path d="M1368.908,651.8l.741,2.135-5.5,1.908,1.174,3.382,4.213-1.462.729,2.1-4.214,1.462,1.934,5.574-2.645.918-4.577-13.188Z" fill="#203a72"/><path d="M1379.319,661.366a6.86,6.86,0,0,1-3.524-.919,7.529,7.529,0,0,1-3.661-6.384,6.863,6.863,0,0,1,.986-3.505,7.523,7.523,0,0,1,6.255-3.587,6.813,6.813,0,0,1,3.507.928,7.606,7.606,0,0,1,3.661,6.384,6.789,6.789,0,0,1-.979,3.5,7.5,7.5,0,0,1-6.245,3.582Zm3.979-4.761a3.9,3.9,0,0,0,.49-2.16,5.347,5.347,0,0,0-.755-2.4,5.281,5.281,0,0,0-1.687-1.856,3.845,3.845,0,0,0-2.1-.651,4.32,4.32,0,0,0-2.2.618,4.39,4.39,0,0,0-1.656,1.6,3.843,3.843,0,0,0-.509,2.147,5.276,5.276,0,0,0,.751,2.394,5.334,5.334,0,0,0,1.692,1.866,3.878,3.878,0,0,0,2.121.662,4.317,4.317,0,0,0,2.218-.615A4.248,4.248,0,0,0,1383.3,656.6Z" fill="#203a72"/><path d="M1397.059,646.335l-4.138,3.713,1.092,2.6-2.189,1.962-5.6-13.756,2.426-2.178,13.074,7.052-2.2,1.977Zm-2.062-1.16-5.4-3,2.4,5.7Z" fill="#203a72"/><path d="M1402,622.117l11.41,8.044-1.613,2.288-7.421-5.231,5.266,8.288-1.221,1.733-9.588-2.159,7.421,5.233-1.613,2.288-11.411-8.043,1.833-2.6,11.042,2.352-5.925-9.61Z" fill="#203a72"/><path d="M1345.628,529.619h0a4.266,4.266,0,0,1,7.25.916h0a4.266,4.266,0,0,0,6.487,1.666h0a4.266,4.266,0,0,1,6.794,2.69h0a4.266,4.266,0,0,0,5.869,3.226h0a4.267,4.267,0,0,1,5.912,4.295h0a4.267,4.267,0,0,0,4.882,4.585h0a4.267,4.267,0,0,1,4.658,5.631h0a4.267,4.267,0,0,0,3.589,5.655h0a4.266,4.266,0,0,1,3.111,6.611h0a4.267,4.267,0,0,0,2.07,6.37h0a4.267,4.267,0,0,1,1.369,7.178h0a4.266,4.266,0,0,0,.42,6.684h0a4.266,4.266,0,0,1-.458,7.293h0a4.266,4.266,0,0,0-1.255,6.579h0a4.267,4.267,0,0,1-2.258,6.95h0a4.266,4.266,0,0,0-2.852,6.06h0a4.267,4.267,0,0,1-3.916,6.17h0a4.266,4.266,0,0,0-4.269,5.16h0a4.267,4.267,0,0,1-5.327,5h0a4.266,4.266,0,0,0-5.418,3.936h0a4.267,4.267,0,0,1-6.4,3.521h0a4.266,4.266,0,0,0-6.227,2.465h0a4.267,4.267,0,0,1-7.078,1.818h0a4.266,4.266,0,0,0-6.644.839h0a4.267,4.267,0,0,1-7.308,0h0a4.265,4.265,0,0,0-6.644-.839h0a4.267,4.267,0,0,1-7.078-1.818h0a4.266,4.266,0,0,0-6.227-2.465h0a4.267,4.267,0,0,1-6.4-3.521h0a4.266,4.266,0,0,0-5.418-3.936h0a4.267,4.267,0,0,1-5.327-5h0a4.266,4.266,0,0,0-4.269-5.16h0a4.267,4.267,0,0,1-3.916-6.17h0a4.266,4.266,0,0,0-2.851-6.06h0a4.267,4.267,0,0,1-2.259-6.95h0a4.266,4.266,0,0,0-1.255-6.579h0a4.266,4.266,0,0,1-.458-7.293h0a4.266,4.266,0,0,0,.42-6.684h0a4.267,4.267,0,0,1,1.369-7.178h0a4.267,4.267,0,0,0,2.07-6.37h0a4.266,4.266,0,0,1,3.111-6.611h0a4.266,4.266,0,0,0,3.589-5.655h0a4.267,4.267,0,0,1,4.658-5.631h0a4.266,4.266,0,0,0,4.882-4.585h0a4.267,4.267,0,0,1,5.912-4.295h0a4.266,4.266,0,0,0,5.869-3.226h0a4.266,4.266,0,0,1,6.794-2.69h0a4.267,4.267,0,0,0,6.488-1.666h0a4.265,4.265,0,0,1,7.249-.916h0A4.267,4.267,0,0,0,1345.628,529.619Z" fill="#203a72"/><path d="M1324.157,568.323a6.845,6.845,0,1,1,6.845-6.844A6.852,6.852,0,0,1,1324.157,568.323Zm0-11.717a4.873,4.873,0,1,0,4.873,4.873A4.878,4.878,0,0,0,1324.157,556.606Z" fill="#d6e9ff"/><path d="M1330.016,587.125a6.912,6.912,0,1,1,6.912-6.912A6.92,6.92,0,0,1,1330.016,587.125Zm0-11.852a4.94,4.94,0,1,0,4.94,4.94A4.945,4.945,0,0,0,1330.016,575.273Z" fill="#d6e9ff"/><path d="M1347.792,604.14a8.964,8.964,0,1,1,8.963-8.964A8.973,8.973,0,0,1,1347.792,604.14Zm0-15.955a6.992,6.992,0,1,0,6.991,6.991A7,7,0,0,0,1347.792,588.185Z" fill="#d6e9ff"/><path d="M1371.644,586.532a7.8,7.8,0,1,1,7.8-7.8A7.81,7.81,0,0,1,1371.644,586.532Zm0-13.63a5.829,5.829,0,1,0,5.83,5.83A5.836,5.836,0,0,0,1371.644,572.9Z" fill="#d6e9ff"/><path d="M1371.644,607.792a5.875,5.875,0,1,1,5.875-5.875A5.882,5.882,0,0,1,1371.644,607.792Zm0-9.778a3.9,3.9,0,1,0,3.9,3.9A3.908,3.908,0,0,0,1371.644,598.014Z" fill="#d6e9ff"/><path d="M1354.359,591.635a.986.986,0,0,1-.56-1.8l11.676-8.049a.986.986,0,0,1,1.119,1.623l-11.677,8.05A.975.975,0,0,1,1354.359,591.635Z" fill="#d6e9ff"/><path d="M1341.69,591.026a.98.98,0,0,1-.635-.232l-7.141-6.011a.986.986,0,1,1,1.27-1.509l7.141,6.012a.986.986,0,0,1-.635,1.74Z" fill="#d6e9ff"/><path d="M1328.246,575.542a.987.987,0,0,1-.941-.692l-2.34-7.484a.986.986,0,0,1,1.882-.588l2.341,7.484a.986.986,0,0,1-.647,1.235A1.008,1.008,0,0,1,1328.246,575.542Z" fill="#d6e9ff"/><path d="M1350.866,578.088a5.32,5.32,0,1,1,5.319-5.32A5.326,5.326,0,0,1,1350.866,578.088Zm0-8.667a3.348,3.348,0,1,0,3.348,3.347A3.352,3.352,0,0,0,1350.866,569.421Z" fill="#d6e9ff"/><path d="M1326.532,607.792a6.8,6.8,0,1,1,6.8-6.8A6.809,6.809,0,0,1,1326.532,607.792Zm0-11.63a4.829,4.829,0,1,0,4.829,4.829A4.835,4.835,0,0,0,1326.532,596.162Z" fill="#d6e9ff"/><path d="M1326.531,601.978a.987.987,0,0,1-.259-1.938l13.566-3.71a.986.986,0,0,1,.52,1.9l-13.566,3.71A.978.978,0,0,1,1326.531,601.978Z" fill="#d6e9ff"/><path d="M1348.877,588.261a1.025,1.025,0,0,1-.135-.009.986.986,0,0,1-.843-1.111l1.991-14.507a.986.986,0,0,1,1.953.268l-1.991,14.507A.985.985,0,0,1,1348.877,588.261Z" fill="#d6e9ff"/><path d="M1371.644,598.014a.985.985,0,0,1-.986-.986V585.546a.986.986,0,0,1,1.972,0v11.482A.985.985,0,0,1,1371.644,598.014Z" fill="#d6e9ff"/><path d="M1317.31,606.5a.98.98,0,0,1-.492-.132l-5.032-2.9a.986.986,0,0,1-.493-.854V568.336a.986.986,0,0,1,.493-.854l2.885-1.666a.986.986,0,0,1,.986,1.708l-2.392,1.381v33.137l4.539,2.62a.986.986,0,0,1-.494,1.84Z" fill="#d6e9ff"/><path d="M1368.948,567.766a.974.974,0,0,1-.492-.132l-26.494-15.3-8.32,4.8a.986.986,0,0,1-.986-1.708l8.813-5.088a.987.987,0,0,1,.986,0l26.987,15.581a.986.986,0,0,1-.494,1.84Z" fill="#d6e9ff"/><path d="M1341.962,620.734a.982.982,0,0,1-.493-.132l-15.082-8.707a.986.986,0,1,1,.986-1.708l14.589,8.423,21.058-12.159a.987.987,0,0,1,.986,1.709L1342.455,620.6A.988.988,0,0,1,1341.962,620.734Z" fill="#d6e9ff"/><rect width="1.972" height="1.972" transform="translate(1339.051 560.493)" fill="#d6e9ff"/><rect width="1.972" height="1.972" transform="translate(1346.904 560.493)" fill="#d6e9ff"/><rect width="1.972" height="1.972" transform="translate(1317.311 589.054)" fill="#d6e9ff"/><rect width="1.972" height="1.972" transform="translate(1324.486 589.054)" fill="#d6e9ff"/><rect width="1.972" height="1.972" transform="translate(1339.051 608.117)" fill="#d6e9ff"/><rect width="1.972" height="1.972" transform="translate(1346.338 608.117)" fill="#d6e9ff"/><path d="M1273.549,558.8l-3.7-2.311-3.34,2.8,1.055-4.231-3.7-2.311,4.35-.3,1.055-4.231,1.633,4.043,4.349-.3-3.34,2.8Z" fill="#203a72"/><path d="M1267.856,579.439l-3.7-2.311-3.34,2.8,1.055-4.231-3.7-2.31,4.349-.3,1.055-4.231,1.633,4.043,4.349-.3-3.34,2.8Z" fill="#203a72"/><path d="M1268.718,599.117l-3.7-2.311-3.34,2.8,1.055-4.231-3.7-2.31,4.349-.3,1.055-4.231,1.633,4.043,4.349-.3-3.34,2.8Z" fill="#203a72"/><path d="M1275.981,618.8l-3.7-2.311-3.34,2.8,1.055-4.231-3.7-2.31,4.349-.3,1.055-4.231,1.633,4.043,4.35-.3-3.34,2.8Z" fill="#203a72"/><path d="M1411.716,558.8l3.7-2.311,3.34,2.8-1.055-4.231,3.7-2.311-4.35-.3-1.055-4.231-1.633,4.043-4.349-.3,3.34,2.8Z" fill="#203a72"/><path d="M1417.41,579.439l3.7-2.311,3.34,2.8-1.055-4.231,3.7-2.31-4.349-.3-1.055-4.231-1.633,4.043-4.349-.3,3.34,2.8Z" fill="#203a72"/><path d="M1416.547,599.117l3.7-2.311,3.34,2.8-1.055-4.231,3.7-2.31-4.349-.3-1.055-4.231-1.633,4.043-4.349-.3,3.34,2.8Z" fill="#203a72"/><path d="M1409.284,618.8l3.7-2.311,3.34,2.8-1.055-4.231,3.7-2.31-4.349-.3-1.055-4.231-1.633,4.043-4.35-.3,3.34,2.8Z" fill="#203a72"/></g></svg>