<svg xmlns="http://www.w3.org/2000/svg" width="151.001" height="151.001" viewBox="0 0 151.001 151.001"><g transform="translate(-793.844 -149.419)"><circle cx="75.5" cy="75.5" r="75.5" transform="translate(793.844 149.419)" fill="#1a256c"/><g transform="translate(821.345 197.545)"><g transform="translate(0 0)"><path d="M820.577,233.5a1.224,1.224,0,0,1-1.133-1.685l15.085-37a1.226,1.226,0,0,1,1.133-.761h60.345a1.223,1.223,0,1,1,0,2.446H836.484L822.4,231.056h44.846l45.032-.157L902.7,206.936a1.223,1.223,0,0,1,2.272-.909l10.243,25.634a1.223,1.223,0,0,1-1.132,1.678l-46.835.164Z" transform="translate(-819.353 -194.059)" fill="#fff"/><g transform="translate(74.82)"><path d="M908.656,250.265a1.222,1.222,0,0,1-1.223-1.223V232.355l-14.615-35.85h-2.843a1.223,1.223,0,0,1,0-2.446h3.664a1.224,1.224,0,0,1,1.133.761l15.016,36.833a1.231,1.231,0,0,1,.091.461v16.927A1.223,1.223,0,0,1,908.656,250.265Z" transform="translate(-888.753 -194.059)" fill="#fff"/></g><g transform="translate(0 36.997)"><path d="M914.128,247.584H820.577a1.223,1.223,0,0,1-1.224-1.223V229.6a1.223,1.223,0,0,1,2.446,0v15.54h92.328a1.223,1.223,0,1,1,0,2.446Z" transform="translate(-819.353 -228.376)" fill="#fff"/></g></g><g transform="translate(0.187 49.071)"><path d="M913.163,242.021H820.75a1.223,1.223,0,1,1,0-2.446h92.414a1.223,1.223,0,1,1,0,2.446Z" transform="translate(-819.526 -239.575)" fill="#fff"/></g><g transform="translate(33.619 31.89)"><path d="M852.881,226.085H851.76a1.223,1.223,0,1,1,0-2.446h1.121a1.223,1.223,0,0,1,0,2.446Z" transform="translate(-850.536 -223.639)" fill="#fff"/></g><g transform="translate(8.34 5.287)"><g transform="translate(0 26.603)"><path d="M829.434,226.085h-1.121a1.223,1.223,0,1,1,0-2.446h1.121a1.223,1.223,0,1,1,0,2.446Z" transform="translate(-827.089 -223.639)" fill="#fff"/></g><g transform="translate(5.539 13.302)"><path d="M834.571,213.747H833.45a1.223,1.223,0,0,1,0-2.446h1.121a1.223,1.223,0,1,1,0,2.446Z" transform="translate(-832.227 -211.301)" fill="#fff"/></g><g transform="translate(11.076)"><path d="M839.708,201.409h-1.121a1.223,1.223,0,1,1,0-2.446h1.121a1.223,1.223,0,0,1,0,2.446Z" transform="translate(-837.363 -198.963)" fill="#fff"/></g></g><g transform="translate(59.508 31.89)"><path d="M876.895,226.085h-1.121a1.223,1.223,0,1,1,0-2.446h1.121a1.223,1.223,0,0,1,0,2.446Z" transform="translate(-874.55 -223.639)" fill="#fff"/></g><g transform="translate(73.71 5.287)"><g transform="translate(11.076 26.603)"><path d="M900.342,226.085h-1.121a1.223,1.223,0,1,1,0-2.446h1.121a1.223,1.223,0,0,1,0,2.446Z" transform="translate(-897.997 -223.639)" fill="#fff"/></g><g transform="translate(5.538 13.302)"><path d="M895.2,213.747h-1.121a1.223,1.223,0,1,1,0-2.446H895.2a1.223,1.223,0,0,1,0,2.446Z" transform="translate(-892.86 -211.301)" fill="#fff"/></g><path d="M890.068,201.409h-1.121a1.223,1.223,0,1,1,0-2.446h1.121a1.223,1.223,0,0,1,0,2.446Z" transform="translate(-887.723 -198.963)" fill="#fff"/></g><g transform="translate(15.085)"><path d="M866.172,217.852a1.221,1.221,0,0,1-1.036-.571c-12.313-19.572-30.451-20.766-30.633-20.776a1.223,1.223,0,1,1,.132-2.443c.793.043,19.592,1.283,32.571,21.917a1.222,1.222,0,0,1-1.034,1.874Z" transform="translate(-833.345 -194.059)" fill="#fff"/><g transform="translate(27.355 13.6)"><path d="M859.943,210.445a1.223,1.223,0,0,1-.772-2.172l1.631-1.325a1.223,1.223,0,1,1,1.543,1.9l-1.631,1.325A1.215,1.215,0,0,1,859.943,210.445Z" transform="translate(-858.719 -206.674)" fill="#fff"/></g><g transform="translate(24.712 10.427)"><path d="M857.492,207.6a1.224,1.224,0,0,1-.828-2.125l1.549-1.42a1.223,1.223,0,1,1,1.653,1.8l-1.548,1.42A1.219,1.219,0,0,1,857.492,207.6Z" transform="translate(-856.267 -203.731)" fill="#fff"/></g><g transform="translate(21.584 7.609)"><path d="M854.589,205.113a1.223,1.223,0,0,1-.9-2.048l1.419-1.55a1.223,1.223,0,0,1,1.8,1.652l-1.419,1.55A1.222,1.222,0,0,1,854.589,205.113Z" transform="translate(-853.365 -201.117)" fill="#fff"/></g><g transform="translate(18.341 5.105)"><path d="M851.58,202.908a1.223,1.223,0,0,1-.969-1.969l1.279-1.667a1.223,1.223,0,1,1,1.942,1.489l-1.28,1.668A1.221,1.221,0,0,1,851.58,202.908Z" transform="translate(-850.358 -198.794)" fill="#fff"/></g><g transform="translate(14.679 3.149)"><path d="M848.183,201.131a1.222,1.222,0,0,1-.991-1.938l1.229-1.7a1.223,1.223,0,1,1,1.984,1.432l-1.229,1.7A1.22,1.22,0,0,1,848.183,201.131Z" transform="translate(-846.961 -196.98)" fill="#fff"/></g></g><g transform="translate(46.683 0)"><path d="M863.877,217.852a1.223,1.223,0,0,1-1.035-1.874c12.98-20.634,31.778-21.874,32.573-21.917a1.223,1.223,0,0,1,.133,2.443c-.182.01-18.357,1.259-30.634,20.776A1.22,1.22,0,0,1,863.877,217.852Z" transform="translate(-862.654 -194.059)" fill="#fff"/><g transform="translate(2.617 13.6)"><path d="M867.934,210.445a1.215,1.215,0,0,1-.77-.274l-1.631-1.325a1.223,1.223,0,0,1,1.543-1.9l1.63,1.325a1.223,1.223,0,0,1-.772,2.172Z" transform="translate(-865.081 -206.674)" fill="#fff"/></g><g transform="translate(5.341 10.427)"><path d="M870.38,207.6a1.219,1.219,0,0,1-.826-.322L868,205.855a1.223,1.223,0,1,1,1.654-1.8l1.548,1.42a1.223,1.223,0,0,1-.827,2.125Z" transform="translate(-867.608 -203.731)" fill="#fff"/></g><g transform="translate(8.601 7.609)"><path d="M873.273,205.113a1.222,1.222,0,0,1-.9-.4l-1.419-1.55a1.223,1.223,0,0,1,1.8-1.652l1.418,1.55a1.222,1.222,0,0,1-.9,2.048Z" transform="translate(-870.631 -201.117)" fill="#fff"/></g><g transform="translate(11.983 5.105)"><path d="M876.271,202.908a1.222,1.222,0,0,1-.971-.479l-1.279-1.668a1.223,1.223,0,1,1,1.941-1.489l1.28,1.667a1.223,1.223,0,0,1-.97,1.969Z" transform="translate(-873.769 -198.794)" fill="#fff"/></g><g transform="translate(15.694 3.15)"><path d="M879.665,201.131a1.219,1.219,0,0,1-.993-.508l-1.23-1.7a1.223,1.223,0,0,1,1.984-1.432l1.23,1.7a1.222,1.222,0,0,1-.991,1.938Z" transform="translate(-877.211 -196.981)" fill="#fff"/></g></g><g transform="translate(42.481 21.788)"><path d="M868.392,226.874H859.98a1.225,1.225,0,0,1-1.193-1.491l2.279-10.159a1.223,1.223,0,0,1,1.193-.955h3.855a1.225,1.225,0,0,1,1.195.955l2.278,10.159a1.225,1.225,0,0,1-1.195,1.491Zm-6.885-2.446h5.357l-1.729-7.713h-1.9Z" transform="translate(-858.757 -214.269)" fill="#fff"/></g><g transform="translate(43.969 27.734)"><path d="M866.864,222.23h-5.5a1.223,1.223,0,1,1,0-2.446h5.5a1.223,1.223,0,1,1,0,2.446Z" transform="translate(-860.137 -219.784)" fill="#fff"/></g><g transform="translate(33.619 18.696)"><path d="M852.881,213.847H851.76a1.223,1.223,0,1,1,0-2.446h1.121a1.223,1.223,0,0,1,0,2.446Z" transform="translate(-850.536 -211.401)" fill="#fff"/><g transform="translate(25.889)"><path d="M876.895,213.847h-1.121a1.223,1.223,0,1,1,0-2.446h1.121a1.223,1.223,0,0,1,0,2.446Z" transform="translate(-874.55 -211.401)" fill="#fff"/></g></g></g></g></svg>