<svg xmlns="http://www.w3.org/2000/svg" width="102.25" height="102.173" viewBox="0 0 102.25 102.173"><g transform="translate(-5594.351 -1840.299)"><g transform="translate(5594.351 1840.299)"><g transform="translate(0)"><path d="M5600.114,1911.824a2.179,2.179,0,0,1-2.021-1.364,51.117,51.117,0,0,1,87.23-51.137,2.176,2.176,0,1,1-3.39,2.73,46.764,46.764,0,0,0-79.8,46.782,2.178,2.178,0,0,1-2.018,2.99Z" transform="translate(-5594.351 -1840.299)" fill="#fff"/><path d="M5664.66,1995.358a51.047,51.047,0,0,1-39.857-19.03,2.176,2.176,0,1,1,3.39-2.731,46.76,46.76,0,0,0,79.619-47.222,2.176,2.176,0,0,1,4.021-1.668,51.083,51.083,0,0,1-47.171,70.652Z" transform="translate(-5613.432 -1893.185)" fill="#fff"/><path d="M5814.212,1872.884a2.26,2.26,0,0,1-.236-.012l-13.963-1.5a2.176,2.176,0,0,1,.466-4.328l11.8,1.267,1.271-11.8a2.176,2.176,0,0,1,4.327.467l-1.5,13.959A2.176,2.176,0,0,1,5814.212,1872.884Z" transform="translate(-5724.056 -1849.387)" fill="#fff"/><path d="M5620,2074.334a2.12,2.12,0,0,1-.236-.013,2.176,2.176,0,0,1-1.931-2.4l1.5-13.962a2.175,2.175,0,0,1,2.4-1.931l13.958,1.506a2.176,2.176,0,1,1-.467,4.327l-11.794-1.272-1.27,11.8A2.177,2.177,0,0,1,5620,2074.334Z" transform="translate(-5609.291 -1977.646)" fill="#fff"/></g></g><g transform="translate(5618.337 1862.889)"><path d="M5689.2,1983.64a2.176,2.176,0,0,1-.945-.215l-26.654-12.835a2.176,2.176,0,0,1-1.231-1.96v-28.685a2.176,2.176,0,0,1,3.121-1.96l26.653,12.837a2.176,2.176,0,0,1,1.231,1.96v28.683a2.175,2.175,0,0,1-2.176,2.176Zm-24.478-16.379,22.3,10.74v-23.853l-22.3-10.741Z" transform="translate(-5660.372 -1924.947)" fill="#fff"/><path d="M5689.2,1932.469a2.173,2.173,0,0,1-.944-.216l-26.653-12.832a2.176,2.176,0,0,1,0-3.923l26.664-12.8a2.176,2.176,0,0,1,1.887,0l26.65,12.833a2.176,2.176,0,0,1,0,3.922l-26.661,12.805A2.175,2.175,0,0,1,5689.2,1932.469Zm-21.632-15.007,21.633,10.415,21.639-10.393-21.63-10.415Z" transform="translate(-5660.372 -1902.479)" fill="#fff"/><path d="M5735.911,1983.64a2.176,2.176,0,0,1-2.176-2.176v-28.683a2.176,2.176,0,0,1,1.232-1.96l26.651-12.837a2.176,2.176,0,0,1,3.121,1.96v28.685a2.175,2.175,0,0,1-1.232,1.96l-26.651,12.835A2.179,2.179,0,0,1,5735.911,1983.64Zm2.176-29.492V1978l22.3-10.74v-23.854Zm24.475,14.481h0Z" transform="translate(-5707.082 -1924.947)" fill="#fff"/><path d="M5751.371,2027.261a2.176,2.176,0,0,1-.946-4.137l5.083-2.453a2.177,2.177,0,1,1,1.892,3.921l-5.083,2.452A2.17,2.17,0,0,1,5751.371,2027.261Z" transform="translate(-5716.924 -1977.593)" fill="#fff"/><path d="M5751.372,2013.543a2.176,2.176,0,0,1-.947-4.135l3.44-1.66a2.176,2.176,0,0,1,1.891,3.919l-3.44,1.66A2.16,2.16,0,0,1,5751.372,2013.543Z" transform="translate(-5716.924 -1969.364)" fill="#fff"/></g></g></svg>