<svg xmlns="http://www.w3.org/2000/svg" width="148.975" height="148.974" viewBox="0 0 148.975 148.974"><g transform="translate(5399.245 -163.088)"><g transform="translate(-5399.245 163.088)"><path d="M-5324.758,312.062a74.572,74.572,0,0,1-74.487-74.488,74.571,74.571,0,0,1,74.487-74.486,74.571,74.571,0,0,1,74.487,74.486A74.572,74.572,0,0,1-5324.758,312.062Zm0-145.784a71.378,71.378,0,0,0-71.3,71.3,71.378,71.378,0,0,0,71.3,71.3,71.378,71.378,0,0,0,71.3-71.3A71.378,71.378,0,0,0-5324.758,166.278Z" transform="translate(5399.245 -163.088)" fill="#fff"/><g transform="translate(8.058 8.057)"><path d="M-5310.366,318.392a66.5,66.5,0,0,1-66.429-66.428,66.5,66.5,0,0,1,66.429-66.429,66.5,66.5,0,0,1,66.429,66.429A66.5,66.5,0,0,1-5310.366,318.392Zm0-132.06A65.705,65.705,0,0,0-5376,251.963a65.7,65.7,0,0,0,65.631,65.631,65.7,65.7,0,0,0,65.631-65.631A65.706,65.706,0,0,0-5310.366,186.332Z" transform="translate(5376.795 -185.534)" fill="#fff"/></g><g transform="translate(11.691 14.253)"><g transform="translate(111.925 54.43)"><path d="M-5048.8,354.432l1.907,3.8,4.212.583-3.023,2.988.749,4.186-3.778-1.952-3.749,2.005.689-4.2-3.066-2.946,4.2-.64Z" transform="translate(5054.862 -354.432)" fill="#fff"/></g><g transform="translate(56.707)"><path d="M-5202.636,202.8l1.908,3.8,4.211.583-3.023,2.988.749,4.186-3.777-1.952-3.75,2.005.689-4.2-3.066-2.946,4.2-.64Z" transform="translate(5208.695 -202.795)" fill="#fff"/></g><g transform="translate(74.595 2.234)"><path d="M-5152.8,209.018l1.907,3.8,4.212.583-3.023,2.988.748,4.186-3.777-1.952-3.749,2.005.689-4.2-3.066-2.946,4.2-.64Z" transform="translate(5158.86 -209.018)" fill="#fff"/></g><g transform="translate(90.575 11.609)"><path d="M-5108.282,235.135l1.907,3.8,4.212.583-3.023,2.988.749,4.186-3.777-1.953-3.749,2.005.688-4.2-3.066-2.946,4.2-.64Z" transform="translate(5114.341 -235.135)" fill="#fff"/></g><g transform="translate(101.971 24.667)"><path d="M-5076.533,271.516l1.908,3.8,4.211.583-3.023,2.988.749,4.186-3.777-1.953-3.749,2.005.688-4.2-3.066-2.946,4.2-.64Z" transform="translate(5082.592 -271.516)" fill="#fff"/></g><g transform="translate(109.328 39.826)"><path d="M-5056.037,313.746l1.908,3.8,4.211.583-3.023,2.988.748,4.186-3.777-1.953-3.749,2.005.689-4.2-3.066-2.946,4.2-.64Z" transform="translate(5062.097 -313.746)" fill="#fff"/></g><g transform="translate(0 54.43)"><path d="M-5360.556,354.432l-1.908,3.8-4.212.583,3.023,2.988-.748,4.186,3.777-1.952,3.75,2.005-.689-4.2,3.065-2.946-4.2-.64Z" transform="translate(5366.676 -354.432)" fill="#fff"/></g><g transform="translate(37.33 2.234)"><path d="M-5256.558,209.018l-1.908,3.8-4.211.583,3.022,2.988-.748,4.186,3.777-1.952,3.75,2.005-.689-4.2,3.065-2.946-4.2-.64Z" transform="translate(5262.677 -209.018)" fill="#fff"/></g><g transform="translate(21.35 11.609)"><path d="M-5301.077,235.135l-1.908,3.8-4.211.583,3.023,2.988-.749,4.186,3.777-1.953,3.749,2.005-.688-4.2,3.066-2.946-4.2-.64Z" transform="translate(5307.196 -235.135)" fill="#fff"/></g><g transform="translate(9.954 24.667)"><path d="M-5332.826,271.516l-1.908,3.8-4.212.583,3.024,2.988-.749,4.186,3.777-1.953,3.75,2.005-.689-4.2,3.066-2.946-4.2-.64Z" transform="translate(5338.945 -271.516)" fill="#fff"/></g><g transform="translate(2.597 39.826)"><path d="M-5353.322,313.746l-1.908,3.8-4.212.583,3.023,2.988-.749,4.186,3.777-1.953,3.75,2.005-.689-4.2,3.066-2.946-4.2-.64Z" transform="translate(5359.441 -313.746)" fill="#fff"/></g></g></g><g transform="translate(-5369.615 270.307)"><path d="M-5312.4,468.882l-.972-.926-1.54,1.616-1.783-1.7,5.8-6.083,2.88,2.745a5.118,5.118,0,0,1,1.225,1.69,3.021,3.021,0,0,1,.227,1.709,2.893,2.893,0,0,1-.8,1.521,2.852,2.852,0,0,1-1.417.847,2.955,2.955,0,0,1-1.647-.1l-.462,3.207-1.909-1.818Zm3.588-2.07a1.74,1.74,0,0,0-.6-1.024l-.99-.944-1.7,1.781.99.944a1.765,1.765,0,0,0,1.048.559,1.109,1.109,0,0,0,.9-.39A1.126,1.126,0,0,0-5308.816,466.812Z" transform="translate(5316.699 -461.79)" fill="#fff"/><path d="M-5292.689,478.4l1.893,1.414-3.895,5.213-1.893-1.414Zm.749-.775a1.1,1.1,0,0,1,.2-.93,1.1,1.1,0,0,1,.836-.454,1.531,1.531,0,0,1,1.045.346,1.58,1.58,0,0,1,.639.89,1.051,1.051,0,0,1-.187.916,1.147,1.147,0,0,1-.854.478,1.514,1.514,0,0,1-1.049-.341A1.529,1.529,0,0,1-5291.94,477.629Z" transform="translate(5303.805 -471.053)" fill="#fff"/><path d="M-5286.374,495.638a4.5,4.5,0,0,1-.871-1.1l1.419-.962a4.078,4.078,0,0,0,.7.945,5.056,5.056,0,0,0,.987.794,2.085,2.085,0,0,0,.754.328.359.359,0,0,0,.379-.155q.114-.184-.09-.413a6.185,6.185,0,0,0-.7-.632,9.5,9.5,0,0,1-1.041-.932,2.129,2.129,0,0,1-.532-1,1.611,1.611,0,0,1,.264-1.218,1.738,1.738,0,0,1,.908-.746,2.556,2.556,0,0,1,1.361-.068,4.97,4.97,0,0,1,1.659.684,7.4,7.4,0,0,1,1.166.882,4.287,4.287,0,0,1,.816.978l-1.413.951a4.044,4.044,0,0,0-1.4-1.422,2,2,0,0,0-.767-.321.377.377,0,0,0-.395.145.335.335,0,0,0,.078.421,6.761,6.761,0,0,0,.709.652,10.648,10.648,0,0,1,1.034.956,2.127,2.127,0,0,1,.514.982,1.591,1.591,0,0,1-.26,1.2,1.729,1.729,0,0,1-.9.736,2.515,2.515,0,0,1-1.368.057,5.257,5.257,0,0,1-1.688-.709A7.485,7.485,0,0,1-5286.374,495.638Z" transform="translate(5297.817 -480.14)" fill="#fff"/><path d="M-5265.209,499.288l-.915.341-.65,1.458-2.158-.962,3.627-8.136,2.158.962-1.9,4.265,3.127-1.09,2.556,1.139-3.689,1.4,1.255,4.635-2.611-1.164Z" transform="translate(5286.078 -481.149)" fill="#fff"/><path d="M-5230.577,507.455l-.393,1.807,3.754.817-.391,1.795-3.754-.817-.613,2.815-2.406-.524,1.789-8.211,6.67,1.453-.391,1.795Z" transform="translate(5263.928 -489.577)" fill="#fff"/><path d="M-5207.724,514.8a3.665,3.665,0,0,1,1.338-.1l-.188,2.045a4.9,4.9,0,0,0-.529-.085,1.682,1.682,0,0,0-1.218.286,1.568,1.568,0,0,0-.538,1.168l-.274,2.977-2.353-.217.6-6.479,2.242.206-.072.777A2.2,2.2,0,0,1-5207.724,514.8Z" transform="translate(5249.253 -495.509)" fill="#fff"/><path d="M-5188.774,518.845l-4.9.2a1.332,1.332,0,0,0,.609.75,1.986,1.986,0,0,0,1.085.226,2.418,2.418,0,0,0,.833-.166,2.512,2.512,0,0,0,.7-.461l1.293,1.2a3.733,3.733,0,0,1-2.828,1.172,4.722,4.722,0,0,1-2.092-.348,3.308,3.308,0,0,1-1.434-1.143,3.162,3.162,0,0,1-.562-1.719,3.172,3.172,0,0,1,.409-1.741,3.3,3.3,0,0,1,1.274-1.247,4.13,4.13,0,0,1,1.884-.509,4.1,4.1,0,0,1,1.843.328,3.13,3.13,0,0,1,1.346,1.111,3.324,3.324,0,0,1,.551,1.786C-5188.759,518.3-5188.764,518.485-5188.774,518.845Zm-4.549-1.833a1.347,1.347,0,0,0-.433.835l2.759-.112a1.345,1.345,0,0,0-.5-.8,1.4,1.4,0,0,0-.926-.263A1.4,1.4,0,0,0-5193.323,517.012Z" transform="translate(5239.369 -495.933)" fill="#fff"/><path d="M-5165.905,515.547l-4.81.934a1.325,1.325,0,0,0,.715.65,1.985,1.985,0,0,0,1.107.06,2.4,2.4,0,0,0,.8-.29,2.488,2.488,0,0,0,.619-.56l1.459.989a3.732,3.732,0,0,1-2.618,1.585,4.72,4.72,0,0,1-2.122-.029,3.3,3.3,0,0,1-1.589-.914,3.151,3.151,0,0,1-.813-1.615,3.16,3.16,0,0,1,.141-1.783,3.307,3.307,0,0,1,1.072-1.425,4.119,4.119,0,0,1,1.785-.787,4.094,4.094,0,0,1,1.871.046,3.126,3.126,0,0,1,1.5.9,3.319,3.319,0,0,1,.813,1.682Q-5165.972,515.009-5165.905,515.547Zm-4.773-1.128a1.347,1.347,0,0,0-.3.891l2.71-.526a1.348,1.348,0,0,0-.613-.713,1.4,1.4,0,0,0-.955-.12A1.4,1.4,0,0,0-5170.679,514.419Z" transform="translate(5224.725 -494.154)" fill="#fff"/><path d="M-5143.62,498.426l-2.47,1.024-.722-1.741,7.2-2.985.722,1.741-2.458,1.019,2.5,6.022-2.275.943Z" transform="translate(5207.792 -482.902)" fill="#fff"/><path d="M-5120.684,493.21a3.668,3.668,0,0,1,1.053-.833l.991,1.8a4.912,4.912,0,0,0-.486.226,1.685,1.685,0,0,0-.849.92,1.577,1.577,0,0,0,.21,1.269l1.442,2.618-2.069,1.141-3.14-5.7,1.971-1.086.376.683A2.2,2.2,0,0,1-5120.684,493.21Z" transform="translate(5192.87 -481.397)" fill="#fff"/><path d="M-5113.669,483.922a1.1,1.1,0,0,1-.808-.5,1.1,1.1,0,0,1-.144-.94,1.529,1.529,0,0,1,.68-.866,1.583,1.583,0,0,1,1.053-.3,1.049,1.049,0,0,1,.8.487,1.144,1.144,0,0,1,.161.966,1.51,1.51,0,0,1-.676.871A1.526,1.526,0,0,1-5113.669,483.922Zm.474.967,1.972-1.3,3.584,5.431-1.972,1.3Z" transform="translate(5187.187 -474.301)" fill="#fff"/><path d="M-5096.568,477.352a2.783,2.783,0,0,1,2.117,1.19l2.291,2.795-1.7,1.4-.533-.65a2.048,2.048,0,0,1-.937,2,3.216,3.216,0,0,1-1.216.655,1.988,1.988,0,0,1-1.122-.005,1.837,1.837,0,0,1-.876-.608,1.646,1.646,0,0,1-.342-1.575,4.007,4.007,0,0,1,1.427-1.829l1.039-.851q-.7-.76-1.761.108a3.423,3.423,0,0,0-.665.739,2.646,2.646,0,0,0-.391.856l-1.6-.694a4.478,4.478,0,0,1,.7-1.295,6.688,6.688,0,0,1,1.12-1.174A3.9,3.9,0,0,1-5096.568,477.352Zm1.268,4.587a1.077,1.077,0,0,0-.011-.72l-.358-.436-.789.646q-.8.655-.379,1.165a.573.573,0,0,0,.487.222,1.041,1.041,0,0,0,.614-.271A1.338,1.338,0,0,0-5095.3,481.939Z" transform="translate(5178.32 -471.766)" fill="#fff"/><path d="M-5090.384,464.005l1.653-1.688,6.367,6.231-1.653,1.689Z" transform="translate(5171.62 -462.128)" fill="#fff"/></g><g transform="translate(-5370.01 192.311)"><path d="M-5226.042,295.894c-1.825,0-2.971.886-2.971,3.544V306c0,2.658,1.146,3.6,2.971,3.6s2.971-.938,2.971-3.6v-6.566C-5223.071,296.78-5224.217,295.894-5226.042,295.894Z" transform="translate(5260.882 -277.447)" fill="#fff"/><path d="M-5168.258,295.749c-1.824,0-2.971.938-2.971,3.6v19.7c0,2.658,1.147,3.6,2.971,3.6s2.971-.938,2.971-3.6v-19.7C-5165.288,296.687-5166.434,295.749-5168.258,295.749Z" transform="translate(5223.84 -277.354)" fill="#fff"/><path d="M-5272.536,244.5a45.264,45.264,0,0,0-45.264,45.264,45.264,45.264,0,0,0,45.264,45.264,45.264,45.264,0,0,0,45.264-45.264A45.263,45.263,0,0,0-5272.536,244.5Zm-18.116,76.119h-2.949l-3.577-13.235V320.62h-2.584V302.347h3.6l2.949,10.938V302.347h2.559Zm4.934,0h-2.871V302.347h2.871Zm10.416-12.112h-2.716V306.55c0-1.331-.574-1.8-1.487-1.8s-1.488.47-1.488,1.8v9.867c0,1.331.574,1.775,1.488,1.775s1.487-.444,1.487-1.775V313.05h-1.3v-2.611h4.021v5.8c0,2.95-1.462,4.595-4.281,4.595s-4.281-1.645-4.281-4.595v-9.5c0-2.95,1.462-4.595,4.281-4.595s4.281,1.645,4.281,4.595Zm1.047-22.994c0,6.2-2.762,9.485-8.755,9.485-5.629,0-8.547-3.283-8.547-9.172v-.938h5.42v1.3c0,2.658,1.146,3.6,2.971,3.6,2.032,0,3.179-.99,3.179-4.482v-6.671a5.381,5.381,0,0,1-5.315,3.231c-4.221,0-6.358-2.919-6.358-8.338v-6.671c0-5.889,3.075-9.172,8.7-9.172s8.7,3.283,8.7,9.172Zm9.864,35.106h-2.924v-7.831h-3.263v7.831h-2.871V302.347h2.871v7.831h3.263v-7.831h2.924Zm10.128-15.662h-3V320.62h-2.871V304.958h-3v-2.611h8.875Zm.75-19.131c0,5.889-3.075,9.172-8.7,9.172s-8.7-3.283-8.7-9.172v-18.97c0-5.889,3.075-9.172,8.7-9.172s8.7,3.283,8.7,9.172Zm4.341,35c-2.819,0-4.281-1.645-4.281-4.595v-1.122h2.715v1.305c0,1.331.574,1.775,1.487,1.775s1.488-.444,1.488-1.775a4.259,4.259,0,0,0-1.461-3.028c-.418-.418-.862-.835-1.332-1.279a8.66,8.66,0,0,1-2.4-3.106,5.6,5.6,0,0,1-.417-2.271c0-2.95,1.409-4.595,4.228-4.595s4.229,1.645,4.229,4.595v.574h-2.715v-.757c0-1.331-.521-1.8-1.436-1.8s-1.436.47-1.436,1.8a4.156,4.156,0,0,0,1.461,3,16.047,16.047,0,0,0,1.358,1.279,9.244,9.244,0,0,1,2.375,3.133,5.6,5.6,0,0,1,.418,2.271C-5244.892,319.184-5246.354,320.829-5249.173,320.829Z" transform="translate(5317.8 -244.501)" fill="#fff"/></g></g></svg>