<svg xmlns="http://www.w3.org/2000/svg" width="161.736" height="161.737" viewBox="0 0 161.736 161.737">
  <g id="Group_1879" data-name="Group 1879" transform="translate(0 0)">
    <g id="Group_1874" data-name="Group 1874" transform="translate(0 0)">
      <g id="Group_1860" data-name="Group 1860">
        <path id="Path_2710" data-name="Path 2710" d="M-4334.585,324.825a80.96,80.96,0,0,1-80.869-80.869,80.959,80.959,0,0,1,80.869-80.867,80.959,80.959,0,0,1,80.868,80.867A80.96,80.96,0,0,1-4334.585,324.825Zm0-158.273a77.493,77.493,0,0,0-77.406,77.4,77.494,77.494,0,0,0,77.406,77.406,77.493,77.493,0,0,0,77.4-77.406A77.493,77.493,0,0,0-4334.585,166.551Z" transform="translate(4415.454 -163.088)" fill="#1a256c"/>
      </g>
      <g id="Group_1861" data-name="Group 1861" transform="translate(8.748 8.747)">
        <path id="Path_2711" data-name="Path 2711" d="M-4320.884,329.773A72.2,72.2,0,0,1-4393,257.654a72.2,72.2,0,0,1,72.12-72.12,72.2,72.2,0,0,1,72.12,72.12A72.2,72.2,0,0,1-4320.884,329.773Zm0-143.374a71.335,71.335,0,0,0-71.254,71.254,71.334,71.334,0,0,0,71.254,71.253,71.334,71.334,0,0,0,71.254-71.253A71.335,71.335,0,0,0-4320.884,186.4Z" transform="translate(4393.004 -185.534)" fill="#1a256c"/>
      </g>
      <g id="Group_1873" data-name="Group 1873" transform="translate(12.692 15.474)">
        <g id="Group_1862" data-name="Group 1862" transform="translate(121.514 59.093)">
          <path id="Path_2712" data-name="Path 2712" d="M-4064.493,354.432l2.071,4.124,4.573.632-3.283,3.244.813,4.545-4.1-2.12-4.07,2.177.748-4.556-3.329-3.2,4.563-.7Z" transform="translate(4071.072 -354.432)" fill="#1a256c"/>
        </g>
        <g id="Group_1863" data-name="Group 1863" transform="translate(61.565)">
          <path id="Path_2713" data-name="Path 2713" d="M-4218.327,202.8l2.072,4.124,4.573.633-3.283,3.244.812,4.545-4.1-2.12-4.07,2.177.748-4.556-3.329-3.2,4.564-.7Z" transform="translate(4224.905 -202.795)" fill="#1a256c"/>
        </g>
        <g id="Group_1864" data-name="Group 1864" transform="translate(80.986 2.425)">
          <path id="Path_2714" data-name="Path 2714" d="M-4168.49,209.018l2.07,4.124,4.572.633-3.282,3.244.813,4.545-4.1-2.12-4.07,2.177.748-4.556-3.328-3.2,4.564-.7Z" transform="translate(4175.069 -209.018)" fill="#1a256c"/>
        </g>
        <g id="Group_1865" data-name="Group 1865" transform="translate(98.335 12.603)">
          <path id="Path_2715" data-name="Path 2715" d="M-4123.972,235.135l2.071,4.124,4.573.633-3.283,3.244.813,4.545-4.1-2.12-4.071,2.177.748-4.556-3.328-3.2,4.563-.7Z" transform="translate(4130.55 -235.135)" fill="#1a256c"/>
        </g>
        <g id="Group_1866" data-name="Group 1866" transform="translate(110.707 26.78)">
          <path id="Path_2716" data-name="Path 2716" d="M-4092.223,271.516l2.07,4.124,4.572.632-3.281,3.244.813,4.545-4.1-2.12-4.071,2.177.748-4.556-3.329-3.2,4.564-.7Z" transform="translate(4098.801 -271.516)" fill="#1a256c"/>
        </g>
        <g id="Group_1867" data-name="Group 1867" transform="translate(118.695 43.237)">
          <path id="Path_2717" data-name="Path 2717" d="M-4071.728,313.746l2.071,4.124,4.573.633-3.283,3.244.813,4.545-4.1-2.12-4.07,2.177.748-4.556-3.329-3.2,4.563-.7Z" transform="translate(4078.305 -313.746)" fill="#1a256c"/>
        </g>
        <g id="Group_1868" data-name="Group 1868" transform="translate(0 59.093)">
          <path id="Path_2718" data-name="Path 2718" d="M-4376.241,354.432l-2.071,4.124-4.572.632,3.283,3.244-.813,4.545,4.1-2.12,4.071,2.177-.749-4.556,3.329-3.2-4.563-.7Z" transform="translate(4382.885 -354.432)" fill="#1a256c"/>
        </g>
        <g id="Group_1869" data-name="Group 1869" transform="translate(40.528 2.425)">
          <path id="Path_2719" data-name="Path 2719" d="M-4272.243,209.018l-2.07,4.124-4.573.633,3.282,3.244-.813,4.545,4.1-2.12,4.07,2.177-.748-4.556,3.33-3.2-4.564-.7Z" transform="translate(4278.887 -209.018)" fill="#1a256c"/>
        </g>
        <g id="Group_1870" data-name="Group 1870" transform="translate(23.179 12.603)">
          <path id="Path_2720" data-name="Path 2720" d="M-4316.762,235.135l-2.07,4.124-4.572.633,3.281,3.244-.812,4.545,4.1-2.12,4.071,2.177-.749-4.556,3.329-3.2-4.565-.7Z" transform="translate(4323.405 -235.135)" fill="#1a256c"/>
        </g>
        <g id="Group_1871" data-name="Group 1871" transform="translate(10.806 26.78)">
          <path id="Path_2721" data-name="Path 2721" d="M-4348.511,271.516l-2.072,4.124-4.572.632,3.282,3.244-.812,4.545,4.1-2.12,4.07,2.177-.748-4.556,3.329-3.2-4.564-.7Z" transform="translate(4355.155 -271.516)" fill="#1a256c"/>
        </g>
        <g id="Group_1872" data-name="Group 1872" transform="translate(2.819 43.237)">
          <path id="Path_2722" data-name="Path 2722" d="M-4369.007,313.746l-2.071,4.124-4.572.633,3.282,3.244-.812,4.545,4.1-2.12,4.069,2.177-.747-4.556,3.328-3.2-4.564-.7Z" transform="translate(4375.65 -313.746)" fill="#1a256c"/>
        </g>
      </g>
    </g>
    <g id="Group_1877" data-name="Group 1877" transform="translate(32.168 116.405)">
      <g id="Group_1876" data-name="Group 1876" transform="translate(0)">
        <g id="Group_1875" data-name="Group 1875">
          <path id="Path_2723" data-name="Path 2723" d="M-4328.245,469.49l-1.056-1.006-1.671,1.755-1.936-1.844,6.294-6.6,3.127,2.98a5.557,5.557,0,0,1,1.33,1.834,3.279,3.279,0,0,1,.246,1.855,3.136,3.136,0,0,1-.865,1.652,3.1,3.1,0,0,1-1.539.919,3.2,3.2,0,0,1-1.787-.11l-.5,3.482-2.072-1.974Zm3.9-2.248a1.888,1.888,0,0,0-.656-1.111l-1.075-1.025-1.843,1.934,1.075,1.024a1.916,1.916,0,0,0,1.138.607,1.205,1.205,0,0,0,.982-.424A1.225,1.225,0,0,0-4324.35,467.242Z" transform="translate(4332.908 -461.79)" fill="#1a256c"/>
          <path id="Path_2724" data-name="Path 2724" d="M-4308.566,478.589l2.055,1.535-4.228,5.66-2.055-1.536Zm.814-.841a1.194,1.194,0,0,1,.215-1.01,1.2,1.2,0,0,1,.908-.493,1.663,1.663,0,0,1,1.135.376,1.727,1.727,0,0,1,.693.966,1.145,1.145,0,0,1-.2.995,1.245,1.245,0,0,1-.927.519,1.644,1.644,0,0,1-1.139-.371A1.66,1.66,0,0,1-4307.752,477.748Z" transform="translate(4320.633 -470.609)" fill="#1a256c"/>
          <path id="Path_2725" data-name="Path 2725" d="M-4302.508,496.085a4.863,4.863,0,0,1-.946-1.2l1.54-1.044a4.442,4.442,0,0,0,.766,1.026,5.528,5.528,0,0,0,1.071.862,2.251,2.251,0,0,0,.819.356.391.391,0,0,0,.412-.169q.121-.2-.1-.449a6.834,6.834,0,0,0-.759-.686,10.157,10.157,0,0,1-1.13-1.012,2.3,2.3,0,0,1-.578-1.087,1.748,1.748,0,0,1,.286-1.322,1.888,1.888,0,0,1,.987-.81,2.771,2.771,0,0,1,1.477-.074,5.4,5.4,0,0,1,1.8.742,8.032,8.032,0,0,1,1.266.957,4.621,4.621,0,0,1,.885,1.062l-1.533,1.033a4.4,4.4,0,0,0-1.524-1.544,2.172,2.172,0,0,0-.832-.348.411.411,0,0,0-.429.157.365.365,0,0,0,.084.457,7.369,7.369,0,0,0,.771.708,11.649,11.649,0,0,1,1.122,1.038,2.3,2.3,0,0,1,.558,1.067,1.724,1.724,0,0,1-.282,1.3,1.874,1.874,0,0,1-.979.8,2.732,2.732,0,0,1-1.485.062,5.72,5.72,0,0,1-1.833-.77A8.116,8.116,0,0,1-4302.508,496.085Z" transform="translate(4314.932 -479.26)" fill="#1a256c"/>
          <path id="Path_2726" data-name="Path 2726" d="M-4281.1,499.913l-.992.371-.707,1.583-2.343-1.045,3.939-8.833,2.343,1.045-2.064,4.631,3.4-1.184,2.775,1.237-4.007,1.525,1.363,5.032-2.835-1.264Z" transform="translate(4303.756 -480.22)" fill="#1a256c"/>
          <path id="Path_2727" data-name="Path 2727" d="M-4246.46,507.653l-.427,1.961,4.076.887-.425,1.949-4.076-.887-.666,3.056-2.612-.569,1.941-8.915,7.243,1.577-.424,1.948Z" transform="translate(4282.668 -488.244)" fill="#1a256c"/>
          <path id="Path_2728" data-name="Path 2728" d="M-4223.61,514.831a3.98,3.98,0,0,1,1.453-.109l-.2,2.22a5.241,5.241,0,0,0-.574-.092,1.825,1.825,0,0,0-1.323.31,1.706,1.706,0,0,0-.585,1.268l-.3,3.232-2.555-.235.647-7.034,2.433.224-.077.844A2.382,2.382,0,0,1-4223.61,514.831Z" transform="translate(4268.697 -493.892)" fill="#1a256c"/>
          <path id="Path_2729" data-name="Path 2729" d="M-4204.358,519.171l-5.314.216a1.437,1.437,0,0,0,.661.815,2.158,2.158,0,0,0,1.178.245,2.626,2.626,0,0,0,.905-.18,2.718,2.718,0,0,0,.756-.5l1.4,1.3a4.053,4.053,0,0,1-3.07,1.273,5.123,5.123,0,0,1-2.271-.377,3.589,3.589,0,0,1-1.557-1.241,3.426,3.426,0,0,1-.609-1.867,3.443,3.443,0,0,1,.442-1.89,3.588,3.588,0,0,1,1.384-1.354,4.483,4.483,0,0,1,2.046-.553,4.44,4.44,0,0,1,2,.356,3.4,3.4,0,0,1,1.462,1.206,3.616,3.616,0,0,1,.6,1.939Q-4204.341,518.583-4204.358,519.171Zm-4.938-1.991a1.459,1.459,0,0,0-.469.906l2.995-.122a1.466,1.466,0,0,0-.542-.865,1.515,1.515,0,0,0-1-.285A1.518,1.518,0,0,0-4209.3,517.18Z" transform="translate(4259.288 -494.295)" fill="#1a256c"/>
          <path id="Path_2730" data-name="Path 2730" d="M-4181.489,515.827l-5.221,1.014a1.441,1.441,0,0,0,.777.706,2.154,2.154,0,0,0,1.2.066,2.6,2.6,0,0,0,.867-.315,2.706,2.706,0,0,0,.673-.608l1.584,1.073a4.052,4.052,0,0,1-2.843,1.721,5.123,5.123,0,0,1-2.3-.031,3.588,3.588,0,0,1-1.726-.992,3.449,3.449,0,0,1-.884-1.753,3.455,3.455,0,0,1,.154-1.935,3.592,3.592,0,0,1,1.164-1.548,4.475,4.475,0,0,1,1.939-.854,4.443,4.443,0,0,1,2.031.05,3.4,3.4,0,0,1,1.626.972,3.615,3.615,0,0,1,.884,1.827C-4181.562,515.235-4181.537,515.438-4181.489,515.827Zm-5.182-1.224a1.469,1.469,0,0,0-.328.967l2.942-.571a1.457,1.457,0,0,0-.666-.774,1.515,1.515,0,0,0-1.037-.13A1.517,1.517,0,0,0-4186.67,514.6Z" transform="translate(4245.346 -492.602)" fill="#1a256c"/>
          <path id="Path_2731" data-name="Path 2731" d="M-4159.556,498.743l-2.681,1.111-.784-1.89,7.82-3.241.783,1.89-2.669,1.106,2.709,6.538-2.47,1.024Z" transform="translate(4229.226 -481.889)" fill="#1a256c"/>
          <path id="Path_2732" data-name="Path 2732" d="M-4136.649,493.281a3.972,3.972,0,0,1,1.144-.9l1.075,1.952a5.315,5.315,0,0,0-.527.246,1.829,1.829,0,0,0-.922,1,1.7,1.7,0,0,0,.227,1.378l1.567,2.842-2.246,1.238-3.41-6.187,2.14-1.179.41.742A2.386,2.386,0,0,1-4136.649,493.281Z" transform="translate(4215.019 -480.457)" fill="#1a256c"/>
          <path id="Path_2733" data-name="Path 2733" d="M-4129.793,484.146a1.2,1.2,0,0,1-.878-.546,1.2,1.2,0,0,1-.156-1.021,1.657,1.657,0,0,1,.738-.94,1.72,1.72,0,0,1,1.144-.325,1.142,1.142,0,0,1,.867.529,1.247,1.247,0,0,1,.174,1.048,1.641,1.641,0,0,1-.734.945A1.657,1.657,0,0,1-4129.793,484.146Zm.515,1.05,2.142-1.413,3.891,5.9-2.141,1.413Z" transform="translate(4209.609 -473.7)" fill="#1a256c"/>
          <path id="Path_2734" data-name="Path 2734" d="M-4112.411,477.352a3.022,3.022,0,0,1,2.3,1.292l2.487,3.034-1.849,1.515-.579-.706a2.222,2.222,0,0,1-1.017,2.166,3.485,3.485,0,0,1-1.321.711,2.157,2.157,0,0,1-1.217-.005,1.994,1.994,0,0,1-.951-.661,1.79,1.79,0,0,1-.372-1.71,4.345,4.345,0,0,1,1.549-1.986l1.128-.924q-.762-.825-1.912.117a3.651,3.651,0,0,0-.721.8,2.886,2.886,0,0,0-.426.93l-1.734-.753a4.869,4.869,0,0,1,.76-1.406,7.259,7.259,0,0,1,1.215-1.275A4.233,4.233,0,0,1-4112.411,477.352Zm1.376,4.98a1.163,1.163,0,0,0-.013-.782l-.389-.474-.856.7q-.867.711-.413,1.265a.622.622,0,0,0,.529.241,1.133,1.133,0,0,0,.667-.294A1.48,1.48,0,0,0-4111.035,482.332Z" transform="translate(4201.168 -471.287)" fill="#1a256c"/>
          <path id="Path_2735" data-name="Path 2735" d="M-4106.594,464.15l1.795-1.833,6.912,6.764-1.794,1.833Z" transform="translate(4194.789 -462.112)" fill="#1a256c"/>
        </g>
      </g>
    </g>
    <g id="Group_1878" data-name="Group 1878" transform="translate(31.739 31.727)">
      <path id="Path_2736" data-name="Path 2736" d="M-4242,295.894c-1.98,0-3.226.962-3.226,3.848v7.129c0,2.886,1.246,3.9,3.226,3.9s3.224-1.018,3.224-3.9v-7.129C-4238.772,296.856-4240.017,295.894-4242,295.894Z" transform="translate(4279.822 -275.866)" fill="#1a256c"/>
      <path id="Path_2737" data-name="Path 2737" d="M-4184.213,295.749c-1.98,0-3.224,1.018-3.224,3.9V321.04c0,2.886,1.244,3.9,3.224,3.9s3.226-1.018,3.226-3.9V299.653C-4180.988,296.767-4182.233,295.749-4184.213,295.749Z" transform="translate(4244.557 -275.778)" fill="#1a256c"/>
      <path id="Path_2738" data-name="Path 2738" d="M-4284.868,244.5a49.141,49.141,0,0,0-49.141,49.142,49.141,49.141,0,0,0,49.141,49.142,49.142,49.142,0,0,0,49.142-49.142A49.142,49.142,0,0,0-4284.868,244.5Zm-19.668,82.64h-3.2l-3.882-14.369v14.369h-2.806V307.3h3.911l3.2,11.875V307.3h2.777Zm5.357,0h-3.118V307.3h3.118Zm11.307-13.15h-2.947v-2.125c0-1.445-.623-1.956-1.616-1.956s-1.615.51-1.615,1.956v10.712c0,1.445.623,1.927,1.615,1.927s1.616-.482,1.616-1.927v-3.656h-1.417v-2.834h4.364v6.292c0,3.2-1.587,4.988-4.648,4.988s-4.647-1.786-4.647-4.988V312.064c0-3.2,1.587-4.988,4.647-4.988s4.648,1.786,4.648,4.988Zm1.138-24.963c0,6.733-3,10.3-9.506,10.3-6.11,0-9.278-3.565-9.278-9.958v-1.018h5.883v1.414c0,2.886,1.245,3.9,3.226,3.9,2.207,0,3.451-1.075,3.451-4.866v-7.242a5.842,5.842,0,0,1-5.771,3.508c-4.583,0-6.9-3.169-6.9-9.053v-7.242c0-6.394,3.338-9.958,9.45-9.958s9.448,3.564,9.448,9.958Zm10.709,38.113h-3.174v-8.5h-3.543v8.5h-3.117V307.3h3.117v8.5h3.543v-8.5h3.174Zm11-17h-3.259v17h-3.118v-17h-3.259V307.3h9.636Zm.813-20.77c0,6.393-3.338,9.958-9.449,9.958s-9.449-3.565-9.449-9.958V268.772c0-6.394,3.338-9.958,9.449-9.958s9.449,3.564,9.449,9.958Zm4.713,38c-3.061,0-4.647-1.786-4.647-4.988v-1.219h2.946v1.417c0,1.445.624,1.927,1.616,1.927s1.615-.482,1.615-1.927a4.625,4.625,0,0,0-1.587-3.287c-.454-.454-.936-.907-1.446-1.389a9.387,9.387,0,0,1-2.607-3.372,6.1,6.1,0,0,1-.453-2.466c0-3.2,1.53-4.988,4.59-4.988s4.591,1.786,4.591,4.988v.624h-2.947v-.822c0-1.445-.567-1.956-1.559-1.956s-1.559.51-1.559,1.956a4.512,4.512,0,0,0,1.587,3.259,17.461,17.461,0,0,0,1.474,1.389,10.035,10.035,0,0,1,2.579,3.4,6.073,6.073,0,0,1,.453,2.466C-4254.856,325.582-4256.442,327.368-4259.5,327.368Z" transform="translate(4334.009 -244.501)" fill="#1a256c"/>
    </g>
  </g>
</svg>
