<svg xmlns="http://www.w3.org/2000/svg" width="129.2" height="129.102" viewBox="0 0 129.2 129.102">
  <g id="Group_710" data-name="Group 710" transform="translate(0 0)">
    <g id="Group_705" data-name="Group 705" transform="translate(0 0)">
      <g id="Group_704" data-name="Group 704" transform="translate(0)">
        <g id="Group_703" data-name="Group 703">
          <g id="Group_702" data-name="Group 702">
            <path id="Path_870" data-name="Path 870" d="M5601.633,1930.675a2.754,2.754,0,0,1-2.553-1.724,64.589,64.589,0,0,1,110.222-64.615,2.75,2.75,0,0,1-4.283,3.449,59.089,59.089,0,0,0-100.835,59.112,2.753,2.753,0,0,1-2.551,3.778Z" transform="translate(-5594.351 -1840.299)" fill="#1a256c"/>
            <path id="Path_871" data-name="Path 871" d="M5675.291,2014.333a64.5,64.5,0,0,1-50.362-24.046,2.75,2.75,0,1,1,4.283-3.451,59.084,59.084,0,0,0,100.6-59.668,2.75,2.75,0,0,1,5.081-2.108,64.547,64.547,0,0,1-59.6,89.273Z" transform="translate(-5610.562 -1885.231)" fill="#1a256c"/>
            <path id="Path_872" data-name="Path 872" d="M5818.467,1877.711a2.849,2.849,0,0,1-.3-.016l-17.644-1.895a2.75,2.75,0,0,1,.589-5.469l14.908,1.6,1.607-14.9a2.749,2.749,0,1,1,5.467.59l-1.9,17.638A2.751,2.751,0,0,1,5818.467,1877.711Z" transform="translate(-5704.548 -1848.02)" fill="#1a256c"/>
            <path id="Path_873" data-name="Path 873" d="M5620.569,2079.161a2.706,2.706,0,0,1-.3-.016,2.749,2.749,0,0,1-2.439-3.028l1.9-17.641a2.748,2.748,0,0,1,3.029-2.44l17.637,1.9a2.75,2.75,0,1,1-.591,5.467l-14.9-1.607-1.6,14.906A2.751,2.751,0,0,1,5620.569,2079.161Z" transform="translate(-5607.043 -1956.99)" fill="#1a256c"/>
          </g>
        </g>
      </g>
    </g>
    <g id="Group_709" data-name="Group 709" transform="translate(30.308 28.545)">
      <g id="Group_708" data-name="Group 708">
        <g id="Group_707" data-name="Group 707">
          <g id="Group_706" data-name="Group 706">
            <path id="Path_874" data-name="Path 874" d="M5696.8,1995.73a2.754,2.754,0,0,1-1.194-.272l-33.679-16.219a2.75,2.75,0,0,1-1.556-2.477v-36.245a2.749,2.749,0,0,1,3.943-2.477l33.679,16.22a2.751,2.751,0,0,1,1.556,2.477v36.243a2.749,2.749,0,0,1-2.749,2.75Zm-30.929-20.7,28.178,13.57v-30.139l-28.178-13.572Z" transform="translate(-5660.372 -1921.568)" fill="#1a256c"/>
            <path id="Path_875" data-name="Path 875" d="M5696.8,1940.373a2.745,2.745,0,0,1-1.192-.273l-33.679-16.214a2.75,2.75,0,0,1,0-4.957l33.692-16.18a2.749,2.749,0,0,1,2.385,0l33.674,16.215a2.749,2.749,0,0,1,0,4.956l-33.687,16.18A2.751,2.751,0,0,1,5696.8,1940.373Zm-27.333-18.962,27.334,13.161,27.342-13.132-27.331-13.16Z" transform="translate(-5660.372 -1902.478)" fill="#1a256c"/>
            <path id="Path_876" data-name="Path 876" d="M5736.484,1995.73a2.749,2.749,0,0,1-2.75-2.75v-36.243a2.749,2.749,0,0,1,1.557-2.477l33.676-16.22a2.749,2.749,0,0,1,3.943,2.477v36.245a2.749,2.749,0,0,1-1.557,2.477l-33.675,16.219A2.752,2.752,0,0,1,5736.484,1995.73Zm2.75-37.265V1988.6l28.176-13.57v-30.14Zm30.926,18.3h0Z" transform="translate(-5700.057 -1921.568)" fill="#1a256c"/>
            <path id="Path_877" data-name="Path 877" d="M5751.945,2029.055a2.75,2.75,0,0,1-1.2-5.227l6.422-3.1a2.75,2.75,0,1,1,2.39,4.955l-6.423,3.1A2.739,2.739,0,0,1,5751.945,2029.055Z" transform="translate(-5708.419 -1966.296)" fill="#1a256c"/>
            <path id="Path_878" data-name="Path 878" d="M5751.946,2015.128a2.75,2.75,0,0,1-1.2-5.226l4.347-2.1a2.749,2.749,0,1,1,2.389,4.952l-4.346,2.1A2.731,2.731,0,0,1,5751.946,2015.128Z" transform="translate(-5708.419 -1959.305)" fill="#1a256c"/>
          </g>
        </g>
      </g>
    </g>
  </g>
</svg>
