<svg xmlns="http://www.w3.org/2000/svg" width="133.986" height="87.821" viewBox="0 0 133.986 87.821"><g transform="translate(-1163.467 -264.771)"><g transform="translate(1163.467 264.771)"><g transform="translate(4.045)"><path d="M1270.052,333.9h-12.705a2.83,2.83,0,1,1,0-5.659h9.875V306.894l-15.985-25.753h-22.882v47.1h3.311a2.83,2.83,0,1,1,0,5.659h-6.14a2.83,2.83,0,0,1-2.83-2.83V278.312a2.83,2.83,0,0,1,2.83-2.83h27.285a2.832,2.832,0,0,1,2.405,1.337l17.24,27.776a2.823,2.823,0,0,1,.426,1.491v24.982A2.83,2.83,0,0,1,1270.052,333.9Z" transform="translate(-1142.941 -260.328)" fill="#fff"/><path d="M1195.182,323.261H1188.8a2.829,2.829,0,0,1-2.83-2.83V306.782h-16.812a2.83,2.83,0,1,1,0-5.659H1188.8a2.83,2.83,0,0,1,2.83,2.83V317.6h3.554a2.83,2.83,0,0,1,0,5.659Z" transform="translate(-1166.326 -249.69)" fill="#fff"/><path d="M1183.039,301.849a2.83,2.83,0,0,1-2.83-2.83V282.835a2.83,2.83,0,1,1,5.659,0v16.184A2.831,2.831,0,0,1,1183.039,301.849Z" transform="translate(-1160.567 -258.451)" fill="#fff"/><path d="M1243.151,338.342h-25.432a2.83,2.83,0,1,1,0-5.659h22.6V281.609c0-.112.048-5.1-3.106-8.3-1.875-1.907-4.615-2.875-8.141-2.875h-43.207v7.927a2.83,2.83,0,0,1-5.659,0V267.6a2.829,2.829,0,0,1,2.83-2.83h46.036c5.13,0,9.242,1.553,12.226,4.615,4.817,4.948,4.687,12,4.679,12.3v53.828A2.829,2.829,0,0,1,1243.151,338.342Z" transform="translate(-1160.567 -264.771)" fill="#fff"/><path d="M1243.087,335.5a14.757,14.757,0,1,1,14.751-14.755A14.772,14.772,0,0,1,1243.087,335.5Zm0-23.854a9.1,9.1,0,1,0,9.092,9.1A9.108,9.108,0,0,0,1243.087,311.641Z" transform="translate(-1140.603 -247.675)" fill="#fff"/><path d="M1200.6,335.5a14.757,14.757,0,1,1,14.758-14.755A14.77,14.77,0,0,1,1200.6,335.5Zm0-23.854a9.1,9.1,0,1,0,9.1,9.1A9.107,9.107,0,0,0,1200.6,311.641Z" transform="translate(-1158.229 -247.675)" fill="#fff"/></g><path d="M1265.182,304.261h-30.762a2.829,2.829,0,0,1-2.83-2.83V286.158a2.83,2.83,0,0,1,2.83-2.83h8.26a2.83,2.83,0,1,1,0,5.659h-5.43V298.6h27.932a2.83,2.83,0,1,1,0,5.659Z" transform="translate(-1135.206 -257.073)" fill="#fff"/><path d="M1206.668,278.033H1174.3a2.83,2.83,0,1,1,0-5.659h32.365a2.83,2.83,0,1,1,0,5.659Z" transform="translate(-1160.145 -261.617)" fill="#fff"/><path d="M1178.287,285.664h-9.132a2.83,2.83,0,1,1,0-5.659h9.132a2.83,2.83,0,0,1,0,5.659Z" transform="translate(-1162.281 -258.451)" fill="#fff"/><path d="M1198.061,297.1h-25.313a2.83,2.83,0,0,1,0-5.659h25.313a2.83,2.83,0,0,1,0,5.659Z" transform="translate(-1160.791 -253.706)" fill="#fff"/><path d="M1166.5,297.1h-.205a2.83,2.83,0,1,1,0-5.659h.205a2.83,2.83,0,1,1,0,5.659Z" transform="translate(-1163.467 -253.706)" fill="#fff"/></g></g></svg>