<svg xmlns="http://www.w3.org/2000/svg" width="169.3" height="110.967" viewBox="0 0 169.3 110.967">
  <g id="Group_713" data-name="Group 713" transform="translate(0 0)">
    <g id="Group_712" data-name="Group 712">
      <g id="Group_711" data-name="Group 711" transform="translate(5.111)">
        <path id="Path_879" data-name="Path 879" d="M1282.534,349.295H1266.48a3.575,3.575,0,1,1,0-7.151h12.478v-26.97l-20.2-32.541h-28.913v59.511h4.183a3.575,3.575,0,1,1,0,7.151h-7.758a3.576,3.576,0,0,1-3.576-3.576V279.058a3.576,3.576,0,0,1,3.576-3.576h34.477a3.578,3.578,0,0,1,3.039,1.689l21.784,35.1a3.566,3.566,0,0,1,.538,1.884v31.566A3.576,3.576,0,0,1,1282.534,349.295Z" transform="translate(-1121.921 -256.333)" fill="#1a256c"/>
        <path id="Path_880" data-name="Path 880" d="M1202.787,329.1h-8.067a3.575,3.575,0,0,1-3.575-3.576V308.274H1169.9a3.575,3.575,0,0,1,0-7.151h24.819a3.576,3.576,0,0,1,3.576,3.575v17.246h4.491a3.576,3.576,0,0,1,0,7.151Z" transform="translate(-1166.326 -236.135)" fill="#1a256c"/>
        <path id="Path_881" data-name="Path 881" d="M1183.785,307.606a3.576,3.576,0,0,1-3.576-3.576v-20.45a3.576,3.576,0,1,1,7.151,0v20.45A3.577,3.577,0,0,1,1183.785,307.606Z" transform="translate(-1155.39 -252.77)" fill="#1a256c"/>
        <path id="Path_882" data-name="Path 882" d="M1259.741,357.732h-32.135a3.576,3.576,0,1,1,0-7.151h28.56V286.047c0-.141.061-6.439-3.924-10.492-2.369-2.41-5.832-3.633-10.287-3.633H1187.36v10.017a3.576,3.576,0,1,1-7.151,0V268.347a3.575,3.575,0,0,1,3.576-3.576h58.17c6.482,0,11.677,1.963,15.448,5.832,6.087,6.252,5.923,15.164,5.912,15.539l0,68.015A3.575,3.575,0,0,1,1259.741,357.732Z" transform="translate(-1155.39 -264.771)" fill="#1a256c"/>
        <path id="Path_883" data-name="Path 883" d="M1246.976,343.274a18.646,18.646,0,1,1,18.639-18.644A18.665,18.665,0,0,1,1246.976,343.274Zm0-30.141a11.5,11.5,0,1,0,11.488,11.5A11.508,11.508,0,0,0,1246.976,313.133Z" transform="translate(-1117.481 -232.307)" fill="#1a256c"/>
        <path id="Path_884" data-name="Path 884" d="M1204.486,343.274a18.646,18.646,0,1,1,18.648-18.644A18.663,18.663,0,0,1,1204.486,343.274Zm0-30.141a11.5,11.5,0,1,0,11.5,11.5A11.508,11.508,0,0,0,1204.486,313.133Z" transform="translate(-1150.95 -232.307)" fill="#1a256c"/>
      </g>
      <path id="Path_885" data-name="Path 885" d="M1274.036,309.778h-38.869a3.575,3.575,0,0,1-3.576-3.576V286.9a3.576,3.576,0,0,1,3.576-3.575H1245.6a3.575,3.575,0,1,1,0,7.151h-6.862v12.148h35.294a3.575,3.575,0,1,1,0,7.151Z" transform="translate(-1109.802 -250.153)" fill="#1a256c"/>
      <path id="Path_886" data-name="Path 886" d="M1215.944,279.525H1175.05a3.576,3.576,0,1,1,0-7.151h40.895a3.576,3.576,0,1,1,0,7.151Z" transform="translate(-1157.16 -258.782)" fill="#1a256c"/>
      <path id="Path_887" data-name="Path 887" d="M1181.44,287.156H1169.9a3.576,3.576,0,0,1,0-7.151h11.538a3.576,3.576,0,0,1,0,7.151Z" transform="translate(-1161.215 -252.77)" fill="#1a256c"/>
      <path id="Path_888" data-name="Path 888" d="M1205.478,298.6h-31.985a3.576,3.576,0,0,1,0-7.151h31.985a3.576,3.576,0,0,1,0,7.151Z" transform="translate(-1158.385 -243.759)" fill="#1a256c"/>
      <path id="Path_889" data-name="Path 889" d="M1167.3,298.6h-.259a3.576,3.576,0,0,1,0-7.151h.259a3.576,3.576,0,1,1,0,7.151Z" transform="translate(-1163.467 -243.759)" fill="#1a256c"/>
    </g>
  </g>
</svg>
