<svg xmlns="http://www.w3.org/2000/svg" width="148.974" height="148.974" viewBox="0 0 148.974 148.974"><g transform="translate(-635 -1186)"><g transform="translate(635 1186)"><g transform="translate(26.8 21.178)"><path d="M6408.685,2386.7l1.337-1.494.115.177-.31.346c-.186.208-.132.454.027.722l6.72,10.922-9.528-4.415c.612.847,4.877,8.052,5.442,8.981l-11.683-5.347c-.3-.141-.562-.153-.747.055l-.311.345-.188-.094,3.095-3.459.189.094-.31.346c-.173.194-.058.372.226.5l6.618,2.933-2.858-4.6-1.555-.768c-.3-.142-.561-.153-.746.054l-.31.346-.2-.082,3.108-3.472.189.094-.31.346c-.186.208-.058.371.225.5l6.406,2.892c-.257-.354-3.695-5.922-3.695-5.922-.159-.267-.337-.376-.509-.183l-.322.36Z" transform="translate(-6399.561 -2374.997)" fill="#fff"/><path d="M6456.557,2384.583l.1.156s-1.568,1.027-2.031,1.3c-.667.406-1.2.53-1.828-.305.4,2.52-4.268,5.073-5.675,2.293-1.6-3.144,3.52-5.587,2.357-7.4-.632-.984-1.311-1.321-2.212-.7-1.361.939-.681,2.928.926,2.339-.022,1.2-1.823,2.867-2.945,1.977-1.367-1.065-.054-3.318,1.868-4.551,1.7-1.092,4.087-1.914,6.092,1.211l2.354,3.673c.16.25.369.4.6.253Zm-4.286.366-2.415-3.766c.058,1.4-.687,3.021-.579,4.187a1.979,1.979,0,0,0,1.481,1.829A1.465,1.465,0,0,0,6452.271,2384.949Z" transform="translate(-6427.93 -2370.92)" fill="#fff"/><path d="M6483.892,2363.22a1.7,1.7,0,1,1-2.858,1.832c-1.033-2.026-2.03-.235-2.342.726l1.954,5.983c.093.282.25.465.521.4l.441-.144.058.177-4.395,1.435-.058-.176.441-.144c.265-.087.278-.345.18-.645l-1.953-5.983a.672.672,0,0,0-1.032-.406l-.045-.141a9.284,9.284,0,0,0,3.115-2.482l.1.065.571,1.748a5.619,5.619,0,0,1,1.711-2.415C6481.462,2362.119,6483.025,2361.94,6483.892,2363.22Z" transform="translate(-6446.865 -2360.602)" fill="#fff"/><path d="M6519.32,2359.133a1.705,1.705,0,1,1-3.242,1.012c-.461-2.227-1.9-.764-2.45.081l.3,6.286c.014.3.118.515.4.52l.464-.023.009.185-4.618.223-.009-.185.463-.023c.278-.013.359-.259.344-.574l-.3-6.286a.67.67,0,0,0-.886-.664l-.007-.149a9.288,9.288,0,0,0,3.66-1.571l.079.089.089,1.836a5.612,5.612,0,0,1,2.288-1.876C6517.267,2357.429,6518.822,2357.67,6519.32,2359.133Z" transform="translate(-6468.856 -2357.719)" fill="#fff"/><path d="M6553.6,2371.124l-.042.18-2.442-.563a1.126,1.126,0,0,1-.969-1.5,3.409,3.409,0,0,1-2.82.664c-1.483-.343-2.464-1.293-1.846-3.97l.813-3.527c.179-.778-.655-.875-.655-.875l.033-.145a7.006,7.006,0,0,0,3.913-.526l.052.107-1.44,6.241c-.767,3.328,1.794,2.3,2.052,1.6l1.2-5.209c.179-.778-.656-.875-.656-.875l.034-.145a7.06,7.06,0,0,0,3.913-.527l.052.108-1.9,8.248c-.067.29-.012.55.241.608Z" transform="translate(-6491.183 -2359.696)" fill="#fff"/><path d="M6580.892,2383.513l-.088.163-4.07-2.194.088-.163.409.221c.244.132.441-.036.59-.314l2.863-5.313c1.154-2.141-.906-1.88-1.9-1.362l-3.013,5.589c-.141.262-.148.511.072.65l.409.221-.088.163-4.07-2.194.088-.163.409.22c.245.132.441-.036.591-.314l2.986-5.541a.678.678,0,0,0-.4-1.017l.07-.131a9.514,9.514,0,0,0,3.93.536l.021.117-.846,1.569a5.058,5.058,0,0,1,3.044-.405c1.294.339,2.267,1.665,1.148,3.74l-2.722,5.051c-.141.261-.157.527.071.65Z" transform="translate(-6508.028 -2366.719)" fill="#fff"/><path d="M6609.38,2388.465l.8.66-.13.157-.8-.659-5.3,6.459c-.188.229-.257.46-.068.64l.373.306-.118.143-1.8-1.5c-.634-.544-.979-1.091-.142-2.11l4.322-5.267a.661.661,0,0,0-.112-1l-.316-.259.129-.158c1.436,1.178,3.18,1.072,5.427-.351l.027.143Z" transform="translate(-6526.644 -2375.199)" fill="#fff"/><path d="M6623.672,2409.443l-.179.074-.293-.36a.589.589,0,0,0-.719-.061l-8.861,3.991c-.79.353-2.819,1.093-3.954-.187a1.493,1.493,0,0,1-.111-2.11,1.4,1.4,0,0,1,2.39,1.264c-.125,1.584,1.141.963,1.736.7.18-.074.333-.151.526-.236l-.831-1.023c-.456-.562-.624-1.121.178-2.226l4.235-5.83c.187-.271.309-.562.134-.779l-.292-.36.109-.16,2.914,3.589-.109.16-.292-.36c-.179-.19-.373-.1-.556.14l-4.755,6.515,7.324-3.292c.292-.141.441-.311.292-.524l-.3-.375.18-.074Z" transform="translate(-6531.339 -2385.643)" fill="#fff"/><g transform="translate(19.456 87.372)"><path d="M6464.469,2597.664l-.141.134-.4-.233a.628.628,0,0,0-.726.181l-5.308,4.994-2.3,3.987c-.149.257-.171.481.061.636l.4.232-.093.161-4-2.312.093-.161.4.232c.241.139.441-.023.6-.3l2.275-3.938,1.675-7.093a.607.607,0,0,0-.2-.736l-.417-.241.044-.188,4.019,2.322-.044.189-.418-.241c-.234-.114-.369.044-.437.348l-1.544,6.569,4.92-4.619c.229-.211.3-.406.083-.552l-.417-.241.141-.134Z" transform="translate(-6451.957 -2593.021)" fill="#fff"/><path d="M6481.868,2627.436a4.539,4.539,0,0,1-3.313-6.017,4.648,4.648,0,0,1,6.057-3.009,3.437,3.437,0,0,1,2.43,3.887l-5.639,1.135c.5,3.081,3.9,3.495,5.758,1.318l.014.141A4.448,4.448,0,0,1,6481.868,2627.436Zm-.492-4.285,2.662-.6c.3-.879.762-4.063-.734-4.012-.98.021-2.044,2.391-1.957,4.269A1.536,1.536,0,0,0,6481.376,2623.151Z" transform="translate(-6468.514 -2608.823)" fill="#fff"/><path d="M6521.878,2633.205l0,.186s-1.875-.023-2.413-.053c-.78-.036-1.3-.233-1.346-1.274-1.073,2.316-6.373,1.826-5.988-1.266.43-3.5,6.039-2.669,6.087-4.823.026-1.17-.349-1.828-1.445-1.815-1.653.019-2.2,2.049-.538,2.458-.69.987-3.113,1.36-3.547,0-.539-1.646,1.808-2.782,4.091-2.731,2.023.045,4.459.694,4.377,4.406l-.1,4.362c-.006.3.081.54.359.547Zm-3.76-2.089.1-4.473c-.732,1.191-2.257,2.123-2.818,3.15a1.975,1.975,0,0,0,.208,2.344A1.464,1.464,0,0,0,6518.118,2631.116Z" transform="translate(-6489.772 -2612.42)" fill="#fff"/><path d="M6555.19,2618.7a1.7,1.7,0,1,1-2.933,1.71c-.946-2.068-2.018-.321-2.369.626l1.7,6.06c.081.286.23.475.5.418l.447-.125.05.179-4.451,1.249-.05-.178.447-.125c.268-.075.292-.333.207-.637l-1.7-6.06a.67.67,0,0,0-1.012-.448l-.041-.143a9.285,9.285,0,0,0,3.217-2.348l.1.069.5,1.77a5.616,5.616,0,0,1,1.811-2.34C6552.809,2617.494,6554.378,2617.381,6555.19,2618.7Z" transform="translate(-6511.072 -2608.542)" fill="#fff"/><path d="M6588.352,2609.6c.772,1.462-.6,3.252-2.784,4.48-1.958,1.1-3.513,1.261-4.25.422a1.389,1.389,0,0,1,.3-2.271c1.057-.583,1.892.2,1.569.985-.329.808.807,1.335,2.186.567,1.242-.668,1.641-2.328.056-2.705-2.1-.464-5.507.991-6.761-1.2-.812-1.417.491-3.553,2.719-4.593,1.516-.717,2.427-.469,2.927-1.2l.184.023c.118.916.367,2.1.492,2.99l-.16.092c-.7-1.116-1.881-2.24-3.444-1.495-1.2.558-1.38,2.222.153,2.585C6583.364,2608.73,6587.246,2607.665,6588.352,2609.6Z" transform="translate(-6531.468 -2599.973)" fill="#fff"/></g></g><g transform="translate(64.776 52.428)"><path d="M6501.834,2447.978c5.893,0,7.209-2.842,8.388-6.1h5.13V2490.4h-7.625v-37.018h-5.893Z" transform="translate(-6501.834 -2441.878)" fill="#fff"/></g><g transform="translate(22.048 51.418)"><g transform="translate(0 24.599)"><path d="M6386.764,2507.25a1.843,1.843,0,1,1,1.843,1.843A1.842,1.842,0,0,1,6386.764,2507.25Z" transform="translate(-6386.764 -2505.407)" fill="#fff"/></g><g transform="translate(0.414 30.94)"><path d="M6387.893,2524.555a1.842,1.842,0,1,1,2.059,1.6A1.843,1.843,0,0,1,6387.893,2524.555Z" transform="translate(-6387.878 -2522.481)" fill="#fff"/></g><g transform="translate(1.619 37.178)"><path d="M6391.181,2541.583a1.843,1.843,0,1,1,2.244,1.327A1.843,1.843,0,0,1,6391.181,2541.583Z" transform="translate(-6391.123 -2539.282)" fill="#fff"/></g><g transform="translate(3.596 43.216)"><path d="M6396.579,2558.065a1.843,1.843,0,1,1,2.392,1.035A1.842,1.842,0,0,1,6396.579,2558.065Z" transform="translate(-6396.449 -2555.543)" fill="#fff"/></g><g transform="translate(6.316 48.959)"><path d="M6404,2573.74a1.842,1.842,0,1,1,2.5.727A1.842,1.842,0,0,1,6404,2573.74Z" transform="translate(-6403.772 -2571.01)" fill="#fff"/></g><g transform="translate(9.733 54.316)"><path d="M6413.328,2588.362a1.843,1.843,0,1,1,2.574.408A1.843,1.843,0,0,1,6413.328,2588.362Z" transform="translate(-6412.976 -2585.436)" fill="#fff"/></g><g transform="translate(91.599 54.122)"><path d="M6636.781,2587.841a1.842,1.842,0,1,1-.407-2.574A1.842,1.842,0,0,1,6636.781,2587.841Z" transform="translate(-6633.448 -2584.915)" fill="#fff"/></g><g transform="translate(94.99 48.75)"><path d="M6646.04,2573.176a1.843,1.843,0,1,1-.728-2.5A1.843,1.843,0,0,1,6646.04,2573.176Z" transform="translate(-6642.582 -2570.446)" fill="#fff"/></g><g transform="translate(97.682 42.994)"><path d="M6653.388,2557.466a1.843,1.843,0,1,1-1.035-2.392A1.843,1.843,0,0,1,6653.388,2557.466Z" transform="translate(-6649.832 -2554.944)" fill="#fff"/></g><g transform="translate(99.631 36.946)"><path d="M6658.708,2540.959a1.843,1.843,0,1,1-1.326-2.243A1.842,1.842,0,0,1,6658.708,2540.959Z" transform="translate(-6655.08 -2538.658)" fill="#fff"/></g><g transform="translate(100.807 30.702)"><path d="M6661.918,2523.917a1.843,1.843,0,1,1-1.6-2.059A1.843,1.843,0,0,1,6661.918,2523.917Z" transform="translate(-6658.248 -2521.843)" fill="#fff"/></g><g transform="translate(101.191 24.36)"><path d="M6662.967,2506.606a1.842,1.842,0,1,1-1.842-1.843A1.842,1.842,0,0,1,6662.967,2506.606Z" transform="translate(-6659.283 -2504.763)" fill="#fff"/></g><g transform="translate(100.777 18.02)"><path d="M6661.838,2489.3a1.843,1.843,0,1,1-2.059-1.6A1.843,1.843,0,0,1,6661.838,2489.3Z" transform="translate(-6658.167 -2487.687)" fill="#fff"/></g><g transform="translate(99.572 11.781)"><path d="M6658.548,2472.271a1.842,1.842,0,1,1-2.243-1.326A1.842,1.842,0,0,1,6658.548,2472.271Z" transform="translate(-6654.92 -2470.886)" fill="#fff"/></g><g transform="translate(97.594 5.743)"><path d="M6653.15,2455.789a1.843,1.843,0,1,1-2.391-1.035A1.842,1.842,0,0,1,6653.15,2455.789Z" transform="translate(-6649.594 -2454.625)" fill="#fff"/></g><g transform="translate(94.875)"><path d="M6645.73,2440.114a1.842,1.842,0,1,1-2.5-.727A1.843,1.843,0,0,1,6645.73,2440.114Z" transform="translate(-6642.272 -2439.158)" fill="#fff"/></g><g transform="translate(6.2 0.21)"><path d="M6403.69,2440.678a1.842,1.842,0,1,1,.728,2.5A1.842,1.842,0,0,1,6403.69,2440.678Z" transform="translate(-6403.462 -2439.722)" fill="#fff"/></g><g transform="translate(3.509 5.966)"><circle cx="1.843" cy="1.843" r="1.843" fill="#fff"/></g><g transform="translate(1.559 12.013)"><path d="M6391.022,2472.894a1.842,1.842,0,1,1,1.326,2.243A1.843,1.843,0,0,1,6391.022,2472.894Z" transform="translate(-6390.963 -2471.509)" fill="#fff"/></g><g transform="translate(0.384 18.257)"><path d="M6387.812,2489.938a1.843,1.843,0,1,1,1.6,2.059A1.843,1.843,0,0,1,6387.812,2489.938Z" transform="translate(-6387.797 -2488.326)" fill="#fff"/></g></g><path d="M6401.874,2449.658c-4.343,0-8.051-2.665-11.323-5.016-2.229-1.6-4.334-3.114-6.316-3.644-2.118-.566-4.78-.308-7.6-.034-4.13.4-8.4.813-12.015-1.277-3.67-2.123-5.452-6.063-7.176-9.873-1.153-2.55-2.243-4.959-3.749-6.465s-3.915-2.6-6.465-3.749c-3.81-1.724-7.75-3.506-9.873-7.176-2.091-3.614-1.678-7.884-1.278-12.014.273-2.819.531-5.482-.034-7.6-.53-1.982-2.042-4.087-3.644-6.316-2.351-3.271-5.016-6.98-5.016-11.323s2.665-8.051,5.016-11.323c1.6-2.229,3.114-4.334,3.644-6.316.565-2.117.307-4.78.034-7.6-.4-4.13-.813-8.4,1.278-12.014,2.124-3.67,6.063-5.452,9.873-7.175,2.55-1.154,4.959-2.243,6.465-3.749s2.6-3.915,3.75-6.466c1.724-3.81,3.505-7.75,7.175-9.873,3.613-2.091,7.884-1.677,12.015-1.277,2.819.273,5.481.531,7.6-.035,1.982-.53,4.087-2.042,6.316-3.644,3.271-2.351,6.979-5.015,11.323-5.015s8.052,2.665,11.323,5.015c2.229,1.6,4.333,3.114,6.316,3.644,2.117.566,4.78.308,7.6.035,4.129-.4,8.4-.814,12.015,1.277,3.67,2.123,5.452,6.063,7.175,9.874,1.154,2.55,2.242,4.959,3.749,6.465s3.915,2.6,6.465,3.749c3.81,1.724,7.75,3.505,9.874,7.175,2.09,3.614,1.677,7.884,1.277,12.015-.273,2.819-.531,5.482.035,7.6.53,1.982,2.042,4.088,3.644,6.316,2.351,3.271,5.016,6.979,5.016,11.323s-2.665,8.052-5.016,11.323c-1.6,2.229-3.114,4.334-3.644,6.316-.566,2.117-.308,4.78-.035,7.6.4,4.13.813,8.4-1.277,12.014-2.124,3.67-6.063,5.452-9.874,7.176-2.55,1.153-4.959,2.243-6.465,3.749s-2.6,3.915-3.75,6.466c-1.724,3.81-3.5,7.75-7.175,9.873-3.613,2.09-7.884,1.677-12.014,1.277-2.819-.273-5.482-.531-7.6.034-1.983.53-4.088,2.043-6.316,3.644C6409.926,2446.993,6406.217,2449.658,6401.874,2449.658Zm-20.7-14.291a17.111,17.111,0,0,1,4.429.516c2.918.78,5.522,2.651,8.039,4.459,2.877,2.068,5.595,4.021,8.233,4.021s5.356-1.953,8.233-4.021c2.518-1.809,5.121-3.679,8.039-4.459,3.042-.813,6.314-.5,9.478-.19,3.45.334,6.709.65,8.852-.59,2.2-1.272,3.561-4.283,5-7.472,1.3-2.87,2.641-5.839,4.83-8.028s5.156-3.531,8.026-4.829c3.189-1.442,6.2-2.8,7.473-5,1.24-2.142.924-5.4.59-8.852-.307-3.164-.624-6.435.19-9.477.779-2.918,2.65-5.521,4.459-8.039,2.067-2.877,4.021-5.595,4.021-8.233s-1.953-5.355-4.021-8.233c-1.809-2.517-3.68-5.12-4.459-8.039-.813-3.042-.5-6.313-.19-9.476.334-3.451.65-6.71-.59-8.852-1.271-2.2-4.283-3.56-7.473-5-2.87-1.3-5.838-2.641-8.026-4.829s-3.531-5.157-4.83-8.027c-1.442-3.189-2.805-6.2-5-7.472-2.142-1.24-5.4-.924-8.852-.59-3.165.306-6.436.624-9.478-.19-2.918-.78-5.521-2.65-8.039-4.459-2.877-2.068-5.595-4.02-8.233-4.02s-5.356,1.953-8.233,4.02c-2.518,1.809-5.121,3.679-8.039,4.459-3.042.813-6.312.5-9.477.19-3.451-.334-6.709-.649-8.852.59-2.2,1.272-3.56,4.283-5,7.472-1.3,2.871-2.641,5.839-4.83,8.028s-5.157,3.531-8.027,4.829c-3.188,1.442-6.2,2.8-7.473,5-1.239,2.142-.924,5.4-.589,8.852.306,3.164.624,6.435-.19,9.477-.78,2.919-2.65,5.522-4.459,8.039-2.068,2.878-4.021,5.595-4.021,8.233s1.953,5.356,4.021,8.233c1.809,2.517,3.68,5.12,4.459,8.039.813,3.042.5,6.313.19,9.476-.335,3.451-.65,6.71.589,8.852,1.272,2.2,4.284,3.56,7.473,5,2.871,1.3,5.838,2.641,8.027,4.829s3.531,5.157,4.83,8.027c1.441,3.189,2.8,6.2,5,7.472,2.143,1.24,5.4.924,8.852.59C6377.794,2435.531,6379.494,2435.367,6381.173,2435.367Z" transform="translate(-6327.387 -2300.684)" fill="#fff"/></g></g></svg>