<svg xmlns="http://www.w3.org/2000/svg" width="161.736" height="161.736" viewBox="0 0 161.736 161.736">
  <g id="Group_699" data-name="Group 699" transform="translate(0 0)">
    <g id="Group_673" data-name="Group 673" transform="translate(29.095 22.993)">
      <g id="Group_669" data-name="Group 669">
        <g id="Group_668" data-name="Group 668">
          <path id="Path_836" data-name="Path 836" d="M6409.466,2386.824l1.452-1.622.125.193-.337.375c-.2.225-.143.493.029.783l7.3,11.857-10.344-4.794c.665.92,5.295,8.742,5.908,9.75l-12.684-5.805c-.323-.153-.609-.166-.811.06l-.337.375-.205-.1,3.36-3.755.205.1-.335.376c-.188.21-.063.4.245.542l7.184,3.184-3.1-5-1.688-.834c-.323-.154-.609-.166-.81.059l-.336.376-.219-.089,3.374-3.77.206.1-.337.376c-.2.226-.063.4.244.543l6.956,3.14c-.279-.385-4.012-6.429-4.012-6.429-.173-.29-.365-.408-.553-.2l-.35.391Z" transform="translate(-6399.561 -2374.123)" fill="#1a256c"/>
          <path id="Path_837" data-name="Path 837" d="M6457.574,2385.086l.108.17s-1.7,1.115-2.205,1.414c-.724.44-1.308.575-1.984-.332.438,2.736-4.633,5.508-6.161,2.49-1.734-3.414,3.82-6.065,2.559-8.034-.687-1.069-1.423-1.434-2.4-.759-1.479,1.019-.74,3.179,1,2.54-.024,1.308-1.979,3.113-3.2,2.146-1.483-1.156-.058-3.6,2.028-4.941,1.849-1.185,4.438-2.078,6.613,1.315l2.557,3.988c.173.271.4.438.654.274Zm-4.654.4-2.621-4.089c.063,1.516-.746,3.28-.629,4.546a2.149,2.149,0,0,0,1.608,1.986A1.59,1.59,0,0,0,6452.92,2385.483Z" transform="translate(-6426.495 -2370.252)" fill="#1a256c"/>
          <path id="Path_838" data-name="Path 838" d="M6484.671,2363.3c1.567,2.33-1.945,4.3-3.1,1.989-1.121-2.2-2.2-.255-2.542.788l2.122,6.5c.1.307.271.505.565.431l.479-.157.063.192-4.771,1.558-.062-.191.479-.156c.287-.094.3-.375.2-.7l-2.121-6.5a.729.729,0,0,0-1.12-.44l-.049-.153a10.073,10.073,0,0,0,3.381-2.7l.108.071.62,1.9a6.1,6.1,0,0,1,1.858-2.622C6482.033,2362.1,6483.729,2361.909,6484.671,2363.3Z" transform="translate(-6444.471 -2360.456)" fill="#1a256c"/>
          <path id="Path_839" data-name="Path 839" d="M6520.136,2359.254c.9,2.661-3.014,3.637-3.519,1.1-.5-2.418-2.059-.829-2.66.088l.33,6.825c.015.322.127.559.431.565l.5-.025.01.2-5.015.242-.009-.2.5-.025c.3-.015.39-.281.374-.624l-.33-6.825a.728.728,0,0,0-.963-.72l-.008-.161a10.091,10.091,0,0,0,3.974-1.705l.085.1.1,1.993a6.1,6.1,0,0,1,2.485-2.037C6517.908,2357.4,6519.6,2357.666,6520.136,2359.254Z" transform="translate(-6465.35 -2357.719)" fill="#1a256c"/>
          <path id="Path_840" data-name="Path 840" d="M6554.316,2372l-.045.2-2.651-.611a1.222,1.222,0,0,1-1.052-1.628,3.7,3.7,0,0,1-3.063.721c-1.609-.372-2.674-1.4-2-4.31l.883-3.829c.2-.844-.711-.95-.711-.95l.036-.157a7.6,7.6,0,0,0,4.247-.572l.057.116-1.563,6.776c-.832,3.613,1.948,2.5,2.229,1.733l1.3-5.656c.193-.844-.714-.95-.714-.95l.037-.157a7.662,7.662,0,0,0,4.247-.572l.058.117-2.066,8.954c-.072.315-.014.6.262.661Z" transform="translate(-6486.546 -2359.596)" fill="#1a256c"/>
          <path id="Path_841" data-name="Path 841" d="M6581.645,2384.5l-.1.177-4.418-2.382.1-.177.444.239c.265.143.479-.04.64-.341l3.109-5.768c1.252-2.324-.983-2.041-2.065-1.479l-3.271,6.068c-.154.284-.161.554.077.706l.443.24-.095.177-4.419-2.382.1-.177.443.24c.266.143.479-.04.642-.341l3.241-6.015a.736.736,0,0,0-.435-1.1l.077-.143a10.324,10.324,0,0,0,4.266.583l.023.127-.918,1.7a5.492,5.492,0,0,1,3.3-.439c1.405.368,2.461,1.807,1.246,4.061l-2.955,5.484c-.153.284-.17.572.078.706Z" transform="translate(-6502.539 -2366.263)" fill="#1a256c"/>
          <path id="Path_842" data-name="Path 842" d="M6610.038,2388.717l.872.716-.141.171-.872-.715-5.754,7.013c-.2.249-.279.5-.074.695l.4.332-.127.156-1.951-1.626c-.688-.591-1.062-1.184-.154-2.292l4.692-5.718a.718.718,0,0,0-.122-1.091l-.343-.281.141-.171c1.559,1.279,3.452,1.164,5.892-.381l.03.155Z" transform="translate(-6520.213 -2374.314)" fill="#1a256c"/>
          <path id="Path_843" data-name="Path 843" d="M6624.914,2410.069l-.194.08-.317-.391a.64.64,0,0,0-.781-.067l-9.621,4.333c-.856.383-3.06,1.187-4.293-.2a1.62,1.62,0,0,1-.119-2.291,1.521,1.521,0,0,1,2.594,1.373c-.135,1.72,1.238,1.045,1.885.755.2-.08.362-.164.571-.256l-.9-1.111c-.5-.611-.678-1.217.192-2.417l4.6-6.329c.2-.295.336-.61.146-.845l-.317-.391.119-.174,3.162,3.9-.118.174-.317-.391c-.193-.207-.4-.114-.6.153l-5.161,7.073,7.951-3.574c.316-.153.479-.337.316-.569l-.331-.406.2-.08Z" transform="translate(-6524.671 -2384.23)" fill="#1a256c"/>
        </g>
      </g>
      <g id="Group_672" data-name="Group 672" transform="translate(21.122 94.857)">
        <g id="Group_671" data-name="Group 671">
          <g id="Group_670" data-name="Group 670">
            <path id="Path_844" data-name="Path 844" d="M6465.542,2598.062l-.153.145-.437-.252a.682.682,0,0,0-.789.2l-5.763,5.422-2.5,4.328c-.162.279-.185.521.067.69l.436.252-.1.174-4.346-2.51.1-.175.437.252c.262.151.479-.026.65-.322l2.47-4.275,1.819-7.7a.659.659,0,0,0-.213-.8l-.453-.262.047-.2,4.363,2.521-.048.205-.454-.262c-.254-.124-.4.047-.474.377l-1.677,7.132,5.342-5.014c.248-.229.325-.44.09-.6l-.453-.262.153-.145Z" transform="translate(-6451.957 -2593.021)" fill="#1a256c"/>
            <path id="Path_845" data-name="Path 845" d="M6482.174,2628.231a4.928,4.928,0,0,1-3.6-6.532,5.045,5.045,0,0,1,6.575-3.266,3.731,3.731,0,0,1,2.639,4.219l-6.122,1.232c.547,3.345,4.233,3.794,6.251,1.431l.016.153A4.83,4.83,0,0,1,6482.174,2628.231Zm-.534-4.652,2.891-.648c.323-.954.827-4.411-.8-4.355-1.064.022-2.219,2.6-2.125,4.635A1.673,1.673,0,0,0,6481.64,2623.579Z" transform="translate(-6467.677 -2608.024)" fill="#1a256c"/>
            <path id="Path_846" data-name="Path 846" d="M6522.714,2634l0,.2s-2.035-.025-2.619-.058c-.847-.039-1.406-.253-1.462-1.384-1.164,2.515-6.918,1.983-6.5-1.375.468-3.8,6.557-2.9,6.608-5.236.028-1.27-.379-1.984-1.569-1.97-1.795.021-2.389,2.225-.583,2.668-.75,1.072-3.38,1.477-3.852-.006-.584-1.787,1.963-3.021,4.442-2.965,2.2.048,4.841.753,4.752,4.783l-.105,4.736c-.007.323.087.587.39.594Zm-4.081-2.268.107-4.856c-.795,1.292-2.45,2.3-3.06,3.42a2.144,2.144,0,0,0,.226,2.545A1.59,1.59,0,0,0,6518.633,2631.736Z" transform="translate(-6487.859 -2611.439)" fill="#1a256c"/>
            <path id="Path_847" data-name="Path 847" d="M6555.978,2618.781c1.468,2.394-2.123,4.218-3.184,1.857-1.027-2.245-2.191-.349-2.572.679l1.845,6.579c.088.31.25.516.546.454l.485-.136.055.194-4.832,1.356-.055-.194.485-.136c.291-.082.317-.361.225-.692l-1.846-6.579a.727.727,0,0,0-1.1-.487l-.044-.156a10.077,10.077,0,0,0,3.492-2.549l.1.075.539,1.922a6.1,6.1,0,0,1,1.967-2.541C6553.394,2617.475,6555.1,2617.353,6555.978,2618.781Z" transform="translate(-6508.081 -2607.757)" fill="#1a256c"/>
            <path id="Path_848" data-name="Path 848" d="M6589.2,2610.072c.838,1.587-.65,3.531-3.023,4.864-2.126,1.194-3.814,1.369-4.613.458a1.508,1.508,0,0,1,.33-2.466c1.146-.633,2.054.219,1.7,1.069-.357.877.875,1.449,2.372.616,1.349-.725,1.781-2.528.061-2.937-2.284-.5-5.979,1.076-7.34-1.3-.881-1.539.533-3.858,2.951-4.986,1.646-.778,2.635-.509,3.178-1.307l.2.025c.128.995.4,2.279.534,3.247l-.174.1c-.766-1.211-2.042-2.431-3.74-1.623-1.3.606-1.5,2.413.167,2.807C6583.787,2609.129,6588,2607.972,6589.2,2610.072Z" transform="translate(-6527.444 -2599.621)" fill="#1a256c"/>
          </g>
        </g>
      </g>
    </g>
    <g id="Group_675" data-name="Group 675" transform="translate(70.325 56.92)">
      <g id="Group_674" data-name="Group 674">
        <path id="Path_849" data-name="Path 849" d="M6501.834,2448.5c6.4,0,7.827-3.086,9.106-6.623h5.569v52.682h-8.278v-40.19h-6.4Z" transform="translate(-6501.834 -2441.878)" fill="#1a256c"/>
      </g>
    </g>
    <g id="Group_696" data-name="Group 696" transform="translate(23.937 55.823)">
      <g id="Group_676" data-name="Group 676" transform="translate(0 26.707)">
        <path id="Path_850" data-name="Path 850" d="M6386.764,2507.407a2,2,0,1,1,2,2A2,2,0,0,1,6386.764,2507.407Z" transform="translate(-6386.764 -2505.407)" fill="#1a256c"/>
      </g>
      <g id="Group_677" data-name="Group 677" transform="translate(0.449 33.59)">
        <path id="Path_851" data-name="Path 851" d="M6387.894,2524.733a2,2,0,1,1,2.236,1.734A2,2,0,0,1,6387.894,2524.733Z" transform="translate(-6387.878 -2522.481)" fill="#1a256c"/>
      </g>
      <g id="Group_678" data-name="Group 678" transform="translate(1.757 40.363)">
        <path id="Path_852" data-name="Path 852" d="M6391.186,2541.781a2,2,0,1,1,2.436,1.44A2,2,0,0,1,6391.186,2541.781Z" transform="translate(-6391.123 -2539.282)" fill="#1a256c"/>
      </g>
      <g id="Group_679" data-name="Group 679" transform="translate(3.904 46.918)">
        <path id="Path_853" data-name="Path 853" d="M6396.59,2558.281a2,2,0,1,1,2.6,1.124A2,2,0,0,1,6396.59,2558.281Z" transform="translate(-6396.449 -2555.543)" fill="#1a256c"/>
      </g>
      <g id="Group_680" data-name="Group 680" transform="translate(6.857 53.153)">
        <path id="Path_854" data-name="Path 854" d="M6404.02,2573.974a2,2,0,1,1,2.717.789A2,2,0,0,1,6404.02,2573.974Z" transform="translate(-6403.772 -2571.01)" fill="#1a256c"/>
      </g>
      <g id="Group_681" data-name="Group 681" transform="translate(10.567 58.969)">
        <path id="Path_855" data-name="Path 855" d="M6413.358,2588.613a2,2,0,1,1,2.794.442A2,2,0,0,1,6413.358,2588.613Z" transform="translate(-6412.976 -2585.436)" fill="#1a256c"/>
      </g>
      <g id="Group_682" data-name="Group 682" transform="translate(99.446 58.759)">
        <path id="Path_856" data-name="Path 856" d="M6637.066,2588.092a2,2,0,1,1-.441-2.795A2,2,0,0,1,6637.066,2588.092Z" transform="translate(-6633.448 -2584.915)" fill="#1a256c"/>
      </g>
      <g id="Group_683" data-name="Group 683" transform="translate(103.128 52.926)">
        <path id="Path_857" data-name="Path 857" d="M6646.336,2573.41a2,2,0,1,1-.789-2.717A2,2,0,0,1,6646.336,2573.41Z" transform="translate(-6642.583 -2570.446)" fill="#1a256c"/>
      </g>
      <g id="Group_684" data-name="Group 684" transform="translate(106.05 46.677)">
        <path id="Path_858" data-name="Path 858" d="M6653.693,2557.682a2,2,0,1,1-1.124-2.6A2,2,0,0,1,6653.693,2557.682Z" transform="translate(-6649.832 -2554.944)" fill="#1a256c"/>
      </g>
      <g id="Group_685" data-name="Group 685" transform="translate(108.166 40.111)">
        <path id="Path_859" data-name="Path 859" d="M6659.019,2541.157a2,2,0,1,1-1.439-2.435A2,2,0,0,1,6659.019,2541.157Z" transform="translate(-6655.08 -2538.658)" fill="#1a256c"/>
      </g>
      <g id="Group_686" data-name="Group 686" transform="translate(109.443 33.333)">
        <path id="Path_860" data-name="Path 860" d="M6662.233,2524.094a2,2,0,1,1-1.734-2.236A2,2,0,0,1,6662.233,2524.094Z" transform="translate(-6658.248 -2521.843)" fill="#1a256c"/>
      </g>
      <g id="Group_687" data-name="Group 687" transform="translate(109.86 26.447)">
        <path id="Path_861" data-name="Path 861" d="M6663.283,2506.764a2,2,0,1,1-2-2A2,2,0,0,1,6663.283,2506.764Z" transform="translate(-6659.283 -2504.763)" fill="#1a256c"/>
      </g>
      <g id="Group_688" data-name="Group 688" transform="translate(109.411 19.564)">
        <path id="Path_862" data-name="Path 862" d="M6662.152,2489.438a2,2,0,1,1-2.235-1.734A2,2,0,0,1,6662.152,2489.438Z" transform="translate(-6658.167 -2487.688)" fill="#1a256c"/>
      </g>
      <g id="Group_689" data-name="Group 689" transform="translate(108.102 12.79)">
        <path id="Path_863" data-name="Path 863" d="M6658.858,2472.389a2,2,0,1,1-2.435-1.44A2,2,0,0,1,6658.858,2472.389Z" transform="translate(-6654.92 -2470.886)" fill="#1a256c"/>
      </g>
      <g id="Group_690" data-name="Group 690" transform="translate(105.955 6.235)">
        <path id="Path_864" data-name="Path 864" d="M6653.455,2455.889a2,2,0,1,1-2.6-1.123A2,2,0,0,1,6653.455,2455.889Z" transform="translate(-6649.594 -2454.625)" fill="#1a256c"/>
      </g>
      <g id="Group_691" data-name="Group 691" transform="translate(103.003)">
        <path id="Path_865" data-name="Path 865" d="M6646.026,2440.2a2,2,0,1,1-2.717-.789A2,2,0,0,1,6646.026,2440.2Z" transform="translate(-6642.272 -2439.158)" fill="#1a256c"/>
      </g>
      <g id="Group_692" data-name="Group 692" transform="translate(6.731 0.228)">
        <path id="Path_866" data-name="Path 866" d="M6403.71,2440.76a2,2,0,1,1,.79,2.717A2,2,0,0,1,6403.71,2440.76Z" transform="translate(-6403.462 -2439.722)" fill="#1a256c"/>
      </g>
      <g id="Group_693" data-name="Group 693" transform="translate(3.809 6.477)">
        <ellipse id="Ellipse_62" data-name="Ellipse 62" cx="2" cy="2" rx="2" ry="2" fill="#1a256c"/>
      </g>
      <g id="Group_694" data-name="Group 694" transform="translate(1.693 13.042)">
        <path id="Path_867" data-name="Path 867" d="M6391.027,2473.013a2,2,0,1,1,1.44,2.435A2,2,0,0,1,6391.027,2473.013Z" transform="translate(-6390.963 -2471.509)" fill="#1a256c"/>
      </g>
      <g id="Group_695" data-name="Group 695" transform="translate(0.417 19.821)">
        <path id="Path_868" data-name="Path 868" d="M6387.813,2490.076a2,2,0,1,1,1.734,2.235A2,2,0,0,1,6387.813,2490.076Z" transform="translate(-6387.797 -2488.326)" fill="#1a256c"/>
      </g>
    </g>
    <g id="Group_698" data-name="Group 698">
      <g id="Group_697" data-name="Group 697">
        <path id="Path_869" data-name="Path 869" d="M6408.255,2462.42c-4.715,0-8.741-2.893-12.292-5.445-2.42-1.739-4.706-3.381-6.858-3.957-2.3-.614-5.189-.334-8.25-.038-4.483.434-9.121.883-13.044-1.387-3.984-2.3-5.919-6.583-7.791-10.719-1.252-2.769-2.435-5.384-4.07-7.019s-4.25-2.818-7.019-4.07c-4.136-1.872-8.413-3.806-10.719-7.791-2.27-3.923-1.821-8.56-1.387-13.043.3-3.061.576-5.952-.038-8.25-.576-2.151-2.218-4.437-3.956-6.856-2.553-3.552-5.446-7.578-5.446-12.294s2.893-8.741,5.446-12.292c1.738-2.42,3.38-4.706,3.956-6.858.614-2.3.333-5.189.038-8.25-.435-4.484-.883-9.121,1.387-13.043,2.306-3.984,6.583-5.919,10.719-7.791,2.769-1.252,5.384-2.435,7.019-4.07s2.818-4.25,4.071-7.02c1.872-4.136,3.806-8.414,7.79-10.719,3.923-2.27,8.56-1.821,13.044-1.386,3.061.3,5.951.576,8.25-.038,2.152-.575,4.438-2.218,6.858-3.956,3.552-2.552,7.577-5.445,12.292-5.445s8.742,2.893,12.293,5.445c2.419,1.738,4.705,3.381,6.857,3.956,2.3.614,5.189.334,8.25.038,4.484-.435,9.122-.883,13.044,1.386,3.984,2.305,5.919,6.583,7.79,10.719,1.253,2.769,2.435,5.384,4.07,7.019s4.25,2.818,7.019,4.07c4.137,1.872,8.415,3.806,10.72,7.791,2.27,3.923,1.82,8.559,1.386,13.043-.3,3.061-.576,5.952.038,8.25.575,2.152,2.217,4.438,3.956,6.858,2.552,3.552,5.445,7.577,5.445,12.292s-2.893,8.742-5.445,12.294c-1.739,2.42-3.381,4.705-3.956,6.857-.614,2.3-.334,5.189-.038,8.25.434,4.484.883,9.12-1.386,13.043-2.305,3.984-6.582,5.919-10.72,7.791-2.768,1.252-5.383,2.435-7.019,4.07s-2.818,4.25-4.071,7.019c-1.871,4.137-3.8,8.414-7.79,10.72-3.922,2.269-8.559,1.82-13.043,1.386-3.06-.3-5.951-.576-8.25.038-2.152.576-4.438,2.218-6.857,3.957C6417,2459.527,6412.971,2462.42,6408.255,2462.42Zm-22.475-15.515a18.589,18.589,0,0,1,4.809.56c3.168.847,6,2.878,8.728,4.841,3.124,2.245,6.074,4.365,8.938,4.365s5.815-2.12,8.938-4.365c2.734-1.963,5.56-3.994,8.728-4.841,3.3-.883,6.854-.539,10.289-.206,3.746.363,7.284.706,9.61-.64,2.386-1.381,3.865-4.65,5.43-8.112,1.411-3.116,2.868-6.338,5.245-8.715s5.6-3.833,8.714-5.243c3.462-1.566,6.732-3.045,8.113-5.431,1.346-2.326,1-5.864.641-9.61-.334-3.435-.677-6.987.206-10.289.846-3.168,2.877-5.995,4.841-8.728,2.245-3.124,4.365-6.074,4.365-8.939s-2.12-5.813-4.365-8.938c-1.964-2.732-4-5.559-4.841-8.727-.883-3.3-.54-6.854-.206-10.288.362-3.747.705-7.285-.641-9.611-1.38-2.386-4.65-3.864-8.113-5.431-3.116-1.409-6.339-2.867-8.714-5.243s-3.834-5.6-5.244-8.715c-1.566-3.461-3.045-6.731-5.431-8.112-2.326-1.345-5.865-1-9.61-.641-3.436.333-6.987.677-10.289-.206-3.168-.847-5.994-2.877-8.728-4.842-3.123-2.245-6.073-4.364-8.938-4.364s-5.814,2.12-8.938,4.364c-2.733,1.964-5.56,3.995-8.728,4.842-3.3.883-6.854.539-10.289.206-3.746-.363-7.284-.7-9.61.641-2.386,1.381-3.865,4.65-5.431,8.112-1.41,3.117-2.867,6.339-5.244,8.715s-5.6,3.833-8.715,5.243c-3.461,1.566-6.732,3.045-8.112,5.431-1.345,2.326-1,5.865-.639,9.611.332,3.435.677,6.986-.207,10.289-.846,3.168-2.877,5.995-4.841,8.727-2.245,3.125-4.365,6.074-4.365,8.938s2.12,5.815,4.365,8.939c1.964,2.733,4,5.559,4.841,8.728.882,3.3.539,6.854.207,10.288-.364,3.747-.707,7.285.639,9.611,1.38,2.386,4.651,3.865,8.112,5.431,3.117,1.409,6.339,2.867,8.715,5.243s3.833,5.6,5.243,8.715c1.565,3.462,3.045,6.731,5.431,8.112,2.326,1.346,5.864,1,9.61.64C6382.113,2447.083,6383.958,2446.905,6385.78,2446.905Z" transform="translate(-6327.387 -2300.684)" fill="#1a256c"/>
      </g>
    </g>
  </g>
</svg>
