<svg xmlns="http://www.w3.org/2000/svg" width="432.019" height="524.774" viewBox="0 0 432.019 524.774"><path d="M-1558.259-26.534c1.75-21.982,7.1-43.751,6.2-65.973-1.331-32.878-11.424-64.76-9.556-97.916,2.985-52.968,35.488-101.907,79.834-131.028s99.208-39.682,152.144-36.175c56.267,3.727,113,23.876,152.517,64.106s58.762,102.234,40.137,155.46c-15.031,42.955-52.588,78.417-54.523,123.885-.889,20.866,6.077,41.471,5.227,62.34-2.077,50.959-49.766,88.93-98.241,104.786-54.811,17.929-141.205,22.09-191.44-12.7-44.747-30.984-79.357-92.4-82.625-146.709A143.576,143.576,0,0,1-1558.259-26.534Z" transform="translate(1561.847 358.273)" fill="#313f91"/></svg>