<svg xmlns="http://www.w3.org/2000/svg" width="408" height="552.812" viewBox="0 0 408 552.812"><path d="M2556.867-1207.344a687.679,687.679,0,0,0-32.464,169.331c-3.093,49.878-6.032,105.68,25.811,147.647,53.515,70.529,172.307,92.075,250.966,57.867,40.367-17.555,73.561-51.5,90.822-91.934,8.029-18.808,13.125-40.1,13.169-60.65.057-25.694-13.9-49.958-10.622-75.8,3.4-26.808,24.613-46.383,32.335-71.588,8.947-29.2.76-62.081-14.357-87.754-25.19-42.781-64.953-75.459-105.666-102.793-37.976-25.5-86.353-58.553-134.2-41.813-54.657,19.122-85.361,75.414-104.793,126.341Q2562-1223.106,2556.867-1207.344Z" transform="translate(-2522.596 1369.368)" fill="#313f91"/></svg>