<svg xmlns="http://www.w3.org/2000/svg" xmlns:xlink="http://www.w3.org/1999/xlink" width="229" height="273" viewBox="0 0 229 273"><defs><clipPath id="a"><rect width="229" height="273" rx="105" transform="translate(987 10021)" fill="#fff"/></clipPath></defs><g transform="translate(-987 -10021)" clip-path="url(#a)"><g transform="translate(-1888.906 11193.121)"><g transform="translate(2797.906 -1140.436)"><path d="M2944.891-815.834c-3.228,1.738-7.945,5.214-9.931,6.455-3.228,1.986-18.622,8.69-26.567,10.676-7.2,1.738-24.828,7.7-36.746,15.394-7.945,5.214-11.421,11.173-14.9,17.38-1.49,2.483-6.7,16.387-14.4,37.988-6.207,17.876-14.4,41.463-21.352,62.319-5.958,17.876-8.441,29.3-14.4,39.974-5.214,9.435-5.214,12.414-6.455,19.614a33.248,33.248,0,0,0,1.738,14.4,63.408,63.408,0,0,0,4.966,10.18c.993,1.241,12.414,11.172,27.808,11.918,21.6,1.241,49.409-6.952,54.375-6.7,1.986,0-.5,15.394-2.483,27.311-3.228,19.118-7.7,38.236-7.7,38.236l189.192-26.318-2.483-39.973a30.747,30.747,0,0,1,7.945-5.214c4.718-1.738,12.911-3.973,17.132-6.207a76.461,76.461,0,0,0,15.89-11.421c6.207-5.711,12.911-15.394,15.394-23.091,1.241-3.724,1.49-13.159,0-21.1-1.242-6.7-3.973-12.166-4.469-15.642-1.242-7.7-3.228-16.635-5.958-28.552s-6.208-37.988-7.2-55.864c-.5-10.428-4.22-27.808-12.414-40.47-5.71-9.187-15.145-15.394-23.09-17.38-5.959-1.49-31.284-6.455-37.739-8.69a63.775,63.775,0,0,1-12.166-6.455c-3.227-2.234-26.566.745-40.222.993C2965.25-815.834,2948.367-818.069,2944.891-815.834ZM2877.11-649.981c1.241,4.469,4.966,13.655,6.7,18.87a86.775,86.775,0,0,1,2.731,13.655s-4.718.249-7.449.745-7.2.5-10.428.993-7.7-.5-9.683-.5a35.848,35.848,0,0,1-6.456-2.235s3.476-5.214,4.966-7.945,3.476-6.455,5.462-10.428a126.708,126.708,0,0,0,6.7-14.9,51.867,51.867,0,0,1,3.724-7.2A58.033,58.033,0,0,1,2877.11-649.981Z" transform="translate(-2798.843 993.323)" fill="#f9ab61" fill-rule="evenodd"/><path d="M3158.188-1072.614c0-7.2.993-16.387-2.483-24.828-2.731-6.207-6.208-13.656-12.414-21.1a67.647,67.647,0,0,0-19.118-14.9c-8.69-4.22-21.6-6.207-30.539-3.227-5.959,1.986-7.945,8.442-13.159,8.442-2.979,0-5.71-1.738-8.938-2.731-2.483-.745-5.462-.5-8.69-.5-7.945.5-17.38,5.214-21.1,8.938a64.445,64.445,0,0,0-8.69,11.918c-3.972,6.952-7.7,15.642-8.442,20.359a95.948,95.948,0,0,0-1.738,10.18c-.5,7.7.249,15.394-1.738,21.352-1.738,5.462-5.214,7.448-9.931,7.945-2.235.248,1.49,4.966,6.952,3.724,1.49-.248-2.483,3.973-5.959,13.9a33.016,33.016,0,0,0-1.986,13.159c.5,6.207,2.979,12.911,5.959,15.145,1.241.993,8.69,6.7,10.676,11.173,2.235,4.717-1.241,8.193-6.207,8.442-8.193.5,8.69,8.938,16.635,8.69,2.979-.248,8.938,3.476,12.414,2.483,16.139-5.214,64.306,1.986,72,1.986,6.952,0,12.414-1.986,13.9-5.959.745-2.234,8.69,6.952,15.394-1.49,1.242-1.49-5.71,2.483-7.945-.248a7.036,7.036,0,0,1,.993-9.683,47.414,47.414,0,0,1,7.7-4.717c3.476-1.738,6.7-2.979,9.435-6.207,3.724-4.717,4.221-13.159,4.221-16.883,0-.5,3.973-1.49,6.456-2.979s3.476-3.476,4.717-7.448c1.738-5.959-1.738-18.373-3.724-22.1-2.234-4.221-5.959-6.7-8.69-9.683C3160.423-1062.187,3158.188-1067.152,3158.188-1072.614Z" transform="translate(-2894.702 1139.369)" fill="#f16361" fill-rule="evenodd"/><path d="M3162.9-1005.58c0-4.717-1.242-14.648-1.738-23.09-.248-5.959.5-10.18-.5-15.89-1.49-8.442-4.221-14.649-7.2-18.87-3.973-5.959-11.67-11.421-18.373-12.911-3.972-.993-7.448,1.241-10.925,1.986-2.483.5-5.214-.745-7.448-.745-5.462,0-8.938,5.214-13.159,9.683-4.717,4.966-6.207,21.1-8.442,29.546-1.241,4.221-3.476,10.924-6.952,14.9-3.724,3.973-8.442,4.966-11.918,3.724-.5-.249-4.22-3.476-7.7-2.979-3.228.5-6.456,4.469-6.7,7.2-.248,1.986,1.738,9.435,4.718,12.911a27.3,27.3,0,0,0,7.448,5.711s3.227,12.414,4.966,14.9c.993,1.49,10.428,14.648,7.945,23.835-1.49,5.959-10.677,9.683-17.38,10.428-1.242.248-1.986,7.945-5.214,10.676-2.234,1.986.993,8.194,5.959,14.9,5.462,7.448,13.159,15.394,22.594,20.608a36.342,36.342,0,0,0,19.863,4.469c5.959-.249,15.145-2.483,19.366-7.945,4.22-5.214,6.7-8.442,7.7-14.4,1.49-7.2,0-17.38-1.738-18.373-2.483-1.49-4.718-4.469-5.958-9.683-1.242-4.717-.249-11.172.248-11.172,3.228-.249,10.428-6.455,16.139-13.159a62.386,62.386,0,0,0,12.166-24.332C3162.407-997.387,3162.9-1000.863,3162.9-1005.58Z" transform="translate(-2918.286 1111.315)" fill="#ffe9e1" fill-rule="evenodd"/><path d="M3191.077-918.72c-.249-1.49-5.214-.993-11.421-1.241-5.711-.249-12.415-1.242-12.663-.993-2.483,2.483-.248,15.89,9.435,16.883S3191.573-913.009,3191.077-918.72Z" transform="translate(-2965.826 1040.345)" fill="#f16361" fill-rule="evenodd"/><path d="M3248.7-451.6a13.085,13.085,0,0,0,5.214-3.724c2.731-2.731,4.718-7.2,6.208-10.18,1.241-2.979,2.979-6.455,4.22-10.428s2.235-7.7,1.49-9.186c-.5-1.49-1.738-1.986-2.483-3.228-.5-1.241,1.49-1.241,1.986-3.724.5-2.731,2.235-4.469.745-6.455-1.49-2.235-2.483-3.725-1.242-5.462s1.242-4.469,1.242-7.449-.5-3.228-2.731-4.469c-2.483-1.242-.745-.5.5-3.973.993-3.476,2.979-7.2,3.724-10.676.5-3.476,1.49-8.938-.249-11.421-1.49-2.483-3.227-4.717-5.71-4.717-2.235,0-4.718-.745-7.7,1.49s-4.717,2.979-7.448,5.462a82.584,82.584,0,0,0-6.455,6.952,38.917,38.917,0,0,0-5.214,6.952c-1.49,2.483-1.242,4.717.5,5.214a6.694,6.694,0,0,0,5.462-.993c2.483-1.49,4.469-2.483,6.952-4.221,2.483-1.986,4.469-3.228,4.469-.5s1.241,9.931-1.242,10.428-7.945.993-11.172,1.738-5.959,2.731-8.69,4.966a63.631,63.631,0,0,0-10.179,9.931,110.886,110.886,0,0,0-8.193,10.676c-2.234,3.724-3.973,5.214-4.221,7.2s-.5,3.228,1.986,2.731,12.166-5.214,9.683-3.476-6.952,4.221-9.931,6.952-4.221,3.724-3.724,5.462c.5,1.49,1.49,2.731,4.717,2.483,3.228,0,11.421-3.725,9.683-1.986s-2.979,2.979-2.235,4.221c.993,1.242,2.483,1.738,7.7,1.738,5.462,0,6.952-2.731,10.676-4.966s4.718-3.228,8.442-3.476,2.731,0,2.731,2.234C3248.45-467.24,3248.7-451.6,3248.7-451.6Z" transform="translate(-2984.219 869.674)" fill="#ffe9e1" fill-rule="evenodd"/><path d="M3065.24-521.4c-5.462,1.242-18.87,2.235-16.138-.745a17.732,17.732,0,0,1,8.938-5.462c6.207-1.986,15.394-2.731,18.621-2.979,7.449-.249,16.883-.745,22.1-3.725,3.972-2.483,5.214-4.966,4.717-6.455C3102.979-543,3093.3-543,3085.1-543c-6.7,0-14.152-1.242-19.614-.993a27.351,27.351,0,0,0-9.931,2.483c-6.952,1.986-13.407,2.731-13.159,1.241.745-5.462,6.952-16.883,8.194-18.87.993-1.49,5.462-3.724,9.435-4.966s7.448-1.241,9.435-1.738c3.476-.5,9.435-2.483,10.924-3.476,5.959-4.469,5.462-9.683,1.738-9.683-1.738,0-11.918.993-17.628,1.738-4.221.5-17.38,2.483-21.849,5.462-2.235,1.49-4.718,5.214-6.455,8.442-.5.993-2.483,7.2-5.959,12.166s-7.945,12.663-11.917,18.622c-4.221,5.71-9.931,13.159-14.9,18.621a60.316,60.316,0,0,1-6.456,6.207c-1.738.745.248,12.414,3.476,21.6,2.483,6.952,5.959,12.663,7.945,10.924a44.192,44.192,0,0,1,10.676-5.462c5.462-1.986,11.421-2.979,17.628-4.966a102.311,102.311,0,0,0,15.394-6.207c6.952-3.476,16.138-9.435,24.332-13.656,3.973-1.986,8.193-3.724,11.173-5.214,5.214-2.731,5.711-5.959,6.455-6.455,3.228-1.49,8.442-3.724,9.187-5.711.744-2.234.5-4.717-3.228-4.966-4.717-.5-11.918.249-18.87,1.738C3073.185-523.636,3066.482-521.649,3065.24-521.4Z" transform="translate(-2888.405 884.358)" fill="#ffe9e1" fill-rule="evenodd"/><path d="M3201.363-809.3l-11.421-5.71a10.707,10.707,0,0,0,.248,3.724,43.71,43.71,0,0,1,.5,9.931c-.248,2.235-.744,6.7-1.986,8.69-1.241,2.234-2.731,5.71-5.462,8.442s-2.979,4.469-6.207,5.71-7.448,3.476-5.214,3.724,6.455,3.227,7.945,4.966c1.49,1.49,4.469,4.221,6.208,4.966a17.138,17.138,0,0,0,5.71.745c1.242-.248,4.221-5.71,5.711-7.448,1.241-1.738,3.476-7.7,4.469-11.918s2.234-7.945,1.738-12.166C3203.1-800.365,3201.363-809.3,3201.363-809.3Z" transform="translate(-2968.167 992.006)" fill="#fff" fill-rule="evenodd"/><path d="M3103.245-774.919s-8.193-2.235-10.428-2.979-9.683-5.462-12.166-7.2-9.435-9.186-12.166-12.414a44.907,44.907,0,0,1-6.952-10.428,67.963,67.963,0,0,1-2.731-8.442,50.844,50.844,0,0,0-5.711,3.973c-1.986,1.738-4.717,2.483-3.724,4.966s3.476,9.435,4.966,12.911c1.49,3.724,6.952,11.173,8.938,14.152a154.533,154.533,0,0,0,11.421,13.9,27.535,27.535,0,0,0,8.193,5.462c1.986.745,5.462-1.986,7.945-3.476s5.214-4.221,7.7-6.207C3100.762-772.933,3103.245-774.919,3103.245-774.919Z" transform="translate(-2912.505 992.63)" fill="#fff" fill-rule="evenodd"/><path d="M3148.911-896.5c9.473,0,14.518-5.654,20.34-12.176,10.746-12.493,17.074-28.616,15.762-40.14a1.492,1.492,0,0,0-1.646-1.311,1.487,1.487,0,0,0-1.312,1.648c1.22,10.751-4.825,25.958-15.045,37.839-6.3,7.056-10.6,11.367-18.691,11.154-14.511-.461-35.245-15.753-38.343-25.766a1.483,1.483,0,0,0-1.865-.983,1.49,1.49,0,0,0-.982,1.863c3.472,11.215,24.828,27.347,41.1,27.863C3148.459-896.5,3148.688-896.5,3148.911-896.5Z" transform="translate(-2938.917 1053.638)" fill="#2e2020"/><path d="M3195.288-954.309a1.491,1.491,0,0,0,1.193-.6c.32-.428.705-.854,1.1-1.293,1.515-1.695,3.4-3.8,2.9-6.8a16.9,16.9,0,0,0-1.6-3.956c-1.481-2.888-2.093-4.377.194-6.663a1.49,1.49,0,0,0,0-2.107,1.486,1.486,0,0,0-2.1,0c-3.923,3.923-2.158,7.365-.742,10.13a14.4,14.4,0,0,1,1.338,3.182c.226,1.376-.725,2.57-2.2,4.223-.453.505-.893,1-1.264,1.494a1.492,1.492,0,0,0,.3,2.085A1.488,1.488,0,0,0,3195.288-954.309Z" transform="translate(-2978.478 1065.506)" fill="#2e2020"/><path d="M3078.723-946.288a1.489,1.489,0,0,0,1.489-1.49,1.489,1.489,0,0,0-1.489-1.49c-4.161,0-8.859-2.812-11.972-7.166-2.837-3.97-3.751-8.332-2.51-11.965a5.744,5.744,0,0,1,4.844-4.054c2.041-.168,3.736.9,4.84,3.017a1.492,1.492,0,0,0,2.007.634,1.489,1.489,0,0,0,.635-2.009,7.925,7.925,0,0,0-7.737-4.612,8.733,8.733,0,0,0-7.417,6.089c-1.55,4.525-.49,9.869,2.914,14.632C3067.982-949.59,3073.632-946.288,3078.723-946.288Z" transform="translate(-2917.778 1065.182)" fill="#2e2020"/><path d="M3083.592-947.8a1.481,1.481,0,0,0,.616-.133,1.489,1.489,0,0,0,.74-1.973c-1.484-3.267-4.68-7.081-8.8-7.081a1.49,1.49,0,0,0-1.489,1.49,1.489,1.489,0,0,0,1.489,1.49c2.534,0,4.886,2.679,6.093,5.333A1.491,1.491,0,0,0,3083.592-947.8Z" transform="translate(-2924.136 1056.762)" fill="#2e2020"/><path d="M3220.863-986.11a8.163,8.163,0,0,0,6.831-3.2c2.116-2.821,2.613-7.37,1.3-11.87-1.367-4.722-3.816-9.027-6.183-13.19-2.451-4.308-4.985-8.764-6.219-13.578a28.8,28.8,0,0,1-.5-8.667c.071-1.691.141-3.438.051-5.193a49.9,49.9,0,0,0-7.417-24.282c-2.88-4.995-11.714-11.728-19.194-13.218-3.77-.753-6.905-.2-9.3,1.637a1.491,1.491,0,0,0-.276,2.089,1.492,1.492,0,0,0,2.089.276c1.688-1.294,4.009-1.66,6.909-1.079,6.614,1.318,14.683,7.433,17.212,11.814a47.008,47.008,0,0,1,7,22.887c.085,1.648.019,3.251-.051,4.947a31.481,31.481,0,0,0,.594,9.54c1.332,5.191,3.964,9.823,6.513,14.3,2.386,4.2,4.641,8.161,5.911,12.548,1.04,3.567.718,7.2-.824,9.25a5.228,5.228,0,0,1-4.447,2,1.489,1.489,0,0,0-1.489,1.49A1.49,1.49,0,0,0,3220.863-986.11Z" transform="translate(-2972.025 1112.702)" fill="#2e2020"/><path d="M3091.281-1015.253a9.332,9.332,0,0,0,3.3-.627c4.774-1.793,8.894-7.361,10.7-11.776,1.964-4.583,3.035-9.957,4.17-15.646,1.853-9.291,3.771-18.9,9.864-24.543l.446-.416c4.071-3.8,7.742-6.8,11.5-4.819a1.489,1.489,0,0,0,2.01-.629,1.488,1.488,0,0,0-.628-2.011c-5.923-3.107-11.342,1.939-14.921,5.281l-.439.411c-6.8,6.3-8.811,16.388-10.758,26.144-1.1,5.533-2.146,10.759-4,15.079-1.629,3.98-5.237,8.724-9,10.139a5.8,5.8,0,0,1-4.854-.209,1.5,1.5,0,0,0-2,.666,1.491,1.491,0,0,0,.666,2A8.731,8.731,0,0,0,3091.281-1015.253Z" transform="translate(-2929.547 1111.362)" fill="#2e2020"/><path d="M3158.808-1091.79a1.5,1.5,0,0,0,.577-.116,1.491,1.491,0,0,0,.8-1.949c-3.739-8.917-9.582-12.908-15.338-15.892a1.484,1.484,0,0,0-2.008.636,1.489,1.489,0,0,0,.635,2.009c6.079,3.151,10.778,6.8,13.961,14.4A1.491,1.491,0,0,0,3158.808-1091.79Z" transform="translate(-2955.158 1126.516)" fill="#2e2020"/><path d="M3064.271-821.028a1.482,1.482,0,0,0,1.181-.582,48.68,48.68,0,0,0,6.148-10.5,1.492,1.492,0,0,0-.783-1.957,1.492,1.492,0,0,0-1.957.783,45.78,45.78,0,0,1-5.771,9.861,1.488,1.488,0,0,0,.274,2.087A1.472,1.472,0,0,0,3064.271-821.028Z" transform="translate(-2918.72 1000.752)" fill="#2e2020"/><path d="M3198.567-831.271a1.484,1.484,0,0,0,1.145-.536,1.489,1.489,0,0,0-.191-2.1c-8.487-7.073-9.078-12.611-7.2-20.353a1.489,1.489,0,0,0-1.1-1.8,1.482,1.482,0,0,0-1.8,1.1c-2.056,8.484-1.4,15.348,8.19,23.345A1.474,1.474,0,0,0,3198.567-831.271Z" transform="translate(-2976.049 1010.745)" fill="#2e2020"/><path d="M3261.987-581.009a1.418,1.418,0,0,0,.444-.07c8.232-2.57,16.187-5.323,23.066-10.673,9.087-6.876,20.743-19.3,23.625-31.623,2.526-10.489-.32-20.917-3.072-31-.888-3.249-1.724-6.318-2.384-9.378-4.124-18.141-6.935-35.749-8.92-49.065-.96-6.36-1.51-13.093-2.041-19.6-1.695-20.8-3.45-42.3-18.447-58.647-10.229-11.1-23.759-13.476-36.845-15.777-9.977-1.756-20.294-3.572-28.979-9.289a1.491,1.491,0,0,0-2.064.424,1.49,1.49,0,0,0,.424,2.063c9.2,6.057,19.827,7.927,30.1,9.735,13.178,2.318,25.624,4.508,35.167,14.858,14.305,15.588,16.017,36.576,17.671,56.875.536,6.561,1.088,13.345,2.063,19.8,2,13.363,4.818,31.043,8.959,49.266.674,3.123,1.562,6.372,2.417,9.517,2.655,9.723,5.4,19.776,3.05,29.53-2.706,11.566-13.832,23.359-22.542,29.947-6.5,5.058-14.181,7.708-22.139,10.2a1.485,1.485,0,0,0-.977,1.864A1.489,1.489,0,0,0,3261.987-581.009Z" transform="translate(-2984.101 992.63)" fill="#2e2020"/><path d="M3289.695-337.082a1.489,1.489,0,0,0,1.489-1.489c0-8.983-.647-18.088-1.273-26.894q-.24-3.361-.468-6.723a1.474,1.474,0,0,0-1.585-1.387,1.489,1.489,0,0,0-1.387,1.585c.15,2.245.311,4.49.468,6.735.623,8.755,1.268,17.807,1.268,26.684A1.489,1.489,0,0,0,3289.695-337.082Z" transform="translate(-3020.746 790.662)" fill="#2e2020"/><path d="M3309.415-612.674a1.491,1.491,0,0,0,1.448-1.149,112.847,112.847,0,0,0,2.267-13.338c.829-6.823.261-14.584-.337-22.8-1.011-13.847-2.056-28.162,3.863-38.179a1.49,1.49,0,0,0-.524-2.042,1.491,1.491,0,0,0-2.042.524c-6.394,10.819-5.312,25.609-4.27,39.912.589,8.069,1.144,15.692.349,22.241a109.644,109.644,0,0,1-2.207,13,1.491,1.491,0,0,0,1.108,1.792A1.568,1.568,0,0,0,3309.415-612.674Z" transform="translate(-3030.532 935.163)" fill="#2e2020"/><path d="M2840.912-568.7c11.008,0,21.672-2.313,32.117-4.578a217.923,217.923,0,0,1,23.41-4.185c1.525-.139,4.018-.066,6.665.017,7.094.211,15.123.453,18.675-2.311.494-.4,1.733-1.418,1.3-2.762-.441-1.36-1.99-1.452-3.358-1.532a7.693,7.693,0,0,1-1.324-.141c-2.512-1.474-4.284-3.932-6.173-7.174-2.173-3.69-8.006-21.78-4.806-27.374a2.628,2.628,0,0,1,2.524-1.421,1.489,1.489,0,0,0,1.488-1.489,1.488,1.488,0,0,0-1.488-1.489,5.591,5.591,0,0,0-5.111,2.919c-4.19,7.327,2.99,27.248,4.82,30.359,1.84,3.152,3.991,6.333,7.237,8.229a2.634,2.634,0,0,0,1.2.427c-3.579,1.118-9.99.924-14.894.778a68.16,68.16,0,0,0-7.046,0,220.458,220.458,0,0,0-23.752,4.238c-17.421,3.777-33.877,7.346-51.86,1.294a27.494,27.494,0,0,1-17.184-15.729c-3.739-8.886-3.21-19.87,1.416-29.382,7.347-15.232,16.265-42.421,25.706-71.211,12.25-37.342,24.913-75.959,33.371-84.831,10.544-11.046,27.425-16.773,43.752-22.314,15.39-5.222,29.925-10.154,37.733-19.2a1.488,1.488,0,0,0-.155-2.1,1.492,1.492,0,0,0-2.1.156c-7.279,8.433-21.441,13.238-36.435,18.325-16.667,5.657-33.9,11.5-44.951,23.08-8.923,9.359-21.126,46.568-34.044,85.961-9,27.427-18.3,55.791-25.558,70.838-4.992,10.271-5.547,22.173-1.479,31.835a30.392,30.392,0,0,0,18.983,17.4A66.043,66.043,0,0,0,2840.912-568.7Z" transform="translate(-2797.906 994.293)" fill="#2e2020"/><path d="M2836.021-448.89a1.485,1.485,0,0,0,1.062-.444c9.842-10.013,19.448-7.739,30.572-5.116a90.779,90.779,0,0,0,12.421,2.326c5.963.618,12.077-.09,17.986-.778,1.394-.163,2.779-.323,4.156-.466a60.29,60.29,0,0,0,9.5-2.553c5.582-1.8,11.905-3.856,15.743-2.713a1.491,1.491,0,0,0,1.85-1.006,1.488,1.488,0,0,0-1.006-1.85c-4.713-1.395-11.217.7-17.5,2.732a58.319,58.319,0,0,1-8.942,2.432c-1.338.138-2.737.3-4.142.466-5.751.667-11.7,1.355-17.353.771a88.3,88.3,0,0,1-12.029-2.26c-11-2.594-22.365-5.283-33.38,5.926a1.49,1.49,0,0,0,.017,2.107A1.485,1.485,0,0,0,2836.021-448.89Z" transform="translate(-2814.611 830.965)" fill="#2e2020"/><path d="M2897.568-523.467a1.6,1.6,0,0,0,.541-.095c2.245-.827,5.393-7.25,14.546-26.9,9.8-21.048,23.23-49.875,31.508-55.976a1.489,1.489,0,0,0,.318-2.083,1.5,1.5,0,0,0-2.083-.318c-8.894,6.554-21.95,34.59-32.444,57.117-5.55,11.92-11.291,24.244-12.986,25.42a1.433,1.433,0,0,0-.827,1.886A1.512,1.512,0,0,0,2897.568-523.467Z" transform="translate(-2842.667 898.098)" fill="#2e2020"/><path d="M3015.1-422.184a1.49,1.49,0,0,1,.412-2.066c7.2-4.8,15.9-7.192,24.3-9.5a138.166,138.166,0,0,0,14.458-4.544c6.607-2.643,12.8-6.5,18.788-10.22,2.875-1.789,5.851-3.64,8.826-5.33a72.017,72.017,0,0,1,6.726-3.3,59.8,59.8,0,0,0,7.754-3.94,7.321,7.321,0,0,0,2.188-1.911c-1.479-.665-6.435.49-8.127.882-.6.141-1.127.262-1.583.354-4.12.7-8.67,2.534-13.071,4.3-6.367,2.561-12.967,5.177-19.036,4.9a1.491,1.491,0,0,1-1.413-1.564,1.516,1.516,0,0,1,1.564-1.414c5.433.283,11.706-2.25,17.772-4.689,4.549-1.828,9.25-3.719,13.641-4.469.391-.08.885-.194,1.45-.327,4.614-1.074,8.932-1.891,10.969-.1a2.456,2.456,0,0,1,.9,2.235c-.252,2.183-3.2,4.105-3.794,4.391a62.126,62.126,0,0,1-8,4.066,67.894,67.894,0,0,0-6.464,3.166c-2.934,1.668-5.882,3.5-8.734,5.276-6.1,3.792-12.4,7.712-19.256,10.452a139.646,139.646,0,0,1-14.773,4.653c-8.178,2.25-16.633,4.575-23.437,9.11a1.479,1.479,0,0,1-.824.25A1.488,1.488,0,0,1,3015.1-422.184Zm83.684-40.671,0,0Z" transform="translate(-2896.858 832.893)" fill="#2e2020"/><path d="M3134.279-471.724a1.5,1.5,0,0,0,.63-.141c.926-.431,1.821-.783,2.679-1.123,2.679-1.057,5.208-2.054,7.305-4.779a4.866,4.866,0,0,0,.781-5.257,4.8,4.8,0,0,0-4.444-2.854c-9.745,0-19.033,1.909-28.017,3.753-2.9.6-5.809,1.193-8.748,1.734-5.354.89-12.615,1.372-13.9.659a1.485,1.485,0,0,0-2.027.577,1.492,1.492,0,0,0,.577,2.027c3.176,1.761,15.353-.245,15.867-.33,2.983-.548,5.912-1.149,8.833-1.748,9.245-1.9,17.976-3.7,27.418-3.7a1.837,1.837,0,0,1,1.726,1.1,1.947,1.947,0,0,1-.356,2.139c-1.664,2.153-3.622,2.927-6.1,3.906-.912.358-1.862.734-2.847,1.193a1.492,1.492,0,0,0-.72,1.981A1.492,1.492,0,0,0,3134.279-471.724Z" transform="translate(-2930.381 841.882)" fill="#2e2020"/><path d="M3084.047-491.04a1.481,1.481,0,0,0,1.178-.577c5.574-7.2,19.24-8.12,30.216-8.864,3.145-.214,6.113-.415,8.537-.754,5.708-.776,12.686-2.41,15.983-8.183a3.378,3.378,0,0,0,.1-3.649c-1.82-2.856-8.3-3.009-18.868-2.3a61.456,61.456,0,0,1-9.961-.419c-4.342-.441-8.444-.846-13.81.2-1.979.327-4.316.975-6.791,1.661-4.794,1.326-10.229,2.825-13.711,2.071a1.487,1.487,0,0,0-1.772,1.137,1.489,1.489,0,0,0,1.137,1.772c4.207.914,10.016-.688,15.14-2.109,2.4-.665,4.663-1.29,6.527-1.6,4.982-.968,8.866-.577,12.984-.165a63.3,63.3,0,0,0,10.438.429c9.924-.655,15.36-.347,16.177.931.029.046.005.247-.182.59-2.626,4.595-8.447,5.962-13.793,6.69-2.325.325-5.242.523-8.331.732-11.573.783-25.975,1.76-32.372,10.013a1.49,1.49,0,0,0,.267,2.09A1.488,1.488,0,0,0,3084.047-491.04Z" transform="translate(-2924.343 855.735)" fill="#2e2020"/><path d="M2994.88-506.608a1.457,1.457,0,0,0,.269-.027c6.723-1.222,29.833-35.434,34.3-43.445.943-1.665,1.92-3.812,2.953-6.083,2.449-5.375,5.495-12.065,9.223-14.5,5.123-3.262,20.17-5.722,31-5.967h0a20.537,20.537,0,0,0,2.466-.274c4.021-.577,6.263-.582,6.68-.015.041.056.1.451-.347,1.382-2.776,6.137-9.09,6.986-15.775,7.887-3.678.494-7.152.963-10.082,2.335-10.338,4.823-12.732,12.291-15.268,20.195-.366,1.149-.742,2.32-1.149,3.511a1.488,1.488,0,0,0,.926,1.891,1.485,1.485,0,0,0,1.892-.926c.415-1.21.795-2.4,1.171-3.567,2.531-7.894,4.532-14.131,13.692-18.405,2.514-1.181,5.771-1.617,9.216-2.083,6.86-.921,14.635-1.969,18.078-9.579.856-1.782.878-3.274.049-4.4-1.688-2.3-6.018-1.676-9.509-1.171a18.513,18.513,0,0,1-2.076.245c-11.219.252-26.843,2.786-32.583,6.44-4.469,2.915-7.577,9.743-10.319,15.768-1.006,2.211-1.957,4.3-2.84,5.86-7.043,12.618-28.031,41.207-32.24,41.973a1.486,1.486,0,0,0-1.2,1.731A1.489,1.489,0,0,0,2994.88-506.608Z" transform="translate(-2887.071 884.96)" fill="#2e2020"/><path d="M3259.925-404.054a1.482,1.482,0,0,0,.851-.269c7.691-5.383,11.207-16.27,14.034-25.015l.187-.574c.662-1.986,2.694-8.067-.735-10.809-4.507-3.307-9.422-1.462-13.372.017-10.339,3.535-17.417,7.218-25.2,13.117-.448.337-1.14.773-1.933,1.278-3.734,2.374-6.878,4.534-7.545,6.966a2.8,2.8,0,0,0,.271,2.211c.822,1.416,2.7,2.025,4.037,2.357,4.447.89,9.1-.931,12.238-2.616a37.755,37.755,0,0,0,3.91-2.364,26.879,26.879,0,0,1,4.4-2.538c1.8-.846,3.845-.815,6.032-.788,2.573.048,5.24.072,7.749-1.256a1.492,1.492,0,0,0,.619-2.015,1.484,1.484,0,0,0-2.015-.618c-1.835.97-4.008.941-6.313.912-2.425-.046-4.917-.067-7.279,1.043a29.523,29.523,0,0,0-4.832,2.776,34.814,34.814,0,0,1-3.64,2.2c-2.25,1.212-6.507,3.1-10.212,2.357-1.821-.456-2.107-.94-2.11-.945.439-1.45,4.246-3.87,6.292-5.17.873-.555,1.626-1.038,2.129-1.411,7.519-5.7,14.364-9.255,24.416-12.7,4.343-1.625,7.616-2.609,10.554-.456.624.5,1.489,2.2-.286,7.514l-.189.589c-2.689,8.324-6.037,18.68-12.906,23.493a1.486,1.486,0,0,0-.367,2.073A1.483,1.483,0,0,0,3259.925-404.054Z" transform="translate(-2993.209 822.129)" fill="#2e2020"/><path d="M3209.536-430.5c3.994,0,7.875-1.569,11.328-2.965l.951-.381a1.494,1.494,0,0,0,.832-1.937,1.5,1.5,0,0,0-1.937-.832l-.963.388c-3.411,1.38-7.279,2.927-10.811,2.737a3.773,3.773,0,0,1-2.529-1.411c-.042-.089-.124-.276.184-.717,1.287-1.857,4.182-3.615,6.736-5.167a46.745,46.745,0,0,0,4.127-2.7c1.585-1.171,3.2-2.39,4.83-3.617,8.847-6.668,17.993-13.561,28.284-17.266,4.148-1.481,9.987-1.66,12.171.638,1.164,1.224,1.2,3.186.1,5.831-.306.815-.512,1.392-.669,1.833-.4,1.12-.4,1.12-.892,1.585-.216.2-.487.458-.844.817a1.486,1.486,0,0,0,0,2.1,1.486,1.486,0,0,0,2.1,0c.332-.33.584-.567.783-.754a5.033,5.033,0,0,0,1.653-2.752c.156-.432.356-.992.635-1.741,1.962-4.728.7-7.495-.71-8.976-3.2-3.37-10.145-3.246-15.338-1.391-10.717,3.857-20.047,10.891-29.069,17.692-1.619,1.222-3.229,2.434-4.832,3.618a45.578,45.578,0,0,1-3.879,2.531c-2.946,1.789-5.989,3.639-7.633,6.01a3.6,3.6,0,0,0-.463,3.627c.822,1.852,3.157,2.941,4.98,3.169C3208.954-430.506,3209.245-430.5,3209.536-430.5Z" transform="translate(-2982.851 833.939)" fill="#2e2020"/><path d="M3210.536-452.781c2.813,0,6.646-2.1,9.764-4.185a169.54,169.54,0,0,0,13.561-10.2c3.446-2.759,7.723-6.181,13.588-10.722a1.49,1.49,0,0,0,.266-2.09,1.492,1.492,0,0,0-2.09-.267c-5.882,4.554-10.171,7.987-13.627,10.751a165.957,165.957,0,0,1-13.342,10.038c-4.6,3.075-7.96,4.105-8.562,3.669-.557-.633,1.091-4.352,4.068-7.923,7.456-9.66,13.77-16.827,22.3-22.826,4.095-2.958,9.907-2.958,15.035-2.958a36.085,36.085,0,0,0,4.211-.368c3.278-.4,7.352-.909,8.78.628.672.723.82,2.042.446,3.921-.279,1.656-.422,2.694-.522,3.411a4.428,4.428,0,0,1-.732,2.306l-.584,1.067a1.488,1.488,0,0,0,.606,2.017,1.49,1.49,0,0,0,2.017-.606l.565-1.031a6.761,6.761,0,0,0,1.079-3.346c.1-.7.238-1.712.5-3.283.565-2.822.167-5.019-1.193-6.484-2.461-2.65-7.177-2.068-11.328-1.557a34.877,34.877,0,0,1-3.845.347c-5.3,0-11.905,0-16.764,3.509-8.828,6.2-15.309,13.551-22.9,23.39-1.613,1.93-6.76,8.62-3.908,11.829A3.521,3.521,0,0,0,3210.536-452.781Z" transform="translate(-2984.54 845.245)" fill="#2e2020"/><path d="M3283.045-516.337a1.484,1.484,0,0,0,1.052-.437,16.826,16.826,0,0,0,3.387-5.987c.283-.715.57-1.44.89-2.146,1.942-4.078,4.26-14.167,1.053-20a8.5,8.5,0,0,0-6.7-4.437c-4.433-.47-9.18,2.934-12.987,5.667-.776.557-1.505,1.081-2.17,1.525a22.721,22.721,0,0,0-5.645,5.78c-.381.5-.759.994-1.149,1.479-.529.517-1.105,1.156-1.68,1.8-.541.6-1.082,1.2-1.683,1.807-3.327,3.772-4.318,7.113-2.784,9.23.88,1.22,3.31,2.849,9.636.144a22.066,22.066,0,0,0,6.314-4.307,35.737,35.737,0,0,1,3.135-2.541,27.386,27.386,0,0,1,4.028-1.848,21.371,21.371,0,0,0,6.806-3.741,1.49,1.49,0,0,0,.092-2.1,1.493,1.493,0,0,0-2.1-.092,18.8,18.8,0,0,1-5.9,3.169,29.624,29.624,0,0,0-4.553,2.124,37.773,37.773,0,0,0-3.469,2.791,19.376,19.376,0,0,1-5.49,3.795c-4.2,1.8-5.817,1.234-6.083.863-.422-.582.087-2.657,2.541-5.446.574-.57,1.152-1.21,1.726-1.85.541-.6,1.081-1.2,1.683-1.806.514-.625.907-1.14,1.3-1.651a20.226,20.226,0,0,1,4.906-5.1c.717-.478,1.474-1.021,2.281-1.6,3.215-2.31,7.613-5.47,10.913-5.126a5.477,5.477,0,0,1,4.425,2.912c2.531,4.609.63,13.582-1.144,17.312-.351.773-.657,1.542-.96,2.3a14.526,14.526,0,0,1-2.721,4.98,1.486,1.486,0,0,0,0,2.1A1.484,1.484,0,0,0,3283.045-516.337Z" transform="translate(-3005.904 870.851)" fill="#2e2020"/><path d="M3288.873-500.062a1.486,1.486,0,0,0,1.479-1.341c.25-2.488.5-5.222.747-7.96a1.491,1.491,0,0,0-1.351-1.617,1.517,1.517,0,0,0-1.617,1.35c-.247,2.728-.5,5.453-.742,7.931a1.486,1.486,0,0,0,1.334,1.63C3288.773-500.065,3288.822-500.062,3288.873-500.062Z" transform="translate(-3021.163 853.334)" fill="#2e2020"/><path d="M2947.5-483.055a1.489,1.489,0,0,0,1.489-1.489c0-9.305-4.527-20.6-8.52-30.563-1.491-3.719-2.9-7.23-3.972-10.387a1.49,1.49,0,0,0-1.892-.931,1.494,1.494,0,0,0-.931,1.892c1.1,3.229,2.522,6.779,4.028,10.534,3.894,9.716,8.309,20.726,8.309,29.455A1.489,1.489,0,0,0,2947.5-483.055Z" transform="translate(-2859.794 860.412)" fill="#2e2020"/><path d="M2945.58-310.1a1.492,1.492,0,0,0,1.443-1.118c3.256-12.555,9.48-46.74,9.48-62.694a1.489,1.489,0,0,0-1.489-1.489,1.49,1.49,0,0,0-1.489,1.489c0,15.13-6.09,49.232-9.388,61.947a1.49,1.49,0,0,0,1.069,1.816A1.515,1.515,0,0,0,2945.58-310.1Z" transform="translate(-2864.583 791.493)" fill="#2e2020"/><path d="M3113.179-774.687a30.123,30.123,0,0,0,24.181-11.859,32.844,32.844,0,0,0,4.884-30.65,1.485,1.485,0,0,0-1.887-.936,1.487,1.487,0,0,0-.936,1.886,29.88,29.88,0,0,1-4.42,27.878,27.276,27.276,0,0,1-23.861,10.63c-14.814-1.021-28.053-12.606-34.888-22.217-.7-.989-1.562-2.066-2.476-3.2-2.9-3.61-6.188-7.7-6.188-11.578a1.49,1.49,0,0,0-1.489-1.489,1.489,1.489,0,0,0-1.488,1.489c0,4.922,3.794,9.647,6.842,13.442.873,1.086,1.7,2.112,2.367,3.06,7.216,10.147,21.261,22.377,37.116,23.468C3111.688-774.714,3112.437-774.687,3113.179-774.687Z" transform="translate(-2919.555 993.464)" fill="#2e2020"/><path d="M3188.722-757.955a8.906,8.906,0,0,0,1.375-.107c.546-.063,2.354-.276,5.441-5.465,5.05-8.494,11.054-27,5.649-40.506a1.485,1.485,0,0,0-1.935-.829,1.487,1.487,0,0,0-.829,1.935c4.109,10.278,1.014,24.969-3.882,34.968-2.388,4.881-4.316,6.792-4.876,6.951-3.734.585-6.937-2.357-10.329-5.45-3.094-2.82-6.292-5.736-10.07-5.736a1.489,1.489,0,0,0-1.489,1.489,1.489,1.489,0,0,0,1.489,1.489c2.624,0,5.264,2.41,8.063,4.961C3180.585-761.286,3184.237-757.955,3188.722-757.955Z" transform="translate(-2966.611 987.425)" fill="#2e2020"/><path d="M3082.178-752.311c4.285,0,9.7-4.905,14.526-9.269,2.366-2.141,5.584-5.053,6.677-5.266a1.488,1.488,0,0,0,1.821-.742,1.494,1.494,0,0,0-.666-2c-2.1-1.05-4.677,1.135-9.83,5.8-4.212,3.812-10.014,9.008-12.9,8.472-4.881-1.062-25.243-22.809-31.62-45.37a1.488,1.488,0,0,0-1.838-1.029,1.488,1.488,0,0,0-1.029,1.838c6.363,22.517,26.892,45.957,33.887,47.477A5.182,5.182,0,0,0,3082.178-752.311Z" transform="translate(-2911.641 985.966)" fill="#2e2020"/><path d="M3227.293-1017.072a1.521,1.521,0,0,0,.248-.021,11.257,11.257,0,0,0,8.234-5.624c4.253-7.286,1.938-18.666.119-23.666-1.586-4.5-4.721-7.9-7.754-11.18-2.955-3.2-5.749-6.229-7.138-10.159-1.4-4.064-1.193-8.235-.978-12.653a44.241,44.241,0,0,0-.458-11.493c-2.774-14.125-14.621-31.453-26.967-39.426-11.924-7.705-26.826-10.97-37.089-8.13a18.609,18.609,0,0,0-12.228,9.718,1.488,1.488,0,0,0,.679,1.995,1.493,1.493,0,0,0,1.993-.68,15.532,15.532,0,0,1,10.351-8.161c9.5-2.631,23.429.491,34.68,7.761,11.75,7.589,23.022,24.069,25.662,37.52a41.366,41.366,0,0,1,.4,10.752c-.22,4.5-.446,9.16,1.139,13.777,1.6,4.521,4.731,7.916,7.762,11.2,2.958,3.2,5.754,6.231,7.141,10.164,1.925,5.3,3.54,15.286.111,21.159a8.3,8.3,0,0,1-6.151,4.187,1.49,1.49,0,0,0-1.225,1.714A1.489,1.489,0,0,0,3227.293-1017.072Z" transform="translate(-2955.367 1140.436)" fill="#2e2020"/><path d="M3255.363-883.675a10.227,10.227,0,0,0,4.7-1.2,1.487,1.487,0,0,0,.635-2.007,1.486,1.486,0,0,0-2.007-.635c-2.839,1.471-5.305.892-6.488-.344-1.256-1.312-1.249-3.332.024-5.536,1.855-3.38,5.373-4.861,9.1-6.428,4.134-1.739,8.409-3.535,10.792-8.018,2.965-5.126,3.149-10.444,2.9-15.422-.231-3.706-1.831-7.159-2.891-9.444l-.463-1.017a1.494,1.494,0,0,0-1.966-.758,1.491,1.491,0,0,0-.759,1.965l.484,1.061c1.023,2.208,2.423,5.231,2.619,8.359.223,4.5.073,9.309-2.534,13.811-1.908,3.593-5.518,5.111-9.339,6.719-4.032,1.7-8.2,3.448-10.54,7.713-1.906,3.305-1.753,6.787.421,9.056A7.233,7.233,0,0,0,3255.363-883.675Z" transform="translate(-3003.339 1046.557)" fill="#2e2020"/><path d="M3218.457-841.69c3.63,0,7.994-1.067,10.668-4.122a9.6,9.6,0,0,0,1.944-8.649,1.5,1.5,0,0,0-1.765-1.149,1.491,1.491,0,0,0-1.149,1.766,6.657,6.657,0,0,1-1.271,6.071c-1.894,2.161-5.647,3.363-9.573,3.06a1.521,1.521,0,0,0-1.6,1.372,1.493,1.493,0,0,0,1.372,1.6Q3217.746-841.69,3218.457-841.69Z" transform="translate(-2988.472 1010.537)" fill="#2e2020"/><path d="M3012.121-1044.524a8.851,8.851,0,0,0,5.938-2.124c5.715-4.893,5.693-16.946,5.679-24.922,0-1.833-.007-3.4.07-4.523.568-6.1,6.665-33.271,24.161-44.231,8.964-5.615,19.625-6.17,31.678-1.65a1.492,1.492,0,0,0,1.917-.873,1.49,1.49,0,0,0-.87-1.918c-12.967-4.863-24.511-4.218-34.306,1.916-18.708,11.719-24.913,39.672-25.551,46.515-.085,1.238-.083,2.874-.077,4.77.012,6.977.034,18.653-4.639,22.652a6.419,6.419,0,0,1-5.484,1.285,1.488,1.488,0,0,0-1.7,1.239,1.49,1.49,0,0,0,1.239,1.7A12.555,12.555,0,0,0,3012.121-1044.524Z" transform="translate(-2894.15 1134.758)" fill="#2e2020"/><path d="M3021.034-906.819a8.011,8.011,0,0,0,5.206-2.01,5.591,5.591,0,0,0,1.777-5.911c-1.423-4.905-4.91-8.082-8.28-11.151a31.975,31.975,0,0,1-6.032-6.59c-8.482-14.042,1.445-31.016,4.688-35.883a1.49,1.49,0,0,0-.412-2.066,1.487,1.487,0,0,0-2.066.412c-3.491,5.237-14.15,23.532-4.755,39.087a34.667,34.667,0,0,0,6.568,7.241c3.208,2.922,6.238,5.681,7.429,9.783a2.628,2.628,0,0,1-.906,2.859,4.592,4.592,0,0,1-4.289,1.062,1.492,1.492,0,0,0-1.947.8,1.486,1.486,0,0,0,.8,1.947A5.772,5.772,0,0,0,3021.034-906.819Z" transform="translate(-2893.451 1063.009)" fill="#2e2020"/><path d="M3074.768-874.421c.031,0,.063,0,.094,0a25.32,25.32,0,0,0,10.756-2.635c4.534-2.35,7.257-5.238,8.338-8.84,2-6.641-2.206-14.17-6.27-21.45-3.053-5.471-6.212-11.128-6.212-15.735a1.49,1.49,0,0,0-1.489-1.49,1.49,1.49,0,0,0-1.489,1.49c0,5.382,3.349,11.383,6.587,17.187,3.761,6.739,7.65,13.7,6.018,19.141-.839,2.789-3.074,5.092-6.837,7.039a22.324,22.324,0,0,1-9.587,2.32,1.488,1.488,0,0,0-1.395,1.578A1.489,1.489,0,0,0,3074.768-874.421Z" transform="translate(-2923.509 1041.978)" fill="#2e2020"/><path d="M3048.667-848.762a12.342,12.342,0,0,0,7.9-2.643,6.548,6.548,0,0,0,1.913-7.31,1.493,1.493,0,0,0-1.874-.963,1.49,1.49,0,0,0-.963,1.874,3.592,3.592,0,0,1-1.04,4.158,9.875,9.875,0,0,1-9.318,1.239,1.5,1.5,0,0,0-1.983.708,1.486,1.486,0,0,0,.708,1.984A10.969,10.969,0,0,0,3048.667-848.762Z" transform="translate(-2909.767 1012.41)" fill="#2e2020"/><path d="M3160.947-1020.685a1.484,1.484,0,0,0,.989-.377,1.488,1.488,0,0,0,.124-2.1c-4.405-4.953-15.666-5.833-23.17-1.813a1.491,1.491,0,0,0-.611,2.016,1.491,1.491,0,0,0,2.017.61c6.326-3.388,16-2.81,19.538,1.168A1.486,1.486,0,0,0,3160.947-1020.685Z" transform="translate(-2953.075 1088.929)" fill="#2e2020"/><path d="M3228.485-1015.6a1.484,1.484,0,0,0,.97-.358,1.493,1.493,0,0,0,.163-2.1c-3.39-3.953-13.683-5.081-17.477-1.914a1.49,1.49,0,0,0-.191,2.1,1.5,1.5,0,0,0,2.1.19c2.347-1.954,10.826-1.333,13.307,1.563A1.489,1.489,0,0,0,3228.485-1015.6Z" transform="translate(-2986.6 1086.327)" fill="#2e2020"/><path d="M3175.027-903.838c-4.871-.5-8.763-3.88-10.684-9.273-1.275-3.592-1.566-8.229.345-10.142.621-.619.87-.6,5.116-.159,2.408.247,5.706.586,8.663.714,1.635.066,3.182.079,4.578.091,4.9.041,7.863.067,8.253,2.393a.953.953,0,0,1,.015.117c.341,3.943-1.731,8.971-5.041,12.229a13.7,13.7,0,0,1-9.73,4.11A14.884,14.884,0,0,1,3175.027-903.838Zm7.994-15.791c-1.426-.012-3-.026-4.68-.092-3.047-.134-6.4-.478-8.84-.729-1.067-.109-2.236-.229-2.937-.279a11.3,11.3,0,0,0,.587,6.618c.718,2.02,2.953,6.773,8.181,7.309a10.792,10.792,0,0,0,8.85-3.189,14.012,14.012,0,0,0,4.187-9.351A32.353,32.353,0,0,0,3183.021-919.629Z" transform="translate(-2964.578 1041.594)" fill="#2e2020"/><path d="M3148.6-974.675s1.933-4.761,6.456-4.761,5.829,6.22,5.829,6.22" transform="translate(-2957.865 1067.001)" fill="none" stroke="#2e2020" stroke-linecap="round" stroke-linejoin="round" stroke-width="4" fill-rule="evenodd"/><path d="M3218.793-971.639s1.933-4.761,6.456-4.761,5.829,6.22,5.829,6.22" transform="translate(-2989.879 1065.617)" fill="none" stroke="#2e2020" stroke-linecap="round" stroke-linejoin="round" stroke-width="4" fill-rule="evenodd"/></g><ellipse cx="8.545" cy="7.676" rx="8.545" ry="7.676" transform="translate(2979.56 -1039.149)" fill="#f75b2b" opacity="0.46"/><circle cx="7.216" cy="7.216" r="7.216" transform="translate(3025.142 -1038.689)" fill="#f75b2b" opacity="0.46"/></g></g></svg>