<svg xmlns="http://www.w3.org/2000/svg" xmlns:xlink="http://www.w3.org/1999/xlink" width="229" height="273" viewBox="0 0 229 273"><defs><clipPath id="a"><rect width="229" height="273" rx="105" transform="translate(703 10021)" fill="#fff" stroke="#707070" stroke-width="1"/></clipPath></defs><g transform="translate(-703 -10021)" clip-path="url(#a)"><g transform="translate(-1287.715 11187.247)"><g transform="translate(1937.621 -1137.033)"><path d="M2299.63-767.291c-18.074-28.263-39.471-54.311-56.982-82.913-8.816-14.4-19.724-21.814-23.878-22.326-21.872-4.241-37.692-8.712-56.58-12.495,9.439,22.52-21.993,49.866-37.7,58.192-5.582,2.934-18.125-10.187-22.207-18.892-6.461-13.781-5.749-32.622-7.592-37.2-4.124,4.361-8.163,11.228-5.362,17.383-9.49-3.47-14.868-11.266-17.864-20.51-3.069,5.221-6.657,10.71-12.951,12.266,2.867-2.885,3.2-7.6,1.848-11.438-13.57,3.762-27.218,7.089-40.715,11.812,8.646-19.689,16.882-40.026,28.175-58.025-6.174-5.626-20.453-20.319-29.5-25.7-1.641,6.359-112.98,128.757-67.435,152.106,5.613,8.854,68.3-1.863,96.494-2.731.045.059.074.133.119.207-11.067,36.394-14.19,49.515-2.123,87.092,6.9,30.943,2.134,63.211.263,94.74,40.115,10.62,165.681,10.417,203.183-1.094,16.873-13.63,32.232-29.111,47.488-44.5C2334.208-706.243,2325.32-724.438,2299.63-767.291Zm-85.97-17c.385.772.706,1.573,1.078,2.348a5.85,5.85,0,0,0-2.1-.325A5.566,5.566,0,0,1,2213.66-784.288Zm53.558,71.084c-16.769,23.525-33.852,40.942-48.091,64.132-3.414,4.729-6.254,10.774-10.663,15.075-.074-.118-.162-.221-.236-.34l.591-.044c-1.163-12.222-11.586-32.278-13.585-46-3.333-24.233,16.06-68.424,25.132-91.963l-.886-.252a7.024,7.024,0,0,0,.221-.739C2230-757.907,2261.262-724.01,2267.218-713.2Z" transform="translate(-1938.813 1044.852)" fill="#8590aa"/><path d="M2201.536-876.588c-.281.123-.558.245-.824.352a1.2,1.2,0,0,1,.824-.352,100.588,100.588,0,0,0,10.807-5.982c.011-.085.031-.17.039-.255a11.573,11.573,0,0,0-.307-3.815,2.7,2.7,0,0,0-1.211.117c-5.139-1.405-16.99-1.312-31.7-23.59-7.314-9.557-8.4-23.337-16.578-32.378-.1-.092-.19-.189-.286-.283a7.225,7.225,0,0,1-2.5,4.18c-.182.23-.365.459-.558.679-.021.028-.04.058-.061.086a19.607,19.607,0,0,1-4.167,3.939l-.162.144a.624.624,0,0,1-.085.14,18.649,18.649,0,0,1-1.989,1.879c.091.841-.784,1.563-1.882,1.92.553.5,1.1,1,1.638,1.507a25.039,25.039,0,0,1,2.371,2.288,3.1,3.1,0,0,1,.729,1.933,4.2,4.2,0,0,1-.011.457,7.768,7.768,0,0,1-.514,2.025,32.47,32.47,0,0,1-4.273,8.1,20.65,20.65,0,0,0,.608,11.21c1.353,3.7,3.922,6.808,6.444,9.836l3.833,4.6c2.552,3.064,5.151,6.222,6.454,9.987.013.04.031.079.046.119,1.287,3.819.948,8.462-1.894,11.319a17.565,17.565,0,0,0,8.841-5.941c.386-.527.738-1.077,1.091-1.626q1.511-2.349,3.019-4.7c.95,2.276,1.844,4.429,2.869,6.672a29.232,29.232,0,0,0,2.814,5.153c2.967,4.074,7.664,6.454,12.181,8.686-.831-2.881-1.618-6.094-.267-8.77.578-1.143,3.732-6.8,4.65-7.69.359-.349.679-.648.98-.922C2202.244-876.217,2201.928-876.566,2201.536-876.588Z" transform="translate(-2046.626 1037.49)" fill="#f16361"/><path d="M2197.167-1118.821a58.393,58.393,0,0,1,6.415-.581,10.936,10.936,0,0,1,4.365.522,4.252,4.252,0,0,1,2.775,3.18c1.919-.56,4.277-1.016,5.678.41a3.546,3.546,0,0,1,.736,3.363,6.889,6.889,0,0,1-1.911,3c-2.518,2.509-5.919,3.9-9.279,5.058a107.255,107.255,0,0,1-15.182,4.023,8.139,8.139,0,0,0-3.032.98,7.433,7.433,0,0,0-1.545,1.5,81.816,81.816,0,0,0-9,13.127l.1-.035q4.738-3.342,9.659-6.416a23.833,23.833,0,0,1,7.531-3.491,25.293,25.293,0,0,1,5.837-.3l1.186.031a18.7,18.7,0,0,1,4.553.12l12.317.325a2,2,0,0,1,.937.178,1.183,1.183,0,0,1,.5.584c2.124.775,2.5,2.249-1.64,4.982-.478.2-.961.374-1.445.549a13.868,13.868,0,0,1-1.782.9,35.944,35.944,0,0,1-12.407,2.759,33.685,33.685,0,0,0-10.94,4.65c-.35.242-.7.478-1.045.744,6.343,4.662,13.913,5.3,21.755,6.164,2.944.6,6.013,1.855,8.761.638q.769.644,1.561,1.231c7.661,5.718,16.664,7.736,26.278,7.072a6.345,6.345,0,0,0,1.362,1.02,5.319,5.319,0,0,0,3.173.595c6.126-.616,13.051-9.477,19.01.759.921,3.6,2.723,6.735,2.747,10.04a8.753,8.753,0,0,1-1.467,4.9,19.564,19.564,0,0,1-4.169,5.81c-1.168,1.185-2.418,2.293-3.644,3.379a3.114,3.114,0,0,0,.523,2.047c.308.531.688,1.033,1,1.488a3.1,3.1,0,0,1-.022,3.322c-.715,1.494-1.993,3-2.409,4.36-3.594,8.818-1.214,20.665,4.249,28.155a20.263,20.263,0,0,0,7.366,8.58c9.456,6.48,24.251,7.334,31.722-.891a14.807,14.807,0,0,1-9.167-2.789c13.457-2.067,17.322-16.293,16.906-28.045a.841.841,0,0,0,.8.4c1.23-12.658-7.649-22.351-13.58-32.452a21.224,21.224,0,0,0,14.512.045c-17.165-1.792,2.752-31.279-24.3-44.528a18.675,18.675,0,0,0,8.708-9.066c-21.186,8.965-29.315-19.025-45.883-24.719-20.243-5.994-46.375-5.248-61.107,11.7a9.269,9.269,0,0,1,1.277.4Q2196.83-1118.921,2197.167-1118.821Z" transform="translate(-2060.381 1135.752)" fill="#f16361"/><path d="M2250.816-960.319c-3.315-3.866-5.045-8.634-7.143-13.154-11.622-9-18.016-28.165-9.206-41.1-.245-2.34-1.234-4.614-1.5-6.857,15.811-9.322,8.336-38.336-10.147-24.333-13.226-3.384-24.416.693-34.7-10.479-9.944.233-21.979-1.34-30.515-6.8.344-.265.695-.5,1.045-.743-.172-.026-.345-.053-.516-.081,7.288-6.667,17.486-3.282,25.647-8.233,2.313-.968,5.238-5.7,1.65-6.293-7.945.052-16-1.01-23.893-.178-6.452,1.775-11.757,6.426-17.317,9.993,3.806-5.388,6.717-13.957,13.606-15.663,8.883-2.508,21.55-3.169,26.373-12.083,1.057-3.986-3.3-5.11-6.414-3.774-1.623-5.647-9.319-3.37-13.671-3.107-6.738-2.463-14.12.976-20.973,1.723-13.406,1.028-16.637,16.339-23.186,25.718-7.534,13.275-1.681,29.927-6.828,43.882-2.307,6.058,14.2,14.571,18.008,19.544,3.971-4.2,10.56-7.43,11.515-13.578,8.891,8.961,9.792,23.324,17.332,33.144,14.711,22.278,26.562,22.185,31.7,23.59,1.4-.416,3.021.019,3.236,2.842a108.55,108.55,0,0,1-12.563,7.094c4.033,4.91,1.263,23.529,8.562,38.224,4.08,8.705,16.623,21.826,22.2,18.892C2228.817-910.428,2260.255-937.816,2250.816-960.319Z" transform="translate(-2027.44 1120.146)" fill="#ffd6ba"/><path d="M2253.519-973.88c-2.034.652-2.975,3.38-2.1,6.092s3.227,4.38,5.26,3.726,2.976-3.381,2.1-6.092S2255.553-974.535,2253.519-973.88Z" transform="translate(-2098.251 1053.502)"/><path d="M2198.343-947.314c-1.89.407-2.843,2.961-2.125,5.7s2.83,4.638,4.721,4.232,2.843-2.962,2.126-5.7S2200.234-947.72,2198.343-947.314Z" transform="translate(-2070.01 1039.844)"/><path d="M2348.137-964.942a1.338,1.338,0,0,0,.695-.194c7.77-4.693,11.266-12.309,9.595-20.894a12.59,12.59,0,0,0-7.841-9.342c-4-1.445-8.312-.512-12.152,2.627a1.348,1.348,0,0,0-.191,1.9,1.348,1.348,0,0,0,1.9.191c3.076-2.514,6.46-3.291,9.53-2.18a9.846,9.846,0,0,1,6.111,7.322c.848,4.355.891,12.494-8.342,18.071a1.347,1.347,0,0,0-.457,1.85A1.345,1.345,0,0,0,2348.137-964.942Z" transform="translate(-2142.754 1064.782)"/><path d="M2355.674-969.815a1.346,1.346,0,0,0,.247-1.889,1.346,1.346,0,0,0-1.89-.247c-2.379,1.828-2.994,5.979-3.057,6.447a1.347,1.347,0,0,0,1.156,1.514,1.427,1.427,0,0,0,.18.012,1.35,1.35,0,0,0,1.335-1.17C2353.765-966.045,2354.4-968.831,2355.674-969.815Z" transform="translate(-2149.427 1052.584)"/><path d="M2218.39-935.511a17.248,17.248,0,0,0,5.643,3.228,1.345,1.345,0,0,0,.494.094,1.349,1.349,0,0,0,1.254-.855,1.348,1.348,0,0,0-.761-1.747,14.909,14.909,0,0,1-4.765-2.665,3.641,3.641,0,0,1-.91-4.424c2.934-7.47.99-13.65-5.944-18.894a1.346,1.346,0,0,0-1.888.262,1.347,1.347,0,0,0,.261,1.887c5.919,4.476,7.527,9.483,5.062,15.759A6.335,6.335,0,0,0,2218.39-935.511Z" transform="translate(-2077.831 1046.854)"/><path d="M2242.971-1000.593c-3.469-.624-8.666.333-13.25,1.175a46.684,46.684,0,0,1-6.641.951,1.348,1.348,0,0,0-1.348,1.348,1.348,1.348,0,0,0,1.348,1.348,46.677,46.677,0,0,0,7.129-1c4.141-.761,9.294-1.707,12.288-1.174a1.349,1.349,0,0,0,1.564-1.09A1.347,1.347,0,0,0,2242.971-1000.593Z" transform="translate(-2083.207 1067.221)"/><path d="M2240.8-885.416a1.343,1.343,0,0,0,.841-.3,21.077,21.077,0,0,1,14.048-4.539,1.357,1.357,0,0,0,1.413-1.278,1.347,1.347,0,0,0-1.279-1.413,23.829,23.829,0,0,0-15.867,5.126,1.348,1.348,0,0,0-.209,1.895A1.342,1.342,0,0,0,2240.8-885.416Z" transform="translate(-2092.289 1011.97)"/><path d="M2299.567-860.207c-8.366-13.073-17.579-25.875-26.489-38.254-10.361-14.4-21.075-29.28-30.477-44.634-9.277-15.149-20.657-21.987-24.715-22.924-1.541-.357-3.981-.931-7-1.643-22.07-5.194-45.848-10.727-49.713-10.885a79.175,79.175,0,0,1-3.774-8.629c.36.169.72.342,1.087.5a29.861,29.861,0,0,0,11.494,2.272,27,27,0,0,0,17.916-6.362,1.348,1.348,0,0,0,.283-1.655,1.348,1.348,0,0,0-1.551-.646,9.843,9.843,0,0,1-6.857-.776c4.652-.84,10.232-7.785,11.656-10.721a40.837,40.837,0,0,0-4.371-42.1c-.474-.608-.967-1.2-1.461-1.8a23.093,23.093,0,0,1-3.783-5.571,28.31,28.31,0,0,1-1.406-5.378c-.754-3.884-1.534-7.9-5.073-10a1.348,1.348,0,0,0-1.846.471,1.348,1.348,0,0,0,.47,1.847c2.5,1.484,3.132,4.745,3.8,8.2a30.06,30.06,0,0,0,1.566,5.906,25.411,25.411,0,0,0,4.192,6.248c.476.576.953,1.152,1.41,1.739,8.394,10.771,10.068,26.919,4.074,39.267-1.474,3.037-5.62,7.494-8.522,8.87a21.164,21.164,0,0,0,1.074-15.533c-1.537-5.086-4.723-10.007-9.737-15.043a1.347,1.347,0,0,0-1.907,0,1.348,1.348,0,0,0,0,1.906c4.7,4.715,7.661,9.269,9.068,13.921,1.7,5.641.892,11.593-2.118,15.534a1.275,1.275,0,0,0-.083.171,1.29,1.29,0,0,0-.09.141c-3.125-2.5-5.385-6.12-5.741-9.37a1.341,1.341,0,0,0-1.485-1.194,1.349,1.349,0,0,0-1.194,1.486c.483,4.422,3.613,9.175,7.975,12.109a15.5,15.5,0,0,0,6.2,2.541,27.324,27.324,0,0,1-22.917,1.043,29.049,29.049,0,0,1-16.761-20.138c-1.842-8.11-.294-17.24,4.359-25.709a1.348,1.348,0,0,0-.533-1.83,1.35,1.35,0,0,0-1.831.532c-4.969,9.047-6.611,18.85-4.625,27.6a32.009,32.009,0,0,0,13.75,19.593,1.177,1.177,0,0,0,.033.246c1.471,4.247,5.178,14.169,8.1,15.482-1.652,8.97-3.933,20.989-9.044,27.842-4.779,6.405-12.98,15.118-20.525,20.141-2.245,1.494-3.9,2.453-5.987,3.668-1.2.7-2.564,1.49-4.282,2.523-23.484-10.217-26.392-36.909-26.44-56.4a18.215,18.215,0,0,1,6.25-3.6,131.269,131.269,0,0,1-.163,18.884,1.349,1.349,0,0,0,1.236,1.452c.037,0,.073,0,.109,0a1.349,1.349,0,0,0,1.342-1.24,144.123,144.123,0,0,0,.356-16.663c4.072-2.063,16.5-8.794,21.563-16.529,4.462-6.816,5.812-15.374,6.219-19.488.037-.057.079-.117.116-.173a42.285,42.285,0,0,0,6.13-16.059,1.347,1.347,0,0,0-1.12-1.542,1.349,1.349,0,0,0-1.541,1.12,39.629,39.629,0,0,1-5.739,15.028c-6.525,10.193-20.347,23.4-29.076,25.811-5.068,1.406-13.638-3.777-24.135-14.578-5.234-5.386-9.679-12.046-11.6-17.381-.808-2.245-1.4-4.411-1.962-6.505a53.223,53.223,0,0,0-2.866-8.6,59.232,59.232,0,0,0-4.922-7.927c-.287-.409-.533-.762-.723-1.041a1.317,1.317,0,0,0-.173-.169c.465-2.191.877-4.334,1.245-6.449a1.3,1.3,0,0,0,.275-.147c.188-.145,4.618-3.61,6.157-7.567a1.348,1.348,0,0,0-.767-1.745,1.346,1.346,0,0,0-1.744.768,14.6,14.6,0,0,1-3.227,4.536c.27-1.7.534-3.4.8-5.131.658-4.3,1.341-8.762,2.29-13.951,1.658-2.094,4.4-3.249,6.84-4.264.279-.116.645-.3,1.061-.513a1.329,1.329,0,0,0,.751,1.426c9.97,4.541,20.5,5.68,28.473,5.7,5.934,6.352,15.873,8.935,23.663,8.935,4.169,0,7.723-.738,9.714-2.031a1.35,1.35,0,0,0,.4-1.865,1.349,1.349,0,0,0-1.865-.4c-3.931,2.555-19.175,2.53-28.05-4.719a69.386,69.386,0,0,0,9.215-.941,1.348,1.348,0,0,0,1.073-1.576,1.345,1.345,0,0,0-1.576-1.073c-.213.04-21.457,3.922-39.927-4.488,2.294-1.327,5.043-3.042,6.063-3.682,3.864.314,9.969-.98,14.531-2.368a1.3,1.3,0,0,0,.375.68c6.589,6.016,16.174,9.219,27.1,9.219a60.528,60.528,0,0,0,9.051-.7,1.347,1.347,0,0,0,1.131-1.534,1.345,1.345,0,0,0-1.533-1.131c-13.53,2.05-25.665-.664-33.441-7.427a12.679,12.679,0,0,0,3.164-1.487,7.871,7.871,0,0,0,2.913-5.508,2.773,2.773,0,0,0-.332-1.546,3.06,3.06,0,0,0-2.853-1.22l-24.078.66a4.49,4.49,0,0,0-2.174.629c-1.486.887-6.846,4.082-12.139,7.191,3.156-3.429,6.176-6.991,8.99-10.683l.7-.113c6.988-.793,24.587-7.891,26.314-9.838a7.387,7.387,0,0,0,1.9-6.57,3.4,3.4,0,0,0-1.858-2.439,3.933,3.933,0,0,0-2.185-.158c-.865.123-1.739.263-2.621.413a3.073,3.073,0,0,0-.013-.436,3.676,3.676,0,0,0-1.4-2.422,6.321,6.321,0,0,0-3.689-1.062,34.808,34.808,0,0,0-7.225.548,1.335,1.335,0,0,0-.353-.279,8.043,8.043,0,0,0-.972-.41c11.217-11.928,31.983-12.607,40.746-12.308,7.288.251,14.883.983,21.059,4.611,4.537,2.665,7.983,6.626,11.628,10.821a88.322,88.322,0,0,0,6.871,7.317c5.87,5.369,14.748,8.728,21.674,6.126a11.994,11.994,0,0,1-5.043,4.142c-3.13,1.18-6.635,1.224-10.024,1.267a1.348,1.348,0,0,0-1.331,1.365,1.348,1.348,0,0,0,1.348,1.331,43.191,43.191,0,0,0,8.06-.623,1.325,1.325,0,0,0,.749.866c5.453,2.308,9.929,7.543,12.28,14.363,2.212,6.415,2.427,13.348,2.33,19.937a12.878,12.878,0,0,0,.691,5.334,7.024,7.024,0,0,0,4.246,3.813,7.546,7.546,0,0,0,2.449.415,6.65,6.65,0,0,0,3.245-.82,1.348,1.348,0,0,0,.522-1.834,1.347,1.347,0,0,0-1.832-.521,4.344,4.344,0,0,1-3.511.21,4.34,4.34,0,0,1-2.64-2.318,10.7,10.7,0,0,1-.475-4.29c.1-6.784-.129-14-2.477-20.806-2.4-6.973-6.894-12.439-12.422-15.289,3.8-1.562,7.476-5.875,8.1-9.587a1.348,1.348,0,0,0-.665-1.4,1.344,1.344,0,0,0-1.537.145c-5.973,5.078-15.746,1.823-21.918-3.82a86.622,86.622,0,0,1-6.655-7.1c-3.628-4.173-7.381-8.489-12.3-11.377-6.694-3.932-14.69-4.717-22.333-4.98-11.695-.4-32.695,1.009-43.927,14.47a24.476,24.476,0,0,0-4.487.39c-7.639,1.21-21.963,4.739-22.57,4.889a1.348,1.348,0,0,0-.3.113,10.4,10.4,0,0,0-3.755,4.052c-2.07,3.311-4.219,7.1-6.3,10.756-1.844,3.246-3.747,6.6-5.557,9.546a10,10,0,0,0-2.4,3.059,10.1,10.1,0,0,0-.7,2.83c-.747,5.417-1.094,10.955-1.432,16.311-.474,7.527-.977,15.288-2.589,22.73a33.935,33.935,0,0,0-4.276-2.691,1.347,1.347,0,0,0-1.694.374c-.475.62-47.7,62.332-66.411,93.264-13.78,22.779-13.249,38.358-10.375,47.418,2.67,8.422,7.624,12.506,9.871,13.49l.531.233c4.906,2.154,8.738,3.834,18.966,3.834,8.3,0,20.8-1.107,41.5-3.967,11.324-1.565,29.891-2.459,34.948-2.681a101.84,101.84,0,0,1-4.932,18.447,109.566,109.566,0,0,0-4.651,17.162c-2.647,12.972.888,26.023,4.307,38.645,1.062,3.926,2.162,7.985,3.047,11.951,5.484,24.6,3.679,47.763,1.767,72.286-.558,7.166-1.135,14.578-1.529,22.087a1.349,1.349,0,0,0,1.276,1.416h.071a1.348,1.348,0,0,0,1.345-1.278c.391-7.473.966-14.866,1.524-22.016,1.927-24.73,3.749-48.089-1.825-73.083-.9-4.025-2-8.114-3.075-12.068-3.337-12.32-6.786-25.057-4.268-37.4a105.88,105.88,0,0,1,4.535-16.756c4.256-11.372,5.891-21.859,7.151-35.093a1.347,1.347,0,0,0-1.214-1.469,1.325,1.325,0,0,0-1.469,1.214c-.448,4.716-.95,9.068-1.6,13.238-4.061.174-23.857,1.082-35.779,2.729-45.464,6.278-50.562,4.042-59.015.334l-.534-.235c-2.079-.909-6.193-4.926-8.383-11.835-2.705-8.527-3.145-23.292,10.112-45.207,17.385-28.74,59.575-84.277,65.543-92.1a57.528,57.528,0,0,1,8.739,6.7c5.566,4.864,15.874,14.775,18.824,17.622-.953,1.443-1.868,2.915-2.77,4.394-.016.022-.039.035-.054.058-.034.057-.063.122-.1.18-7.407,12.2-13.174,25.534-18.77,38.488-8.854,20.5-18.009,41.7-33.617,57.8a1.347,1.347,0,0,0,.029,1.905,1.348,1.348,0,0,0,1.906-.029c12.392-12.783,20.736-28.568,28.041-44.691,9.8-2.851,30.309-8.408,37.142-10.26l1.8-.489a10.821,10.821,0,0,1-.026,4.526,9.63,9.63,0,0,1-3.2,5.2,1.347,1.347,0,0,0-.341,1.643,1.347,1.347,0,0,0,1.2.741,1.355,1.355,0,0,0,.322-.039,21.452,21.452,0,0,0,13.653-10.3,21.663,21.663,0,0,0,1.464,3.841,24.532,24.532,0,0,0,6.162,8.2c3.233,2.652,7.771,5.148,10.645,5.148a4.383,4.383,0,0,0,.616-.043,1.349,1.349,0,0,0,1.12-1.048,1.349,1.349,0,0,0-.483-1.344c-.405-.67-.768-4.086.741-8.4a19.489,19.489,0,0,1,2.524-4.866c.367,20.1,4.367,46.062,28.692,56.186a1.328,1.328,0,0,0,.518.1,1.346,1.346,0,0,0,.7-.2c1.987-1.2,3.508-2.085,4.834-2.856,2.131-1.237,3.813-2.214,6.125-3.755,7.814-5.2,16.274-14.18,21.193-20.773,5.585-7.486,7.922-20.2,9.629-29.478l.337-1.821c9.84,1.879,33.8,7.517,45.17,10.194,3.027.712,5.472,1.287,7.014,1.645,3.551.82,14.279,7.426,23.025,21.707,9.454,15.438,20.2,30.365,30.587,44.8,8.889,12.35,18.081,25.121,26.405,38.132,10.749,16.8,22.364,39.943,22.731,54.514.2,7.788-4.93,14.805-9.887,21.593l-1.248,1.712c-4.313,5.963-9.61,11.311-14.734,16.482-14.969,15.115-30.448,30.743-47.369,44.413a1.349,1.349,0,0,0-.2,1.9,1.348,1.348,0,0,0,1.05.5,1.344,1.344,0,0,0,.846-.3c17.037-13.765,32.569-29.447,47.59-44.613,5.195-5.245,10.568-10.669,15-16.8l1.24-1.7c4.979-6.82,10.624-14.546,10.406-23.252C2322.341-819.433,2310.511-843.1,2299.567-860.207ZM2037.05-1100.975c2.065-3.636,4.2-7.4,6.24-10.658a8.5,8.5,0,0,1,2.585-3.019c1.661-.407,15.087-3.68,22.175-4.8.163-.026.324-.049.486-.073l-15.561,3.745a1.346,1.346,0,0,0-.632.352c-.113.113-8.549,8.453-16.017,15.731Zm-9.042,58.061c-1.184-1.035-2.384-2.081-3.622-3.093,1.882-8.024,2.414-16.337,2.921-24.384.333-5.307.678-10.794,1.411-16.112a7.837,7.837,0,0,1,.487-2.094,8.284,8.284,0,0,1,1.93-2.336c7.113-6.79,20.757-20.262,22.837-22.317l16.352-3.936c4.352-1.049,8.847-2.128,13.326-1.955a4.014,4.014,0,0,1,2.162.514.985.985,0,0,1,.355.612.277.277,0,0,1-.02.179,1.341,1.341,0,0,0-.237.465c-5.736,1.133-11.707,2.713-17.529,4.255-2.251.6-4.465,1.182-6.609,1.726a6.858,6.858,0,0,0-3.223,1.857c-3.972,4.079-13.838,14.244-19.636,20.539-2.093,2.272-4.315,4.973-4.189,8.3a1.347,1.347,0,0,0,1.345,1.3,1.357,1.357,0,0,0,1.348-1.4c-.086-2.3,1.671-4.406,3.479-6.368,5.775-6.27,15.62-16.414,19.586-20.485a4.1,4.1,0,0,1,1.954-1.125c2.154-.547,4.375-1.134,6.637-1.733,7.66-2.028,15.582-4.124,22.783-5.147a2.308,2.308,0,0,1,.74-.036,1.049,1.049,0,0,1,.308.608,4.764,4.764,0,0,1-1.276,4.111c-1.293,1.194-17.448,8.159-24.684,8.982l-1.3.207a1.353,1.353,0,0,0-.863.518,147.747,147.747,0,0,1-14.461,16.426,1.318,1.318,0,0,0-.367.764l-.74.422a10.669,10.669,0,0,0-3.707,2.956,1.347,1.347,0,0,0,.333,1.877,1.349,1.349,0,0,0,1.875-.333,8.39,8.39,0,0,1,2.827-2.154c6.172-3.495,18.235-10.686,20.59-12.091a1.762,1.762,0,0,1,.867-.25l24.077-.66a3.246,3.246,0,0,1,.416.009,5.2,5.2,0,0,1-1.964,3.519c-1.223.933-13.165,4.774-18.792,4.074a1.317,1.317,0,0,0-.889.2c-1.949,1.236-7.364,4.588-8.98,5.26-2.706,1.127-6.075,2.529-8.155,5.37a1.669,1.669,0,0,0-.125.27,1.414,1.414,0,0,0-.1.252c-1,5.414-1.7,9.985-2.375,14.406-.871,5.7-1.694,11.083-2.984,16.9-.188.851-.35,1.557-.563,2.255a9.407,9.407,0,0,1-.813,1.949,15.233,15.233,0,0,1-3.576,3.755l-6.178,5.184C2036.757-1034.922,2031.48-1039.879,2028.008-1042.914Zm28.155,64.9c-6.36,1.724-24.564,6.657-34.987,9.638,1.585-3.567,3.133-7.142,4.667-10.7,4.472-10.357,9.072-20.947,14.5-30.975a26.816,26.816,0,0,0,.7,6.558,27.877,27.877,0,0,0,5.912,10.787c1.132,1.362,2.35,2.665,3.526,3.925a55.99,55.99,0,0,1,5.111,6.007,20.783,20.783,0,0,1,2.319,4.284Zm30.814,13.434a17.6,17.6,0,0,0-.1,4.619,24.544,24.544,0,0,1-7.261-4.213,21.935,21.935,0,0,1-5.462-7.325c-1.256-2.5-2.312-6.186-1.516-9.009a1.312,1.312,0,0,0,.01-.145,21.514,21.514,0,0,0,.382-4.354,1.378,1.378,0,0,0-1.371-1.324,1.348,1.348,0,0,0-1.324,1.371,18.882,18.882,0,0,1-.345,3.947c-.054.211-.108.422-.146.634a18.6,18.6,0,0,1-9.544,12.307,12.277,12.277,0,0,0,.971-2.7c.964-4.168-.268-8.981-3.468-13.551a58.942,58.942,0,0,0-5.349-6.3c-1.15-1.233-2.341-2.508-3.423-3.809a25.3,25.3,0,0,1-5.377-9.738c-.975-3.779-.815-10.288.835-13.148q1.662-2.734,3.435-5.385a1.348,1.348,0,0,0-.18-1.72c-.05-.049-2.024-1.96-4.8-4.61l5.958-5a17.48,17.48,0,0,0,4.181-4.477,12.032,12.032,0,0,0,1.053-2.5c.033-.109.057-.216.088-.326a51.336,51.336,0,0,1,4.178,6.784,51.217,51.217,0,0,1,2.712,8.178c.582,2.146,1.183,4.365,2.028,6.712,2.043,5.674,6.719,12.7,12.2,18.346,1.7,1.752,3.552,3.553,5.482,5.284a1.325,1.325,0,0,0,.067.615c1.328,3.485-.249,7.476-1.774,11.337l-.254.644c-2.468,6.282-2.4,10.908.2,14.143a1.346,1.346,0,0,0,1.052.5,1.34,1.34,0,0,0,.842-.3,1.348,1.348,0,0,0,.207-1.895c-1.94-2.415-1.872-6.166.212-11.468l.251-.639c1.258-3.185,2.641-6.7,2.436-10.181,5.294,4.275,10.91,7.566,15.662,7.566.287,0,.568-.029.847-.053a1.328,1.328,0,0,0,.089.309,12.334,12.334,0,0,1,.991,3.514C2089.955-978.24,2087.459-967.761,2086.978-964.579Z" transform="translate(-1937.622 1137.033)"/><path d="M2531.632-527.472l2.274-4.248a1.3,1.3,0,0,0,.254-.4c.5-1.238.683-1.7-18.185-24.349-1.536-1.844-2.989-3.588-4.267-5.133-3.7-4.461-7.4-9.051-10.974-13.488q-2.689-3.335-5.386-6.664c-5.529-6.812-11.248-13.855-14.644-22.039a1.349,1.349,0,0,0-1.76-.729,1.347,1.347,0,0,0-.729,1.761,61.931,61.931,0,0,0,6.221,11.186c-8.568,18.086-15.17,40.993-21,61.242-1.078,3.741-2.128,7.392-3.162,10.906a40.5,40.5,0,0,0-1.959,9.59,40.273,40.273,0,0,0,1.025,9.417l.174.924c1.625,8.681,5.149,18.491,8.256,27.145,2.721,7.577,5.291,14.743,5.325,18.071-3.61,3.78-7.2,7.681-10.684,11.61-.062.07-.19.191-.345.342-1.211,1.181-1.635,1.675-1.756,2.271a1.347,1.347,0,0,0,1.052,1.589,1.342,1.342,0,0,0,.27.027,1.349,1.349,0,0,0,1.25-.846,15.265,15.265,0,0,1,1.065-1.11c.221-.215.4-.391.481-.485,3.576-4.037,7.269-8.048,10.979-11.922a1.311,1.311,0,0,0,.133-.163c.343-.493,34.6-49.718,55.922-74.259A1.388,1.388,0,0,0,2531.632-527.472Zm-2.3-1.406c-18.385,21.186-46.2,60.413-53.941,71.432-.813-3.92-2.769-9.374-5.082-15.814-3.073-8.559-6.557-18.261-8.141-26.728l-.177-.932a38.278,38.278,0,0,1-.981-8.788,38.367,38.367,0,0,1,1.852-8.955c1.034-3.519,2.087-7.176,3.167-10.921,5.654-19.637,12.039-41.781,20.2-59.452,2.257,3.087,4.654,6.061,7.028,8.983q2.7,3.325,5.38,6.658c3.584,4.444,7.289,9.04,11,13.515,1.281,1.547,2.735,3.293,4.273,5.139,6.053,7.265,15.976,19.175,17.525,21.939Z" transform="translate(-2204.425 864.212)"/><path d="M2620.511-466.255a1.37,1.37,0,0,0,.437-.072,55.441,55.441,0,0,1,29.268-1.845,1.356,1.356,0,0,0,1.594-1.046,1.349,1.349,0,0,0-1.047-1.594,58.187,58.187,0,0,0-30.689,1.935,1.351,1.351,0,0,0-.839,1.712A1.35,1.35,0,0,0,2620.511-466.255Z" transform="translate(-2286.861 796.266)"/><path d="M2479.643-724.2a1.347,1.347,0,0,0,1.344-1.274c.407-7.378,1.09-15.257,3.31-22.864,2.342-8.018,6.236-14.742,11.261-19.446a1.35,1.35,0,0,0,.063-1.906,1.353,1.353,0,0,0-1.906-.063c-5.376,5.034-9.529,12.178-12.006,20.66-2.3,7.869-3,15.932-3.413,23.473a1.345,1.345,0,0,0,1.271,1.418A.632.632,0,0,0,2479.643-724.2Z" transform="translate(-2214.676 949.014)"/><path d="M2333.492-1060.222a.7.7,0,0,0,.3.068.7.7,0,0,0,.634-.4.7.7,0,0,0-.332-.935c-.029-.014-2.909-1.414-3.124-3.719-.156-1.678,1.108-3.511,3.755-5.447a.7.7,0,0,0,.153-.981.7.7,0,0,0-.98-.152c-3.079,2.25-4.533,4.51-4.324,6.718C2329.867-1061.971,2333.344-1060.292,2333.492-1060.222Z" transform="translate(-2138.457 1103.67)"/><path d="M2309.455-1054.568c-3.042-.89-6.011,1.809-6.136,1.924a.7.7,0,0,0-.04.991.7.7,0,0,0,.992.041c.023-.023,2.522-2.277,4.794-1.607,1.563.46,2.75,2.207,3.529,5.193a.7.7,0,0,0,.678.525.72.72,0,0,0,.179-.022.7.7,0,0,0,.5-.857C2313.039-1051.88,2311.527-1053.961,2309.455-1054.568Z" transform="translate(-2124.899 1094.868)"/><path d="M2302.558-1073.434a14.566,14.566,0,0,0,3.542.5,5.888,5.888,0,0,0,4.224-1.449c2.292-2.182,1.567-5.93,1.535-6.088a.7.7,0,0,0-.827-.549.7.7,0,0,0-.549.827c.006.031.61,3.141-1.127,4.793-1.235,1.176-3.406,1.38-6.454.608a.7.7,0,0,0-.854.508A.7.7,0,0,0,2302.558-1073.434Z" transform="translate(-2124.353 1108.339)"/><path d="M2052.7-1081.442a14.818,14.818,0,0,1-5.583-3.483,9.009,9.009,0,0,1-1.713-8.684,10.405,10.405,0,0,1,6.32-6.373,8.8,8.8,0,0,1,4.845-.465,7.5,7.5,0,0,1,5.649,7.821,7.2,7.2,0,0,1-7.231,6.114,5.918,5.918,0,0,1-4.568-2.412,4.205,4.205,0,0,1-.033-4.739,3.238,3.238,0,0,1,2.144-1.166,2.806,2.806,0,0,1,2.105.532,3.3,3.3,0,0,1,.821.982,2.831,2.831,0,0,1,.29,2.342,1.607,1.607,0,0,1-1.574,1.065,1.168,1.168,0,0,1-.792-.532,1.027,1.027,0,0,1-.161-.4l.369-.183a.81.81,0,0,0,.365-1.085.81.81,0,0,0-1.085-.365l-.77.382a.806.806,0,0,0-.417.5,2.46,2.46,0,0,0,.344,2.04,2.787,2.787,0,0,0,1.945,1.252,3.2,3.2,0,0,0,3.285-2.091,4.458,4.458,0,0,0-.391-3.716,4.923,4.923,0,0,0-1.227-1.458,4.413,4.413,0,0,0-3.306-.868,4.824,4.824,0,0,0-3.227,1.782,5.8,5.8,0,0,0-.028,6.635,7.562,7.562,0,0,0,5.825,3.122,8.766,8.766,0,0,0,8.922-7.543,9.077,9.077,0,0,0-6.922-9.59,10.409,10.409,0,0,0-5.74.53,12.5,12.5,0,0,0-3.879,2.3,11.581,11.581,0,0,0-3.418,5.087,10.652,10.652,0,0,0,2.044,10.265,16.26,16.26,0,0,0,6.182,3.9,32.97,32.97,0,0,0,11.059,2.632.809.809,0,0,0,.842-.775.809.809,0,0,0-.775-.842A31.43,31.43,0,0,1,2052.7-1081.442Z" transform="translate(-1980.548 1137.625)"/><path d="M2381.7-894.9a1.342,1.342,0,0,0,.731-.216,1.347,1.347,0,0,0,.4-1.863,34.275,34.275,0,0,1-3.287-29.99,1.348,1.348,0,0,0-.8-1.733,1.348,1.348,0,0,0-1.731.794,37.017,37.017,0,0,0,3.551,32.392A1.348,1.348,0,0,0,2381.7-894.9Z" transform="translate(-2161.649 1030.324)"/></g><path d="M2256.109-947.6s6.786,1.224,9.476-3.868" transform="translate(-163.201 -95.088)" fill="none" stroke="#000" stroke-linecap="round" stroke-linejoin="round" stroke-width="3" fill-rule="evenodd"/><path d="M2256.361-951.636s4.956.894,6.92-2.826" transform="translate(-163.33 -93.554)" fill="none" stroke="#000" stroke-linecap="round" stroke-linejoin="round" stroke-width="3" fill-rule="evenodd"/><path d="M2199.2-919.9s6.786,1.224,9.476-3.869" transform="translate(-134.038 -109.281)" fill="none" stroke="#000" stroke-linecap="round" stroke-linejoin="round" stroke-width="3" fill-rule="evenodd"/><path d="M2199.448-923.94s4.956.894,6.92-2.826" transform="translate(-134.166 -107.746)" fill="none" stroke="#000" stroke-linecap="round" stroke-linejoin="round" stroke-width="3" fill-rule="evenodd"/><path d="M2199.448-928.237s5.472-.1,7.019-3.217c0,0,3.12,4.615-1.385,6.174S2199.839-926.632,2199.448-928.237Z" transform="translate(-134.166 -105.344)" fill-rule="evenodd"/><path d="M2255.181-955.039s5.472-.1,7.018-3.217c0,0,3.12,4.616-1.385,6.174S2255.572-953.434,2255.181-955.039Z" transform="translate(-162.726 -91.61)" fill-rule="evenodd"/><g transform="translate(2082.427 -1020.74)"><path d="M2242.641-885.977a15.892,15.892,0,0,0,4.151-2.365,14.149,14.149,0,0,1,2.859-1.731,12.692,12.692,0,0,1,3.343-.174c2.3.056,4.683.113,5.843-1.219a2.839,2.839,0,0,0,.575-2.433,2.314,2.314,0,0,0-1.144-1.584c-1.977-1.253-6.549-1.312-10.634-.137-4.3,1.235-9.054,4.8-8.516,7.364a2.838,2.838,0,0,0,1.62,2.267A2.906,2.906,0,0,0,2242.641-885.977Z" transform="translate(-2236.901 897.465)" fill="#fff"/><path d="M2238.957-885.742a19.368,19.368,0,0,0,5.058-2.882,17.253,17.253,0,0,1,3.484-2.11,15.471,15.471,0,0,1,4.074-.211c2.8.068,5.706.137,7.119-1.485a3.464,3.464,0,0,0,.7-2.965,2.82,2.82,0,0,0-1.394-1.93c-2.408-1.527-7.98-1.6-12.958-.168-5.236,1.5-11.032,5.843-10.377,8.974a3.458,3.458,0,0,0,1.975,2.763A3.542,3.542,0,0,0,2238.957-885.742Zm-2.026-3.251c-.209-1,3.468-4.755,8.75-6.274,4.626-1.329,9.463-1.126,11.08-.1.239.151.336.281.346.346.122.747-.091.991-.16,1.071-.7.8-3.259.741-5.316.691a16.53,16.53,0,0,0-4.825.318,17.747,17.747,0,0,0-4.118,2.421c-1.7,1.188-4.259,2.983-5.2,2.612C2237.26-888,2237.056-888.4,2236.931-888.993Z" transform="translate(-2234.614 898.519)"/></g><path d="M2353.838-850.412s-.5,14.953-5.239,22.05-1.514,15.955,5.239,14.061,10.455-7.589,16.461-7.4l1.155-6.023s-4.258-3.576-8.131-15.728c0,0-7.182-5.448-9.358-9.324Z" transform="translate(-209.443 -145.659)" fill="#ff2717" opacity="0.48"/></g></g></svg>