<svg xmlns="http://www.w3.org/2000/svg" width="118.718" height="42.959" viewBox="0 0 118.718 42.959">
  <g id="layer1" transform="translate(-55.5 -1002.301)">
    <path id="path3082" d="M249.1,1226.189V1207.6h19.693l2.113,2.754,2.184-2.754h71.437v17.307a8.281,8.281,0,0,1-4.024,1.282H300.939l-2.386-2.932v2.932h-7.8v-5.009a6.543,6.543,0,0,1-3.371.7h-2.659v4.309H272.912l-2.113-2.813-2.137,2.813Z" transform="translate(-170.619 -180.93)" fill="#fff"/>
    <path id="path3080" d="M55.5,1012.651l4.44-10.351h7.68l2.517,5.793V1002.3H79.68l1.5,4.19,1.448-4.19h42.841v2.1a9.259,9.259,0,0,1,5.947-2.1l13.9.047,2.481,5.722V1002.3h7.989l2.2,3.288V1002.3h8.06v18.6h-8.06l-2.1-3.3v3.3H144.149l-1.175-2.932h-3.158l-1.163,2.932H130.7a7.883,7.883,0,0,1-5.223-2.065v2.065H113.464l-2.386-2.932v2.932H66.48l-1.175-2.932H62.159l-1.175,2.932H55.5Z" transform="translate(0 0)" fill="#fff"/>
    <path id="path3046" d="M61.683,1021.7,55.7,1035.624h3.894l1.1-2.79h6.422l1.1,2.79h3.989L66.229,1021.7Zm2.22,3.229,1.959,4.867H61.944Z" transform="translate(-0.176 -17.097)" fill="#016fd0"/>
    <path id="path3048" d="M198.2,1035.524V1021.6l5.544.024,3.217,8.974,3.146-9h5.5v13.924h-3.478v-10.256l-3.692,10.256h-3.051l-3.7-10.256v10.256Z" transform="translate(-125.761 -17.009)" fill="#016fd0"/>
    <path id="path3050" d="M364.9,1035.524V1021.6h11.36v3.11h-7.835v2.386h7.645v2.932h-7.657v2.469h7.835v3.027Z" transform="translate(-272.673 -17.009)" fill="#016fd0"/>
    <path id="path3052" d="M477.5,1021.7v13.924h3.478v-4.95h1.46l4.178,4.95h4.25l-4.582-5.128a4.24,4.24,0,0,0,3.822-4.273c0-2.932-2.3-4.511-4.867-4.511l-7.74-.012Zm3.478,3.11h3.977a1.6,1.6,0,0,1,1.65,1.46,1.571,1.571,0,0,1-1.6,1.46h-4.024v-2.92Z" transform="translate(-371.906 -17.097)" fill="#016fd0"/>
    <path id="path3054" d="M599.249,1035.524H595.7V1021.6h3.549Z" transform="translate(-476.075 -17.009)" fill="#016fd0"/>
    <path id="path3056" d="M646.631,1035.612h-.772c-3.715,0-5.959-2.92-5.959-6.9,0-4.072,2.232-7.015,6.909-7.015h3.846v3.3h-3.977c-1.9,0-3.253,1.484-3.253,3.751,0,2.695,1.543,3.822,3.751,3.822h.914Z" transform="translate(-515.028 -17.097)" fill="#016fd0"/>
    <path id="path3058" d="M715.983,1021.612,710,1035.524h3.894l1.1-2.789h6.422l1.1,2.789H726.5l-5.983-13.924-4.535.012Zm2.208,3.229,1.959,4.867h-3.917l1.959-4.867Z" transform="translate(-576.807 -17.009)" fill="#016fd0"/>
    <path id="path3060" d="M852.4,1035.524V1021.6h4.428l5.65,8.748V1021.6h3.478v13.924h-4.285l-5.793-8.974v8.974Z" transform="translate(-702.303 -17.009)" fill="#016fd0"/>
    <path id="path3062" d="M269.2,1240.724V1226.8h11.36v3.11h-7.835v2.386h7.656v2.932h-7.656v2.469h7.835v3.027Z" transform="translate(-188.333 -197.85)" fill="#016fd0"/>
    <path id="path3064" d="M737.9,1240.724V1226.8h11.36v3.11h-7.834v2.386h7.621v2.932h-7.621v2.469h7.834v3.027Z" transform="translate(-601.395 -197.85)" fill="#016fd0"/>
    <path id="path3066" d="M367.631,1240.724l5.532-6.873L367.5,1226.8h4.38l3.371,4.357,3.383-4.357h4.214l-5.591,6.956,5.544,6.956h-4.38l-3.276-4.285-3.193,4.285Z" transform="translate(-274.964 -197.85)" fill="#016fd0"/>
    <path id="path3068" d="M499.9,1226.9v13.924h3.573v-4.392h3.668c3.1,0,5.449-1.65,5.449-4.843,0-2.647-1.84-4.677-5-4.677H499.9Zm3.573,3.146h3.858a1.579,1.579,0,0,1,1.721,1.6,1.609,1.609,0,0,1-1.733,1.6h-3.846v-3.205Z" transform="translate(-391.647 -197.939)" fill="#016fd0"/>
    <path id="path3072" d="M619.4,1226.8v13.924h3.478v-4.95h1.46l4.178,4.95h4.25l-4.582-5.128a4.24,4.24,0,0,0,3.822-4.273c0-2.932-2.3-4.511-4.867-4.511l-7.74-.012Zm3.49,3.122h3.977a1.6,1.6,0,0,1,1.65,1.46,1.571,1.571,0,0,1-1.6,1.46H622.89Z" transform="translate(-496.962 -197.851)" fill="#016fd0"/>
    <path id="path3074" d="M843.939,1240.812v-3.027h6.968c1.033,0,1.472-.558,1.472-1.163,0-.582-.439-1.175-1.472-1.175h-3.146a3.893,3.893,0,0,1-4.262-4.167c0-2.232,1.4-4.38,5.461-4.38h6.778l-1.46,3.134h-5.864c-1.116,0-1.46.593-1.46,1.151a1.21,1.21,0,0,0,1.282,1.211h3.3c3.051,0,4.368,1.733,4.368,4a4.17,4.17,0,0,1-4.535,4.428h-7.431Z" transform="translate(-694.46 -197.939)" fill="#016fd0"/>
    <path id="path3076" d="M951.539,1240.812v-3.027h6.968c1.033,0,1.472-.558,1.472-1.163,0-.582-.439-1.175-1.472-1.175h-3.146a3.893,3.893,0,0,1-4.262-4.167c0-2.232,1.4-4.38,5.461-4.38h6.778l-1.46,3.134h-5.864c-1.116,0-1.46.593-1.46,1.151a1.21,1.21,0,0,0,1.282,1.211h3.3c3.051,0,4.368,1.733,4.368,4a4.17,4.17,0,0,1-4.535,4.428h-7.431Z" transform="translate(-789.287 -197.939)" fill="#016fd0"/>
  </g>
</svg>
