<svg id="Group_1637" data-name="Group 1637" xmlns="http://www.w3.org/2000/svg" width="121.862" height="37.984" viewBox="0 0 121.862 37.984">
  <path id="Path_2199" data-name="Path 2199" d="M963.482,624.028l7.216,4.167,7.215-4.166-7.218-4.167-7.214,4.166Zm6.34,5.684-7.216-4.167v8.331l7.217,4.167v-8.331Zm8.966-4.169-7.217,4.167v8.333l7.217-4.167v-8.333Zm1.752,9.345-4.922,2.841-4.922,2.842-4.922-2.841-4.922-2.842V623.522l4.922-2.841,4.921-2.842,4.922,2.842,4.922,2.842v11.366Z" transform="translate(-954.253 -610.213)" fill="#fff" fill-rule="evenodd"/>
  <path id="Path_2200" data-name="Path 2200" d="M981.051,631.672v-19l-1.535-.886-6.69-3.863-6.691-3.862-1.534-.887-1.528.883-6.69,3.862-6.691,3.863-1.528.883v19l1.535.886,6.691,3.862,6.69,3.863,1.534.886,1.528-.882,6.691-3.863,6.69-3.863,1.528-.882Zm-16.444-23.1,5.889,3.4,5.889,3.4v13.6l-5.889,3.4-5.889,3.4-5.889-3.4-5.889-3.4v-13.6l5.889-3.4,5.889-3.4Z" transform="translate(-948.163 -603.177)" fill="#fff" fill-rule="evenodd"/>
  <g id="Group_1635" data-name="Group 1635" transform="translate(39.022 3.44)">
    <path id="Path_2201" data-name="Path 2201" d="M1024.353,614.356a8.331,8.331,0,0,1,3.249-3.287,9.424,9.424,0,0,1,4.724-1.178,9.049,9.049,0,0,1,5.54,1.708,8.2,8.2,0,0,1,3.079,4.66h-4.866a3.925,3.925,0,0,0-1.54-1.735,4.326,4.326,0,0,0-2.264-.6,4.229,4.229,0,0,0-3.314,1.424,6.345,6.345,0,0,0,0,7.61,4.229,4.229,0,0,0,3.314,1.424,4.327,4.327,0,0,0,2.264-.6,3.923,3.923,0,0,0,1.54-1.734h4.866a8.138,8.138,0,0,1-3.079,4.646,9.091,9.091,0,0,1-5.54,1.7,9.43,9.43,0,0,1-4.724-1.178,8.358,8.358,0,0,1-3.249-3.274,10.455,10.455,0,0,1,0-9.59Z" transform="translate(-1023.189 -609.839)" fill="#fff"/>
    <path id="Path_2202" data-name="Path 2202" d="M1066.252,627.211a8.887,8.887,0,0,1-3.39-3.326,9.779,9.779,0,0,1,0-9.589,8.923,8.923,0,0,1,3.39-3.313,9.857,9.857,0,0,1,9.4,0,8.747,8.747,0,0,1,3.365,3.313,9.917,9.917,0,0,1-.013,9.589,8.821,8.821,0,0,1-3.365,3.326,9.837,9.837,0,0,1-9.382,0Zm8.179-4.3a6.285,6.285,0,0,0,0-7.675,4.477,4.477,0,0,0-3.481-1.437,4.529,4.529,0,0,0-3.507,1.423,6.321,6.321,0,0,0,0,7.7,4.508,4.508,0,0,0,3.507,1.437A4.461,4.461,0,0,0,1074.431,622.914Z" transform="translate(-1041.625 -609.791)" fill="#fff"/>
    <path id="Path_2203" data-name="Path 2203" d="M1114.491,611.428a8.138,8.138,0,0,1,3.326,3.2,10.145,10.145,0,0,1,0,9.486,8.091,8.091,0,0,1-3.34,3.209,10.577,10.577,0,0,1-5.008,1.139h-6.808v-18.17h6.808A10.573,10.573,0,0,1,1114.491,611.428Zm-1.4,11.829a5.194,5.194,0,0,0,1.4-3.883,4.851,4.851,0,0,0-5.306-5.306h-2.1v10.56h2.1A5.341,5.341,0,0,0,1113.093,623.257Z" transform="translate(-1061.327 -610.03)" fill="#fff"/>
  </g>
  <g id="Group_1636" data-name="Group 1636" transform="translate(39.022 23.726)">
    <path id="Path_2204" data-name="Path 2204" d="M1025.349,661.6a2.881,2.881,0,0,1-.521-.047,2.576,2.576,0,0,1-.5-.145,2.266,2.266,0,0,1-.449-.239,1.676,1.676,0,0,1-.361-.335,1.514,1.514,0,0,1-.241-.433,1.531,1.531,0,0,1-.088-.529v-4.554h1.281v4.438a.7.7,0,0,0,.232.572.991.991,0,0,0,.648.192.978.978,0,0,0,.639-.187.7.7,0,0,0,.227-.577v-4.438h1.282v4.554a1.58,1.58,0,0,1-.086.529,1.5,1.5,0,0,1-.239.433,1.7,1.7,0,0,1-.359.335,2.22,2.22,0,0,1-.445.239,2.56,2.56,0,0,1-.5.145A2.856,2.856,0,0,1,1025.349,661.6Z" transform="translate(-1023.189 -651.924)" fill="#fff"/>
    <path id="Path_2205" data-name="Path 2205" d="M1035.454,657.315a2.356,2.356,0,0,0-.006-.445,1.081,1.081,0,0,0-.094-.34.533.533,0,0,0-.179-.216.449.449,0,0,0-.262-.076.486.486,0,0,0-.4.177.753.753,0,0,0-.145.488.654.654,0,0,0,.055.275.717.717,0,0,0,.148.211,1.048,1.048,0,0,0,.219.162,2.086,2.086,0,0,0,.265.126l.4.162a4.294,4.294,0,0,1,.413.193,3.141,3.141,0,0,1,.385.247,1.618,1.618,0,0,1,.322.321,1.475,1.475,0,0,1,.22.419,1.649,1.649,0,0,1,.081.538,2.5,2.5,0,0,1-.13.836,1.669,1.669,0,0,1-.38.623,1.631,1.631,0,0,1-.614.388,2.4,2.4,0,0,1-.833.134,2.725,2.725,0,0,1-.843-.119,1.381,1.381,0,0,1-.611-.387,1.748,1.748,0,0,1-.373-.7,4.051,4.051,0,0,1-.134-1.068h1.249a2.47,2.47,0,0,0,.023.477,1.164,1.164,0,0,0,.118.375.605.605,0,0,0,.57.335.747.747,0,0,0,.3-.057.608.608,0,0,0,.219-.158.681.681,0,0,0,.136-.245,1.031,1.031,0,0,0,.046-.315.639.639,0,0,0-.063-.294.686.686,0,0,0-.175-.212,1.255,1.255,0,0,0-.256-.162c-.1-.046-.2-.094-.312-.14-.132-.054-.264-.111-.4-.171a3.949,3.949,0,0,1-.393-.2,2.485,2.485,0,0,1-.357-.258,1.645,1.645,0,0,1-.292-.33,1.6,1.6,0,0,1-.2-.424,1.857,1.857,0,0,1-.073-.54,2.092,2.092,0,0,1,.125-.748,1.571,1.571,0,0,1,.352-.556,1.526,1.526,0,0,1,.546-.346,2,2,0,0,1,.708-.12,2.376,2.376,0,0,1,.8.125,1.436,1.436,0,0,1,.59.389,1.755,1.755,0,0,1,.364.669,3.231,3.231,0,0,1,.121.964Z" transform="translate(-1027.881 -651.853)" fill="#fff"/>
    <path id="Path_2206" data-name="Path 2206" d="M1032.972,651.908h3.385v1.006h-3.892Z" transform="translate(-1027.641 -650.288)" fill="#fff"/>
    <path id="Path_2207" data-name="Path 2207" d="M1043.859,655.176a2.787,2.787,0,0,1,.809.118,2.249,2.249,0,0,1,.7.344,1.778,1.778,0,0,1,.493.56,1.541,1.541,0,0,1,.186.766v4.511h-1.281v-4.4a.8.8,0,0,0-.227-.6.94.94,0,0,0-.681-.222,1.6,1.6,0,0,0-.618.111,1.23,1.23,0,0,0-.421.266.809.809,0,0,1,.145.234.908.908,0,0,1,.055.344v4.264h-1.28V657.41a.818.818,0,0,0-.021-.181.667.667,0,0,0-.069-.178.6.6,0,0,0-.124-.153.558.558,0,0,0-.19-.108,3.188,3.188,0,0,1,.475-.714,2.76,2.76,0,0,1,.593-.5,2.542,2.542,0,0,1,.688-.3A2.939,2.939,0,0,1,1043.859,655.176Z" transform="translate(-1031.897 -651.857)" fill="#fff"/>
    <path id="Path_2208" data-name="Path 2208" d="M1051.612,657.15a2.074,2.074,0,0,1,.163-.848,1.821,1.821,0,0,1,1.047-1,2.015,2.015,0,0,1,.707-.128,2.472,2.472,0,0,1,.778.116,1.589,1.589,0,0,1,.6.35,1.572,1.572,0,0,1,.387.586,2.269,2.269,0,0,1,.137.823v4.424h-1.284v-4.424a.956.956,0,0,0-.156-.594.552.552,0,0,0-.463-.2.537.537,0,0,0-.454.234,1.2,1.2,0,0,0-.193.66Z" transform="translate(-1036.829 -651.857)" fill="#fff"/>
    <path id="Path_2209" data-name="Path 2209" d="M1062.942,657.315a2.345,2.345,0,0,0-.006-.445,1.081,1.081,0,0,0-.094-.34.532.532,0,0,0-.179-.216.451.451,0,0,0-.263-.076.485.485,0,0,0-.4.177.75.75,0,0,0-.145.488.662.662,0,0,0,.054.275.717.717,0,0,0,.148.211,1.055,1.055,0,0,0,.219.162,2.152,2.152,0,0,0,.265.126l.4.162a4.3,4.3,0,0,1,.414.193,3.217,3.217,0,0,1,.385.247,1.616,1.616,0,0,1,.321.321,1.479,1.479,0,0,1,.221.419,1.662,1.662,0,0,1,.081.538,2.5,2.5,0,0,1-.131.836,1.675,1.675,0,0,1-.38.623,1.633,1.633,0,0,1-.614.388,2.4,2.4,0,0,1-.832.134,2.725,2.725,0,0,1-.843-.119,1.381,1.381,0,0,1-.611-.387,1.74,1.74,0,0,1-.372-.7,4.005,4.005,0,0,1-.134-1.068h1.249a2.45,2.45,0,0,0,.023.477,1.17,1.17,0,0,0,.117.375.607.607,0,0,0,.571.335.746.746,0,0,0,.3-.057.61.61,0,0,0,.22-.158.686.686,0,0,0,.136-.245,1.05,1.05,0,0,0,.046-.315.632.632,0,0,0-.063-.294.693.693,0,0,0-.174-.212,1.28,1.28,0,0,0-.257-.162c-.1-.046-.2-.094-.311-.14-.132-.054-.265-.111-.4-.171a3.978,3.978,0,0,1-.392-.2,2.49,2.49,0,0,1-.357-.258,1.649,1.649,0,0,1-.292-.33,1.632,1.632,0,0,1-.2-.424,1.861,1.861,0,0,1-.073-.54,2.092,2.092,0,0,1,.126-.748,1.562,1.562,0,0,1,.352-.556,1.518,1.518,0,0,1,.546-.346,2,2,0,0,1,.708-.12,2.376,2.376,0,0,1,.8.125,1.438,1.438,0,0,1,.59.389,1.748,1.748,0,0,1,.364.669,3.234,3.234,0,0,1,.121.964Z" transform="translate(-1041.073 -651.853)" fill="#fff"/>
    <path id="Path_2210" data-name="Path 2210" d="M1069.379,661.542v-6.225h1.284v6.225Z" transform="translate(-1045.355 -651.924)" fill="#fff"/>
    <path id="Path_2211" data-name="Path 2211" d="M1075.529,655.176a2.788,2.788,0,0,1,.809.118,2.254,2.254,0,0,1,.7.344,1.778,1.778,0,0,1,.493.56,1.541,1.541,0,0,1,.186.766v4.511h-1.281v-4.4a.8.8,0,0,0-.227-.6.94.94,0,0,0-.681-.222,1.6,1.6,0,0,0-.618.111,1.231,1.231,0,0,0-.421.266.8.8,0,0,1,.144.234.893.893,0,0,1,.056.344v4.264h-1.281V657.41a.79.79,0,0,0-.021-.181.649.649,0,0,0-.069-.178.593.593,0,0,0-.125-.153.549.549,0,0,0-.19-.108,3.2,3.2,0,0,1,.476-.714,2.742,2.742,0,0,1,.593-.5,2.541,2.541,0,0,1,.688-.3A2.939,2.939,0,0,1,1075.529,655.176Z" transform="translate(-1047.095 -651.857)" fill="#fff"/>
    <path id="Path_2212" data-name="Path 2212" d="M1074.757,650.129a.56.56,0,0,0,.07.305.285.285,0,0,0,.261.11.258.258,0,0,0,.239-.113.747.747,0,0,0,.082-.355h.806a.767.767,0,0,0,.079.355.262.262,0,0,0,.245.113.225.225,0,0,0,.213-.116.7.7,0,0,0,.058-.352h.989a2.139,2.139,0,0,1-.085.678,1.073,1.073,0,0,1-.238.417.8.8,0,0,1-.35.209,1.518,1.518,0,0,1-.426.058.981.981,0,0,1-.292-.042,1.079,1.079,0,0,1-.245-.112.964.964,0,0,1-.2-.159,1.155,1.155,0,0,1-.146-.19,1.193,1.193,0,0,1-.14.186,1.063,1.063,0,0,1-.192.162.961.961,0,0,1-.241.113.972.972,0,0,1-.289.042,1.419,1.419,0,0,1-.545-.1,1.068,1.068,0,0,1-.388-.269,1.14,1.14,0,0,1-.232-.41,1.83,1.83,0,0,1-.012-1.011,1.221,1.221,0,0,1,.174-.358,1.021,1.021,0,0,1,.253-.247,1.352,1.352,0,0,1,.305-.153,1.612,1.612,0,0,1,.327-.077,2.48,2.48,0,0,1,.323-.022h2.874v.891H1075.2a.447.447,0,0,0-.344.112A.475.475,0,0,0,1074.757,650.129Z" transform="translate(-1047.436 -648.794)" fill="#fff"/>
    <path id="Path_2213" data-name="Path 2213" d="M1086.391,661.6a2.883,2.883,0,0,1-.521-.047,2.578,2.578,0,0,1-.5-.145,2.262,2.262,0,0,1-.449-.239,1.673,1.673,0,0,1-.361-.335,1.511,1.511,0,0,1-.241-.433,1.529,1.529,0,0,1-.088-.529v-4.554h1.281v4.438a.7.7,0,0,0,.232.572.991.991,0,0,0,.648.192.977.977,0,0,0,.639-.187.7.7,0,0,0,.227-.577v-4.438h1.281v4.554a1.577,1.577,0,0,1-.086.529,1.489,1.489,0,0,1-.239.433,1.7,1.7,0,0,1-.359.335,2.214,2.214,0,0,1-.445.239,2.551,2.551,0,0,1-.5.145A2.847,2.847,0,0,1,1086.391,661.6Z" transform="translate(-1052.482 -651.924)" fill="#fff"/>
    <path id="Path_2214" data-name="Path 2214" d="M1094.454,661.542v-6.225h1.284v6.225Z" transform="translate(-1057.389 -651.924)" fill="#fff"/>
    <path id="Path_2215" data-name="Path 2215" d="M1100.159,660.4a.258.258,0,0,0,.058.086.128.128,0,0,0,.087.03.07.07,0,0,0,.072-.039.294.294,0,0,0,.016-.106V656.4h-.634v-1.081h1.918v4.912a1.33,1.33,0,0,1-.111.539,1.4,1.4,0,0,1-.3.44,1.47,1.47,0,0,1-.442.3,1.336,1.336,0,0,1-.533.109,1.462,1.462,0,0,1-.437-.065,1.519,1.519,0,0,1-.383-.182,1.353,1.353,0,0,1-.309-.279,1.34,1.34,0,0,1-.212-.364l-1.038-3.03h1.359Z" transform="translate(-1059.047 -651.924)" fill="#fff"/>
    <path id="Path_2216" data-name="Path 2216" d="M1098.166,651.908h3.386v1.006h-3.892Z" transform="translate(-1058.927 -650.288)" fill="#fff"/>
    <path id="Path_2217" data-name="Path 2217" d="M1110.349,660.863a1.781,1.781,0,0,1-.611.562,1.637,1.637,0,0,1-.787.188,2.154,2.154,0,0,1-.672-.1,1.348,1.348,0,0,1-.519-.3,1.362,1.362,0,0,1-.334-.515,2.108,2.108,0,0,1-.118-.741v-4.638h1.281v4.367a1.486,1.486,0,0,0,.035.327.68.68,0,0,0,.126.271.621.621,0,0,0,.252.183,1.079,1.079,0,0,0,.41.067.906.906,0,0,0,.416-.088.76.76,0,0,0,.283-.247,1.1,1.1,0,0,0,.163-.381,2.428,2.428,0,0,0,.06-.495v-4h1.281v6.225h-1.267Z" transform="translate(-1063.557 -651.924)" fill="#fff"/>
    <path id="Path_2218" data-name="Path 2218" d="M1119.916,659.469a2.889,2.889,0,0,1-.521-.047,2.578,2.578,0,0,1-.5-.145,2.271,2.271,0,0,1-.449-.239,1.67,1.67,0,0,1-.361-.335,1.514,1.514,0,0,1-.241-.433,1.532,1.532,0,0,1-.088-.529v-4.554h1.281v4.438a.7.7,0,0,0,.233.572,1.187,1.187,0,0,0,1.287,0,.7.7,0,0,0,.226-.577V650.88h1.281v6.862a1.561,1.561,0,0,1-.086.529,1.492,1.492,0,0,1-.239.433,1.69,1.69,0,0,1-.359.335,2.219,2.219,0,0,1-.445.239,2.56,2.56,0,0,1-.5.145A2.857,2.857,0,0,1,1119.916,659.469Z" transform="translate(-1068.57 -649.795)" fill="#fff"/>
    <path id="Path_2219" data-name="Path 2219" d="M1130.856,657.022a.94.94,0,0,0-.057-.347.631.631,0,0,0-.412-.382,1.091,1.091,0,0,0-.322-.046,1.031,1.031,0,0,0-.408.073.746.746,0,0,0-.281.205.942.942,0,0,0-.173.326,1.794,1.794,0,0,0-.073.428h-1.284a2.454,2.454,0,0,1,.2-.938,1.827,1.827,0,0,1,.484-.646,1.939,1.939,0,0,1,.707-.373,3.058,3.058,0,0,1,.876-.12,3.014,3.014,0,0,1,.754.084,1.955,1.955,0,0,1,.545.228,1.393,1.393,0,0,1,.368.329,1.562,1.562,0,0,1,.222.392,1.98,1.98,0,0,1,.11.419,2.952,2.952,0,0,1,.029.4v4.43h-1.285v-2.924a4.8,4.8,0,0,0-.751.055,1.925,1.925,0,0,0-.593.186,1,1,0,0,0-.389.354,1.033,1.033,0,0,0-.139.556.848.848,0,0,0,.047.29.614.614,0,0,0,.143.227.667.667,0,0,0,.234.149.886.886,0,0,0,.325.055.982.982,0,0,0,.222-.033,1.794,1.794,0,0,0,.309-.111v1.052a1.323,1.323,0,0,1-.354.143,1.393,1.393,0,0,1-.323.044,2.65,2.65,0,0,1-.842-.12,1.478,1.478,0,0,1-.59-.352,1.425,1.425,0,0,1-.344-.574,2.5,2.5,0,0,1-.113-.784,1.784,1.784,0,0,1,.248-.95,2.065,2.065,0,0,1,.676-.674,3.244,3.244,0,0,1,1-.4,5.436,5.436,0,0,1,1.229-.134Z" transform="translate(-1073.343 -651.869)" fill="#fff"/>
    <path id="Path_2220" data-name="Path 2220" d="M1137.45,657.15a2.084,2.084,0,0,1,.163-.848,1.821,1.821,0,0,1,1.047-1,2.014,2.014,0,0,1,.707-.128,2.472,2.472,0,0,1,.778.116,1.588,1.588,0,0,1,.6.35,1.571,1.571,0,0,1,.388.586,2.269,2.269,0,0,1,.137.823v4.424h-1.284v-4.424a.953.953,0,0,0-.156-.594.552.552,0,0,0-.463-.2.538.538,0,0,0-.454.234,1.2,1.2,0,0,0-.193.66Z" transform="translate(-1078.022 -651.857)" fill="#fff"/>
    <path id="Path_2221" data-name="Path 2221" d="M1146.646,656.873a1.715,1.715,0,0,1,.075-.532,1.4,1.4,0,0,1,.2-.4,1.265,1.265,0,0,1,.3-.29,1.719,1.719,0,0,1,.359-.192,1.818,1.818,0,0,1,.385-.106,2.372,2.372,0,0,1,.377-.032h.764V656.4h-.5a1.69,1.69,0,0,0-.2.014.625.625,0,0,0-.223.07.515.515,0,0,0-.183.164.508.508,0,0,0-.076.3.877.877,0,0,0,.058.346.527.527,0,0,0,.16.215.664.664,0,0,0,.238.114,1.662,1.662,0,0,0,.294.046h.447v.982h-.433a1.089,1.089,0,0,0-.315.042.545.545,0,0,0-.246.154.731.731,0,0,0-.161.3,1.816,1.816,0,0,0-.056.495,1.371,1.371,0,0,0,.047.375.677.677,0,0,0,.157.285.712.712,0,0,0,.288.184,1.317,1.317,0,0,0,.443.065,1.137,1.137,0,0,0,.438-.07.594.594,0,0,0,.259-.2.737.737,0,0,0,.123-.3,2.119,2.119,0,0,0,.031-.382v-4.279h1.285v4.48a2,2,0,0,1-.139.769,1.505,1.505,0,0,1-.41.575,1.859,1.859,0,0,1-.668.363,3.033,3.033,0,0,1-.918.126,2.712,2.712,0,0,1-.891-.139,2.016,2.016,0,0,1-.7-.4,1.807,1.807,0,0,1-.458-.644,2.166,2.166,0,0,1-.163-.862,3.5,3.5,0,0,1,.02-.382,1.557,1.557,0,0,1,.09-.374,1.51,1.51,0,0,1,.192-.354,1.417,1.417,0,0,1,.33-.318,1.239,1.239,0,0,1-.3-.273,1.368,1.368,0,0,1-.19-.324,1.558,1.558,0,0,1-.1-.346A2.142,2.142,0,0,1,1146.646,656.873Z" transform="translate(-1082.428 -651.924)" fill="#fff"/>
    <path id="Path_2222" data-name="Path 2222" d="M1158.426,655.925a1.789,1.789,0,0,1,.612-.559,1.636,1.636,0,0,1,.789-.19,2.152,2.152,0,0,1,.668.1,1.312,1.312,0,0,1,.854.82,2.111,2.111,0,0,1,.118.739v4.642h-1.281v-4.367a1.5,1.5,0,0,0-.034-.327.678.678,0,0,0-.127-.271.628.628,0,0,0-.251-.185,1.054,1.054,0,0,0-.41-.069.9.9,0,0,0-.416.088.763.763,0,0,0-.283.248,1.147,1.147,0,0,0-.165.383,2.212,2.212,0,0,0-.059.491v4.008h-1.28v-6.225h1.267Z" transform="translate(-1087.48 -651.857)" fill="#fff"/>
    <path id="Path_2223" data-name="Path 2223" d="M1166.657,657.15a2.076,2.076,0,0,1,.164-.848,1.822,1.822,0,0,1,1.047-1,2.016,2.016,0,0,1,.707-.128,2.471,2.471,0,0,1,.778.116,1.584,1.584,0,0,1,.6.35,1.564,1.564,0,0,1,.388.586,2.266,2.266,0,0,1,.137.823v4.424h-1.285v-4.424a.956.956,0,0,0-.156-.594.552.552,0,0,0-.463-.2.539.539,0,0,0-.455.234,1.21,1.21,0,0,0-.193.66Z" transform="translate(-1092.038 -651.857)" fill="#fff"/>
    <path id="Path_2224" data-name="Path 2224" d="M1177.473,660.4a.248.248,0,0,0,.058.086.128.128,0,0,0,.087.03.07.07,0,0,0,.072-.039.289.289,0,0,0,.016-.106V656.4h-.634v-1.081h1.918v4.912a1.341,1.341,0,0,1-.111.539,1.408,1.408,0,0,1-.3.44,1.47,1.47,0,0,1-.441.3,1.339,1.339,0,0,1-.533.109,1.457,1.457,0,0,1-.437-.065,1.521,1.521,0,0,1-.383-.182,1.358,1.358,0,0,1-.309-.279,1.34,1.34,0,0,1-.212-.364l-1.038-3.03h1.359Z" transform="translate(-1096.149 -651.924)" fill="#fff"/>
  </g>
</svg>
