<svg xmlns="http://www.w3.org/2000/svg" width="73.563" height="46.408" viewBox="0 0 73.563 46.408">
  <g id="Group_1758" data-name="Group 1758" transform="translate(-1130.36 -8683.365)">
    <rect id="Rectangle_515" data-name="Rectangle 515" width="72" height="45" rx="4" transform="translate(1131 8684)" fill="#fff"/>
    <g id="visa-4" transform="translate(1127.526 8646)">
      <path id="Path_2648" data-name="Path 2648" d="M76.4,42.651c0-3.533-1.836-5.286-5.4-5.286H8.232a4.99,4.99,0,0,0-3.951,1.447,5.141,5.141,0,0,0-1.447,3.84V78.486a5.182,5.182,0,0,0,1.447,3.839,5.36,5.36,0,0,0,3.951,1.447H71c3.562,0,5.4-1.78,5.4-5.286ZM71,38.2c2.949,0,4.452,1.5,4.452,4.451V78.486c0,2.977-1.5,4.451-4.452,4.451H8.232a4.294,4.294,0,0,1-4.563-4.451V42.651c0-2.949,1.474-4.451,4.563-4.451Z" fill="#315881" fill-rule="evenodd"/>
      <path id="Path_2649" data-name="Path 2649" d="M13.37,44.724a3.307,3.307,0,0,0-2.365.612,4,4,0,0,0-.528,2.393v7.762H78.029V47.729c0-2.031-1-3-3.005-3Z" transform="translate(-4.638 -4.465)" fill="#315881" fill-rule="evenodd"/>
      <path id="Path_2650" data-name="Path 2650" d="M10.477,128.127c0,2.058.974,3.116,2.893,3.116H75.024c2,0,3.005-1.057,3.005-3.116v-7.762H10.477Z" transform="translate(-4.638 -50.365)" fill="#dfa43b" fill-rule="evenodd"/>
      <path id="Path_2651" data-name="Path 2651" d="M47.058,77.823a1.43,1.43,0,0,1-.195.835l-4.869,8.486-.306-10.35H33.9l2.615,1.252a2.136,2.136,0,0,1,1.141,1.864l.723,10.99h3.812l9.126-14.106H46.641A1.385,1.385,0,0,1,47.058,77.823Zm31.5-.612.306-.418H74.1c.167.167.223.25.223.306a5.345,5.345,0,0,1-.223.528L67.173,90.259c-.167.223-.334.418-.528.641h3.923l-.2-.418a5.982,5.982,0,0,1,.612-1.975l.835-1.558h4.034c.167,1.308.279,2.393.334,3.2l-.334.751h4.869L80,89.842,78.553,77.211Zm-2.894,7.762H72.766l2.476-4.758ZM63.64,76.07a6.415,6.415,0,0,0-3.923,1.252A3.161,3.161,0,0,0,57.853,80.1a4.466,4.466,0,0,0,1.335,3.311l2.7,1.864c.974.7,1.447,1.308,1.447,1.865a1.694,1.694,0,0,1-.723,1.363,2.606,2.606,0,0,1-1.67.528c-.974,0-2.643-.7-4.952-1.975v2.587a10.243,10.243,0,0,0,5.258,1.642,6.089,6.089,0,0,0,4.146-1.447,3.65,3.65,0,0,0,.417-6.093l-2.588-1.864c-.861-.7-1.335-1.308-1.335-1.78,0-1.085.64-1.642,1.948-1.642a8.749,8.749,0,0,1,3.95,1.558l.529-2.7A9.271,9.271,0,0,0,63.64,76.07ZM53.29,90.9c-.056-.584-.167-1.113-.223-1.67L56.6,77.823l.835-1.029H52.344c.056.25.111.584.167.835a4.337,4.337,0,0,1-.056.835l-3.533,11.3L48.2,90.9H53.29Z" transform="translate(-18.85 -23.486)" fill="#315881" fill-rule="evenodd"/>
    </g>
  </g>
</svg>
