<svg xmlns="http://www.w3.org/2000/svg" width="151" height="151" viewBox="0 0 151 151"><g transform="translate(-182.344 -149.417)"><circle cx="75.5" cy="75.5" r="75.5" transform="translate(182.344 149.417)" fill="#1a256c"/><g transform="translate(216.162 182.77)"><path d="M267.44,206.277l-.8-.358c.059-1.127-1.2-2.4-3.242-3.115-2.537-.889-5.324-.589-6.226.673s.425,3,2.962,3.9a8.407,8.407,0,0,0,4.284.384l1.607.716c1.05.468,1.617,1.2,1.557,2.01-.065.848-.813,1.583-2,1.963l-10.67,3.408c.256-14.736.456-26.27.493-28.384a3.76,3.76,0,0,0,2.669-3.4c0-2.052-2-3.715-4.473-3.715s-4.473,1.663-4.473,3.715a3.748,3.748,0,0,0,2.617,3.38c.036,2.056.236,13.561.492,28.289l-10.309-3.294c-1.19-.381-1.939-1.115-2-1.963-.061-.81.506-1.542,1.556-2.01l1.607-.716a8.407,8.407,0,0,0,4.284-.384c2.537-.89,3.863-2.634,2.962-3.9s-3.689-1.562-6.226-.673c-2.043.717-3.3,1.988-3.242,3.115l-.8.358a5.8,5.8,0,0,0-2.419,1.89,3.781,3.781,0,0,0-.713,2.471c.138,1.82,1.64,3.4,3.92,4.131l8.727,2.788-4.62,1.476c-2.281.729-3.783,2.313-3.92,4.132a3.776,3.776,0,0,0,.714,2.471,5.8,5.8,0,0,0,2.42,1.89l6.408,2.853-4.227,1.881a4.234,4.234,0,0,0-.074,8.161l4.373,2.005-1.089.5c-1.962.9-3.109,2.45-3.069,4.148s1.279,3.24,3.31,4.084l.6.252-.284.118a5.688,5.688,0,0,0-2.817,2.342,3.625,3.625,0,0,0-.2,3.235l.672,1.605a1.51,1.51,0,0,0,1.417.838,1.8,1.8,0,0,0,.492-.069,1.207,1.207,0,0,0,.925-1.586l-.672-1.605c-.4-.965.212-1.983,1.532-2.532l1.42-.591c.038,2.163.074,4.3.111,6.382a.589.589,0,0,0,1.156,0c.037-2.135.074-4.317.113-6.53l1.776.739c1.32.55,1.936,1.568,1.532,2.532l-.671,1.605a1.207,1.207,0,0,0,.924,1.586,1.8,1.8,0,0,0,.493.069,1.511,1.511,0,0,0,1.417-.838l.671-1.605a3.625,3.625,0,0,0-.2-3.235,5.679,5.679,0,0,0-2.817-2.342l-.284-.118.6-.252c2.03-.844,3.268-2.372,3.309-4.084s-1.106-3.248-3.068-4.148l-1.09-.5,4.373-2.005a4.234,4.234,0,0,0-.074-8.161l-4.226-1.881,6.408-2.853a5.8,5.8,0,0,0,2.419-1.89,3.776,3.776,0,0,0,.714-2.471c-.137-1.82-1.639-3.4-3.919-4.132l-4.62-1.476,8.727-2.788c2.28-.729,3.782-2.311,3.919-4.131a3.775,3.775,0,0,0-.713-2.471A5.794,5.794,0,0,0,267.44,206.277ZM244.026,223.32c.064-.848.812-1.583,2-1.963l6.265-2c.052,2.925.1,5.95.157,9.031l-6.867-3.056C244.533,224.863,243.965,224.13,244.026,223.32Zm2.177,13.027a2.24,2.24,0,0,1,1.561-1.891l4.755-2.117c.046,2.7.094,5.436.141,8.167l-4.938-2.264A2.212,2.212,0,0,1,246.2,236.347Zm3.284,10.677a2.194,2.194,0,0,1,1.519-1.918l1.722-.789q.045,2.67.092,5.313l-1.679-.7A2.293,2.293,0,0,1,249.487,247.024Zm8.523,0a2.292,2.292,0,0,1-1.654,1.907l-2.04.85c.032-1.863.065-3.742.1-5.627l2.076.952A2.192,2.192,0,0,1,258.01,247.024Zm3.284-10.677a2.212,2.212,0,0,1-1.52,1.894l-5.3,2.429c.048-2.839.1-5.679.148-8.49l5.11,2.276A2.239,2.239,0,0,1,261.294,236.347Zm2.178-13.027c.06.81-.507,1.543-1.558,2.011l-7.229,3.217c.055-3.177.109-6.295.162-9.306l6.622,2.115C262.659,221.738,263.407,222.472,263.472,223.32Z" transform="translate(-211.9 -180.354)" fill="#fff"/><path d="M277.217,190.2c-3.367-1.952-8.03-5.445-9.8-6.442-3.384-1.9-4.734,1.16-6.346,2.617A8.9,8.9,0,0,1,255.5,188.9v11.505c1.245-.307,2.364-.59,3.494-.838,1.152-.252,2.668,1.328,6.992-.066,2.144-.69,4,1.33,8.172-.233,1.607-.6,5.347,1.338,9.621-.771,2.062-1.018,5.981.941,10.038-3.806C291.583,194.344,285.948,195.267,277.217,190.2Z" transform="translate(-210.449 -180.135)" fill="#fff"/><path d="M248.534,199.57c1.131.248,2.25.53,3.494.838V188.9a8.909,8.909,0,0,1-5.575-2.523c-1.611-1.456-2.962-4.52-6.346-2.617-1.77,1-6.433,4.489-9.8,6.442-8.731,5.063-14.366,4.14-16.6,4.49,4.056,4.747,7.975,2.788,10.037,3.806,4.275,2.109,8.015.168,9.621.771,4.174,1.563,6.029-.457,8.173.233C245.867,200.9,247.382,199.318,248.534,199.57Z" transform="translate(-213.712 -180.135)" fill="#fff"/></g></g></svg>