<svg xmlns="http://www.w3.org/2000/svg" width="151.001" height="151.001" viewBox="0 0 151.001 151.001"><g transform="translate(-1078.121 -149.419)"><circle cx="75.5" cy="75.5" r="75.5" transform="translate(1078.121 149.419)" fill="#1a256c"/><g transform="translate(1120.739 180.559)"><g transform="translate(0 17.049)"><path d="M1170.52,257.8h-51.745a1.122,1.122,0,0,1-1.122-1.122V195.239a1.122,1.122,0,0,1,1.122-1.122H1146.3a1.122,1.122,0,1,1,0,2.245h-26.4v59.19h49.5v-28.4a1.122,1.122,0,1,1,2.245,0v29.522A1.123,1.123,0,0,1,1170.52,257.8Z" transform="translate(-1117.652 -194.117)" fill="#fff"/><g transform="translate(10.853 20.973)"><path d="M1143.861,245.855A16.142,16.142,0,1,1,1160,229.712,16.161,16.161,0,0,1,1143.861,245.855Zm0-30.039a13.9,13.9,0,1,0,13.9,13.9A13.913,13.913,0,0,0,1143.861,215.816Z" transform="translate(-1127.719 -213.571)" fill="#fff"/></g><g transform="translate(15.504 25.624)"><path d="M1143.524,240.867a11.491,11.491,0,1,1,11.49-11.491A11.5,11.5,0,0,1,1143.524,240.867Zm0-20.737a9.246,9.246,0,1,0,9.246,9.246A9.257,9.257,0,0,0,1143.524,220.13Z" transform="translate(-1132.033 -217.885)" fill="#fff"/></g><g transform="translate(0.259 10.016)"><path d="M1146.6,205.652h-27.591a1.122,1.122,0,1,1,0-2.245H1146.6a1.122,1.122,0,1,1,0,2.245Z" transform="translate(-1117.892 -203.407)" fill="#fff"/></g><g transform="translate(25.873 29.188)"><path d="M1149.21,228.028a1.123,1.123,0,0,1-1.061-.758,5.684,5.684,0,0,0-5.375-3.835,1.122,1.122,0,1,1,0-2.245,7.929,7.929,0,0,1,7.5,5.35,1.122,1.122,0,0,1-.7,1.426A1.134,1.134,0,0,1,1149.21,228.028Z" transform="translate(-1141.651 -221.191)" fill="#fff"/></g></g><g transform="translate(32.311)"><path d="M1167.971,224.95a1.122,1.122,0,0,1-.562-.15l-19.227-11.1a1.12,1.12,0,0,1-.561-.971v-22.2a1.123,1.123,0,0,1,.561-.972l19.227-11.1a1.117,1.117,0,0,1,1.122,0l19.228,11.1a1.123,1.123,0,0,1,.561.972v22.2a1.12,1.12,0,0,1-.561.971l-19.228,11.1A1.119,1.119,0,0,1,1167.971,224.95Zm-18.1-12.87,18.1,10.452,18.1-10.452V191.174l-18.1-10.453-18.1,10.453Z" transform="translate(-1147.622 -178.303)" fill="#fff"/></g><g transform="translate(40.906 11.645)"><path d="M1166.868,215.451a1.124,1.124,0,0,1-.933-.5l-10.15-15.168a1.122,1.122,0,1,1,1.865-1.248l8.689,12.984a55.921,55.921,0,0,1,11.436-22.028,1.122,1.122,0,0,1,1.7,1.466,53.665,53.665,0,0,0-11.5,23.55,1.118,1.118,0,0,1-1.108.941Z" transform="translate(-1155.595 -189.104)" fill="#fff"/></g></g></g></svg>