<svg xmlns="http://www.w3.org/2000/svg" width="151.001" height="151.001" viewBox="0 0 151.001 151.001"><g transform="translate(-507.181 -149.419)"><circle cx="75.5" cy="75.5" r="75.5" transform="translate(507.181 149.419)" fill="#1a256c"/><path d="M632.106,242.664l-1.152-9.811c-1.332-11.985-3.544-31.64-3.942-33.559,0-.022-.013-.039-.017-.06a5.862,5.862,0,0,0-5.8-5.051H540.649a5.861,5.861,0,0,0-5.8,5.05c0,.022-.013.039-.017.061-.4,1.921-2.623,21.688-3.953,33.665l-1.14,9.7a4.959,4.959,0,0,0,4.348,5.508,2.894,2.894,0,0,0,.682.029l19.3-2.291a58.858,58.858,0,0,1,8.7-.379l.807.025a4.458,4.458,0,0,1,1.838.461,22.245,22.245,0,0,1,2.373,1.339,7.849,7.849,0,0,0,1.508.76,3.975,3.975,0,0,0,1.595.446,7.756,7.756,0,0,0,1.216.1h17.647a7.758,7.758,0,0,0,1.216-.1,3.96,3.96,0,0,0,1.591-.446,7.844,7.844,0,0,0,1.512-.76,22.137,22.137,0,0,1,2.371-1.339,4.467,4.467,0,0,1,1.838-.461l.809-.025a58.575,58.575,0,0,1,8.7.379l19.3,2.291a2.774,2.774,0,0,0,.682-.029A4.968,4.968,0,0,0,632.106,242.664Zm-2.389-5.389a37.429,37.429,0,0,0-6.98-7.506c-.772-.687-1.835-1.454-3.065-2.344-4.755-3.436-11.942-8.629-11.777-16.15.2-9.194,12.635-12.972,12.738-13l2.245-.6a1.881,1.881,0,0,1,.481-.063,1.85,1.85,0,0,1,1.743,1.2,6.109,6.109,0,0,1,.223.806l3.9,33.209C629.405,234.474,629.573,235.978,629.717,237.275ZM580.922,195.9H621.2a4.12,4.12,0,0,1,1.08.161l-2.1.558c-.562.165-13.763,4.165-13.993,14.618-.184,8.422,7.442,13.933,12.489,17.579,1.192.862,2.222,1.606,2.929,2.235,3.193,2.838,6.789,6.056,8.567,10.987-.891.521-5.734-.857-8.987-1.785-2.079-.593-4.435-1.265-6.787-1.83a87.841,87.841,0,0,0-9.3-1.669l-.319-.043a13.618,13.618,0,0,0-5.1-.015.758.758,0,0,1-.581-.549,24.231,24.231,0,0,0-3.507-6.271,10.044,10.044,0,0,0-7.882-3.787H574.148a10.046,10.046,0,0,0-7.883,3.787,24.239,24.239,0,0,0-3.506,6.272.755.755,0,0,1-.593.544,13.666,13.666,0,0,0-5.088.018l-.319.043a88.308,88.308,0,0,0-9.305,1.668c-2.351.566-4.708,1.238-6.787,1.831-3.257.928-8.1,2.308-8.987,1.786,1.777-4.929,5.373-8.149,8.567-10.988.707-.629,1.737-1.371,2.928-2.234,5.048-3.646,12.674-9.157,12.49-17.581-.23-10.453-13.431-14.453-14.014-14.624l-2.084-.552a4.135,4.135,0,0,1,1.081-.161Zm-44.4,3.723a6.038,6.038,0,0,1,.224-.8,1.852,1.852,0,0,1,1.743-1.2,1.881,1.881,0,0,1,.481.063l2.222.589c.125.037,12.558,3.814,12.76,13.008.165,7.521-7.023,12.715-11.778,16.151-1.23.889-2.293,1.656-3.064,2.343a37.491,37.491,0,0,0-6.98,7.507c.141-1.269.3-2.738.482-4.338Zm27.1,44.214-.809-.024a60.561,60.561,0,0,0-8.953.39l-19.241,2.284c-.112,0-.222-.01-.333-.023a3.2,3.2,0,0,1-2.813-2.718c1.706.375,4.7-.426,9.664-1.842,2.062-.589,4.4-1.255,6.718-1.812a86.346,86.346,0,0,1,9.126-1.635l.324-.043c2.065-.276,4.63-.619,5.967.8a9.857,9.857,0,0,1,1.753,3.2c.25.623.508,1.269.827,1.891l.019.038A6.16,6.16,0,0,0,563.623,243.837Zm17.3,3.108H572.1a6.054,6.054,0,0,1-2-.354,7.154,7.154,0,0,1-2.716-3.062c-.282-.552-.514-1.132-.761-1.748a11.3,11.3,0,0,0-2.1-3.739,4.478,4.478,0,0,0-.594-.522,2.587,2.587,0,0,0,.47-.873,22.971,22.971,0,0,1,3.205-5.7,8.334,8.334,0,0,1,6.541-3.143H587.7a8.334,8.334,0,0,1,6.541,3.143,22.971,22.971,0,0,1,3.205,5.7,2.567,2.567,0,0,0,.471.872,4.419,4.419,0,0,0-.594.523,11.279,11.279,0,0,0-2.1,3.739c-.247.616-.479,1.2-.761,1.748a7.143,7.143,0,0,1-2.718,3.063,6.044,6.044,0,0,1-2,.353Zm46.635-.48c-.112.013-.222.02-.334.023L607.982,244.2a60.568,60.568,0,0,0-8.953-.39l-.81.024a6.159,6.159,0,0,0-2.25.513l.019-.038c.319-.622.577-1.268.827-1.891a9.818,9.818,0,0,1,1.754-3.2c1.336-1.423,3.9-1.079,5.966-.8l.324.043a86.449,86.449,0,0,1,9.126,1.635c2.317.557,4.655,1.224,6.718,1.812,4.97,1.418,7.96,2.218,9.665,1.842a3.207,3.207,0,0,1-2.813,2.718Z" transform="translate(1.759 3.496)" fill="#fff"/></g></svg>