<svg xmlns="http://www.w3.org/2000/svg" width="57.339" height="50.846" viewBox="0 0 57.339 50.846"><path d="M445.472,139.747a3.854,3.854,0,0,1-3.378-2,34.639,34.639,0,0,0-13.278-13.73,3.854,3.854,0,1,1,3.7-6.76,40.035,40.035,0,0,1,12.353,10.7c7.56-15.128,18.487-27.893,31.267-36.4a3.854,3.854,0,1,1,4.272,6.417c-13.308,8.859-24.454,22.855-31.385,39.409a3.854,3.854,0,0,1-3.352,2.36c-.068,0-.136.005-.2.005" transform="translate(-425.802 -89.901)" fill="#5ccb4a" stroke="#5ccb4a" stroke-width="2"/></svg>