<svg xmlns="http://www.w3.org/2000/svg" width="37.775" height="33.033" viewBox="0 0 37.775 33.033"><path d="M308.932,86.5l-.532-.334c-.654-.41-16.035-10.143-17.837-18.257a10.645,10.645,0,0,1-.524-3.329,11.106,11.106,0,0,1,18.891-7.927,11.1,11.1,0,0,1,13.14-1.805l0,0a11.144,11.144,0,0,1,5.742,9.73A10.964,10.964,0,0,1,327.263,68c-1.782,8.019-17.146,17.752-17.8,18.162Zm-7.793-31.032a9.1,9.1,0,0,0-9.1,9.112,8.937,8.937,0,0,0,.45,2.8c1.472,6.6,13.724,14.964,16.443,16.748,2.716-1.784,14.952-10.134,16.4-16.653a9.271,9.271,0,0,0,.477-2.895A9.144,9.144,0,0,0,321.1,56.6a9.1,9.1,0,0,0-11.4,2.169l-.768.93-.771-.928A9.115,9.115,0,0,0,301.139,55.469Z" transform="translate(-290.039 -53.469)" fill="#323232"/></svg>