<svg xmlns="http://www.w3.org/2000/svg" xmlns:xlink="http://www.w3.org/1999/xlink" width="44.887" height="44.963" viewBox="0 0 44.887 44.963"><defs><linearGradient id="a" x1="0.011" y1="-0.623" x2="1.058" y2="1.781" gradientUnits="objectBoundingBox"><stop offset="0" stop-color="#f1f2f2"/><stop offset="1" stop-color="#d1d3d4"/></linearGradient></defs><path d="M5070.984-28.544a.944.944,0,0,0-.944.945v4.848a.944.944,0,0,0,.944.945.944.944,0,0,0,.945-.945V-27.6A.944.944,0,0,0,5070.984-28.544Z" transform="translate(-5048.541 28.544)" fill="#ffce00"/><path d="M5022.935-14.986a.943.943,0,0,0-1.29-.346.944.944,0,0,0-.346,1.291l2.423,4.2a.945.945,0,0,0,.82.472.948.948,0,0,0,.472-.126.945.945,0,0,0,.345-1.291Z" transform="translate(-5010.423 18.338)" fill="#ffce00"/><path d="M4991.017,22.867l-4.2-2.425a.945.945,0,0,0-.944,1.637l4.2,2.424a.945.945,0,1,0,.945-1.636Z" transform="translate(-4982.521 -9.567)" fill="#ffce00"/><path d="M5141.208,109.582l-4.2-2.424a.945.945,0,1,0-.944,1.637l4.2,2.424a.937.937,0,0,0,.471.127.944.944,0,0,0,.473-1.763Z" transform="translate(-5099.672 -77.205)" fill="#ffce00"/><path d="M4979.05,70.13a.943.943,0,0,0-.944-.944h-4.849a.945.945,0,0,0,0,1.889h4.849A.944.944,0,0,0,4979.05,70.13Z" transform="translate(-4972.313 -47.686)" fill="#ffce00"/><path d="M5151.524,69.186h-4.849a.945.945,0,0,0,0,1.889h4.849a.945.945,0,0,0,0-1.889Z" transform="translate(-5107.581 -47.686)" fill="#ffce00"/><path d="M4990.072,107.156l-4.2,2.424a.945.945,0,1,0,.944,1.636l4.2-2.424a.945.945,0,1,0-.945-1.637Z" transform="translate(-4982.521 -77.204)" fill="#ffce00"/><path d="M5136.538,24.629a.932.932,0,0,0,.471-.127l4.2-2.424a.945.945,0,1,0-.944-1.637l-4.2,2.425a.945.945,0,0,0,.474,1.763Z" transform="translate(-5099.672 -9.566)" fill="#ffce00"/><path d="M5111.727-15.332a.942.942,0,0,0-1.291.346l-2.424,4.2a.944.944,0,0,0,.347,1.291.943.943,0,0,0,.471.126.946.946,0,0,0,.819-.472l2.424-4.2A.944.944,0,0,0,5111.727-15.332Z" transform="translate(-5078.06 18.338)" fill="#ffce00"/><g transform="translate(9.23 9.207)"><path d="M5025.971,13.393a13.2,13.2,0,0,0-5.294,24.442,2.143,2.143,0,0,1,1.047,1.831v.009a.106.106,0,0,0,.108.108h11.3a.107.107,0,0,0,.107-.108v-.012a2.137,2.137,0,0,1,1.046-1.828,13.207,13.207,0,0,0-8.316-24.442Z" transform="translate(-5014.268 -13.309)" fill="#ffce00"/><g transform="translate(15.856 2.761)"><path d="M5092.6,31.278a.472.472,0,0,1-.4-.222,10.016,10.016,0,0,0-5.521-4.271.472.472,0,0,1,.281-.9A10.965,10.965,0,0,1,5093,30.556a.474.474,0,0,1-.151.651A.484.484,0,0,1,5092.6,31.278Z" transform="translate(-5086.344 -25.861)" fill="#fff"/></g><path d="M5063.193,168.691h-3.628a1.757,1.757,0,0,1-1.757-1.757v-.13a.13.13,0,0,1,.13-.13h7.013a.129.129,0,0,1,.129.13h0A1.887,1.887,0,0,1,5063.193,168.691Z" transform="translate(-5048.229 -132.935)" fill="#fff"/><path d="M5048.157,137.4v3.692a2.121,2.121,0,0,0,2.122,2.122h7.274a2.121,2.121,0,0,0,2.122-2.122V137.4a.11.11,0,0,0-.109-.11h-11.3A.11.11,0,0,0,5048.157,137.4Z" transform="translate(-5040.702 -110.016)" fill="#fff"/><rect width="11.518" height="0.944" transform="translate(7.455 28.432)" fill="url(#a)"/><rect width="11.518" height="0.944" transform="translate(7.455 30.237)" fill="url(#a)"/><path d="M5057.037,67.7a2.268,2.268,0,0,0-2.266,2.265v1.32h-2.751v-1.32a2.265,2.265,0,1,0-2.264,2.265h1.319v9.98h.945v-9.98h2.762v9.98h.946v-9.98h1.31a2.265,2.265,0,0,0,0-4.529Zm-5.962,3.585h-1.319a1.32,1.32,0,1,1,1.319-1.32Zm5.962,0h-1.32v-1.32a1.32,1.32,0,1,1,1.32,1.32Z" transform="translate(-5040.182 -55.732)" fill="#fff"/></g></svg>