<svg xmlns="http://www.w3.org/2000/svg" width="110.254" height="110.053" viewBox="0 0 110.254 110.053"><g transform="translate(5354.74 16699.679)"><path d="M1343.012,529.549h0a4.083,4.083,0,0,1,6.938.877h0a4.083,4.083,0,0,0,6.209,1.594h0a4.083,4.083,0,0,1,6.5,2.575h0a4.083,4.083,0,0,0,5.617,3.088h0a4.084,4.084,0,0,1,5.658,4.111h0a4.083,4.083,0,0,0,4.672,4.388h0a4.084,4.084,0,0,1,4.458,5.389h0a4.083,4.083,0,0,0,3.435,5.412h0a4.082,4.082,0,0,1,2.978,6.327h0a4.084,4.084,0,0,0,1.981,6.1h0a4.083,4.083,0,0,1,1.31,6.87h0a4.083,4.083,0,0,0,.4,6.4h0a4.083,4.083,0,0,1-.438,6.98h0a4.083,4.083,0,0,0-1.2,6.3h0a4.083,4.083,0,0,1-2.161,6.652h0a4.083,4.083,0,0,0-2.73,5.8h0a4.083,4.083,0,0,1-3.748,5.905h0a4.083,4.083,0,0,0-4.086,4.939h0a4.084,4.084,0,0,1-5.1,4.788h0a4.083,4.083,0,0,0-5.185,3.767h0a4.083,4.083,0,0,1-6.129,3.37h0a4.083,4.083,0,0,0-5.96,2.359h0a4.083,4.083,0,0,1-6.774,1.74h0a4.082,4.082,0,0,0-6.359.8h0a4.084,4.084,0,0,1-6.994,0h0a4.082,4.082,0,0,0-6.359-.8h0a4.083,4.083,0,0,1-6.774-1.74h0a4.083,4.083,0,0,0-5.96-2.359h0a4.084,4.084,0,0,1-6.129-3.37h0a4.083,4.083,0,0,0-5.185-3.767h0a4.083,4.083,0,0,1-5.1-4.788h0a4.084,4.084,0,0,0-4.086-4.939h0a4.083,4.083,0,0,1-3.748-5.905h0a4.083,4.083,0,0,0-2.729-5.8h0a4.084,4.084,0,0,1-2.162-6.652h0a4.083,4.083,0,0,0-1.2-6.3h0a4.083,4.083,0,0,1-.438-6.98h0a4.082,4.082,0,0,0,.4-6.4h0a4.084,4.084,0,0,1,1.31-6.87h0a4.084,4.084,0,0,0,1.981-6.1h0a4.083,4.083,0,0,1,2.978-6.327h0a4.083,4.083,0,0,0,3.435-5.412h0a4.084,4.084,0,0,1,4.458-5.389h0a4.083,4.083,0,0,0,4.673-4.388h0a4.083,4.083,0,0,1,5.658-4.111h0a4.083,4.083,0,0,0,5.617-3.088h0a4.083,4.083,0,0,1,6.5-2.575h0a4.084,4.084,0,0,0,6.21-1.594h0a4.082,4.082,0,0,1,6.938-.877h0A4.084,4.084,0,0,0,1343.012,529.549Z" transform="translate(-6639.42 -17227.674)" fill="#203a72"/><g transform="translate(-5329.269 -16678.412)"><g transform="translate(5.761 4.231)"><path d="M1323.863,567.735a6.551,6.551,0,1,1,6.551-6.55A6.558,6.558,0,0,1,1323.863,567.735Zm0-11.214a4.664,4.664,0,1,0,4.664,4.664A4.669,4.669,0,0,0,1323.863,556.521Z" transform="translate(-1317.312 -554.634)" fill="#d6e9ff"/></g><g transform="translate(11.304 22.097)"><path d="M1329.719,586.532a6.615,6.615,0,1,1,6.615-6.615A6.623,6.623,0,0,1,1329.719,586.532Zm0-11.343a4.728,4.728,0,1,0,4.728,4.728A4.733,4.733,0,0,0,1329.719,575.188Z" transform="translate(-1323.104 -573.301)" fill="#d6e9ff"/></g><g transform="translate(26.354 34.455)"><path d="M1347.407,603.371a8.579,8.579,0,1,1,8.578-8.579A8.588,8.588,0,0,1,1347.407,603.371Zm0-15.27a6.691,6.691,0,1,0,6.691,6.691A6.7,6.7,0,0,0,1347.407,588.1Z" transform="translate(-1338.829 -586.213)" fill="#d6e9ff"/></g><g transform="translate(50.295 19.828)"><path d="M1371.309,585.862a7.466,7.466,0,1,1,7.468-7.465A7.474,7.474,0,0,1,1371.309,585.862Zm0-13.045a5.579,5.579,0,1,0,5.58,5.58A5.586,5.586,0,0,0,1371.309,572.817Z" transform="translate(-1363.843 -570.93)" fill="#d6e9ff"/></g><g transform="translate(52.138 43.862)"><path d="M1371.392,607.288a5.623,5.623,0,1,1,5.623-5.623A5.629,5.629,0,0,1,1371.392,607.288Zm0-9.358a3.735,3.735,0,1,0,3.735,3.735A3.74,3.74,0,0,0,1371.392,597.929Z" transform="translate(-1365.769 -596.042)" fill="#d6e9ff"/></g><g transform="translate(40.273 30.052)"><path d="M1354.317,591.2a.944.944,0,0,1-.536-1.721l11.175-7.7a.943.943,0,0,1,1.071,1.553l-11.176,7.7A.933.933,0,0,1,1354.317,591.2Z" transform="translate(-1353.372 -581.613)" fill="#d6e9ff"/></g><g transform="translate(21.314 31.421)"><path d="M1341.341,590.683a.937.937,0,0,1-.607-.222l-6.835-5.753a.944.944,0,0,1,1.216-1.444l6.834,5.754a.943.943,0,0,1-.608,1.665Z" transform="translate(-1333.563 -583.043)" fill="#d6e9ff"/></g><g transform="translate(13.042 15.192)"><path d="M1328.1,575.136a.944.944,0,0,1-.9-.662l-2.24-7.163a.943.943,0,1,1,1.8-.563l2.241,7.163a.944.944,0,0,1-.619,1.182A.959.959,0,0,1,1328.1,575.136Z" transform="translate(-1324.92 -566.087)" fill="#d6e9ff"/></g><g transform="translate(32.783 16.496)"><path d="M1350.638,577.631a5.091,5.091,0,1,1,5.091-5.092A5.1,5.1,0,0,1,1350.638,577.631Zm0-8.3a3.2,3.2,0,1,0,3.2,3.2A3.208,3.208,0,0,0,1350.638,569.336Z" transform="translate(-1345.546 -567.449)" fill="#d6e9ff"/></g><g transform="translate(8.076 42.09)"><path d="M1326.24,607.208a6.509,6.509,0,1,1,6.509-6.509A6.517,6.517,0,0,1,1326.24,607.208Zm0-11.131a4.622,4.622,0,1,0,4.622,4.622A4.627,4.627,0,0,0,1326.24,596.077Z" transform="translate(-1319.731 -594.19)" fill="#d6e9ff"/></g><g transform="translate(13.641 44.103)"><path d="M1326.489,601.734a.944.944,0,0,1-.248-1.855l12.984-3.551a.944.944,0,0,1,.5,1.82l-12.984,3.551A.936.936,0,0,1,1326.489,601.734Z" transform="translate(-1325.546 -596.294)" fill="#d6e9ff"/></g><g transform="translate(35.026 20.644)"><path d="M1348.834,587.554a1,1,0,0,1-.129-.009.944.944,0,0,1-.807-1.063L1349.8,572.6a.943.943,0,0,1,1.869.256l-1.905,13.884A.943.943,0,0,1,1348.834,587.554Z" transform="translate(-1347.89 -571.783)" fill="#d6e9ff"/></g><g transform="translate(56.817 32.874)"><path d="M1371.6,597.437a.943.943,0,0,1-.944-.944V585.5a.944.944,0,0,1,1.887,0v10.989A.943.943,0,0,1,1371.6,597.437Z" transform="translate(-1370.658 -584.561)" fill="#d6e9ff"/></g><g transform="translate(0 14.807)"><path d="M1317.052,604.75a.939.939,0,0,1-.471-.126l-4.816-2.78a.944.944,0,0,1-.472-.817v-32.8a.944.944,0,0,1,.472-.818l2.761-1.594a.944.944,0,0,1,.944,1.635l-2.289,1.322v31.715l4.344,2.507a.944.944,0,0,1-.473,1.761Z" transform="translate(-1311.293 -565.684)" fill="#d6e9ff"/></g><g transform="translate(19.974 0)"><path d="M1367.369,567.013a.931.931,0,0,1-.471-.126l-25.357-14.639-7.963,4.6a.944.944,0,0,1-.944-1.635l8.435-4.87a.944.944,0,0,1,.944,0l25.829,14.912a.944.944,0,0,1-.473,1.761Z" transform="translate(-1332.163 -550.213)" fill="#d6e9ff"/></g><g transform="translate(13.974 53.698)"><path d="M1341.272,620.115a.942.942,0,0,1-.472-.126l-14.434-8.333a.944.944,0,0,1,.944-1.635l13.963,8.062,20.154-11.637a.944.944,0,0,1,.944,1.636l-20.626,11.908A.945.945,0,0,1,1341.272,620.115Z" transform="translate(-1325.894 -606.319)" fill="#d6e9ff"/></g><g transform="translate(26.566 9.839)"><rect width="1.887" height="1.887" fill="#d6e9ff"/><g transform="translate(7.516)"><rect width="1.887" height="1.887" fill="#d6e9ff"/></g></g><g transform="translate(5.76 37.174)"><rect width="1.887" height="1.887" fill="#d6e9ff"/><g transform="translate(6.867)"><rect width="1.887" height="1.887" fill="#d6e9ff"/></g></g><g transform="translate(26.566 55.418)"><rect width="1.887" height="1.887" fill="#d6e9ff"/><g transform="translate(6.975)"><rect width="1.888" height="1.887" fill="#d6e9ff"/></g></g></g></g></svg>