<svg xmlns="http://www.w3.org/2000/svg" width="56.949" height="37.327" viewBox="0 0 56.949 37.327"><g transform="translate(0 0)"><g transform="translate(0 0)"><g transform="translate(0 0)"><g transform="translate(1.72)"><path d="M4959.673,1813.22h-5.4a1.2,1.2,0,0,1,0-2.405h4.2v-9.073l-6.794-10.946h-9.725v20.018h1.407a1.2,1.2,0,0,1,0,2.405h-2.61a1.2,1.2,0,0,1-1.2-1.2v-22.423a1.2,1.2,0,0,1,1.2-1.2h11.6a1.2,1.2,0,0,1,1.022.568l7.328,11.805a1.211,1.211,0,0,1,.181.634v10.618A1.2,1.2,0,0,1,4959.673,1813.22Z" transform="translate(-4905.647 -1781.95)" fill="#fff"/><path d="M4803.367,1865.321h-2.712a1.2,1.2,0,0,1-1.2-1.2v-5.8h-7.146a1.2,1.2,0,0,1,0-2.405h8.349a1.2,1.2,0,0,1,1.2,1.2v5.8h1.51a1.2,1.2,0,1,1,0,2.405Z" transform="translate(-4791.103 -1834.051)" fill="#fff"/><path d="M4828.865,1809.587a1.2,1.2,0,0,1-1.2-1.2v-6.878a1.2,1.2,0,1,1,2.4,0v6.878A1.2,1.2,0,0,1,4828.865,1809.587Z" transform="translate(-4819.313 -1791.142)" fill="#fff"/><path d="M4854.414,1791.456H4843.6a1.2,1.2,0,1,1,0-2.405h9.607v-21.708a5.452,5.452,0,0,0-1.32-3.529,4.66,4.66,0,0,0-3.461-1.221h-18.365v3.369a1.2,1.2,0,1,1-2.4,0v-4.572a1.2,1.2,0,0,1,1.2-1.2h19.566a6.945,6.945,0,0,1,5.2,1.962,7.848,7.848,0,0,1,1.991,5.226v22.879A1.2,1.2,0,0,1,4854.414,1791.456Z" transform="translate(-4819.313 -1760.186)" fill="#fff"/><path d="M4960.656,1881.253a6.272,6.272,0,1,1,6.269-6.272A6.279,6.279,0,0,1,4960.656,1881.253Zm0-10.139a3.867,3.867,0,1,0,3.864,3.867A3.871,3.871,0,0,0,4960.656,1871.115Z" transform="translate(-4917.097 -1843.926)" fill="#fff"/><path d="M4848.774,1881.253a6.272,6.272,0,1,1,6.271-6.272A6.279,6.279,0,0,1,4848.774,1881.253Zm0-10.139a3.867,3.867,0,1,0,3.866,3.867A3.871,3.871,0,0,0,4848.774,1871.115Z" transform="translate(-4830.765 -1843.926)" fill="#fff"/></g><path d="M4977.246,1817.949h-13.074a1.2,1.2,0,0,1-1.2-1.2v-6.491a1.2,1.2,0,0,1,1.2-1.2h3.51a1.2,1.2,0,0,1,0,2.405h-2.307v4.086h11.872a1.2,1.2,0,1,1,0,2.405Z" transform="translate(-4922.001 -1797.894)" fill="#fff"/><path d="M4819.616,1782.612H4805.86a1.2,1.2,0,1,1,0-2.405h13.756a1.2,1.2,0,0,1,0,2.405Z" transform="translate(-4799.843 -1775.635)" fill="#fff"/><path d="M4796.187,1802.708h-3.882a1.2,1.2,0,1,1,0-2.405h3.882a1.2,1.2,0,1,1,0,2.405Z" transform="translate(-4789.382 -1791.142)" fill="#fff"/><path d="M4812.523,1832.829h-10.76a1.2,1.2,0,1,1,0-2.405h10.76a1.2,1.2,0,0,1,0,2.405Z" transform="translate(-4796.681 -1814.384)" fill="#fff"/><path d="M4784.863,1832.829h-.087a1.2,1.2,0,0,1,0-2.405h.087a1.2,1.2,0,1,1,0,2.405Z" transform="translate(-4783.574 -1814.384)" fill="#fff"/></g></g></g></svg>